<?xml version="1.0" encoding="utf-8"?>
<!-- Generator: Adobe Illustrator 25.4.1, SVG Export Plug-In . SVG Version: 6.00 Build 0)  -->
<svg version="1.1" id="レイヤー_1" xmlns="http://www.w3.org/2000/svg" xmlns:xlink="http://www.w3.org/1999/xlink" x="0px"
	 y="0px" width="25.5px" height="24.7px" viewBox="0 0 25.5 24.7" style="enable-background:new 0 0 25.5 24.7;"
	 xml:space="preserve">
<path d="M25.1,13.7c0,0,0.1-0.1,0.1-0.1c0.1-0.1,0.1-0.2,0.1-0.2c0,0,0-0.1,0.1-0.1c0-0.1,0.1-0.2,0.1-0.3c0,0,0-0.1,0-0.1
	c0-0.1,0-0.3,0-0.4s0-0.3,0-0.4c0,0,0-0.1,0-0.1c0-0.1-0.1-0.2-0.1-0.3c0,0,0-0.1-0.1-0.1c0-0.1-0.1-0.2-0.1-0.2
	c0,0-0.1-0.1-0.1-0.1c-0.1-0.1-0.1-0.1-0.2-0.2c0,0,0,0,0,0L13.4,0.5c-0.8-0.8-2.1-0.7-2.9,0.2c-0.8,0.8-0.7,2.1,0.2,2.9l7.5,6.7
	h-16c-1.1,0-2.1,0.9-2.1,2.1s0.9,2.1,2.1,2.1h16l-7.5,6.7c-0.8,0.8-0.9,2.1-0.2,2.9c0.4,0.5,1,0.7,1.5,0.7c0.5,0,1-0.2,1.4-0.5
	l11.5-10.3c0,0,0,0,0,0C24.9,13.8,25,13.7,25.1,13.7z"/>
</svg>
