<?xml version="1.0" encoding="utf-8"?>
<!-- Generator: Adobe Illustrator 25.4.1, SVG Export Plug-In . SVG Version: 6.00 Build 0)  -->
<svg version="1.1" id="レイヤー_1" xmlns="http://www.w3.org/2000/svg" xmlns:xlink="http://www.w3.org/1999/xlink" x="0px"
	 y="0px" width="605.5px" height="720px" viewBox="0 0 605.5 720" style="enable-background:new 0 0 605.5 720;"
	 xml:space="preserve">
<style type="text/css">
	.st0{fill:#CCCCCC;}
	.st1{fill:#29ABE2;}
	.st2{opacity:0.2;}
	.st3{fill:#E6D246;}
	.st4{opacity:0.4;fill:#FCEE21;}
	.st5{fill:#FFFFFF;}
</style>
<g>
	<g>
		<g>
			<g>
				<polygon class="st0" points="0,720 11.6,720 97.2,23 85.6,23 				"/>
				<path class="st1" d="M605.5,46.2C442-9.6,257.9,102,94.4,46.2c-5.7,46.5-11.4,92.9-17.1,139.4c163.5,55.8,347.6-55.8,511.2,0
					c-12-28.3-24.2-55.2-36.5-81C569.9,83.9,587.8,64.4,605.5,46.2z"/>
				<g>
					<polygon class="st2" points="7,720 11.6,720 97.2,23 92.6,23 					"/>
				</g>
				
					<ellipse transform="matrix(0.7284 -0.6851 0.6851 0.7284 14.3429 67.4783)" class="st3" cx="92.3" cy="15.6" rx="16.6" ry="14.7"/>
				<g>
					<path class="st3" d="M100.9,1.6c2.2,2.8,3.3,6.5,2.8,10.5c-1.1,8.6-8.9,15.6-17.6,15.6c-2.5,0-4.7-0.6-6.7-1.6
						c2.5,3.1,6.3,5.1,10.9,5.1c8.6,0,16.5-7,17.6-15.6C108.7,9.5,105.8,4.2,100.9,1.6z"/>
				</g>
				<path class="st4" d="M346.4,58.4c83.3-13.4,169.4-27.1,249.2-1.9c0.9-1,1.8-1.9,2.8-2.9c-80.9-26.1-167.9-12.2-252.1,1.3
					c-84.6,13.6-172.1,27.6-253.1,0.6c-0.1,1.2-0.3,2.4-0.4,3.7c33.8,11.1,68.6,15.2,103.9,15.2C246.3,74.4,296.9,66.3,346.4,58.4z"
					/>
				<path class="st4" d="M332,175.7c84.2-13.5,171.2-27.4,251.7-1.1c-0.6-1.5-1.3-2.9-1.9-4.4c-80.3-25.2-166.5-11.4-249.9,2
					c-84.6,13.6-172.1,27.6-253.1,0.6c-0.1,1.2-0.3,2.4-0.4,3.7c33.8,11.1,68.6,15.2,103.9,15.2C231.9,191.8,282.4,183.6,332,175.7z
					"/>
			</g>
		</g>
	</g>
	<g>
		<g>
			<path class="st5" d="M223.6,106.1c-0.1,0.8-0.3,1.4-0.2,1.9c-0.2,0.7-0.2,1.4-0.3,1.8c-0.1,0.8-0.5,1.3-0.4,1.8
				c-0.1,0.5-0.4,1-0.6,1.7c-0.2,0.5-0.5,1-0.7,1.7c-0.3,0.7-0.7,1-0.8,1.7c-0.3,0.5-0.6,1-1,1.6c-0.4,0.7-0.7,1.1-1.1,1.5
				c-0.3,0.7-0.7,1-1.2,1.4c-0.5,0.5-0.8,1-1.5,1.5c-0.4,0.5-1.2,1-1.7,1.4c-0.8,0.5-1.1,0.8-1.8,1.2c-0.8,0.5-1.3,0.8-1.9,1.1
				c-0.3,0.1-0.8,0.4-1.4,0.4c-0.6,0-1.3-0.4-1.5-0.7c-0.3-0.5-0.5-1-0.5-1.6c0-0.3,0.3-0.9,0.6-1.3c0.4-0.4,0.8-0.8,1.2-1
				c0.7-0.4,1.2-0.7,1.7-1c0.7-0.1,1-0.7,1.6-1.1c0.4-0.3,0.8-0.8,1.5-1.3c0.4-0.4,0.9-0.9,1.3-1.4c0.1-0.4,0.5-0.5,0.8-1.1
				c0.4-0.4,0.5-0.8,0.7-1.1c0.3-0.3,0.4-0.7,0.6-1.2c0.3-0.5,0.5-0.7,0.6-1.2c0.1-0.7,0.5-1.6,0.8-2.4c0.2-0.7,0.4-1.8,0.5-2.5
				c0.1-0.5,0.1-1.3,0.3-1.9c0.1-0.7,0.4-1.1,0.9-1.5c0.5-0.3,1.1-0.6,1.7-0.5c0.6,0.1,1.2,0.1,1.5,0.5
				C223.5,105.1,223.7,105.5,223.6,106.1z M237.8,100.8c0,0.6-0.4,1.4-0.6,1.8c-0.2,0.7-0.8,1.2-1.2,1.8c-0.4,0.5-1,1.2-1.5,1.6
				c-0.4,0.7-1.1,0.9-1.4,1.3c-0.5,0.3-0.8,0.6-1,0.9c-0.2,0.4-0.8,0.7-1.1,1c-0.3,0.2-0.7,0.8-1.1,0.9c-0.6,0.4-0.7,0.6-1.1,0.7
				c-0.4,0.2-0.8,0.3-1.3,0.3c-0.5,0-1-0.2-1.4-0.7c-0.2-0.4-0.5-0.9-0.4-1.6c0-0.6,0.1-0.9,0.5-1.2c0.4-0.6,0.7-0.6,0.9-0.9
				c0.5-0.5,0.8-0.7,1.4-1.1c0.6-0.5,0.9-0.8,1.6-1.4c0.4-0.4,1.2-1,1.4-1.4c0.3-0.2,0.3-0.7,0.1-1c-0.3-0.2-0.8-0.3-1.5-0.3
				c-0.6-0.1-1,0-1.4-0.1c-0.9,0.1-1.9-0.2-2.7,0c-0.8,0-2,0-2.7-0.1c-1.1,0.1-1.9-0.1-2.8,0s-1.8-0.2-2.7-0.1c-0.9-0.1-2,0-2.8,0
				c-1.1,0.1-1.7,0.1-2.7-0.1c-0.9,0.1-1.9,0.2-2.8-0.1c-0.5-0.2-1.1-0.2-1.4-0.7c-0.2-0.3-0.4-1-0.4-1.6c0.1-0.5,0.4-1.2,0.8-1.5
				c0.3-0.3,1.2-0.7,1.6-0.7c0.9-0.1,1.9,0,3,0c1.2,0.1,2.1,0.2,2.9,0.1c1.1-0.1,1.9,0.2,2.9,0c0.8,0,1.7,0.2,2.9,0.1
				c0.8,0,1.9-0.1,2.9,0c1-0.1,2,0,2.9,0.1c1.1,0.1,2,0.1,2.9,0c1-0.1,1.9,0.1,2.9,0.1c0.4,0,1.2,0.2,1.7,0.2
				c0.6,0.3,1.1,0.3,1.6,0.7c0.4,0.2,0.6,0.9,1.1,1.2C238,99.4,237.9,100.2,237.8,100.8z"/>
			<path class="st5" d="M270.6,109.7c0,0.6-0.3,1.3-0.7,1.7c-0.5,0.6-1,0.8-1.6,0.9c-0.5,0.1-0.9,0-1.2-0.2c-0.3-0.1-0.6-0.4-1-0.6
				c-0.6-0.3-1.2-0.7-1.6-1c-0.5-0.3-1.2-0.6-1.6-0.9c-0.6-0.4-1-0.6-1.7-0.9c-0.4-0.3-1-0.6-1.6-0.8c-0.6-0.2-1.1,0.4-1,0.8
				c0,0.8-0.1,1.7,0,2.2c0.1,0.9-0.2,1.4,0,2.1c-0.2,0.8,0.1,1.5,0,2.1c0,0.8-0.1,1.3,0,2.1c-0.1,0.6-0.2,1.6,0,2.1
				c0.1,0.6,0,1.5,0,2.1c-0.2,0.8-0.1,1.5-0.1,2.1c0,0.6-0.5,1.1-0.8,1.6c-0.4,0.3-1.2,0.7-1.6,0.7c-0.9,0.1-1.1,0-1.6-0.4
				c-0.5-0.4-0.8-0.9-0.7-1.4c0-0.7,0-1.4,0-1.9c0-0.7,0-1.4,0-1.9c0-0.4-0.1-1.3,0-1.8c0.1-0.7,0-1.3,0-1.9c0-0.5,0-1.2,0-1.9
				c0.1-0.4,0.1-1.3,0-1.9c0.1-0.7-0.1-1.2,0-1.8c0.1-0.7-0.2-1.1,0-1.9c-0.1-0.5,0.2-1.2,0-1.9c0-0.4-0.1-1.1,0-1.9
				c-0.1-0.5-0.1-1.2,0-1.9c0.2-0.6-0.1-1.2,0-1.9c0.1-0.7,0.1-1.1,0-1.8c-0.2-0.5,0.1-1.2,0-1.9c0.1-0.7,0-1,0-1.9
				c0.1-0.6-0.1-1.2,0.1-1.9c0.1-0.8,0.4-1.3,0.8-1.6c0.5-0.5,1.1-0.7,1.6-0.7c0.7,0,1.2,0,1.6,0.4c0.5,0.3,0.8,0.7,0.8,1.4
				c0.1,1.1,0.1,1.8-0.1,2.8c0.1,0.9,0,1.8-0.1,2.7c0.1,1.1-0.1,1.8-0.1,2.9c0,1.2,0.6,1.5,1.6,1c0.7-0.1,1,0,1.4,0.2
				c0.3,0.2,0.9,0.3,1.3,0.5c0.3,0.3,0.9,0.5,1.4,0.6c0.5,0.3,1,0.5,1.3,0.6c0.5,0.2,0.8,0.5,1.3,0.7c0.5,0.4,1.1,0.6,1.7,1
				c0.7,0.4,1.1,0.9,1.6,1.3C270.4,108.7,270.6,109.1,270.6,109.7z"/>
			<path class="st5" d="M308.3,101.8c0,0.7-0.4,1.3-0.6,1.8c-0.2,0.6-0.5,1.4-0.8,1.8c-0.2,0.8-0.7,1.2-0.9,1.8
				c-0.5,0.6-0.6,1.2-1.1,1.7c-0.3,0.7-0.8,1-1.1,1.6c-0.4,0.4-1,1.3-1.2,1.6c-0.3,0.4-0.9,1.2-1.3,1.5c-0.6,0.6-1,1-1.4,1.4
				c-0.7,0.6-0.9,0.9-1.7,1.5c-0.5,0.4-0.6,0.6-1,0.8c-0.2,0.2-0.7,0.7-1,0.8c-0.5,0.4-1.3,1-2,1.4c-0.5,0.4-1.4,0.8-2.1,1
				c-1.1,0.3-1.6,0.1-2.2-0.3c-0.5-0.3-0.7-0.7-0.9-1.5c-0.1-0.6,0.2-1.1,0.4-1.4c0.3-0.5,0.6-0.6,1.1-1c0.3-0.1,0.6-0.4,1.2-0.7
				c0.3-0.1,0.7-0.5,1.1-0.7c0.7-0.2,1.3-0.8,1.7-1.1c0.6-0.6,0.9-0.9,1.6-1.4c0.7-0.5,0.9-0.8,1.6-1.5c0.4-0.4,1.2-1,1.5-1.6
				c0.5-0.4,0.8-0.9,1.3-1.7c0.2-0.5,0.6-1.1,1.2-1.8c0.5-0.5,0.6-1.1,0.9-1.8c0.4-0.8,0.5-1,0.7-1.9c0.2-1-0.6-1.2-1-1.1
				c-0.9,0.1-1.7,0.2-2.4,0.4c-0.9,0.2-1.6,0.3-2.4,0.5c-0.7,0.1-1.6,0.5-2.5,0.5c-0.9,0.2-1.8,0.4-2.4,0.5c-1,0.2-1.7,0.2-2.5,0.4
				c-0.8,0.1-1.5,0.3-2.4,0.5c-0.7,0.2-1.5,0.4-2.4,0.5c-0.8,0-1.7,0.3-2.5,0.4c-0.8,0.1-1.1-0.1-1.5-0.4c-0.5-0.4-0.7-0.9-0.6-1.4
				c0.1-0.7,0.2-1.2,0.4-1.6c0.4-0.6,0.9-0.8,1.4-0.9c0.9-0.1,1.6-0.3,2.6-0.5c0.8-0.1,1.8-0.2,2.6-0.5c0.9,0,1.9-0.1,2.6-0.4
				c0.8-0.2,1.6-0.2,2.6-0.5c1-0.1,1.8-0.2,2.6-0.5c1-0.3,1.8-0.3,2.6-0.4c0.7-0.3,1.5-0.3,2.5-0.5c0.7,0.1,1.7-0.4,2.6-0.4
				c0.7,0,1.2-0.2,1.8-0.2c0.5,0.1,1.4,0,1.8,0.3c0.7,0.3,1.2,0.7,1.4,1.1c0.4,0.4,0.4,1.1,0.5,1.7
				C308.7,100.2,308.6,100.9,308.3,101.8z M284.1,93.6c-0.1-0.6,0.1-1.1,0.5-1.6c0.4-0.5,0.6-0.9,1.4-0.9c0.8-0.2,1.5-0.4,2.2-0.4
				c0.6,0,1.4-0.1,2.1-0.4c0.7,0.1,1.2-0.1,2.1-0.4c0.7-0.2,1.4-0.4,2.1-0.4c0.7-0.2,1.3-0.4,2.1-0.4c0.7,0,1.2-0.3,2.1-0.4
				c0.8-0.2,1.4-0.3,2.1-0.4c0.7,0,1.4-0.1,2.2-0.3c0.7,0,1.1,0.1,1.5,0.4c0.5,0.4,0.5,1,0.6,1.4c0.1,0.5-0.1,1.3-0.5,1.6
				c-0.2,0.6-0.8,0.8-1.4,0.9c-0.8,0.2-1.6,0.2-2.2,0.4c-0.7,0.1-1.6,0.3-2.1,0.4c-0.8,0.3-1.5,0.2-2.1,0.4
				c-0.7,0.2-1.4,0.1-2.1,0.4c-0.7,0.1-1.6,0.3-2.1,0.4c-0.9,0.2-1.3,0.3-2.1,0.4c-0.7,0.2-1.5,0.4-2.1,0.4
				c-0.9,0.1-1.4,0.4-2.2,0.3c-0.8,0.1-1.1-0.2-1.4-0.4C284.2,94.7,284.1,94.2,284.1,93.6z"/>
			<path class="st5" d="M344.3,87.3c0.2,0.6,0.1,1.2-0.2,2.1c-0.3,1-0.2,1.6-0.6,2.4c-0.2,1-0.6,1.7-0.7,2.3c0,0.3-0.3,0.9-0.4,1.2
				c-0.1,0.5-0.4,0.8-0.5,1.1c-0.2,0.3-0.2,0.9-0.5,1.1c-0.4,0.3-0.2,0.9-0.5,1.1c-0.2,0.4-0.2,0.9-0.5,1.1
				c-0.2,0.5-0.2,0.9-0.6,1.1c-0.3,0.5-0.3,0.8-0.6,1.1c-0.1,0.2-0.3,0.6-0.6,1.1c-0.3,0.3-0.5,0.8-0.7,1c-0.1,0.4-0.4,0.8-0.7,1
				c-0.1,0.2-0.4,0.7-0.8,1c-0.4,0.2-0.7,0.7-0.7,1c-0.3,0.2-0.6,0.5-0.8,1c-0.3,0.3-0.7,0.6-0.9,1c-0.3,0.5-0.8,0.7-0.9,1.1
				c-0.3,0.3-0.7,0.6-1,1c-0.3,0.5-0.7,0.8-1,1c-0.2,0.5-0.6,0.6-1,1c-0.3,0.1-0.9,0.6-1,0.8c-0.3,0.2-0.5,0.5-1.1,0.8
				c-0.3,0.2-0.7,0.5-1.1,0.5c-0.5,0.1-1.1,0.1-1.7-0.4c-0.3-0.3-0.8-0.9-0.8-1.5c0-0.4,0-0.9,0.3-1.3c0.1-0.3,0.6-0.8,0.8-1.1
				c0.2-0.2,0.6-0.6,1.1-1c0.1-0.2,0.8-0.7,1-0.9c0.5-0.4,0.8-0.7,1-0.9c0.5-0.2,0.6-0.6,1-1c0.5-0.4,0.8-1,1.2-1.3
				c0.4-0.5,0.7-0.9,1.2-1.4c0.2-0.4,0.8-0.8,1.1-1.4c0.4-0.4,0.6-0.8,1.1-1.5c0.1-0.5,0.6-0.8,0.9-1.5c0.4-0.6,0.6-1.1,0.9-1.5
				c0.2-0.4,0.6-0.8,0.8-1.6c0.2-0.3,0.3-0.9,0.7-1.6c-0.1-0.2,0.4-0.7,0.5-1.3c0.2-0.4,0.3-1.2,0.6-1.7c0.2-0.7,0.2-0.9,0.5-1.7
				c0.2-0.5,0.3-0.8,0.2-1.2c-0.1-0.5-0.4-0.7-0.9-0.6c-0.9,0.1-1.5,0.3-2.1,0.4c-0.9,0.1-1.5,0.4-2.2,0.5c-0.7,0-1.5,0.4-2.2,0.4
				c-0.9,0.1-1.7,0.4-1.9,0.6c-0.3,0.2-0.6,0.5-0.7,0.8c-0.2,0.4-0.5,0.5-0.6,1c-0.3,0.8-1,1.4-1.2,2c-0.2,0.3-0.6,0.7-0.7,0.9
				c-0.3,0.5-0.5,0.6-0.7,0.9c-0.3,0.4-0.3,0.6-0.7,0.9c-0.4,0.3-0.6,0.7-0.8,0.9c-0.2,0.5-0.6,0.8-1.1,1.2
				c-0.3,0.3-0.9,0.6-1.4,0.7c-0.7,0.2-1.1,0-1.6-0.3c-0.5-0.4-0.8-0.7-0.8-1.4c0-0.6,0.3-1.3,0.8-2.1c0.4-0.6,0.9-0.9,1.3-1.5
				c0.2-0.2,0.6-1,0.9-1.2c0.2-0.5,0.6-0.9,0.9-1.3c0.3-0.3,0.8-0.8,0.9-1.5c0.4-0.7,0.6-0.9,0.9-1.5c0.2-0.5,0.4-0.9,0.8-1.6
				c0.1-0.5,0.5-1.1,0.7-1.5c0.3-0.6,0.6-1,0.7-1.5c0.3-0.5,0.5-0.9,0.6-1.5c0-0.4,0.5-1.2,0.6-1.9c0.2-0.6,0.6-1,0.8-1.3
				c0.5-0.3,0.7-0.6,1.3-0.7c0.5-0.1,1.1-0.1,1.7,0.3c0.5,0.3,0.7,0.8,0.9,1.4c0.1,0.8-0.2,1.3-0.5,2c0,0.5-0.2,0.6-0.5,1.3
				c-0.2,0.5,0,1.4,0.7,1.2c1-0.2,1.6-0.2,2.1-0.4c0.7-0.1,1.2-0.2,1.8-0.4c0.7-0.2,1.2-0.1,1.8-0.4c0.7-0.2,1.3-0.3,2.2-0.2
				c0.8,0,1.3,0,2,0.7c0.3,0.4,0.6,0.6,0.7,0.9C344.2,86.4,344.2,86.8,344.3,87.3z"/>
			<path class="st5" d="M359.9,90.1c-0.3-0.3-0.7-0.1-1.1-0.5c-0.8,0-1-0.4-1.3-0.8c-0.3-0.3-0.4-0.5-0.5-1c0-0.7,0.2-1.2,0.6-1.8
				c0.4-0.5,1-1,1.7-1c0.5-0.2,1.2-0.1,2,0.2c0.7,0.1,1.1,0.4,1.7,0.7c0.7,0.2,1.3,0.4,1.8,0.8c0.5,0.5,1.3,0.7,1.6,1.1
				c0.4,0.3,0.7,0.7,0.6,1.3c-0.1,0.7,0,1.2-0.6,1.8c-0.3,0.4-0.8,0.9-1.6,1.1c-0.6,0.1-1.1-0.1-1.5-0.3c-0.4,0-0.7-0.4-1.1-0.6
				c-0.4-0.3-0.9-0.3-1.1-0.6C360.8,90.5,360.2,90.4,359.9,90.1z M386.8,82c0.1,0.6-0.1,0.9-0.3,1.3c-0.3,0.4-0.3,1.1-0.6,1.3
				c-0.2,0.5-0.3,0.9-0.6,1.2c-0.3,0.6-0.3,0.8-0.7,1.2c-0.1,0.3-0.4,0.6-0.7,1.2c-0.3,0.5-0.4,0.7-0.8,1.2
				c-0.4,0.4-0.6,0.8-0.8,1.1c-0.2,0.3-0.7,0.8-0.8,1.1c-0.2,0.3-0.6,0.8-0.9,1.1c-0.3,0.5-0.7,0.8-0.9,1.1c-0.3,0.4-0.6,0.6-0.9,1
				c-0.3,0.2-0.6,0.6-1,1c-0.4,0.3-0.7,0.8-1,0.9c-0.2,0.4-0.6,0.7-1,1c-0.2,0.2-0.6,0.6-1,0.9c-0.5,0.2-0.9,0.6-1,0.9
				c-0.5,0.5-0.7,0.4-1.1,0.9c-0.3,0.2-0.8,0.5-1.2,0.9c-0.5,0.4-0.7,0.8-1.2,0.9c-0.4,0.5-1,0.7-1.3,0.9c-0.4,0.2-0.9,0.4-1.2,0.8
				c-0.5,0.2-1,0.4-1.3,0.8c-0.5,0.4-1,0.5-1.3,0.7c-0.4,0.2-0.9,0.4-1.3,0.7c-0.4,0.4-0.9,0.5-1.4,0.6c-1,0.4-1.8,0.4-2.2,0.1
				c-0.6-0.4-0.9-1.1-0.9-1.7c0-0.4,0-1,0.5-1.5c0.1-0.4,0.9-0.7,1.2-1.1c0.7-0.3,1.1-0.5,1.7-0.9c0.6-0.4,1.1-0.5,1.6-0.8
				c0.3-0.3,0.7-0.4,1.1-0.6c0.3-0.2,0.8-0.4,1.1-0.7c0.4-0.4,0.8-0.3,1.1-0.7c0.3-0.2,0.6-0.4,1.2-0.8c0.2-0.3,0.7-0.6,1.2-0.9
				c0.4-0.4,0.9-0.7,1.1-0.9c0.5-0.3,0.8-0.6,1.1-1c0.4-0.5,0.7-0.6,1.1-1c0.3-0.3,0.5-0.8,1.1-1c0.4-0.4,0.5-0.6,1-1.1
				c0.2-0.2,0.6-0.8,1-1.1c0.4-0.3,0.6-0.9,0.9-1.1c0.3-0.4,0.5-0.7,0.9-1.1c0.1-0.3,0.6-0.6,0.8-1.1c0.3-0.2,0.4-0.6,0.7-1.1
				c0-0.4,0.4-0.6,0.6-1.2c0.1-0.4,0.6-1,0.8-1.6c0.4-0.6,0.6-0.9,0.9-1.7c0-0.3,0.7-0.9,0.9-1c0.5-0.3,0.8-0.5,1.2-0.5
				c0.8-0.2,1.3,0,1.7,0.3C386.4,80.9,386.7,81.4,386.8,82z M361.5,79.4c-0.2-0.2-0.5-0.6-0.5-1c-0.2-0.5,0.2-1.2,0.7-1.8
				c0.5-0.4,1.2-0.8,1.7-1c0.7-0.1,1.2,0.2,1.9,0.3c0.5,0.3,1.3,0.5,1.7,0.7c0.5,0.3,1.1,0.5,1.8,0.8c0.6,0.2,1.3,0.6,1.7,1.1
				c0.3,0.5,0.4,1,0.6,1.3c0.2,0.8-0.2,1.3-0.6,1.8c-0.5,0.7-1.2,1-1.6,1c-0.5,0.2-1.2,0.1-1.5-0.3c-0.3-0.1-0.6-0.5-1.1-0.6
				c-0.3-0.4-0.9-0.3-1.1-0.6c-0.2-0.2-1-0.2-1.1-0.5c-0.5,0-0.6-0.3-1.1-0.5C362.3,79.9,361.7,79.7,361.5,79.4z"/>
			<path class="st5" d="M419.2,93c0.1,0.4,0.1,1.2-0.2,1.8c0,0.6-0.4,1.1-1,1.7c-0.4,0.7-1.2,0.9-1.9,1.2c-0.8,0.3-1.2,0.3-2.1,0.4
				c-0.5,0.1-1.1,0-1.7,0.2c-0.6,0-1.2,0.2-1.7,0.2c-0.7,0.2-1.1,0.3-1.7,0.2c-0.5,0.2-1.2,0.3-1.8,0.2c-0.7,0-1.1,0.3-1.7,0.2
				c-0.5,0-1.1,0.1-1.7,0.2c-0.7,0.2-1.1,0.1-1.7,0.2s-1.4,0.3-1.8,0.2c-0.4,0.1-0.8,0-1.2-0.4c-0.2-0.4-0.4-0.7-0.5-1.3
				c0-0.5,0.2-1,0.5-1.4c0.2-0.3,0.6-0.5,1.2-0.7c0.4-0.1,0.9,0,1.7-0.2c0.3,0,1-0.2,1.6-0.2c0.5-0.1,1.2-0.1,1.6-0.2
				c0.7,0,1.2-0.1,1.6-0.2c0.5-0.2,1-0.1,1.6-0.2c0.5,0,0.9-0.3,1.6-0.2c0.6-0.1,0.9-0.1,1.6-0.2c0.4,0.1,1-0.2,1.6-0.2
				c0.6,0,1.2-0.3,1.5-0.6c0.3-0.3,0.4-0.6,0.4-0.9c0-0.9,0.1-2,0-3.1c0-0.4,0-0.8-0.2-1.2c-0.2-0.4-0.6-0.5-1.1-0.4
				c-0.6,0.2-1.2,0.2-1.8,0.2c-0.4-0.1-1,0.2-1.6,0.2c-0.7-0.1-1.2,0.1-1.6,0.2c-0.5,0.1-1,0.1-1.6,0.2c-0.6,0.1-1.1,0.1-1.6,0.2
				c-0.5,0.1-1.1,0.3-1.8,0.3c-0.5,0-0.9,0.2-1.6,0.1c-0.5,0-0.9,0-1.2-0.4c-0.2-0.2-0.4-0.6-0.5-1.3c0-0.3,0-0.8,0.5-1.4
				c0.2-0.3,0.6-0.6,1.2-0.7c0.4-0.1,1,0,1.7-0.2c0.5-0.1,0.9-0.1,1.6-0.2c0.7-0.2,1,0,1.6-0.2c0.5,0,1-0.1,1.6-0.2
				c0.5,0,1.2,0,1.6-0.2c0.5,0,1.2,0,1.6-0.2c0.5-0.1,1,0,2-0.3c0.6,0,1.2-0.3,1.2-1.4c0.1-1,0-1.9,0.1-2.6c0.1-0.5-0.4-1-0.6-1.1
				c-0.4-0.2-1,0.1-1.4,0c-0.4,0-1.1,0.2-1.5,0.2c-0.5,0.3-1.2,0.2-1.6,0.2c-0.7,0.1-0.9,0.2-1.6,0.2c-0.5,0.2-1.1,0.1-1.6,0.2
				c-0.6,0-1.2,0.3-1.6,0.2c-0.3,0-1,0.3-1.6,0.2c-0.7,0.2-1.2,0.2-1.6,0.2c-0.7,0.2-0.9,0-1.6,0.2c-0.5,0-0.9,0-1.2-0.4
				c-0.2-0.2-0.5-0.8-0.5-1.3c0-0.3,0.2-1.1,0.5-1.4c0.2-0.2,0.6-0.7,1.2-0.7c0.5,0,1.3-0.1,1.7-0.2c0.5,0.1,1,0,1.7-0.2
				c0.4,0,1-0.1,1.7-0.2c0.7,0,1.1-0.1,1.7-0.2c0.7-0.2,1.2,0,1.7-0.2c0.4,0.1,1.2-0.1,1.7-0.2c0.7-0.1,1.1,0,1.7-0.2
				c0.7,0,1.1-0.1,1.7-0.2c0.8-0.2,1.4-0.2,2.3,0c0.8,0,1.2,0.3,1.9,0.9c0.3,0.5,0.7,0.8,0.8,1.3c0.1,0.5,0.1,1,0.2,1.6
				c0,0.5,0,1,0,1.8c0,0.5-0.1,1.1,0,1.8c0,0.7-0.2,1.1,0,1.8c0,0.5,0,1.1,0,1.8c0,0.8,0,1.3,0,1.8c0.1,0.8,0.1,1.2,0,1.8
				c0,0.5-0.2,1.2,0,1.8C419.4,91.8,419.1,92.6,419.2,93z"/>
			<path class="st5" d="M462.2,74.6c-0.4,0.8-1,1.3-1.3,1.8c-0.3,0.7-1,1.3-1.3,1.7c-0.4,0.4-0.8,1.3-1.4,1.7
				c-0.6,0.7-0.9,1.2-1.4,1.6c-0.4,0.5-1,1.2-1.5,1.6c-0.4,0.6-1.1,1-1.5,1.5c-0.5,0.4-1.1,1.1-1.6,1.4c-0.5,0.7-1.3,1-1.7,1.4
				c-0.6,0.6-1.2,0.8-1.6,1.2c-0.5,0.4-1.2,0.7-1.7,1.2c-0.6,0.6-1.2,0.9-1.7,1.2c-0.5,0.6-1.1,0.7-1.8,1.1c-0.5,0.2-1.3,0.7-1.8,1
				c-0.5,0.3-1.4,0.8-1.9,0.9c-0.8,0.4-1.1,0.7-1.9,0.9c-0.5,0.3-1.3,0.5-1.9,0.8c-0.4,0.2-0.7,0.2-1.1,0.2
				c-0.5,0.1-1.2-0.2-1.6-0.7c-0.3-0.3-0.6-1.1-0.5-1.7c0.1-0.7,0.5-1.4,1.1-1.8c0.4-0.4,1.5-0.7,2-1c0.2-0.2,0.5-0.2,1.1-0.5
				c0.2-0.2,0.7-0.4,1.1-0.5c0.4-0.3,0.7-0.3,1.1-0.6c0.3-0.1,0.6-0.5,1.1-0.6c0.4-0.2,0.6-0.4,1.1-0.6c0.2-0.1,0.6-0.5,1.1-0.7
				c0.4-0.2,0.7-0.6,1.1-0.7c0.3-0.3,0.6-0.4,1-0.7c0.2-0.2,0.8-0.4,1-0.7c0.4-0.1,0.6-0.3,1-0.8c0.2-0.3,0.6-0.3,1-0.8
				c0.5-0.3,0.7-0.6,1-0.8c0.2-0.2,0.6-0.3,1-0.8c0.3-0.1,0.4-0.4,0.9-0.8c0.3-0.4,0.6-0.8,0.9-0.9c0.3-0.3,0.5-0.8,0.9-0.9
				c0.3-0.4,1.1-0.9,1.5-1.5c0.5-0.4,0.9-1.2,1.3-1.6c0.4-0.7,0.6-0.9,1.3-1.7c0.6-0.6,0.7-1,1.2-1.7c0.4-0.5,0.8-0.9,1.1-1.3
				c0.5-0.4,0.8-0.7,1.5-0.6c0.5,0.1,1.3,0.2,1.6,0.6c0.4,0.3,0.6,0.8,0.6,1.6C462.6,74,462.4,74.3,462.2,74.6z M435.1,72.4
				c-0.6-0.5-0.9-0.7-1.1-1.2c-0.2-0.2-0.3-0.7-0.2-1.1c0.1-0.5,0.3-1.1,1-1.8c0.3-0.3,1.3-0.7,1.8-0.8c0.4-0.1,0.8,0.1,1.1,0.2
				c0.4,0.2,0.8,0.4,1,0.6c0.2,0.3,0.7,0.5,0.9,0.7c0.1,0.4,0.6,0.4,0.8,0.7c0.3,0.3,0.3,0.5,0.9,0.8c0.2,0.3,0.5,0.5,0.9,0.8
				c0.3,0.2,0.8,0.5,0.8,0.9c0.4,0.3,0.4,0.7,0.7,0.9c0.4,0.3,0.5,0.8,0.3,1.4c0,0.6-0.5,1.3-0.9,1.9c-0.4,0.5-1.4,0.8-1.9,0.9
				c-0.7,0-1.2-0.4-1.7-0.7c-0.2-0.3-0.7-0.8-1.1-1.1c-0.5-0.4-0.5-0.8-1.1-1.1c-0.2-0.4-0.6-0.7-1.1-1
				C436,73.3,435.5,72.8,435.1,72.4z"/>
		</g>
		<g>
			<path class="st5" d="M229.2,155.9c-0.1,0.3-0.3,0.8-0.7,1.2c-0.4,0.2-0.6,0.7-0.8,1.1c-0.4,0.6-0.5,0.6-0.8,1.1
				c-0.3,0.3-0.6,0.6-0.9,1c-0.3,0.5-0.6,0.6-0.9,1c-0.2,0.2-0.6,0.8-1,1c-0.5,0.7-1.3,0.9-2,0.9c-0.5-0.1-1.1,0-1.6-0.6
				c-0.6-0.3-0.6-0.8-0.6-1.5c0.1-0.7,0.5-1.1,1-1.8c0.3-0.6,1-0.8,1.4-1.4c0.6-0.6,0.9-1.1,1.3-1.5c0.3-0.4,0.8-0.9,1.1-1.6
				c0.3-0.3,0.6-0.7,0.9-1.5c0.2-0.4,0.5-0.8,0.6-1.2c0.3-0.5,0.5-0.8,1-1c0.4-0.2,0.7-0.4,1.3-0.4c0.7-0.1,1.1,0.3,1.6,0.6
				c0.5,0.4,0.6,0.9,0.6,1.5c0,0.5-0.2,0.6-0.3,1c-0.3,0.4-0.5,0.9-0.6,1.2C229.8,155.2,229.5,155.6,229.2,155.9z M244.3,146.4
				c-0.5,0-1,0-1.9,0.1c-0.6,0-1,0.2-1.4,0.4c-0.4,0.3-0.7,0.8-0.8,1.1c-0.2,1.2,0,1.7-0.2,2.5c-0.2,0.7-0.2,1.4-0.2,2
				c0,0.6-0.3,1.4-0.2,2.1c0.1,0.6-0.2,1.5-0.2,2.1c-0.1,0.8-0.2,1.4-0.2,2c-0.1,0.7,0,1.5-0.2,2.1c-0.1,0.8,0,1.6-0.2,2
				c0,1-0.1,1.5-0.5,2.3c-0.2,0.5-0.4,0.8-0.6,1.1c-0.2,0.4-0.6,0.7-0.8,1c-0.5,0.4-1.4,0.7-1.9,1c-0.6,0.1-1.6,0.2-2.1,0.3
				c-0.6,0-1.2,0-1.5,0c-0.4-0.1-1.2-0.1-1.6-0.2c-0.6-0.2-0.8-0.4-1.2-0.7c-0.3-0.2-0.4-0.7-0.4-1.5c0.1-0.6,0.4-1.2,0.7-1.7
				c0.3-0.5,0.9-0.9,1.6-0.8c1.1,0.1,1.8,0.2,2.3,0.1c0.9,0,1.1-0.5,1.2-1.4c0.1-0.5,0.1-1.2,0.2-1.9c0-0.5,0-1.3,0.2-1.9
				c0.1-0.7,0-1.2,0.2-2c0-0.7,0.1-1.1,0.2-2c-0.1-0.8,0.2-1.2,0.2-2c-0.1-0.5,0.2-1.3,0.2-2c0.1-1,0.2-1.7,0.1-2.4
				c0-0.2-0.2-0.6-0.5-0.8c-0.4-0.3-1-0.3-1.3-0.4c-0.9-0.1-1.4,0.1-1.9,0.1c-0.5,0-1.1,0-1.5,0.1c-1.1,0.1-1.8,0.2-2.8,0.1
				c-0.9,0.1-1.9,0.1-2.9,0.1c-0.5,0-1-0.1-1.3-0.6c-0.2-0.3-0.4-1-0.4-1.5c0-0.5,0.3-1.2,0.6-1.5c0.2-0.4,1-0.7,1.5-0.7
				c1,0,2-0.2,2.9-0.1c0.9-0.1,1.8-0.1,2.8-0.1c0.3,0.1,1-0.2,1.5-0.1c0.5,0.1,1,0,2,0c0.6-0.1,1-0.3,1.5-0.8
				c0.3-0.3,0.7-1.2,0.7-1.5c0.1-0.7,0.1-1.3,0.2-2.1c0.1-0.5,0-0.9,0.2-1.6c0.1-0.6,0.5-1.1,0.9-1.5c0.6-0.4,1-0.5,1.7-0.6
				c0.4,0,1.2,0.1,1.6,0.4c0.4,0.3,0.6,0.9,0.6,1.5c0.1,0.7-0.2,0.9-0.1,1.6c0.1,0.4-0.1,1.2-0.2,2.1c0,0.6,0.2,1.1,0.5,1.5
				c0.3,0.5,0.8,0.6,1.3,0.6c0.7,0,1.5,0.1,1.9-0.1c0.7,0,1.1-0.2,1.5-0.1c1,0,1.7,0,2.8-0.1c0.8,0.1,1.8-0.1,2.8-0.1
				c0.5-0.1,1.2,0.2,1.3,0.6c0.4,0.4,0.4,1,0.4,1.5c-0.1,0.7-0.5,1.1-0.6,1.5c-0.5,0.5-0.9,0.7-1.5,0.7c-1-0.1-1.9,0.1-2.8,0.1
				c-1,0.1-2-0.1-2.8,0.1C245.1,146.5,244.8,146.3,244.3,146.4z M251.8,161.1c-0.5,0.6-1.1,0.7-1.7,0.8c-0.6,0.1-1-0.1-1.2-0.3
				c-0.6-0.1-0.5-0.6-0.9-0.9c-0.2-0.5-0.7-1.1-1.1-1.7c-0.4-0.3-0.5-0.7-0.7-1.2c-0.3-0.6-0.5-1-0.7-1.3c-0.2-0.5-0.3-0.9-0.7-1.3
				c-0.1-0.4-0.3-0.8-0.5-1.3c-0.3-0.9-0.5-1.7-0.4-2c0-0.7,0.2-1,0.9-1.5c0.6-0.4,1-0.5,1.6-0.6c0.3,0,1,0.2,1.2,0.3
				c0.4,0.3,0.6,0.5,0.8,1c0.3,0.9,0.5,1.3,1,1.9c0.3,0.6,0.6,1.1,0.9,1.7c0.3,0.7,0.6,1.1,0.9,1.5c0.4,0.7,0.8,0.9,1,1.4
				c0.4,0.6,0.6,1.2,0.7,1.8C252.9,160,252.3,160.6,251.8,161.1z"/>
			<path class="st5" d="M294.9,147.1c-0.5,0.7-1.1,1-1.5,0.9c-0.8,0.2-1.4,0.2-1.8,0.3c-0.4,0.1-1.2,0.3-1.8,0.3
				c-0.5,0-1.1,0.3-1.8,0.2c-0.8,0.2-1.2,0.2-1.8,0.3c-0.5,0-1.2,0.3-1.8,0.2c-0.5,0.1-1.3,0.2-1.8,0.3c-0.6,0-1.2,0.3-1.8,0.3
				c-0.5,0.3-1.4,0.2-1.8,0.3c-0.8,0.1-1,0.3-1.8,0.3c-0.5,0.2-1.2,0.1-1.8,0.3c-0.6,0-1.4,0.4-1.8,0.2c-0.5,0-1.2,0.3-1.8,0.3
				c-0.7,0.2-1.3,0.2-1.8,0.3c-0.8,0.2-1,0.1-1.7,0.2c-0.4,0-1.1,0.1-1.8,0.3c-0.2,0.1-0.5,0.1-0.7,0.2c-0.3,0-0.8,0-1.1,0.1
				c-0.6,0-1.1,0-1.6-0.5c-0.3-0.2-0.6-0.9-0.6-1.5c0-0.4,0.2-1.3,0.5-1.7c0.2-0.3,1-0.8,1.6-0.9c0.5,0.1,1-0.1,1.8-0.3
				c0.5,0,1.1-0.2,1.8-0.3c0.5-0.2,1.3-0.2,1.8-0.2c0.7-0.1,1.1,0,1.8-0.3c0.4,0,1.2-0.2,1.8-0.3c0.4,0.1,1.1-0.1,1.8-0.2
				c0.7,0,1.3-0.1,1.8-0.3c0.7-0.1,1.1-0.1,1.8-0.3c0.7,0,1.2-0.2,1.8-0.3c0.4,0,1.3-0.2,1.8-0.3c0.7-0.3,1.3-0.2,1.8-0.3
				c0.7-0.1,1.3-0.2,1.8-0.2c0.5,0.1,1.3-0.1,1.8-0.3c0.5-0.1,1.1-0.3,1.7-0.2c0.7-0.2,1-0.2,1.8-0.3c0.7-0.2,1-0.2,1.8-0.2
				c0.6-0.1,1.2,0,1.6,0.5c0.5,0.2,0.7,0.7,0.6,1.5C295.6,146.1,295.2,146.8,294.9,147.1z"/>
			<path class="st5" d="M334.1,149c0.2,0.4,0.7,0.8,0.6,1.4c0.1,0.7-0.1,1.4-0.7,1.8c-0.4,0.5-1.2,1-1.7,1.1c-0.8,0.3-1.6,0-2-0.6
				c-0.2-0.1-0.8-0.4-1-0.9c-0.4-0.2-0.8-0.7-1-0.9c-0.3-0.3-0.9-0.5-1.1-0.9c-0.5-0.1-0.8-0.6-1.1-0.8c-0.3-0.2-0.8-0.7-1.1-0.8
				c-0.4-0.3-0.9-0.5-1.2-0.8c-0.5-0.1-0.7-0.4-1.2-0.7c-0.4-0.1-0.7-0.4-1.4-0.8c-0.5-0.4-1.6,0.2-1.9,0.6c-0.4,0.6-0.5,0.8-0.8,1
				c-0.1,0.2-0.4,0.4-0.7,0.8c-0.6,0.5-0.7,1.1-1.3,1.4c-0.4,0.6-0.9,0.9-1.3,1.4c-0.5,0.4-1.1,1.2-1.4,1.4c-0.3,0.3-0.9,1-1.4,1.3
				c-0.6,0.5-1.1,0.9-1.4,1.2c-0.7,0.5-0.9,0.7-1.5,1.2c-0.4,0.3-0.7,0.8-1.2,0.9c-0.3,0.4-0.9,0.5-1.3,0.6
				c-0.6,0.3-1.2-0.2-1.7-0.4c-0.5-0.2-0.8-0.8-0.8-1.5c0-0.4,0.2-0.9,0.3-1.2c0.1-0.4,0.3-0.6,0.8-1c0.4-0.4,1-0.7,1.2-0.9
				c0.5-0.3,0.7-0.4,1.2-0.9c0.2-0.2,0.8-0.6,1.1-0.9c0.2-0.2,0.7-0.5,1.1-0.9c0.3-0.3,0.8-0.8,1.4-1.3c0.6-0.4,0.9-0.8,1.4-1.4
				c0.5-0.6,1-0.8,1.3-1.5c0.3-0.4,1-0.9,1.3-1.5c0.5-0.6,0.8-0.9,1.2-1.6c0.6-0.5,0.7-1.1,1.1-1.6c0.4-0.6,0.7-1,1.1-1.7
				c0.4-0.4,0.5-1.1,1-1.7c0.3-0.4,0.5-0.8,0.6-1.2c0.4-0.3,0.5-1.1,0.7-1.7c0.2-0.4,0.3-0.9,0.6-1.5c0.1-0.4,0.3-0.6,0.4-1.1
				c0.1-0.3-0.2-0.8-0.7-0.8c-0.8,0.1-1.3,0.1-1.8,0.3c-0.6,0.3-1,0.4-1.7,0.3c-0.5,0-1.1,0.4-1.7,0.4c-0.7,0.2-1.3,0.4-1.7,0.4
				c-0.8,0.2-1.2,0.2-1.7,0.4c-0.5,0-1,0.2-1.7,0.4c-0.5,0.1-1,0.3-1.7,0.4c-0.6,0-1.2,0.3-1.8,0.3c-0.5,0-1.3-0.1-1.5-0.4
				c-0.3-0.4-0.7-0.9-0.7-1.4c0-0.4,0.2-1.2,0.4-1.6c0.2-0.5,0.7-0.8,1.4-1c0.7-0.2,1.2-0.2,2-0.4c0.6-0.1,1.4-0.3,1.9-0.4
				c0.7-0.2,1.4-0.1,1.9-0.4c0.5-0.1,1.2-0.2,1.9-0.4c0.7-0.1,1.3-0.2,1.9-0.4c0.7-0.3,1.4-0.2,1.9-0.4c0.5-0.2,1.1-0.3,1.9-0.4
				c0.6,0,1.3-0.4,1.9-0.4c0.8-0.3,1.6-0.3,2.1-0.2c0.8,0.1,1.4,0.2,1.9,0.7c0.6,0.5,0.9,1.1,1,2c0.1,0.4-0.1,0.8-0.1,1.3
				c-0.1,0.6-0.2,1.1-0.4,1.5c-0.1,0.7-0.2,1.1-0.6,1.7c-0.2,0.4-0.6,1.2-0.7,1.8c-0.2,0.5-0.7,1.3-0.8,1.7
				c-0.4,0.7-0.4,1.1-0.9,1.6c-0.3,0.7-0.6,1-0.9,1.6c-0.2,0.4-0.2,1.2,0.4,1.4c0.5,0.3,1.3,0.6,1.7,0.8c0.5,0.3,0.9,0.4,1.4,0.7
				c0.3,0.3,0.9,0.7,1.3,0.8c0.4,0.5,0.7,0.7,1.3,0.8c0.4,0.2,0.8,0.4,1.2,0.8c0.4,0.3,0.7,0.5,1.2,0.9c0.4,0.5,0.6,0.6,1.2,0.9
				C333.5,148.4,333.7,148.6,334.1,149z"/>
			<path class="st5" d="M347.7,133.8c-0.3-0.3-0.7-0.1-1.1-0.5c-0.8,0-1-0.4-1.4-0.8c-0.3-0.3-0.4-0.5-0.5-1c0-0.7,0.2-1.2,0.6-1.8
				c0.4-0.5,1-1,1.7-1c0.5-0.2,1.2-0.1,2,0.2c0.7,0.1,1.1,0.4,1.7,0.7c0.7,0.2,1.3,0.4,1.8,0.8c0.5,0.5,1.3,0.7,1.7,1.1
				c0.5,0.3,0.7,0.6,0.6,1.3c-0.1,0.7,0,1.2-0.6,1.8c-0.3,0.4-0.8,0.9-1.6,1.1c-0.6,0.1-1.1-0.1-1.6-0.2c-0.4,0-0.7-0.4-1.1-0.6
				c-0.4-0.3-0.9-0.3-1.1-0.6C348.7,134.2,348.1,134.1,347.7,133.8z M374.6,125.4c0.1,0.6-0.1,0.9-0.3,1.3c-0.2,0.4-0.3,1.1-0.6,1.3
				c-0.2,0.5-0.3,0.9-0.6,1.2c-0.3,0.6-0.3,0.8-0.7,1.2c-0.1,0.3-0.3,0.6-0.7,1.2c-0.3,0.5-0.4,0.7-0.7,1.2
				c-0.4,0.4-0.6,0.9-0.8,1.1c-0.2,0.3-0.7,0.8-0.8,1.1c-0.2,0.3-0.6,0.9-0.9,1.1c-0.3,0.5-0.7,0.8-0.9,1.1c-0.3,0.4-0.6,0.6-0.9,1
				c-0.3,0.3-0.6,0.7-0.9,1c-0.4,0.3-0.7,0.8-1,1c-0.2,0.4-0.6,0.7-1,1c-0.2,0.2-0.6,0.7-1,0.9c-0.5,0.2-0.9,0.6-1,0.9
				c-0.5,0.5-0.7,0.4-1.1,0.9c-0.3,0.2-0.8,0.5-1.2,0.9c-0.5,0.4-0.7,0.8-1.2,0.9c-0.4,0.5-1,0.7-1.3,0.9c-0.4,0.2-0.9,0.4-1.2,0.8
				c-0.5,0.2-1,0.4-1.3,0.8c-0.5,0.4-1,0.5-1.3,0.8c-0.4,0.2-0.9,0.4-1.3,0.7c-0.4,0.4-0.9,0.5-1.4,0.6c-1,0.4-1.8,0.4-2.2,0.1
				c-0.6-0.4-0.9-1.1-1-1.7c0-0.4,0-1,0.4-1.5c0.1-0.4,0.9-0.7,1.2-1.1c0.7-0.3,1.1-0.6,1.7-0.9c0.6-0.4,1.1-0.5,1.6-0.9
				c0.3-0.3,0.7-0.4,1.1-0.6c0.3-0.2,0.8-0.4,1.1-0.7c0.4-0.4,0.8-0.3,1.1-0.8c0.3-0.2,0.6-0.4,1.2-0.8c0.2-0.3,0.7-0.6,1.2-0.9
				c0.4-0.4,0.9-0.7,1.1-0.9c0.5-0.3,0.8-0.6,1.1-1c0.4-0.5,0.7-0.6,1.1-1c0.3-0.3,0.5-0.8,1.1-1.1c0.4-0.4,0.5-0.6,1-1.1
				c0.2-0.2,0.6-0.8,1-1.1c0.4-0.3,0.6-0.9,0.9-1.1c0.3-0.4,0.5-0.7,0.9-1.1c0.1-0.3,0.6-0.7,0.7-1.1c0.3-0.2,0.4-0.6,0.7-1.1
				c0-0.4,0.4-0.6,0.6-1.2c0.1-0.4,0.6-1,0.8-1.6c0.4-0.6,0.6-0.9,0.9-1.7c0-0.3,0.6-0.9,0.9-1.1c0.5-0.3,0.8-0.5,1.2-0.5
				c0.8-0.2,1.3,0,1.7,0.3C374.2,124.3,374.5,124.8,374.6,125.4z M349.2,123c-0.2-0.2-0.5-0.6-0.5-1c-0.2-0.5,0.1-1.2,0.7-1.8
				c0.5-0.4,1.2-0.8,1.7-1c0.7-0.1,1.2,0.2,1.9,0.2c0.5,0.3,1.3,0.5,1.7,0.7c0.5,0.3,1.1,0.5,1.8,0.7c0.6,0.2,1.3,0.6,1.7,1.1
				c0.3,0.5,0.4,1,0.6,1.3c0.2,0.8-0.2,1.3-0.6,1.8c-0.5,0.7-1.1,1-1.6,1c-0.5,0.2-1.2,0.2-1.6-0.2c-0.3-0.1-0.6-0.5-1.1-0.6
				c-0.3-0.4-0.9-0.3-1.1-0.6c-0.3-0.2-1-0.2-1.1-0.5c-0.5,0-0.6-0.3-1.1-0.5C350,123.5,349.4,123.4,349.2,123z"/>
			<path class="st5" d="M407.2,135.6c0.1,0.4,0.1,1.2-0.2,1.8c0,0.6-0.4,1.1-0.9,1.7c-0.4,0.7-1.2,0.9-1.9,1.2
				c-0.8,0.3-1.2,0.3-2.1,0.5c-0.5,0.2-1.1,0-1.7,0.3c-0.6,0-1.2,0.2-1.7,0.3c-0.7,0.2-1.1,0.3-1.7,0.3c-0.5,0.2-1.2,0.3-1.8,0.3
				c-0.7,0-1.1,0.3-1.7,0.3c-0.5,0-1.1,0.1-1.7,0.3c-0.7,0.2-1.1,0.2-1.7,0.3c-0.6,0.1-1.4,0.3-1.8,0.2c-0.4,0.1-0.8,0-1.3-0.4
				c-0.2-0.4-0.4-0.7-0.5-1.2c-0.1-0.5,0.2-1,0.4-1.4c0.1-0.3,0.6-0.6,1.2-0.8c0.4-0.1,0.9,0,1.7-0.2c0.3-0.1,1-0.2,1.6-0.2
				c0.5-0.2,1.2-0.2,1.6-0.2c0.7-0.1,1.2-0.1,1.6-0.2c0.5-0.2,1-0.1,1.6-0.2c0.5,0,0.9-0.3,1.6-0.2c0.6-0.1,0.9-0.1,1.6-0.2
				c0.4,0.1,1-0.2,1.6-0.2c0.6-0.1,1.2-0.3,1.5-0.7c0.3-0.3,0.4-0.6,0.4-0.9c0-0.9,0-2-0.1-3c0-0.4,0-0.8-0.2-1.2
				c-0.2-0.4-0.6-0.4-1.1-0.4c-0.6,0.2-1.2,0.3-1.8,0.3c-0.4-0.1-1,0.2-1.6,0.2c-0.7,0-1.2,0.1-1.6,0.2c-0.5,0.1-1,0.1-1.6,0.2
				c-0.6,0.1-1.1,0.1-1.6,0.2c-0.5,0.1-1.1,0.3-1.7,0.3c-0.5,0-0.9,0.2-1.6,0.1c-0.5,0-0.9,0-1.3-0.4c-0.2-0.2-0.4-0.6-0.5-1.2
				c0-0.3,0-0.8,0.4-1.4c0.2-0.3,0.6-0.6,1.2-0.8c0.4-0.1,1-0.1,1.7-0.3c0.5-0.2,0.9-0.1,1.6-0.2c0.7-0.2,1.1,0,1.6-0.2
				c0.5,0,1-0.1,1.6-0.2c0.5,0,1.2,0,1.6-0.2c0.5,0,1.3,0,1.6-0.2c0.5-0.1,1-0.1,2-0.3c0.6-0.1,1.2-0.3,1.1-1.4c0-1,0-1.9,0-2.6
				c0.1-0.5-0.4-1-0.6-1.1c-0.4-0.2-1.1,0.1-1.4,0c-0.4,0-1,0.3-1.5,0.2c-0.5,0.3-1.2,0.2-1.6,0.2c-0.7,0.1-0.9,0.3-1.6,0.2
				c-0.5,0.2-1.1,0.1-1.6,0.2c-0.6,0-1.2,0.4-1.6,0.2c-0.4,0-1,0.3-1.6,0.2c-0.7,0.2-1.2,0.2-1.6,0.2c-0.7,0.2-0.9,0.1-1.6,0.2
				c-0.5,0-0.9,0.1-1.3-0.4c-0.2-0.2-0.5-0.8-0.5-1.3c0-0.3,0.1-1.1,0.4-1.4c0.2-0.2,0.6-0.7,1.2-0.8c0.5,0,1.3-0.2,1.7-0.3
				c0.5,0.1,1,0,1.7-0.2c0.4,0,1-0.1,1.7-0.2c0.7,0,1.1-0.1,1.7-0.2c0.7-0.2,1.2,0,1.7-0.2c0.4,0.1,1.2-0.1,1.7-0.2
				c0.7-0.1,1.1,0,1.7-0.2c0.7-0.1,1.1-0.1,1.7-0.2c0.8-0.2,1.4-0.2,2.3-0.1c0.8,0,1.3,0.3,2,0.8c0.3,0.5,0.7,0.8,0.8,1.3
				c0.1,0.5,0.1,0.9,0.2,1.5c0,0.5,0,1,0.1,1.8c0,0.5,0,1.1,0.1,1.8c0,0.7-0.1,1.1,0.1,1.8c0.1,0.5,0,1.1,0.1,1.8
				c0,0.8,0,1.3,0.1,1.8c0.1,0.8,0.2,1.2,0.1,1.8c0.1,0.5-0.1,1.2,0.1,1.8C407.3,134.4,407,135.2,407.2,135.6z"/>
			<path class="st5" d="M450.6,123c-0.5,0.7-1.2,0.9-1.6,0.8c-0.8,0.1-1.4,0.1-1.8,0.1c-0.4,0.1-1.2,0.2-1.8,0.1
				c-0.5-0.1-1.1,0.3-1.7,0.1c-0.8,0.2-1.2,0.2-1.8,0.1c-0.5,0-1.2,0.2-1.7,0.1c-0.5,0.1-1.3,0.1-1.8,0.1c-0.6,0-1.2,0.2-1.8,0.1
				c-0.5,0.2-1.4,0.1-1.8,0.1c-0.8,0.1-1.1,0.2-1.8,0.1c-0.6,0.2-1.2,0-1.8,0.1c-0.6-0.1-1.4,0.3-1.7,0.1c-0.5,0-1.2,0.2-1.8,0.1
				c-0.7,0.2-1.3,0.1-1.8,0.1c-0.8,0.1-1,0-1.7,0.1c-0.4,0-1.1,0-1.8,0.1c-0.2,0.1-0.5,0.1-0.7,0.1c-0.3,0-0.8,0-1.1,0
				c-0.6,0-1.1,0-1.5-0.6c-0.3-0.2-0.5-1-0.5-1.6c0.1-0.4,0.3-1.3,0.7-1.6c0.2-0.2,1-0.7,1.6-0.8c0.5,0.1,1-0.1,1.8-0.2
				c0.5,0,1.1-0.1,1.8-0.1c0.5-0.1,1.3-0.1,1.7-0.1c0.7,0,1.1,0,1.8-0.1c0.4,0,1.2-0.1,1.8-0.1c0.4,0.1,1.1,0,1.7-0.1
				c0.7,0,1.3,0,1.8-0.1c0.7-0.1,1.1,0,1.8-0.1c0.7,0.1,1.2-0.1,1.8-0.1c0.4,0,1.3-0.1,1.8-0.1c0.7-0.2,1.3-0.1,1.8-0.1
				c0.7,0,1.3-0.1,1.7-0.1c0.5,0.1,1.3,0,1.8-0.1c0.5-0.1,1.1-0.2,1.7-0.1c0.7-0.1,1.1-0.1,1.8-0.1c0.7-0.1,1-0.1,1.8-0.1
				c0.6,0,1.2,0.1,1.5,0.6c0.5,0.3,0.7,0.8,0.5,1.6C451.3,122.1,450.9,122.7,450.6,123z"/>
		</g>
	</g>
</g>
</svg>
