<?xml version="1.0" encoding="utf-8"?>
<!-- Generator: Adobe Illustrator 25.4.1, SVG Export Plug-In . SVG Version: 6.00 Build 0)  -->
<svg version="1.1" id="レイヤー_1" xmlns="http://www.w3.org/2000/svg" xmlns:xlink="http://www.w3.org/1999/xlink" x="0px"
	 y="0px" width="605.5px" height="720px" viewBox="0 0 605.5 720" style="enable-background:new 0 0 605.5 720;"
	 xml:space="preserve">
<style type="text/css">
	.st0{fill:#CCCCCC;}
	.st1{fill:#DC1E14;}
	.st2{opacity:0.2;}
	.st3{fill:#E6D246;}
	.st4{opacity:0.4;fill:#FCEE21;}
	.st5{fill:#FFFFFF;}
</style>
<g>
	<g>
		<g>
			<g>
				<polygon class="st0" points="0,720 11.6,720 97.2,23 85.6,23 				"/>
				<g>
					<path class="st1" d="M605.5,46.2C442-9.6,257.9,102,94.4,46.2c-5.7,46.5-11.4,92.9-17.1,139.4c163.5,55.8,347.6-55.8,511.2,0
						c-12-28.3-24.2-55.2-36.5-81C569.9,83.9,587.8,64.4,605.5,46.2z"/>
				</g>
				<g>
					<polygon class="st2" points="7,720 11.6,720 97.2,23 92.6,23 					"/>
				</g>
				
					<ellipse transform="matrix(0.7284 -0.6851 0.6851 0.7284 14.3429 67.4783)" class="st3" cx="92.3" cy="15.6" rx="16.6" ry="14.7"/>
				<g>
					<path class="st3" d="M100.9,1.6c2.2,2.8,3.3,6.5,2.8,10.5c-1.1,8.6-8.9,15.6-17.6,15.6c-2.5,0-4.7-0.6-6.7-1.6
						c2.5,3.1,6.3,5.1,10.9,5.1c8.6,0,16.5-7,17.6-15.6C108.7,9.5,105.8,4.2,100.9,1.6z"/>
				</g>
				<path class="st4" d="M346.4,58.4c83.3-13.4,169.4-27.1,249.2-1.9c0.9-1,1.8-1.9,2.8-2.9c-80.9-26.1-167.9-12.2-252.1,1.3
					c-84.6,13.6-172.1,27.6-253.1,0.6c-0.1,1.2-0.3,2.4-0.4,3.7c33.8,11.1,68.6,15.2,103.9,15.2C246.3,74.4,296.9,66.3,346.4,58.4z"
					/>
				<path class="st4" d="M332,175.7c84.2-13.5,171.2-27.4,251.7-1.1c-0.6-1.5-1.3-2.9-1.9-4.4c-80.3-25.2-166.5-11.4-249.9,2
					c-84.6,13.6-172.1,27.6-253.1,0.6c-0.1,1.2-0.3,2.4-0.4,3.7c33.8,11.1,68.6,15.2,103.9,15.2C231.9,191.8,282.4,183.6,332,175.7z
					"/>
			</g>
		</g>
	</g>
	<g>
		<path class="st5" d="M172.5,139.2c0.4,0.8,0.4,1.4,0.4,2.4c-0.2,1-0.4,1.5-0.7,2.1c-0.4,1-0.7,1.4-0.9,2c-0.3,0.7-0.8,1.4-1,2
			c-0.5,0.5-0.7,1.6-1.1,1.9c-0.5,1-1.2,1.5-1.6,1.9c-0.6,0.4-1.3,0.5-2.2,0.8c-0.6-0.1-1.5-0.4-2.1-0.8c-0.7-0.4-0.9-0.9-0.8-2.1
			c0.1-0.6,0.3-0.8,0.6-1.5c0.1-0.7,0.7-0.9,1-1.6c0.4-0.3,0.4-0.8,0.9-1.6c0.3-1.2,1.1-2,1.6-3.3c0.5-1.2,1-2,1.6-2.5
			c0.6-0.3,1.2-0.6,2-0.7C171.1,138.1,171.9,138.3,172.5,139.2z M213,137.3c-0.3,1-0.5,2.1-0.5,3c-0.1,0.9-0.6,2-0.7,3
			c-0.1,0.9-0.7,2.1-0.9,3c-0.4,1.1-0.9,2-1.1,2.9c-0.6,0.8-0.6,1.4-1.3,2.1c-0.3,0.4-0.9,1.3-1.9,1.7c-0.7,0.4-1.8,0.9-2.4,1
			c-0.7,0.4-1.8,0.2-2.6,0.3c-1.1,0.2-1.8,0.1-2.6-0.1c-0.8,0-1.6-0.1-2.5-0.6c-0.8-0.6-1.2-1.8-1.3-2.8c0.3-0.7,0.3-1.4,1-2
			c0.3-0.5,1.4-0.9,2.1-0.9c1.2,0,2.4,0.3,3.5,0.4c0.6,0.1,1.2-0.2,1.8-0.5c0.3-0.3,1-0.8,1-1.4c0.1-0.8,0.6-1,0.8-1.9
			c0.1-0.5,0.6-1.3,0.7-2c0.4-0.8,0.5-1.5,0.5-2.1c0-0.6,0.4-1.4,0.3-2c0.1-0.6-1-0.9-1.6-1.1c-1.4,0.1-2.2-0.1-3.4,0
			c-0.9,0-2.3,0-3.4,0c-1.2-0.2-2.1,0-3.4,0c-0.9,0-2.1-0.2-3.4,0c-1.1-0.2-2.5,0.1-3.4,0c-0.9-0.1-2.6,0.2-3.4,0
			c-1.4-0.1-2.4,0.3-3.4,0c-1.2,0.2-2.4,0.2-3.4,0c-0.9,0.3-2.2-0.1-3.3-0.3c-1.2-0.1-2.4-0.7-2.8-1.6c-0.7-0.4-0.4-1.3-0.7-1.9
			c0.2-0.7,0.1-1.4,0-2c0-0.6,0.4-1.5,0.3-2.5c-0.1-0.7,0.3-1.8,0.3-2.4c-0.2-0.6,0.3-1.5,0.3-2.4c0.2-0.9,0.3-1.8,0.3-2.4
			c-0.1-0.6,0.1-1.4,0.3-2.4c0.2-0.8,0.2-1.8,0.3-2.4c0.4-1,0.2-1.5,0.3-2.4c0.2-0.9,0.1-1.5,0.3-2.5c0.3-0.9,0.2-1.4,0.6-2.3
			c0.1-0.6,0.7-1.4,1.6-2c0.9-0.5,1.9-1.2,2.9-1.3c1-0.4,1.8,0,3.1-0.2c1.1,0,2.4-0.2,3.7,0c1.4-0.1,2.6,0.3,3.7,0
			c1.1,0.1,2.6-0.2,3.7,0c1,0.3,2.5,0.2,3.7,0c1.3,0.1,2.2,0.2,3.7,0c1,0.2,2.2,0.3,3.7,0c1.1,0,2.4,0.1,3.7,0
			c1.1-0.1,2.5-0.2,3.8,0.1c0.8,0.3,1.1,0.3,1.6,0.8c0,0.6,0.6,1.4,0.4,1.9c0.1,0.7-0.5,1.4-0.9,1.9c-0.4,0.4-1.2,1-1.8,0.8
			c-1.5,0-2.7,0.1-3.9,0c-1.3,0-2.8,0.1-3.8,0c-1.3-0.1-2.5,0-4.2,0c-0.9-0.2-2,0-2.7,0.5c-0.8,0.8-0.6,1.5-0.6,2.4
			c0.1,0.3,0.6,0.6,1.8,0.5c1.7,0.2,2.6,0,3.6,0c1.1,0.2,1.7-0.2,3,0c1.3-0.2,1.8,0.3,3.1,0.1c0.8-0.2,0.9,0.2,1.4,0.8
			c0.2,0.7,0.2,1.3,0.3,1.7c-0.2,0.4-0.3,1.4-0.8,1.6c-0.4,0.4-0.9,0.9-1.6,0.8c-1.2,0.3-2-0.2-3.1,0c-1.1,0.2-2.2,0.1-3,0
			c-1.2-0.2-2.1,0.3-3.3,0c-0.7,0-1.4,0-2,0.8c-0.5,0.3-0.6,1.4-0.7,2.2c0.3,0.3,0.9,0.8,1.9,0.6c1.6-0.2,2.9,0,3.6,0
			c0.9,0,2.1,0.2,3,0c1.2,0,2.2-0.2,3.1,0.1c0.9-0.2,1,0.6,1.4,0.8c0.3,0.3,0.2,1.2,0.3,1.7c-0.3,0.4-0.5,1.5-0.8,1.6
			c-0.6,0.4-1.2,0.7-1.6,0.8c-1.3,0.1-2.2-0.1-3.1,0c-1.2,0-1.9-0.2-3,0c-1.2,0.2-2.1-0.1-3.6,0c-0.6-0.1-1.2,0-1.8,0.5
			c-0.3,0.5-0.3,1.8-0.3,2.4c0.1,0.3,1,0.7,2.1,0.7c1.8,0.1,3.2,0.1,4.2,0c0.9,0.2,2.1,0.2,3.5,0c0.9,0.2,2.1,0.2,3.4,0
			c0.9-0.1,2-0.1,3.1,0.4c1.1,0.2,1.7,0.6,2.5,1.6c0.6,0.6,0.8,1.1,0.7,1.7C213,136.3,213.2,136.8,213,137.3z M182.9,147.1
			c0,1.2-0.9,2.3-1.3,2.8c-0.9,0.8-1.3,0.9-2.3,0.9c-1.1,0.3-2.1-0.7-2.5-1.7c-0.3-0.9-0.1-1.4-0.4-2.3c-0.1-1.2-0.5-1.9-0.4-2.6
			c-0.3-1.6-0.8-2.2-0.5-3c-0.2-0.6,0.6-1.3,1.2-1.8c0.7-0.5,1.2-0.5,2.1-0.7c0.9,0.1,1.2,0.3,1.8,0.7c0.6,0.2,0.9,1.2,1,1.6
			c0.3,1.3,0.5,2.2,0.9,3C182.5,145.1,182.6,146.1,182.9,147.1z M187.6,128.7c-0.3-1.2-1.1-0.8-1.7-0.6c-1.7-0.1-2.4,0-3.2,0
			c-0.7-0.2-1.8,0.3-3.2,0c-0.6,0.2-2.2,1-2.1,1.9c-0.2,1.3,0.2,1.6,1.6,1.7c0.7-0.2,1.2-0.2,2.2,0c0.6,0.2,1.6,0.2,2.9,0
			c0.5,0.2,2.1,0.1,2.9-0.7C187.5,130.3,187.3,129.6,187.6,128.7z M187,119.6c-1.3,0.2-2.5,0.2-3.2,0c-0.7,0-1.9-0.2-2.9,0
			c-0.7,0.1-1.7,0.3-1.9,0.6c-0.4,0.4-0.8,1.7-0.6,2.3c0,0.7,0.7,0.9,1.7,0.6c1.2-0.2,2.2-0.2,3.2,0c0.7,0.3,1.9,0,3.2,0
			c0.4,0.7,1.4-0.3,1.6-0.8c0.3-0.3,0.3-1.3,0.4-2C188.3,119.6,187.6,119.8,187,119.6z M179.6,112.9c-0.6,1.6,0.6,1.8,1.6,1.7
			c1.2,0.2,2,0,3.2,0c1.1,0.2,1.9,0.1,3.2,0c0.5-0.1,1.3,0.1,1.7-0.7c0.6-0.7,0.3-1.5,0.4-2.1c-0.1-0.4-1.9-0.8-3.4-0.6
			c-0.7-0.2-1.9-0.1-2.5,0c-1,0.3-1.7,0-2.1,0C180.5,111.5,179.7,111.3,179.6,112.9z M192.8,143.7c0.1,0.6,0.2,1.5,0.4,2.3
			c-0.3,0.8-0.8,1.6-1.3,2c-0.5,0.6-1.4,0.9-2.2,0.8c-1.4,0.3-1.9-0.6-2.3-1.7c-0.3-0.7-0.4-1.3-0.7-2.3c-0.3-0.6-0.3-1.2-0.9-2.2
			c-0.1-1.4,0.5-2.4,0.8-3.4c0.7-0.9,1.4-0.3,2-0.9c0.8,0.3,1.7,0.2,2.2,1.1c0.4,0.6,0.8,1.4,1.2,2.2
			C192.4,142,192.7,142.9,192.8,143.7z M197,145.3c-0.5-0.7-0.9-1.6-1-2.2c-0.2-0.5-0.8-0.9-0.8-1.6c-0.4-0.4-0.5-1.2-0.3-1.7
			c0.1-0.9,0.5-1.2,1.1-1.6c0.6,0,1.2-0.5,2-0.3c0.8-0.1,1.6,0,1.9,0.5c0.6,0.6,0.9,1.2,1.2,1.7c0.1,0.6,0.4,1.3,1,1.8
			c0,0.6,0.4,1.2,0.3,2c-0.4,0.9-0.5,1.6-1.2,1.9c-0.5,0.6-1.5,1-2.1,0.8C198.1,146.6,197.4,145.7,197,145.3z"/>
		<path class="st5" d="M276.3,138.1c-0.2,0.7,0,1.3-0.6,1.9c-0.2,0.3-0.8,1-1.7,1.1c-0.9,0.2-1.6,0.4-2.7,0.3
			c-0.8,0.2-1.5,0.4-2.6,0.3c-0.9,0-1.8,0.3-2.6,0.3c-0.7,0.2-1.7,0.3-2.6,0.3c-0.7-0.1-1.5,0.2-2.6,0.3c-1.1-0.1-1.9,0.1-2.6,0.3
			c-1.1,0.4-1.7,0-2.8,0.3c-1.2,0-1.9,1.2-2.1,2.5c0.1,1.7-0.3,3.1-0.1,4c0.1,0.7-0.6,1.5-1,1.9c-0.4,0.6-1.4,0.7-2.1,0.8
			c-1,0.3-1.6,0-2-0.4c-0.4-0.2-0.8-0.7-1-1.6c0-1.3-0.2-2.2,0-4c0.1-0.8-0.9-2.1-2-2c-1.3,0.3-1.8,0.2-2.8,0.3
			c-0.6,0-1.5,0-2.5,0.3c-0.9,0.2-1.5,0.1-2.5,0.3c-1,0.1-1.8,0.3-2.5,0.3c-0.8,0-1.9,0.2-2.5,0.3c-0.7,0-1.7,0.3-2.5,0.3
			c-0.8,0.2-1.9,0.2-2.6,0.2c-0.5,0.1-1.4-0.1-1.6-0.7c-0.6-0.4-0.5-1.2-0.6-1.8c-0.1-0.5,0.1-1.4,0.6-1.9c0.3-0.7,1.2-1.1,1.7-1
			c0.6-0.3,1.7,0,2.6-0.3c0.9,0.1,1.4,0.1,2.5-0.3c0.9,0.2,1.7-0.1,2.5-0.3c0.8,0.2,1.5-0.2,2.5-0.3c0.9-0.1,1.5,0,2.5-0.3
			c0.7-0.2,1.7,0.1,2.5-0.3c0.6-0.3,1.8-0.1,3.1-0.3c1.9-0.4,1.8-0.8,1.8-2.5c-0.2-0.6-1.5-0.3-2.8-0.2c-1.2,0.3-2.2,0.2-2.7,0.3
			c-0.9-0.1-1.5,0-2,0.2c-1.2,0.3-2.6,0.3-3.4,0c-0.8-0.2-0.9-0.1-1.6-0.4c-0.7-0.1-1.2-0.5-1.4-0.9c-0.3-0.6-0.7-1.2-1-1.8
			c0-0.4-0.3-1.4-0.2-2.1c-0.3-0.8,0-1.3,0-2.2c0.2-0.9,0-1.6,0-2.2c-0.2-0.6,0.1-1.3,0-2.2c0-0.5-0.3-1.3,0-2.3
			c-0.2-0.6,0-1.5,0.4-2.4c0-0.6,0.9-1.6,1.3-2.1c0.8-1,1.6-1,2.9-1.7c1.3-0.4,2.2-0.2,3.2-0.5c0.4,0.2,1.3-0.2,2-0.2
			c0.4,0.2,1.8-0.3,2.7-0.3c0.4,0,1.5,0,2.3-0.4c0.4-0.2,0.7-1.5,0.5-2.2c-0.3-0.7-1.1,0-1.5-0.3c-1.1,0.1-1.9,0-2.8,0.3
			c-0.9,0.3-1.4-0.1-2.2,0.2c-0.8,0.3-1.7,0.3-2.3,0.2c-0.9-0.1-1.6,0.4-2.3,0.2c-0.6,0.3-1.6,0.1-2.2,0.2c-0.6,0.3-1.8,0-2.3,0.2
			c-0.6-0.2-1.7,0.4-2.3,0.2c-1,0.2-1.1-0.1-1.7-0.7c-0.3-0.3-0.6-1.2-0.6-1.8c0.1-0.8,0.2-1.2,0.6-1.9c0.5-0.3,0.7-1,1.7-1.1
			c0.6,0.2,1.3,0,2.3-0.2c0.6,0.2,1.4,0.1,2.3-0.2c0.4,0,1.3-0.3,2.2-0.2c0.6,0,1.6-0.3,2.3-0.2c0.6,0.1,1.4-0.3,2.3-0.2
			c0.7-0.3,1.7-0.2,2.2-0.2c0.7-0.1,1.6,0.1,2.8-0.3c0.2,0.2,1-0.8,1.1-1.1c0.2-0.7,0.3-1.2,0.6-2.3c0.1-1.3,0.4-1.6,1-2.2
			c0.8-0.4,1.2-0.6,2.1-0.8c0.8-0.2,1.6,0.3,2,0.3c0.3,0.5,1,0.9,1,2c-0.1,0.9,0.2,1.6,0.5,2.2c0.4,0.4,0.7,0.7,1,0.9
			c1.4-0.4,2,0.1,2.8-0.3c0.5,0.2,1.2-0.2,2.2-0.2c1,0.1,1.7-0.1,2.3-0.2c0.6-0.1,1.5-0.1,2.3-0.2c0.7-0.1,1.2,0,2.2-0.2
			c0.7-0.2,1.6-0.2,2.3-0.2c0.7,0,1.7-0.1,2.3-0.2c0.5,0.1,1.1,0.3,1.7,0.7c0.6,0.6,0.5,1.3,0.6,1.9c-0.2,0.8,0,1.4-0.6,1.9
			c-0.5,0.8-1.2,1.2-1.7,1.1c-1.1,0.1-1.7,0.4-2.3,0.3c-0.8,0.2-1.7,0.4-2.3,0.2c-0.9-0.1-1.7,0-2.2,0.2c-0.9,0.4-1.3,0.1-2.3,0.2
			c-0.6,0.3-1.7,0.4-2.3,0.2c-0.6,0.1-1.7,0-2.2,0.2c-1.1,0-2.4,0.2-3.3,0.3c-1.3,0.1-1.3,1.5-1.1,2.4c-0.1,0.1,0,0.1,0.1,0.2
			c0.2,0.1,0.5,0.1,0.9,0.1c0.6,0,1.4,0,2.1-0.2c1.1,0.1,1.8-0.1,2.9-0.3c0.6,0.1,1.4-0.3,2.2-0.2c1.2,0.1,2.3-0.2,3.4-0.1
			c0.6-0.1,1.4,0.1,1.7,0.4c0.7,0.5,0.9,0.6,1.4,0.9c0.3,0.8,0.9,1.2,1,1.8c0.2,0.6,0.3,1.6,0.2,2.1c0,0.7-0.1,1.3,0,2.2
			c-0.1,0.7-0.1,1.3,0,2.3c-0.1,0.9-0.2,1.4,0,2.2c0,0.7-0.1,1.4,0,2.2c0.1,0.7-0.4,1.5-0.4,2.4c-0.2,1.1-0.6,1.3-1.3,2.2
			c-0.9,0.7-2,1.1-2.9,1.6c-1,0.2-2.4,0.4-3.2,0.6c-0.8,0.1-1.2,0-2.2,0.2c-0.9,0.1-1.5,0.3-2.9,0.3c-0.9,0-2-0.2-2.7,0.5
			c-0.7,0.8-0.6,1.3-0.4,2.1c0.4,0.6,0.9,0.3,2.2,0.3c1.3-0.2,1.8-0.2,2.8-0.3c0.8,0.2,1.9,0.1,2.6-0.3c1-0.3,1.8,0,2.6-0.3
			c0.7-0.1,1.4,0,2.6-0.3c0.6-0.1,1.7-0.3,2.6-0.3c0.9-0.2,1.9-0.2,2.6-0.3c1.1-0.1,1.9-0.1,2.7-0.3c0.9,0,1.5,0.2,1.7,0.7
			C275.9,137,276.4,137.4,276.3,138.1z M247.5,128.2c-0.4-0.8-1-0.9-1.5-0.7c-1.2,0.1-2.3,0.3-2.8,0.3c-0.9,0.3-1.7,0.1-2.6,0.3
			c-0.8,0.1-2,1-1.9,1.7c-0.3,1.8,0.8,1.7,2.2,1.4c1.2,0.1,2.4-0.3,4.2-0.4c0.6-0.2,1.4,0,1.9-0.6
			C247.7,129.5,247.7,128.8,247.5,128.2z M238.8,122.2c-0.2,1,0.8,1.3,1.6,1.2c1.3-0.3,2.1-0.2,2.9-0.3c0.7,0,1.3,0.2,2.8-0.3
			c1.7-0.6,2.1-1.5,1.4-2.6c-0.5-0.6-1.4-0.3-3-0.3c-1.2,0.3-2.4,0.4-3.4,0.4C240,120.6,238.5,120.9,238.8,122.2z M263.4,127.1
			c0-1-1.1-1-1.8-1.2c-1.3,0.2-2.2,0-3.1,0.3c-0.8,0-2.7,0-3.8,0.6c-1.2,0.2-1.3,1.4-1,2.5c0.4,0.5,1.7,0.3,2.7,0.3
			c0.9,0,1.8-0.3,2.6-0.3c0.8,0.1,1.4-0.3,2-0.2C262.3,128.9,263.5,128.5,263.4,127.1z M255.6,121.8c1.2,0,2.3-0.1,3-0.3
			c0.9,0.1,1.6,0.1,3.1-0.3c1,0,1.9-1.1,1.8-1.6c0.4-1.6-0.9-1.8-2.2-1.4c-0.5,0.2-1.1-0.1-2,0.2c-0.9,0-1.6,0.4-2.6,0.3
			c-0.4,0.2-1.4-0.2-2.3,0.5c-0.7,0.3-0.7,1.2-0.6,2.1C253.9,121.7,254.7,121.9,255.6,121.8z"/>
		<path class="st5" d="M293.3,130.8c0.5,0.7,0.7,1.3,0.8,2.3c0,1-0.2,1.6-0.4,2.2c-0.2,1-0.5,1.4-0.6,2.1c-0.1,0.7-0.6,1.5-0.6,2.1
			c-0.4,0.6-0.4,1.7-0.8,2c-0.4,1-1,1.7-1.3,2.1c-0.5,0.5-1.3,0.7-2.1,1.1c-0.6,0-1.6-0.1-2.2-0.4c-0.8-0.3-1-0.8-1.1-1.9
			c0-0.6,0.2-0.9,0.3-1.5c0-0.7,0.5-1,0.7-1.8c0.4-0.4,0.2-0.8,0.7-1.7c0.1-1.2,0.8-2.1,1-3.5c0.3-1.3,0.6-2.1,1.2-2.7
			c0.5-0.4,1.1-0.8,1.9-1C291.8,130,292.6,130.1,293.3,130.8z M333.8,122.4c-0.1,1.1-0.1,2.2,0,3c0,0.9-0.3,2-0.2,3
			c0.1,0.9-0.3,2.2-0.4,3c-0.2,1.1-0.6,2.1-0.7,2.9c-0.5,0.9-0.3,1.5-1,2.3c-0.3,0.5-0.7,1.4-1.7,2c-0.6,0.5-1.6,1.1-2.3,1.3
			c-0.7,0.5-1.8,0.5-2.5,0.7c-1,0.3-1.8,0.4-2.7,0.3c-0.8,0.1-1.7,0.1-2.6-0.2c-0.9-0.5-1.6-1.6-1.8-2.5c0.2-0.7,0.1-1.4,0.7-2.1
			c0.3-0.5,1.3-1.1,2-1.2c1.2-0.2,2.4-0.1,3.6-0.2c0.6,0,1.2-0.3,1.7-0.8c0.3-0.4,0.9-0.9,0.8-1.5c-0.1-0.8,0.5-1.1,0.4-2
			c0-0.5,0.3-1.4,0.3-2.1c0.3-0.9,0.3-1.6,0.1-2.1c-0.1-0.5,0.2-1.4,0-2c0-0.6-1.1-0.8-1.8-0.8c-1.4,0.3-2.3,0.3-3.4,0.5
			c-0.9,0.1-2.3,0.4-3.4,0.5c-1.3,0-2.2,0.3-3.4,0.5c-0.9,0.2-2.2,0.1-3.4,0.5c-1.1,0-2.5,0.5-3.4,0.5c-0.9,0-2.5,0.6-3.4,0.5
			c-1.4,0.2-2.4,0.6-3.4,0.5c-1.2,0.3-2.4,0.6-3.4,0.5c-0.8,0.4-2.3,0.3-3.3,0.2c-1.2,0.1-2.5-0.3-3-1.1c-0.8-0.3-0.6-1.2-1.1-1.7
			c0-0.7-0.2-1.4-0.3-2c-0.1-0.5,0.1-1.5-0.1-2.4c-0.2-0.7,0-1.8-0.1-2.4c-0.3-0.6,0.1-1.5-0.1-2.4c0.1-0.9,0-1.8-0.1-2.4
			c-0.2-0.6-0.2-1.3-0.1-2.4c0.1-0.8-0.1-1.7-0.1-2.4c0.2-1.1-0.1-1.5-0.1-2.4c0-0.9-0.1-1.5-0.1-2.4c0.2-0.9,0-1.4,0.2-2.3
			c0-0.6,0.4-1.5,1.3-2.2c0.8-0.6,1.7-1.5,2.7-1.7c1-0.5,1.8-0.3,3-0.7c1.1-0.2,2.4-0.6,3.8-0.6c1.4-0.3,2.7-0.1,3.7-0.6
			c1.2-0.1,2.5-0.6,3.7-0.6c1.1,0.1,2.6-0.2,3.8-0.6c1.3-0.1,2.2-0.2,3.7-0.6c1.1,0.1,2.3-0.1,3.8-0.6c1.1-0.2,2.4-0.3,3.7-0.6
			c1-0.3,2.5-0.6,3.8-0.5c0.8,0.1,1.1,0.2,1.8,0.6c0.1,0.5,0.8,1.2,0.7,1.8c0.2,0.7-0.3,1.4-0.5,1.9c-0.4,0.4-1,1.1-1.7,1.1
			c-1.6,0.2-2.7,0.5-3.9,0.7c-1.3,0.2-2.8,0.6-3.9,0.6c-1.3,0.1-2.5,0.4-4.3,0.7c-0.9,0-2,0.4-2.6,0.9c-0.7,0.9-0.4,1.6-0.2,2.4
			c0.1,0.3,0.7,0.5,1.8,0.2c1.8-0.1,2.6-0.5,3.7-0.6c1.2,0,1.7-0.4,3-0.5c1.3-0.4,1.9,0,3.1-0.4c0.8-0.3,0.9,0,1.6,0.5
			c0.3,0.6,0.4,1.2,0.6,1.5c-0.1,0.5-0.1,1.4-0.5,1.7c-0.4,0.4-0.7,1-1.5,1c-1.2,0.5-2.1,0.2-3.1,0.5s-2.2,0.5-3,0.5
			c-1.2,0-2.1,0.6-3.3,0.5c-0.7,0.1-1.4,0.3-1.9,1.1c-0.5,0.4-0.3,1.4-0.3,2.2c0.3,0.3,1.1,0.6,2,0.2c1.6-0.5,2.9-0.5,3.7-0.6
			c0.9-0.1,2.1-0.1,3-0.5c1.2-0.2,2.2-0.6,3.1-0.4c0.9-0.4,1.1,0.4,1.6,0.5c0.4,0.3,0.4,1.1,0.6,1.5c-0.3,0.5-0.3,1.5-0.5,1.7
			c-0.5,0.5-1.1,0.8-1.5,1c-1.3,0.3-2.3,0.2-3.1,0.5c-1.2,0.2-1.9,0.1-3,0.5c-1.2,0.4-2.1,0.2-3.7,0.6c-0.7,0-1.2,0.2-1.8,0.8
			c-0.2,0.5,0,1.8,0.1,2.4c0.2,0.2,1.1,0.5,2.2,0.3c1.8-0.2,3.3-0.4,4.2-0.6c0.9,0.1,2.1-0.2,3.5-0.5c1,0.1,2.2-0.1,3.4-0.5
			c0.9-0.2,2-0.4,3.2-0.2c1.1,0,1.9,0.3,2.8,1.1c0.7,0.4,1,0.9,1,1.5C333.5,121.4,333.9,121.8,333.8,122.4z M296.1,104.3
			c-0.3,1.7,1,1.6,1.9,1.4c1.3,0,2.1-0.4,3.2-0.5c1.1,0,1.9-0.2,3.2-0.5c0.4-0.2,1.3-0.2,1.6-1c0.5-0.7,0.1-1.5,0.1-2.1
			c-0.1-0.4-2.1-0.4-3.6,0c-0.7-0.1-1.9,0.2-2.5,0.4c-1,0.4-1.7,0.3-2.2,0.3C296.7,102.8,295.9,102.8,296.1,104.3z M304.6,109.6
			c-1.3,0.4-2.5,0.6-3.2,0.5c-0.7,0.1-1.9,0.1-2.9,0.4c-0.7,0.2-1.7,0.5-1.8,0.9c-0.4,0.5-0.5,1.8-0.3,2.3c0.1,0.6,0.8,0.8,1.9,0.3
			c1.2-0.4,2.2-0.6,3.2-0.5c0.7,0.2,1.9-0.3,3.2-0.5c0.5,0.6,1.3-0.5,1.5-1c0.2-0.3,0.1-1.3,0-2
			C305.9,109.4,305.2,109.7,304.6,109.6z M305.2,136.8c0.2,1.2-0.5,2.4-0.8,2.9c-0.8,0.9-1.1,1.1-2.2,1.2c-1,0.4-2.2-0.3-2.8-1.3
			c-0.5-0.9-0.4-1.4-0.8-2.2c-0.3-1.1-0.8-1.7-0.9-2.4c-0.6-1.5-1.1-2-1-2.9c-0.3-0.6,0.4-1.4,0.9-1.9c0.6-0.6,1.1-0.7,2-1
			c0.9,0,1.3,0.1,1.9,0.4c0.6,0.1,1.1,1,1.3,1.4c0.5,1.2,0.9,2.1,1.4,2.8C304.3,134.9,304.7,135.9,305.2,136.8z M306.7,118.3
			c-0.5-1.1-1.2-0.6-1.9-0.3c-1.8,0.2-2.4,0.4-3.2,0.5c-0.7-0.1-1.8,0.5-3.2,0.5c-0.6,0.3-2,1.4-1.8,2.1c0,1.3,0.4,1.5,1.9,1.4
			c0.7-0.3,1.2-0.4,2.2-0.3c0.7,0.1,1.6,0,2.9-0.4c0.6,0.1,2.2-0.3,2.8-1.1C306.9,119.8,306.6,119.2,306.7,118.3z M314.5,131.8
			c0.2,0.5,0.5,1.4,0.7,2.1c-0.1,0.8-0.5,1.7-0.9,2.1c-0.4,0.7-1.3,1.1-2.1,1.1c-1.3,0.5-2-0.2-2.6-1.2c-0.5-0.6-0.6-1.2-1.1-2.1
			c-0.4-0.5-0.5-1.1-1.2-2c-0.4-1.3,0.1-2.4,0.3-3.4c0.6-1,1.3-0.5,1.9-1.2c0.8,0.1,1.8-0.1,2.4,0.7c0.5,0.5,1.1,1.3,1.6,1.9
			C313.8,130.3,314.3,131.2,314.5,131.8z M319,132.7c-0.6-0.6-1.2-1.4-1.4-2c-0.2-0.5-1-0.8-1.1-1.4c-0.5-0.3-0.7-1.1-0.6-1.6
			c0-0.9,0.3-1.2,0.8-1.8c0.6-0.1,1.1-0.7,1.9-0.6c0.8-0.2,1.6-0.2,2,0.1c0.7,0.4,1.2,1,1.4,1.5c0.2,0.5,0.6,1.2,1.3,1.6
			c0.1,0.6,0.6,1.1,0.7,1.9c-0.2,0.9-0.2,1.6-0.9,2c-0.4,0.7-1.3,1.2-2,1.1C320.3,133.8,319.5,133.1,319,132.7z"/>
		<path class="st5" d="M382.6,113c0.1,0.7-0.1,1.1-0.2,1.7c0.1,0.7-0.4,1.1-0.3,1.8c0,0.3-0.5,1.4-0.5,1.7c-0.4,0.5-0.4,1.3-0.7,1.6
			c-0.1,0.7-0.7,1.3-0.9,1.6c-0.2,0.7-0.6,1.1-1,1.5c-0.4,0.7-0.9,1-1.2,1.5c-0.2,0.6-1,0.9-1.5,1.4c-0.7,0.7-1.4,1.1-1.9,1.5
			c-0.8,0.6-1.4,0.9-2,1.3c-0.7,0.3-1.2,0.6-1.9,0.9c-0.9,0.4-1.8,0-2.4-0.3c-0.5-0.2-1-0.8-0.9-1.7c-0.2-0.4,0.2-1.1,0.5-1.6
			c0.3-0.5,0.8-0.7,1.3-1.2c0.7-0.5,1.1-0.5,1.7-1c0.3-0.2,0.9-0.6,1.5-1.1c0.3-0.2,1.2-0.9,1.4-1.2c0.6-0.5,0.9-0.9,1.3-1.4
			c0.6-0.3,0.7-1.2,1.1-1.8c0.1-0.5,0.7-1.2,0.8-2c0.2-0.5,0.2-1.4,0.4-2.1c0-0.8-0.1-1.2,0.1-2.1c-0.2-0.5,0-1.3-0.3-2
			c-0.1-0.7-0.4-1.1-0.6-1.9c-0.1-0.6-0.7-1.1-0.9-1.6c-0.3-0.6-0.8-0.8-1.2-1.4c-0.5-0.6-1.4-1-1.9-1.3c-0.6-0.3-1.4-0.6-2.1-0.8
			c-0.5-0.2-0.9-0.3-1.8-0.2c-0.8,0.1-1.8,0.9-1.9,1.7c-0.2,1.3-0.1,2-0.2,2.7c0,0.9-0.2,1.7-0.3,2.2c-0.3,0.8-0.2,1.7-0.3,2.3
			c0,0.6-0.3,1.4-0.5,2.2c-0.3,0.9-0.3,1.7-0.6,2.2c-0.2,1-0.7,1.6-0.7,2.2c-0.2,0.6-0.6,1.3-0.8,2.2c-0.1,0.3-0.3,1.1-0.8,1.7
			c-0.1,0.5-0.4,1-0.9,1.6c-0.5,0.7-0.6,1.1-1.1,1.5c-0.5,0.4-0.9,0.8-1.3,1.3c-0.7,0.6-1.5,1-2.4,1.5c-0.7,0.4-1.5,0.6-2.6,0.8
			c-1.1,0.3-2.2,0.3-2.9-0.2c-0.3,0-0.9-0.3-1.3-0.5c-0.6-0.1-0.7-0.5-1.2-0.8c-0.7-0.4-1-1-1.4-1.6c-0.6-0.4-0.8-1.1-1-1.9
			c-0.2-0.6-0.3-1.3-0.6-2.1c0-0.8-0.3-1.4-0.2-2.2c0-0.7,0.1-1.2,0-1.8c0.2-0.5,0.2-1.1,0.2-1.7c0.1-0.7,0.2-1.1,0.4-1.7
			c0.1-0.4,0.1-1.3,0.5-1.7c0.2-0.6,0.3-1,0.7-1.7c0.1-0.4,0.4-1.1,0.8-1.6s0.6-1.2,1-1.6c0.3-0.5,0.6-1,1.1-1.4
			c0.6-0.8,1.1-1.1,1.5-1.6c0.4-0.7,0.9-1.1,1.7-1.5c0.4-0.2,1.1-1.1,1.7-1.3c0.6-0.5,1.2-0.8,1.9-1.1c0.7-0.1,1.5-0.4,2-0.9
			c0.7-0.5,1.4-0.4,2-0.8c0.6-0.2,1.1-0.3,2-0.6c0.5-0.2,1.3-0.4,2.1-0.4c0.5-0.1,1-0.1,1.7-0.2c0.6-0.1,1,0,1.7,0
			c0.7-0.1,1.1,0.1,1.7,0c0.6,0.2,1,0.2,1.7,0.2c0.5,0.2,1.2,0.4,1.6,0.4c0.5,0.3,1.2,0.6,1.6,0.6c0.4,0.2,0.9,0.6,1.5,0.7
			c0.6,0.3,0.9,0.7,1.4,1c0.4,0.3,0.6,0.7,1,0.9c0.2,0.3,0.7,0.9,0.9,1.1c0.1,0.3,0.6,1,0.7,1.2c0.1,0.6,0.6,0.8,0.7,1.3
			c0.4,0.3,0.5,0.7,0.5,1.4c0,0.5,0.4,0.8,0.4,1.4c0.4,0.9,0.3,2.1,0.4,2.9C382.4,111.7,382.5,112.7,382.6,113z M361.1,105.7
			c-0.1-0.6-0.9-1-1.5-0.7c-0.6,0.2-1.1,0.4-1.4,0.6c-0.4,0.3-0.9,0.7-1.2,0.9c-0.3,0.2-0.8,0.9-1.3,1.1c-0.5,0.6-0.8,0.7-1.1,1.2
			c-0.4,0.3-0.5,0.8-1,1.3c-0.4,0.5-0.5,1.1-0.9,1.4c-0.1,0.4-0.4,0.8-0.7,1.5c-0.4,0.7-0.4,0.8-0.6,1.5c-0.2,0.7-0.4,1.2-0.4,1.5
			c-0.3,1.2-0.4,2.3-0.3,3.1c0.1,0.7,0.2,1,0.2,1.6c0.1,0.4,0.1,1.2,0.5,1.7c0.4,0.5,0.5,0.9,1,1.2c0.4,0.3,1.1,0.4,1.5,0.3
			c0.6-0.1,1.2-0.4,1.6-0.7c0.3-0.3,0.6-0.8,1.1-1.3c0.4-0.6,0.6-1.1,0.9-1.6c0.2-0.4,0.4-1,0.7-1.6c0.2-0.6,0.3-1,0.7-1.8
			c0.1-0.7,0.4-1.2,0.5-1.8c0.1-0.5,0.5-1.1,0.5-1.8c-0.1-0.4,0.1-1.1,0.4-1.9c-0.1-0.4,0.1-1,0.3-1.8c0.1-0.6,0.3-1.3,0.2-1.9
			C360.8,107.1,361.2,106.6,361.1,105.7z"/>
		<path class="st5" d="M413.5,110c-0.2,1.4-0.1,2-0.2,3.4c-0.2,1-0.2,2.2-0.3,3.4c-0.1,0.7,0.1,1.6-0.2,2c-0.1,0.9,0.1,1.7-0.3,2.2
			c-0.2,0.7-0.4,1.5-0.6,2.1c-0.1,0.8-0.6,1.4-1.1,2c-0.4,1.1-1.2,1.5-2.1,1.9c-0.8,0.2-2,0.7-2.7,0.8c-1.4,0.4-3.1,0.5-4,0
			c-1.1-0.1-1.9-1.2-1.8-2.6c0.1-0.8,0.5-1.5,0.7-2.2c0.4-0.4,1.1-1.1,1.9-1.3c1.5,0.1,2.2,0.1,3.1-0.4c0.4-0.9,0.6-1.7,0.5-2.6
			c0.1-0.5,0.3-1.3,0.3-1.7c0.1-1.1,0.1-2.3,0.3-3.1c-0.1-0.8-0.1-1.5,0.2-2.4c0.1-0.9-0.2-1.6,0.1-2.4c0.2-0.9-0.1-1.4,0.1-2.4
			c0-0.6-0.2-1.5,0-2.4c0.1-0.6-0.4-1.1-1.7-1c-1,0.2-1.9,0.2-2,2.2c-0.3,1.7-0.5,2.7-0.5,3.4c-0.3,0.7-0.4,1.6-0.4,2.7
			c-0.4,1.2-0.2,1.8-0.6,2.8c-0.1,1.1-0.6,2-0.7,2.7c-0.1,0.9-0.7,1.6-0.9,2.7c-0.6,0.8-0.7,1.8-1,2.6c-0.2,0.6-0.7,2.1-1.2,2.7
			c-0.4,1.1-1.2,1.9-1.5,2.5c-0.7,0.6-1.5,1.1-2.6,1.4c-0.6,0-1.6-0.3-2.2-0.6c-0.7-0.3-0.9-0.8-0.9-1.9c0-0.8,0.3-1.2,0.6-2.1
			c0.4-0.5,0.5-1.2,0.8-1.6c0.4-0.8,0.5-0.9,0.7-1.6c0.3-0.9,0.9-2.2,1.3-3.2c0.6-1.1,0.7-2.1,1.1-3.3c0.2-1.3,0.7-2.2,0.8-3.3
			c0.4-1.1,0.5-2.4,0.6-3.3c0.2-1.3,0.1-2.1,0.4-3.3c0.3-1.3-0.1-2,0.2-3.4c-0.2-1.1-0.1-1.9,0.1-3.3c-0.2-0.5-0.1-1.5,0-2.7
			c-0.1-0.6-0.1-1.3-0.9-1.3c-0.8,0-1.7,0.2-2.8,0.1c-1.1,0.3-1.9,0.1-2.2-0.7c-0.7-0.5-0.6-0.9-0.6-1.8c0-0.7,0-1.4,0.6-1.9
			c0.2-0.5,1.1-0.9,1.7-1.1c1-0.1,1.7-0.2,3.6-0.5c0.4,0,1.3-0.2,1.7-0.6c0.4-0.8,0.2-1.5,0.4-2.2c-0.1-0.9-0.1-2,0-2.5
			c-0.2-0.7-0.1-1.5,0.1-1.9c0.1-0.6,0.2-1.4,1-2c0.3-0.4,1.6-0.6,2.1-0.9c0.9-0.1,1.4,0.1,2.1,0.4c0.6,0.3,1,0.9,1,1.7
			c0,0.8,0.1,1.3,0.1,1.9c-0.1,0.8-0.2,2-0.2,2.8c0,0.5,0.1,1.3,0.4,1.7c0.6,0.5,1.8,0.4,2.6,0.2c1.3-0.3,1.9-0.2,2.8-0.3
			c1,0,1.4,0.1,2.1-0.2c0.5,0.1,1.4,0.3,1.7,0.7c0.5,0.4,0.6,1.4,0.6,1.8c0.2,0.7-0.3,1.5-0.6,2c-0.3,0.4-0.9,1.3-1.7,1.1
			c-0.8,0.4-1.7,0.3-2.4,0.3c-0.7,0.1-1.7,0.3-2.3,0.3c-0.9,0-1.5,0.5-2.8,0.3c-0.6,0-1.6,0.5-1.6,1.8c0.1,1.4-0.3,2.2,0.2,2.9
			c0.1,0.6,1.6,0,2.9,0.1c0.8,0.1,1.7-0.1,2.7,0c0.7,0.1,1.5,0.5,2.3,1.1c0.7,0.4,0.6,1.3,1.1,1.8c0,0.9,0.5,1.5,0.3,2.3
			c0.2,1,0.2,2.3-0.1,3.4C413.4,107.5,413.3,108.8,413.5,110z M443,119.9c0.2,1.1-0.4,1.6-0.9,2.3c-0.7,0.9-1.7,1.2-2.2,1.2
			c-1,0.2-1.2-0.2-2-0.4c-0.4-0.3-1.1-0.7-1.7-1.1c-0.6-0.7-1.4-0.8-2.1-1.5c-0.9-0.5-1.6-0.9-2-1.7c-0.3-0.4-0.9-0.3-0.9-0.9
			c-0.2-0.5-0.9-0.5-1.2-1.2c-0.4-0.6-1.4-1.1-1.9-0.4c-0.8,0.6-0.9,1.2-1.2,1.6c-0.4,0.4-0.8,0.6-1.1,1.3c-0.4,0.4-0.7,0.9-1.1,1.3
			c-0.5,0.5-0.6,0.9-1.2,1.2c-0.6,0.7-0.8,0.8-1.2,1.2c-0.7,0.6-0.9,1-1.3,1.2c-0.7,0.5-1,0.6-1.3,1.1c-0.2,0.2-1,1-1.5,1.2
			c-0.8,0.5-1.3,0.7-1.8,0.7c-0.7,0.3-1.5-0.3-2-0.5c-0.6-0.6-1.2-0.7-0.9-1.8c0-1.1,0.8-2.3,1.7-3c0.6-0.6,0.7-0.9,1.4-1.2
			c0.8-0.4,1.9-1.2,2.4-2.3c0.6-0.4,0.4-0.8,1.1-1.2c0.6-0.3,0.9-0.8,1.1-1.3c0.4-0.7,0.5-1,1.1-1.4c0.4-0.3,0.7-0.9,1.5-2
			c0.4-0.7,0.9-2.2,0.3-3.5c-0.2-1-0.9-1.2-1.1-1.9c-0.2-0.7-0.7-0.9-0.7-1.4c-0.3-0.6-0.3-0.8-0.6-1.4c-0.2-0.6-0.3-0.9-0.7-1.7
			c-0.6-0.7-1.4-1.1-1.8-0.8c-0.8,0.5-1.4,0.7-2,0.9c-0.5,0.1-1.3-0.2-2-0.6c-0.7-0.2-0.8-1-0.9-1.8c0.2-0.8,0.4-1.6,0.6-2
			c0.2-0.3,0.9-1.3,1.2-2.1c0.3-0.3,0.4-0.9,0.9-1.7c-0.1-0.6,0.3-0.8,0.7-1.7c0.4-0.4,0.5-1.3,0.8-1.8c0.4-0.4,0.2-1.4,0.8-2
			c0.5-0.9,0.3-1,0.7-1.8c0-0.8,0.4-1.1,0.6-1.9c0.3-0.5,0.2-0.9,0.6-1.9c0.2-0.4,0.4-1.1,0.4-1.8c0.3-0.5,0.4-1.7,0.7-2.4
			c-0.1-0.6,0.8-1.4,1.1-1.8c0.7-0.7,1.4-0.8,1.9-0.9c0.9-0.2,1.4,0.2,2.2,0.5c0.8,0.6,0.9,1,1.1,1.9c0,0.8-0.2,1.5-0.5,2.1
			c-0.1,0.5-0.3,1.3-0.7,2.5c-0.8,1.9-0.3,3,1.2,2.8c1.5-0.2,3.4-0.2,4.4-0.5c0.9,0.1,2.4-0.1,3.4-0.3c1.4-0.3,2.6-0.5,3.6-0.4
			c0.4,0.1,1.2,0.3,1.7,0.7c0.5,0.5,0.8,1.3,0.6,1.8c0.2,0.7-0.3,1.6-0.6,1.9c-0.6,0.7-0.8,1-1.9,1.1c-1.2,0.2-2.3,1.3-2.3,2
			c-0.5,1.5-0.4,2.1-0.6,3.1c-0.4,1-0.5,1.5-0.6,2.4c-0.3,0.6-0.2,1.5-0.7,2.4c-0.3,0.7-0.4,1.7-0.8,2.3c-0.1,0.8-0.4,1.4-0.9,2.3
			c-0.5,1-0.6,1.3-1.3,3c-0.6,0.8,0.1,2.4,0.6,2.9c0.4,0.6,0.9,1,1.5,1.5c0.3,0.2,0.6,0.8,1.2,1c0.4,0.7,1.4,1.1,2.3,1.8
			c0.8,0.4,1.8,1,2.4,1.6c0.4,0.4,1,0.7,1.6,1.1C442.7,118.4,443.2,119,443,119.9z M431.3,92c-0.3-0.6-1.8-0.2-2.3-0.1
			c-0.3,0.1-1.3-0.1-2.1,0.1c-1.8,0.3-2.1,1-2.1,1.9c0.2,0.7,0.2,1.6,0.4,2c0.2,1.3,0.8,2.2,0.9,3.3c-0.1,0.3,0.2,1.2,0.6,1.5
			c0.1,0.4,0.2,1,0.7,1.7c0.3,1.3,1.7,0.8,1.9-0.5c0.3-1,0.3-1.6,0.6-2c0.1-0.3,0.2-0.9,0.5-1.7c0.3-0.8,0.2-1.1,0.4-1.7
			c-0.1-0.3,0.1-1.3,0.4-2.2C431.5,93.4,431.8,92.6,431.3,92z"/>
		<path class="st5" d="M470.7,102c-1.3,0.6-1.9,0.7-2.7,1.2c-0.7,0.5-1,1.5-1.1,2.7c-0.2,2-0.5,3.7-0.3,4.2
			c-0.2,0.8-0.2,1.5-0.2,2.2c-0.2,0.7-0.2,1.3-0.2,2.3c-0.2,1,0,1.6-0.2,2.2c-0.2,0.8,0,1.2-0.2,2.2c-0.4,0.9-0.1,1.6-0.3,2.3
			c-0.3,1-0.4,1.5-1.2,1.8c-0.7,0.7-1.5,0.6-2.1,0.6c-0.8,0-1.7-0.1-2-0.5c-0.4-0.4-0.7-0.9-0.9-1.8c0-1.5,0.2-2.5,0.4-3.9
			c0.1-1.1,0.1-2.5,0.4-3.9c0.3-0.8,0-1.3,0.2-2c0-0.7,0.3-1.7,0.2-2.5c0.3-2.1,0.1-2.7-1.7-2.2c-0.7,0.3-1.7,0.6-2.4,0.8
			c-1.8,0.7-2.6,0.8-2.8,0.6c-0.8,0-1.5-0.5-1.9-0.9c-0.4-0.3-0.7-1.2-0.5-2.1c0-0.8,0.3-1.5,0.8-1.8c0.3-0.3,0.8-1,1.6-1.1
			c1.2-0.5,2.3-0.9,3.5-1.1c0.6-0.1,1.5-0.3,1.8-0.5c0.7-0.4,1.2-0.2,1.6-0.5c0.6-0.5,0.8-1.6,0.9-2.4c0-0.9,0.1-1.8,0.4-2.8
			c0.2-1,0.2-1.6,0.4-3.1c0.1-0.8,0.1-1.3-0.6-1.7c-0.8-0.1-1.5,0-2,0.1c-0.6,0.2-0.8,0.6-1.3,1.5c-0.3,0.8-0.9,1.7-1,2.1
			c-0.4,0.3-0.5,1.1-0.8,1.3c-0.6,0.9-1.6,1.1-2.2,1c-0.4-0.1-1.2-0.3-1.7-0.6c-0.6-0.3-0.7-0.6-0.7-1.6c0.1-0.4,0.2-0.9,0.7-1.8
			c0.5-0.9,0.8-1.4,1-2.2c0.1-0.9,0.4-1.5,0.8-2.2c0.1-0.5,0.6-1.8,0.8-2.2c0.2-0.8,0.5-1.6,0.8-2.2c0.2-0.3,0.2-0.9,0.5-2.1
			c0.2-0.8,0.3-1.4,0.9-1.9c0.5-0.5,1.4-0.9,2.1-0.9c0.7-0.1,1.4,0.1,1.9,0.7c0.3,0.4,0.8,1.2,0.5,1.9c-0.2,1.1-0.7,2.1-0.9,3
			c-0.2,0.8,0.8,0.7,1.5,0.6c0.5-0.5,0.4-0.9,0.6-1.8c0-1.3,0.3-2,0.3-3.1c-0.1-0.7,0.3-1.7,0.2-2.5c0.3-1,0.3-1.9,0.2-2.6
			c-0.1-0.6,0.5-1.5,1.2-1.8c0.7-0.3,1.5-0.8,2.2-0.6c0.6,0.1,1.2,0,2,0.5c0.6,0.4,0.7,1,0.9,1.7c-0.2,1.2-0.3,1.8-0.2,2.6
			c0,0.8-0.3,1.8-0.2,2.5c-0.2,0.8-0.1,2-0.3,3.1c0.1,0.9,0.2,1.5,1.3,1.6c1.3,0.1,2.1,0,3,0.1c0.9,0.1,1.3,0.1,1.6,0.8
			c0.2,0.5,0.4,1.4,0.4,1.9c-0.1,0.7-0.5,1.4-0.7,1.9c-0.4,0.4-1.1,1.1-1.7,0.9c-0.6,0.1-1.8-0.1-2.9,0.1c-0.5,0.1-1.1,0-1.3,0.7
			c-0.5,0.8-0.5,1.8-0.5,2.2c0.1,0.4,0,0.8-0.1,1.5c-0.1,1-0.2,2.1,0.3,2.4c0.9,0.4,1.2-0.1,2.4-0.6c0.6-0.2,1.8,0.4,2.2,0.8
			c0.6,0.4,0.7,1.4,0.7,2c0.1,0.9-0.6,1.7-1.1,2C471.9,101.3,471.4,102,470.7,102z M500.4,120.2c-0.8,0.8-1.4,1-2.2,0.9
			c-1,0.1-1.2-0.3-2.1-0.6c-0.4-0.6-1-0.9-1.7-1.3c-0.9-0.6-1.7-1-2.1-1.9c-1-0.6-1.4-1.4-2-2c-0.5,0-0.8-0.7-1-1.1
			c-0.6-0.5-0.8-0.6-1.2-1.4c-0.5-1-1.5-0.9-2-0.6c-0.6,0.6-1.3,1.3-1.9,1.6c-0.6,0.4-1,1-1.5,1.4c-0.5,0.5-1.3,1.1-1.5,1.3
			c-0.5,0.3-1,0.9-1.5,1.3c-0.6,0.5-0.9,0.9-1.6,1.2c-0.8,0.6-1.3,1-1.7,1.1c-0.8,0.6-1.2,1-1.6,1.1c-0.4,0.2-1.2,0.7-1.6,1
			c-0.5,0.5-1.2,0.4-1.8,0.5c-1.1,0.2-1.6-0.2-2-0.8c-0.4-0.4-0.6-1-0.7-2c0.1-0.7,0.4-1,0.7-1.7c0.5-0.7,0.7-1,1.4-1.2
			c0.6-0.5,1.3-0.5,1.8-1.1c0.3-0.5,0.9-0.8,1.6-1c0.3-0.1,1.3-0.7,1.5-1.1c0.7-0.2,0.8-0.5,1.5-1.1c0.6-0.4,0.8-1,1.4-1.2
			c0.2-0.6,0.8-0.8,1.4-1.3c0.6-0.7,0.8-0.6,1.3-1.3c0.2-0.2,0.6-0.9,1.6-1.8c0.4-0.9,0.5-1.7-0.1-2.8c-0.5-0.6-0.5-1.3-0.9-2.1
			c-0.1-0.8-0.5-0.9-0.6-1.5c-0.3-0.2-0.5-0.7-0.5-1.5c0.1-0.7-0.5-1.1-0.6-1.7c-0.3-1-1.3-1.7-2-0.8c-1.1,0.6-1.3,0.8-2.1,0.8
			c-0.8-0.1-1.2-0.3-2-0.7c-0.3-0.4-0.9-1-0.7-1.9c0.2-0.8,0.5-1.6,0.8-1.9c0.2-0.6,0.9-1.3,1.3-2c0.6-0.7,0.8-1.3,1.3-2
			c0.2-0.7,0.8-1.2,1.1-1.8c0.6-0.6,0.9-1.6,1.1-2c0.4-0.9,0.5-1.3,1.1-2.1c0.5-0.7,0.3-1,0.9-1.9c0-0.7,0.5-1.1,0.9-2.1
			c0.2-0.6,0.3-1.2,0.8-2.1c0-0.5,0.6-1.4,0.8-2.4c0.2-0.4,0.4-1.2,1.3-1.7c0.4-0.3,1.1-0.6,1.9-0.7c1-0.1,1.7,0.2,2.1,0.7
			c0.8,0.7,0.9,1.2,0.9,2c-0.3,1.3-0.6,1.8-0.8,2.5c-0.2,0.8-0.5,1-0.7,1.7c-0.5,0.7-0.6,1.4-0.9,2c-0.2,0.8,0.2,1.2,1.9,1.2
			c1.2,0,2.3-0.2,3-0.1c0.6-0.2,1.4,0.1,2-0.1c1.3,0,2.7,0.1,3.9-0.1c1.3,0.1,2.7-0.2,4-0.1c0.9-0.1,1.3,0.5,1.6,0.8
			c0.3,0.6,0.3,1.3,0.4,1.9c0,0.9-0.4,1.3-0.8,1.9c-0.5,0.4-1.2,0.9-2.1,1c-1-0.1-2.3,0.5-2.9,1.8c-0.5,1.6-0.9,2.4-1,3
			c-0.4,0.6-0.7,1.9-0.8,2.4c-0.2,1-0.7,1.5-1,2.3c-0.2,1-1,1.4-1,2.3c-0.2,0.6-1,1.8-1.2,2.3c-0.6,0.6-0.9,1.7-1.7,2.8
			c-0.4,0.6-0.7,1.3-0.4,2.3c0.3,0.8,0.8,1,1.2,1.6c0.1,0.4,0.7,0.6,1,1.2c0.1,0.5,0.6,0.6,1.1,1.1c0.3,0.2,0.9,0.6,1.1,1.1
			c0.3,0.4,0.8,0.9,1.2,1c0.6,0.4,0.9,0.4,1.2,1c0.2,0.5,1,0.4,1.3,0.9c0.5,0.3,1,0.7,1.5,1.4c0.5,0.4,0.4,1.1,0.6,2
			C501.6,118.9,501.2,119.6,500.4,120.2z M491.2,88c-1.1,0.2-2.1,0.1-2.7,0.1c-0.8,0-1.4,0.2-2.7,0.1c-1,0.1-1.5,1.4-1.2,2.6
			c0.2,0.9,0.5,1.6,0.5,2.4c-0.1,0.8,0.2,1.3,0.5,1.6c0.3,0.5,0.3,1,0.5,1.6c0.4,0.3,0.3,1.3,0.6,1.6c0.2,0.4,0.2,1.1,0.6,1.6
			c0,0.2,0.2,0.3,0.5,0.3c0.4-0.1,0.9-0.4,1.3-1.4c0.2-0.5,0.4-1.4,0.9-1.8c0.5-0.8,0.4-0.8,0.7-1.6c0.1-0.6,0.3-1.1,0.7-1.8
			c0.4-0.5,0.5-1.1,0.8-2.5C492.9,88.8,492.2,88.1,491.2,88z"/>
	</g>
</g>
</svg>
