<?xml version="1.0" encoding="utf-8"?>
<!-- Generator: Adobe Illustrator 25.4.1, SVG Export Plug-In . SVG Version: 6.00 Build 0)  -->
<svg version="1.1" id="レイヤー_1" xmlns="http://www.w3.org/2000/svg" xmlns:xlink="http://www.w3.org/1999/xlink" x="0px"
	 y="0px" width="602px" height="715.8px" viewBox="0 0 602 715.8" style="enable-background:new 0 0 602 715.8;"
	 xml:space="preserve">
<style type="text/css">
	.st0{fill:#CCCCCC;}
	.st1{fill:#F15A24;}
	.st2{opacity:0.2;}
	.st3{fill:#E6D246;}
	.st4{opacity:0.4;fill:#FCEE21;}
	.st5{fill:#FFFFFF;}
</style>
<g>
	<g>
		<g>
			<g>
				<polygon class="st0" points="0,715.8 11.5,715.8 96.6,22.8 85.1,22.8 				"/>
				<g>
					<path class="st1" d="M602,45.9c-162.6-55.4-345.6,55.4-508.2,0c-5.7,46.2-11.3,92.4-17,138.6c162.6,55.4,345.6-55.4,508.2,0
						c-11.9-28.1-24.1-54.9-36.3-80.5C566.6,83.4,584.4,64,602,45.9z"/>
				</g>
				<g>
					<polygon class="st2" points="6.9,715.8 11.5,715.8 96.6,22.8 92,22.8 					"/>
				</g>
				
					<ellipse transform="matrix(0.7284 -0.6851 0.6851 0.7284 14.2593 67.0852)" class="st3" cx="91.8" cy="15.6" rx="16.5" ry="14.6"/>
				<g>
					<path class="st3" d="M100.3,1.6c2.2,2.8,3.3,6.4,2.8,10.5c-1.1,8.6-8.9,15.6-17.5,15.6c-2.5,0-4.7-0.6-6.6-1.6
						c2.5,3.1,6.3,5.1,10.8,5.1c8.6,0,16.4-7,17.5-15.6C108.1,9.4,105.2,4.1,100.3,1.6z"/>
				</g>
				<path class="st4" d="M344.4,58c82.8-13.3,168.4-27,247.7-1.9c0.9-1,1.8-1.9,2.7-2.9c-80.5-25.9-167-12.1-250.6,1.3
					C260.1,68.1,173.1,82,92.7,55.2c-0.1,1.2-0.3,2.4-0.4,3.6c33.6,11,68.2,15.1,103.3,15.1C244.9,74,295.1,65.9,344.4,58z"/>
				<path class="st4" d="M330.1,174.7c83.7-13.4,170.2-27.3,250.3-1c-0.6-1.5-1.3-2.9-1.9-4.4c-79.9-25-165.6-11.3-248.5,2
					c-84.2,13.5-171.1,27.4-251.6,0.6c-0.1,1.2-0.3,2.4-0.4,3.6c33.6,11,68.2,15.1,103.3,15.1C230.6,190.6,280.8,182.6,330.1,174.7z
					"/>
			</g>
		</g>
	</g>
	<g>
		<path class="st5" d="M199.6,139.5c0.4,0.8,0.5,1.3,0.6,2.4c-0.1,1-0.3,1.6-0.6,2.2c-0.3,1-0.6,1.4-0.8,2.1c-0.2,0.7-0.7,1.5-0.9,2
			c-0.4,0.6-0.6,1.6-1,2c-0.5,1-1.2,1.6-1.5,1.9c-0.6,0.4-1.3,0.6-2.2,0.9c-0.6-0.1-1.6-0.3-2.2-0.6c-0.7-0.3-0.9-0.9-0.9-2
			c0-0.6,0.3-0.8,0.5-1.5c0.1-0.7,0.6-0.9,0.9-1.7c0.4-0.4,0.3-0.8,0.8-1.6c0.2-1.2,1-2,1.4-3.4c0.5-1.2,0.9-2.1,1.5-2.5
			c0.6-0.3,1.1-0.7,1.9-0.8C198.1,138.6,198.9,138.7,199.6,139.5z M240.2,135.1c-0.2,1.1-0.4,2.2-0.3,3c-0.1,0.9-0.5,2-0.5,3
			c0,0.9-0.5,2.2-0.8,3c-0.3,1.1-0.8,2-1,2.9c-0.6,0.9-0.5,1.5-1.2,2.2c-0.3,0.5-0.9,1.3-1.8,1.8c-0.6,0.5-1.7,1-2.4,1.1
			c-0.7,0.4-1.8,0.3-2.6,0.4c-1.1,0.2-1.8,0.2-2.6,0c-0.8,0-1.7,0-2.6-0.5c-0.8-0.6-1.4-1.7-1.5-2.7c0.3-0.7,0.3-1.4,0.9-2.1
			c0.3-0.5,1.4-1,2.1-1c1.2-0.1,2.4,0.1,3.5,0.2c0.6,0.1,1.2-0.2,1.7-0.6c0.3-0.3,0.9-0.8,0.9-1.4c0-0.8,0.6-1.1,0.6-2
			c0-0.5,0.5-1.3,0.5-2.1c0.4-0.8,0.4-1.6,0.4-2.1c0-0.5,0.3-1.4,0.2-2c0-0.6-1-0.9-1.6-1c-1.4,0.2-2.3,0.1-3.4,0.2
			c-0.9,0.1-2.3,0.2-3.4,0.2c-1.3-0.1-2.2,0.1-3.4,0.2c-0.9,0.1-2.1-0.1-3.4,0.2c-1.1-0.1-2.5,0.2-3.4,0.2c-0.9-0.1-2.6,0.4-3.4,0.2
			c-1.4,0-2.4,0.4-3.4,0.2c-1.2,0.2-2.5,0.4-3.4,0.2c-0.8,0.3-2.3,0.1-3.3-0.1c-1.2,0-2.4-0.5-2.9-1.4c-0.7-0.4-0.5-1.3-0.9-1.8
			c0.1-0.7,0-1.4-0.1-2c-0.1-0.5,0.3-1.5,0.2-2.5c-0.1-0.7,0.2-1.8,0.2-2.4c-0.2-0.6,0.2-1.5,0.2-2.4c0.2-0.9,0.2-1.8,0.2-2.4
			c-0.2-0.6,0-1.4,0.2-2.4c0.2-0.8,0.1-1.8,0.2-2.4c0.3-1.1,0.1-1.5,0.2-2.4c0.1-0.9,0-1.5,0.2-2.5c0.3-0.9,0.1-1.4,0.5-2.3
			c0.1-0.6,0.6-1.5,1.5-2.1c0.9-0.5,1.8-1.3,2.9-1.5c1-0.4,1.8-0.1,3.1-0.4c1.1-0.1,2.5-0.4,3.8-0.2c1.4-0.2,2.6,0.1,3.7-0.2
			c1.2,0,2.6-0.4,3.7-0.2c1,0.2,2.5,0,3.8-0.2c1.3,0,2.2,0,3.7-0.2c1,0.2,2.3,0.1,3.8-0.2c1.1-0.1,2.4-0.1,3.7-0.2
			c1.1-0.2,2.5-0.4,3.8-0.2c0.8,0.2,1.1,0.3,1.7,0.7c0.1,0.5,0.7,1.3,0.5,1.8c0.1,0.7-0.4,1.4-0.7,1.9c-0.4,0.4-1.1,1-1.8,0.9
			c-1.5,0.1-2.7,0.3-3.9,0.3c-1.3,0.1-2.8,0.3-3.9,0.2c-1.3,0-2.5,0.1-4.3,0.2c-0.9-0.1-2,0.2-2.7,0.6c-0.8,0.8-0.5,1.6-0.4,2.4
			c0.1,0.3,0.7,0.6,1.8,0.3c1.8,0.1,2.6-0.2,3.7-0.2c1.1,0.2,1.7-0.3,3-0.2c1.3-0.3,1.9,0.2,3.1-0.1c0.8-0.3,0.9,0.1,1.5,0.7
			c0.2,0.6,0.3,1.3,0.4,1.6c-0.1,0.4-0.3,1.4-0.7,1.7c-0.4,0.4-0.8,1-1.6,0.9c-1.2,0.3-2-0.1-3.1,0.2c-1.1,0.3-2.2,0.3-3,0.2
			c-1.2-0.2-2.1,0.4-3.3,0.2c-0.7,0-1.4,0.1-2,0.9c-0.5,0.4-0.5,1.4-0.5,2.2c0.3,0.3,1,0.7,2,0.4c1.6-0.3,2.9-0.2,3.7-0.2
			c0.9,0,2.1,0.1,3-0.2c1.2-0.1,2.2-0.3,3.1-0.1c0.9-0.3,1,0.5,1.5,0.7c0.4,0.3,0.3,1.1,0.4,1.6c-0.3,0.5-0.4,1.5-0.7,1.7
			c-0.6,0.4-1.2,0.7-1.6,0.9c-1.3,0.2-2.3,0-3.1,0.2c-1.2,0.1-1.9-0.1-3,0.2c-1.2,0.2-2.1,0-3.7,0.2c-0.7-0.1-1.2,0.1-1.8,0.6
			c-0.3,0.5-0.2,1.8-0.2,2.4c0.1,0.3,1,0.6,2.1,0.5c1.8,0,3.3-0.1,4.2-0.2c0.9,0.2,2.1,0,3.5-0.2c0.9,0.2,2.1,0.1,3.4-0.2
			c0.9-0.2,2-0.2,3.2,0.2c1.1,0.1,1.8,0.5,2.7,1.4c0.6,0.5,0.9,1,0.8,1.6C240.1,134.1,240.4,134.5,240.2,135.1z M210.6,146.7
			c0.1,1.2-0.8,2.3-1.1,2.9c-0.9,0.8-1.2,1-2.3,1c-1.1,0.3-2.2-0.5-2.6-1.6c-0.4-0.9-0.2-1.4-0.6-2.3c-0.1-1.1-0.6-1.8-0.6-2.5
			c-0.4-1.6-0.9-2.1-0.7-3c-0.2-0.6,0.5-1.3,1.1-1.9c0.6-0.5,1.2-0.6,2-0.8c0.9,0.1,1.3,0.3,1.8,0.6c0.6,0.2,1,1.2,1.1,1.5
			c0.4,1.2,0.6,2.2,1.1,3C210,144.7,210.2,145.7,210.6,146.7z M214.1,128.2c-0.4-1.2-1.2-0.7-1.8-0.5c-1.8,0-2.4,0.1-3.2,0.2
			c-0.7-0.2-1.8,0.4-3.2,0.2c-0.6,0.2-2.1,1.2-2,2c-0.1,1.3,0.3,1.6,1.8,1.6c0.7-0.3,1.2-0.3,2.2-0.1c0.6,0.2,1.6,0.1,2.9-0.2
			c0.5,0.2,2.2-0.1,2.9-0.9C214.1,129.8,213.8,129.1,214.1,128.2z M212.8,119.2c-1.3,0.3-2.5,0.4-3.2,0.2c-0.7,0-1.9-0.1-2.9,0.2
			c-0.7,0.1-1.7,0.4-1.9,0.8c-0.4,0.5-0.7,1.7-0.5,2.3c0.1,0.7,0.7,0.8,1.8,0.5c1.2-0.3,2.2-0.3,3.2-0.2c0.7,0.2,1.9-0.1,3.2-0.2
			c0.4,0.6,1.3-0.3,1.6-0.9c0.2-0.3,0.3-1.3,0.2-2C214.2,119.2,213.5,119.4,212.8,119.2z M205,113c-0.5,1.7,0.8,1.7,1.7,1.6
			c1.3,0.2,2.1-0.2,3.2-0.2c1.1,0.1,1.9,0,3.2-0.2c0.5-0.1,1.3,0,1.7-0.8c0.6-0.7,0.2-1.5,0.3-2.1c-0.1-0.4-2-0.7-3.5-0.4
			c-0.7-0.2-1.9,0-2.5,0.1c-1,0.3-1.7,0.1-2.2,0.1C205.8,111.6,205,111.5,205,113z M220.3,142.6c0.1,0.5,0.3,1.5,0.5,2.2
			c-0.2,0.8-0.7,1.6-1.1,2c-0.5,0.6-1.4,1-2.2,0.9c-1.3,0.3-2-0.4-2.4-1.5c-0.4-0.7-0.5-1.3-0.9-2.2c-0.3-0.5-0.4-1.2-1-2.1
			c-0.2-1.4,0.3-2.4,0.6-3.4c0.7-0.9,1.3-0.4,1.9-1c0.8,0.2,1.8,0.1,2.3,1c0.5,0.5,0.9,1.4,1.3,2.1
			C219.8,141,220.1,141.9,220.3,142.6z M224.6,144c-0.5-0.7-1-1.5-1.2-2.1c-0.2-0.5-0.9-0.9-0.9-1.5c-0.5-0.4-0.6-1.2-0.4-1.7
			c0.1-0.9,0.4-1.2,1-1.7c0.6,0,1.1-0.6,2-0.4c0.8-0.2,1.6-0.1,2,0.3c0.7,0.5,1,1.1,1.3,1.6c0.2,0.5,0.5,1.2,1.1,1.7
			c0,0.6,0.5,1.2,0.5,1.9c-0.3,0.9-0.4,1.6-1.1,2c-0.5,0.6-1.4,1.1-2,0.9C225.8,145.2,225.1,144.4,224.6,144z"/>
		<path class="st5" d="M303,133.6c-0.2,0.7,0,1.3-0.6,1.9c-0.2,0.3-0.8,1-1.7,1.1c-0.9,0.2-1.6,0.5-2.7,0.4
			c-0.8,0.3-1.5,0.5-2.6,0.3c-0.9,0.1-1.8,0.4-2.6,0.3c-0.7,0.2-1.7,0.3-2.6,0.4c-0.7-0.1-1.5,0.3-2.6,0.3c-1.1-0.1-1.9,0.2-2.6,0.3
			c-1,0.4-1.7,0-2.8,0.4c-1.2,0-1.9,1.3-2.1,2.5c0.2,1.7-0.2,3.1,0,4c0.1,0.7-0.5,1.5-1,1.9c-0.4,0.6-1.4,0.7-2,0.9
			c-1,0.3-1.6,0.1-2.1-0.3c-0.4-0.2-0.8-0.7-1-1.6c0-1.3-0.3-2.1-0.1-4c0-0.8-1-2.1-2-2c-1.3,0.3-1.8,0.3-2.8,0.4
			c-0.6,0-1.5,0-2.5,0.3c-0.9,0.2-1.5,0.1-2.5,0.3c-1,0.1-1.8,0.4-2.5,0.3c-0.8,0-1.9,0.3-2.5,0.3c-0.7,0-1.7,0.4-2.5,0.3
			c-0.8,0.3-1.9,0.3-2.6,0.3c-0.5,0.1-1.4,0-1.7-0.6c-0.6-0.4-0.5-1.1-0.6-1.8c-0.1-0.5,0.1-1.4,0.6-1.9c0.3-0.7,1.1-1.1,1.6-1.1
			c0.6-0.3,1.7-0.1,2.5-0.4c0.9,0,1.4,0.1,2.5-0.3c0.9,0.2,1.7-0.1,2.5-0.3c0.8,0.2,1.5-0.2,2.5-0.3c0.9-0.1,1.5-0.1,2.5-0.3
			c0.7-0.2,1.7,0,2.5-0.3c0.6-0.3,1.8-0.1,3-0.4c1.9-0.4,1.8-0.9,1.7-2.6c-0.2-0.6-1.5-0.2-2.8-0.1c-1.2,0.4-2.2,0.2-2.7,0.4
			c-0.9,0-1.5,0-2,0.3c-1.2,0.4-2.5,0.3-3.4,0.1c-0.8-0.2-0.9,0-1.6-0.3c-0.7-0.1-1.2-0.5-1.4-0.8c-0.3-0.6-0.7-1.2-1-1.8
			c0-0.4-0.4-1.4-0.3-2.1c-0.3-0.8,0-1.3,0-2.2c0.2-0.9,0-1.6,0-2.2c-0.2-0.6,0-1.3,0-2.2c0-0.5-0.3-1.3,0-2.3
			c-0.2-0.6-0.1-1.5,0.3-2.4c-0.1-0.6,0.9-1.6,1.2-2.1c0.8-1,1.5-1.1,2.9-1.8c1.3-0.5,2.2-0.3,3.2-0.7c0.4,0.2,1.3-0.3,2-0.3
			c0.4,0.2,1.8-0.4,2.7-0.4c0.4-0.1,1.5-0.1,2.3-0.5c0.4-0.2,0.7-1.5,0.4-2.2c-0.3-0.7-1.1,0-1.6-0.2c-1.1,0.1-1.9,0-2.8,0.4
			c-0.9,0.3-1.4,0-2.2,0.3c-0.8,0.3-1.7,0.4-2.3,0.3c-0.9-0.1-1.6,0.5-2.3,0.3c-0.6,0.3-1.6,0.2-2.2,0.3c-0.6,0.3-1.8,0.1-2.3,0.3
			c-0.6-0.2-1.7,0.5-2.3,0.3c-1,0.2-1.1-0.1-1.7-0.6c-0.3-0.3-0.7-1.2-0.6-1.8c0-0.8,0.1-1.2,0.6-1.9c0.5-0.3,0.7-1,1.6-1.2
			c0.6,0.1,1.3,0,2.3-0.3c0.6,0.1,1.4,0,2.3-0.3c0.4,0,1.3-0.3,2.2-0.3c0.6,0,1.6-0.4,2.3-0.3c0.6,0.1,1.4-0.3,2.3-0.3
			c0.7-0.3,1.7-0.3,2.2-0.3c0.7-0.1,1.6,0,2.8-0.4c0.2,0.2,0.9-0.8,1-1.1c0.2-0.7,0.3-1.2,0.5-2.3c0.1-1.3,0.4-1.6,1-2.3
			c0.8-0.4,1.2-0.7,2-0.8c0.8-0.3,1.6,0.2,2.1,0.3c0.3,0.5,1.1,0.9,1,2c0,0.9,0.2,1.6,0.6,2.2c0.5,0.4,0.7,0.7,1.1,0.8
			c1.4-0.4,2,0,2.8-0.4c0.6,0.1,1.2-0.2,2.2-0.3c1,0,1.7-0.1,2.3-0.3c0.6-0.1,1.5-0.1,2.3-0.3c0.7-0.1,1.2,0,2.2-0.3
			c0.7-0.2,1.6-0.2,2.3-0.3c0.7,0,1.7-0.1,2.3-0.3c0.5,0.1,1.1,0.3,1.7,0.6c0.6,0.6,0.5,1.2,0.6,1.8c-0.2,0.8,0,1.4-0.6,1.9
			c-0.4,0.8-1.1,1.2-1.7,1.1c-1.1,0.1-1.7,0.5-2.3,0.4c-0.8,0.3-1.7,0.4-2.3,0.3c-0.9-0.1-1.7,0-2.2,0.3c-0.9,0.4-1.3,0.2-2.3,0.3
			c-0.6,0.3-1.7,0.4-2.3,0.3c-0.6,0.1-1.7,0-2.2,0.3c-1.1,0-2.4,0.3-3.3,0.4c-1.3,0.2-1.3,1.5-1,2.4c-0.1,0.1,0,0.1,0.1,0.1
			c0.2,0.1,0.5,0.1,0.9,0.1c0.6,0,1.4-0.1,2.1-0.2c1.1,0.1,1.8-0.1,2.9-0.4c0.6,0.1,1.4-0.3,2.2-0.3c1.2,0.1,2.3-0.3,3.4-0.2
			c0.6-0.1,1.4,0,1.7,0.4c0.7,0.4,1,0.5,1.4,0.8c0.3,0.8,1,1.2,1,1.7c0.2,0.6,0.4,1.6,0.3,2.1c0,0.7,0,1.3,0,2.2
			c0,0.7-0.1,1.3,0,2.3c0,0.9-0.2,1.4,0,2.2c0.1,0.7,0,1.4,0,2.2c0.1,0.7-0.4,1.5-0.3,2.4c-0.1,1.1-0.6,1.3-1.2,2.2
			c-0.9,0.7-1.9,1.2-2.9,1.7c-1,0.2-2.4,0.5-3.2,0.7c-0.8,0.2-1.2,0.1-2.2,0.3c-0.9,0.1-1.5,0.3-2.9,0.4c-0.9,0-2.1-0.2-2.7,0.6
			c-0.7,0.9-0.5,1.3-0.4,2.1c0.4,0.5,1,0.3,2.2,0.2c1.3-0.3,1.8-0.3,2.8-0.4c0.8,0.2,1.9,0,2.6-0.3c1-0.4,1.8,0,2.6-0.3
			c0.7-0.1,1.4,0,2.6-0.4c0.6-0.1,1.7-0.3,2.6-0.3c0.9-0.2,1.9-0.3,2.6-0.3c1.1-0.1,1.9-0.1,2.7-0.4c0.9,0,1.5,0.1,1.7,0.6
			C302.6,132.5,303.1,132.9,303,133.6z M264.8,119c-0.2,1,0.8,1.3,1.6,1.1c1.3-0.3,2.1-0.2,2.9-0.4c0.7,0,1.3,0.2,2.8-0.4
			c1.7-0.7,2-1.5,1.3-2.6c-0.5-0.6-1.4-0.2-3-0.2c-1.2,0.4-2.4,0.4-3.4,0.5C265.9,117.4,264.5,117.8,264.8,119z M273.8,124.7
			c-0.5-0.8-1-0.8-1.6-0.7c-1.2,0.2-2.3,0.4-2.8,0.4c-0.9,0.3-1.7,0.1-2.6,0.4c-0.8,0.1-1.9,1-1.9,1.7c-0.2,1.8,0.9,1.7,2.3,1.3
			c1.2,0.1,2.4-0.3,4.2-0.6c0.6-0.2,1.4-0.1,1.9-0.6C274,126.1,274,125.3,273.8,124.7z M281.7,118.1c1.2,0,2.3-0.2,3-0.4
			c0.9,0,1.6,0,3.1-0.4c1-0.1,1.9-1.1,1.8-1.6c0.3-1.6-1-1.7-2.3-1.3c-0.5,0.2-1.1-0.1-2,0.3c-0.9,0-1.6,0.4-2.6,0.4
			c-0.4,0.2-1.4-0.1-2.3,0.6c-0.7,0.3-0.7,1.2-0.6,2.2C280,118.1,280.8,118.3,281.7,118.1z M289.7,123.1c-0.1-1-1.1-1-1.8-1.2
			c-1.3,0.3-2.2,0.1-3,0.4c-0.8,0.1-2.7,0.1-3.8,0.7c-1.2,0.3-1.3,1.5-1,2.5c0.4,0.5,1.7,0.2,2.7,0.2c0.9,0,1.8-0.4,2.6-0.4
			s1.4-0.3,2-0.3C288.6,125,289.8,124.5,289.7,123.1z"/>
		<path class="st5" d="M349.1,117.7c0.1,0.7-0.1,1.1-0.2,1.7c0.1,0.7-0.4,1.1-0.3,1.8c0,0.3-0.5,1.4-0.5,1.7
			c-0.4,0.5-0.4,1.3-0.7,1.6c-0.1,0.7-0.7,1.3-0.9,1.6c-0.2,0.7-0.6,1.1-1,1.5c-0.4,0.7-0.9,1-1.2,1.5c-0.2,0.6-1,0.9-1.5,1.4
			c-0.7,0.7-1.4,1.1-1.9,1.5c-0.8,0.6-1.4,0.9-2,1.3c-0.7,0.3-1.2,0.6-1.9,0.9c-0.9,0.4-1.8,0-2.4-0.3c-0.5-0.2-1-0.8-0.9-1.7
			c-0.2-0.4,0.2-1.1,0.5-1.6c0.3-0.5,0.8-0.7,1.3-1.2c0.7-0.5,1.1-0.5,1.7-1c0.3-0.2,0.9-0.6,1.5-1.1c0.3-0.2,1.1-0.9,1.4-1.2
			c0.6-0.5,0.9-0.9,1.3-1.4c0.6-0.4,0.7-1.2,1.1-1.8c0.1-0.5,0.7-1.2,0.7-2c0.2-0.5,0.2-1.4,0.4-2.1c0-0.8-0.1-1.2,0-2.1
			c-0.2-0.5-0.1-1.3-0.3-2c-0.1-0.7-0.4-1.1-0.6-1.9c-0.1-0.5-0.7-1.1-0.9-1.6c-0.3-0.6-0.8-0.8-1.2-1.4c-0.5-0.6-1.4-1-1.9-1.3
			c-0.6-0.3-1.4-0.6-2.1-0.8c-0.5-0.2-0.9-0.3-1.8-0.2c-0.8,0.1-1.8,1-1.9,1.7c-0.2,1.3-0.1,2-0.2,2.7c0,0.9-0.2,1.7-0.3,2.2
			c-0.3,0.8-0.2,1.7-0.3,2.3c0,0.6-0.3,1.4-0.5,2.2c-0.3,0.9-0.3,1.7-0.6,2.2c-0.2,1-0.7,1.6-0.7,2.2c-0.2,0.7-0.6,1.3-0.8,2.2
			c-0.1,0.3-0.3,1.1-0.8,1.7c-0.1,0.5-0.4,1-0.9,1.6c-0.5,0.7-0.6,1.1-1.1,1.5c-0.5,0.4-0.9,0.8-1.3,1.3c-0.7,0.6-1.5,1-2.3,1.5
			c-0.7,0.4-1.5,0.6-2.6,0.8c-1.1,0.3-2.2,0.3-2.9-0.1c-0.3,0-0.9-0.3-1.3-0.5c-0.6-0.1-0.7-0.5-1.2-0.8c-0.7-0.4-1-1-1.4-1.6
			c-0.6-0.4-0.8-1.1-1-1.9c-0.2-0.6-0.3-1.3-0.6-2.1c0-0.8-0.3-1.4-0.2-2.2c0-0.7,0.1-1.2,0-1.8c0.2-0.5,0.2-1.1,0.2-1.7
			c0.1-0.7,0.2-1.1,0.4-1.7c0.1-0.4,0.1-1.3,0.5-1.7c0.2-0.6,0.3-1,0.7-1.7c0.1-0.4,0.4-1.1,0.8-1.6c0.4-0.5,0.6-1.2,1-1.6
			c0.3-0.5,0.6-1,1.1-1.4c0.6-0.8,1.1-1.1,1.5-1.6c0.4-0.7,0.9-1.1,1.7-1.5c0.4-0.2,1.1-1.1,1.7-1.3c0.5-0.5,1.2-0.8,1.9-1.1
			c0.7-0.1,1.5-0.5,2-0.9c0.7-0.5,1.4-0.4,2-0.8c0.6-0.2,1.1-0.3,2-0.6c0.5-0.2,1.3-0.4,2.1-0.4c0.5-0.1,1-0.1,1.7-0.2
			c0.6-0.1,1,0,1.7-0.1c0.7-0.1,1.1,0.1,1.7,0c0.6,0.2,1,0.2,1.7,0.2c0.5,0.2,1.2,0.4,1.6,0.4c0.5,0.3,1.2,0.5,1.6,0.6
			c0.4,0.2,0.9,0.6,1.5,0.7c0.6,0.3,1,0.7,1.4,1s0.6,0.7,1,0.9c0.2,0.3,0.7,0.9,0.9,1.1c0.1,0.3,0.6,1,0.8,1.2
			c0.1,0.6,0.6,0.8,0.7,1.2c0.4,0.3,0.5,0.7,0.5,1.4c0,0.5,0.4,0.8,0.4,1.4c0.4,0.9,0.3,2.1,0.4,2.9
			C348.9,116.4,349,117.4,349.1,117.7z M327.5,110.5c-0.1-0.6-0.9-1-1.5-0.7c-0.6,0.2-1.1,0.4-1.4,0.6c-0.4,0.3-0.8,0.7-1.2,0.9
			c-0.3,0.2-0.8,0.9-1.3,1.1c-0.5,0.6-0.8,0.7-1.1,1.2c-0.4,0.3-0.5,0.8-1,1.3c-0.4,0.5-0.5,1.1-0.9,1.4c-0.1,0.4-0.4,0.8-0.7,1.5
			c-0.4,0.7-0.4,0.8-0.5,1.5c-0.2,0.7-0.4,1.2-0.4,1.5c-0.3,1.2-0.4,2.3-0.3,3.1c0.1,0.7,0.2,1,0.2,1.6c0.1,0.4,0.1,1.2,0.5,1.7
			c0.4,0.5,0.5,0.9,1,1.2c0.4,0.3,1.1,0.4,1.5,0.3c0.6-0.1,1.2-0.4,1.6-0.7c0.3-0.3,0.6-0.8,1.1-1.3c0.4-0.6,0.6-1.1,0.9-1.6
			c0.2-0.4,0.4-1,0.7-1.6c0.2-0.6,0.3-1,0.7-1.8c0.1-0.7,0.4-1.3,0.5-1.8c0.1-0.5,0.5-1.1,0.5-1.8c-0.1-0.4,0.1-1.1,0.4-1.9
			c-0.1-0.4,0.1-1,0.3-1.8c0.1-0.6,0.3-1.3,0.2-1.9C327.3,111.9,327.7,111.4,327.5,110.5z"/>
		<path class="st5" d="M410.6,122.9c-0.1,0.7-0.1,1.5-0.6,2c-0.2,0.6-0.8,0.7-1.6,1.2c-1.4,0.7-2.6,0.9-4,1
			c-1.2,0.1-2.7,0.4-3.6,0.7c-1.3,0.3-2.7,0.2-4,0.6c-1.4,0.2-2.9,0.5-4,0.6c-0.9-0.1-2.3,0.5-3.4,0.4c-1.1,0.1-2.3,0.4-3.4,0.4
			c-1.4,0.3-2.3,0.2-3.4,0.2c-0.9,0-2.3,0.1-3.3,0c-0.4,0.1-1.1-0.1-1.8-0.1c-0.7-0.2-1.1-0.1-1.8-0.2c-0.8,0.2-1.3,0-1.7-0.4
			c-0.5-0.1-1.2-0.4-1.7-0.5c-0.8-0.1-1.3-0.7-2.1-1.1c-0.6,0-1.4-0.3-2,0.3c-0.9,1.1-1.3,1.6-1.6,1.9c-0.7,0.8-1,1.2-1.4,1.5
			c-0.7,0.6-1.1,0.8-1.4,1.4c-0.7,0.6-1.5,1.2-2.7,1.6c-0.8,0.4-1.7,0.1-2.1-0.6c-0.8-0.3-1.2-1-1-1.9c0.1-0.8,0-1.1,0.6-1.8
			c0.2-0.4,1.1-1,1.4-1.5c0.3-0.5,0.9-0.8,1.4-1.4c0.4-0.4,0.6-0.7,1.4-1.3c0.4-0.5,0.9-1,1.3-1.4c0.3-0.4,1-0.9,1.3-1.5
			c0.2-0.6-0.1-1.2-0.1-2.3c-0.3-0.7-0.3-1.4-0.1-2.5c-0.1-0.9-0.3-1.8-0.1-2.5c0.1-0.7-0.3-1.4-0.1-2.4c0-1.1-0.5-1.2-1.5-1
			c-0.9,0.4-1.9,0.1-2.9,0.4c-0.7,0.4-1.2-0.2-1.9-0.6c-0.4-0.7-0.9-1.1-0.7-1.9c0-0.8,0.1-1.5,0.6-2.1c0.4-0.3,1-0.9,1.8-1.1
			c1.5-0.3,2.6-0.5,4.2-0.6c0.8-0.2,1.7-0.4,2.7-0.1c0.8,0.4,1.5,0.3,2.4,1c0.6,0.8,0.6,1.4,1.1,1.9c0.2,0.6,0.3,1.3,0.3,2.2
			c0.2,0.7-0.1,2,0.1,2.6c-0.2,0.8-0.1,1.6,0.1,2.6c-0.1,0.7-0.1,1.8,0.1,2.6c0.2,0.7,0,1.7,0.1,2.6c0.5,0.6,0.9,0.6,1.6,0.9
			c0.7,0.1,1.1,0.8,1.7,0.7c0.4,0.4,1,0.4,1.9,0.5c0.9,0.3,1.5,0.3,2,0.3c0.9-0.1,2.1-0.1,3.5,0.1c1,0.3,2.6-0.1,3.5-0.2
			c1.3,0.1,2.2,0,3.5-0.4c1.4-0.1,2.2-0.5,3.5-0.5c0.9-0.3,1.6-0.1,2.7-0.4c1.1-0.3,1.6,0,2.7-0.4c0.6-0.2,1.7,0,2.7-0.5
			c0.8,0,1.7-0.1,2.7-0.5c0.9-0.3,1.6-0.5,2.4-0.6c0.8-0.1,1.9-0.2,2.5-0.5c0.8,0.2,1.3,0.5,1.8,0.7
			C410.1,121.4,410.6,122.4,410.6,122.9z M359.6,89.8c0.1-0.8,0.5-1.5,0.9-2.2c0.6-0.8,1.4-1,2.2-1.2c0.6-0.1,1.7,0,2.5,0.5
			c0.8,0.3,1.6,0.9,2,1.3c0.7,0.2,1.6,1.2,2.2,1.8c0.6,0.7,1.1,1.8,1.3,2.5c-0.1,0.8-0.5,1.7-1,2.4c-0.6,1-1.2,1.4-2.3,1.3
			c-0.9,0.3-2.1,0-2.6-0.9c-0.8-0.6-1.5-1.5-1.9-1.8c-0.5-0.5-1.3-0.8-1.6-1.3C360.1,91.7,359.4,90.9,359.6,89.8z M372.8,89.4
			c0-0.6,0.2-1.3,0.2-2.3c0.1-0.8,0.5-1.4,1.2-2.1c0.6-0.5,1.3-1,2.2-1.4c0.8-0.2,1.9-0.3,2.5-0.6c0.9-0.4,2-0.5,2.8-0.4
			c0.8-0.3,1.9-0.2,2.8-0.4c0.8,0.1,2.1-0.1,2.8-0.4c1-0.4,1.7-0.5,2.8-0.4c0.8,0.1,1.8,0,2.8-0.4c1.2-0.4,1.8-0.3,2.8-0.4
			c0.7,0.2,1.7-0.2,2.8-0.4c0.7-0.3,1.7,0,2.8-0.4c0.9-0.2,1.6-0.2,2.7-0.1c1.1,0,1.7,0.5,2.4,1c0.4,0.5,1,1,1,1.7
			c0,0.7,0.1,1.5,0.3,2c0.3,1.1,0.2,2,0,3.2c-0.1,0.9-0.2,1.4-0.8,1.9c-0.3,0.3-1,0.6-1.9,0.9c-0.8,0-1.4,0.3-2-0.3
			c-0.8-0.5-0.8-0.7-0.9-1.6c0.1-1,0.1-1.6-0.1-2.3c0-1.1-0.6-0.8-1.6-0.9c-1,0-1.9,0.2-2.5,0.4c-0.6-0.1-1.8,0.5-2.5,0.4
			c-0.8,0-1.9,0.4-2.6,0.4c-0.9,0-1.6,0.4-2.5,0.4c-0.8,0-1.5,0.4-2.6,0.4c-0.7-0.1-1.9,0.2-2.5,0.4c-0.9,0.3-1.8,0.5-2.5,0.4
			c-0.8,0-1.9,0.6-2.5,0.4c-0.9,0.4-1.8,0.4-1.6,1.4c-0.1,0.7-0.1,1.5,0,2.5c-0.2,0.5-0.6,1.3-0.8,1.8c-0.7,0.8-1.3,0.6-1.9,0.9
			c-0.6,0.2-1.3,0.1-2-0.3c-0.4-0.5-0.7-0.8-0.9-1.6C372.7,91.8,372.9,90.4,372.8,89.4z M408.5,112.2c0.6,0.3,0.7,0.9,0.7,1.6
			c0,0.6-0.4,1.4-0.6,1.8c-0.3,0.3-0.8,0.9-1.6,0.9c-1.3,0.2-2.3,0.4-3.4,0.5c-1.3,0.1-2.3,0.1-3.3,0.5c-1.2,0.4-2,0.5-4,0.6
			c-1.3,0.1-2.3,0.4-2.4,1.7c0.2,0.8-0.3,1.8-1,1.7c-0.7,0.6-1.3,0.8-1.8,0.8c-0.6,0.3-1.4-0.1-1.9-0.3c-0.6-0.1-1.2-0.2-1-1.4
			c-0.3-1.3-1.3-1-2.3-1c-1.9,0.5-2.6,0.5-3.7,0.5c-0.9,0.2-2.3,0.5-3,0.4c-1.2,0.4-2.3,0.6-3.1,0.4c-0.8,0.2-1.5-0.1-1.6-0.5
			c-0.2-0.1-0.7-1-0.6-1.6c-0.2-0.4,0-1.3,0.5-1.8c0.2-0.6,1.1-1.1,1.6-1c0.8-0.2,2-0.5,3.1-0.5c1.2-0.3,2.2,0,3-0.4
			c0.9-0.1,2-0.5,3.7-0.5c1.9-0.2,2.4-0.8,2.3-1.8c-0.2-0.4-1.2-0.4-2-0.1c-1.7,0-2.4,0.6-3.1,0.5c-0.8,0.4-2.1,0.2-2.7,0.1
			c-1.2,0-1.6-0.2-2.4-0.9c-0.3-0.4-0.9-0.9-0.9-1.6c-0.1-0.7-0.3-1-0.3-1.9c-0.2-0.7,0-2.2-0.1-3c-0.1-0.8-0.2-1.9-0.1-3.1
			c-0.3-0.5,0.1-1.3,0.2-2c0.3-0.8,0.5-1.2,1.1-2c0.9-0.6,1.3-1,2.3-1.4c0.9-0.5,1.8-0.2,2.5-0.6c1.1-0.2,1.8-0.5,3.1-0.5
			c1.7-0.2,2.2-0.9,2.2-1.5c0-1.2-1.9-0.6-2.6-0.3c-1.6,0.2-2.9,0.5-3.7,0.5c-0.4,0.2-1.3-0.3-1.6-0.5c-0.2-0.5-0.8-1-0.7-1.5
			c-0.2-0.5-0.1-0.9,0.6-1.7c0.6-0.2,0.9-0.6,1.5-0.9c1,0.1,1.9-0.3,3.7-0.5c0.4,0,2.1,0.1,2.7-0.7c0.7-0.4,0.1-0.7,0.4-1.4
			c0.4-0.4,1.3-0.9,1.9-1c0.7-0.2,1.1-0.1,1.8,0.1c0.8,0.4,0.8,1.1,1.3,1.6c0.6,0.1,1.6,0,1.9-0.3c2,0.2,3.1-0.1,4.1-0.4
			c0.3-0.2,1,0.2,1.6,0.5c0.2,0.2,0.5,1,0.7,1.5c-0.1,0.7-0.4,1.3-0.6,1.7c-0.7,0.4-1.2,0.7-1.5,0.9c-0.9,0.4-2.6,0.2-3.5,0.6
			c-2.7,0.2-2.5,0.7-2.6,1.3c0.1,0.5,0.6,0.8,2.1,0.6c1.3-0.4,2.5-0.1,3.4-0.5c0.6,0.1,1.7-0.1,2.7-0.2c1,0.2,1.9,0.5,2.4,1
			c0.7,0.4,0.6,1.2,0.9,1.6c0,0.7,0.4,1.2,0.3,1.9c0.2,1.2-0.2,1.9,0.1,3c0.2,0.8-0.1,2.3,0.1,3.1c-0.1,0.8-0.1,1.4-0.2,2.1
			c-0.2,0.6-0.3,1.2-1,1.9c-0.4,0.9-1.5,1.1-2.3,1.4c-0.9,0.5-2,0.6-2.5,0.6c-0.8,0.3-2.9,0.3-4.4,0.5c-1.2,0.2-0.9,1.3-0.9,1.8
			c0.4,0.4,1.1,0.3,2.4-0.1c1.7-0.2,3-0.7,4-0.6c0.8,0,2.3-0.2,3.3-0.5c1.2-0.3,2.3-0.6,3.4-0.5
			C407.2,111.8,408.3,111.7,408.5,112.2z M383.9,103.2c1.1-0.1,2.1-0.3,3-0.6c0.8-0.3,1.1-1.3,0.9-1.8c-0.3-0.7-1.8-0.1-2.3-0.2
			c-2,0.1-3.5,0.6-3.3,1.7C382.4,103.4,382.7,103.3,383.9,103.2z M384.7,106.7c-1.8,0-2.6,0.9-2.4,1.6c0,0.8,0.7,0.7,2.5,0.5
			c0.6,0,2-0.2,2.7-0.4c0.6-0.4,0.6-0.9,0.5-1.6C388,106.4,386.1,106.3,384.7,106.7z M393.4,100.8c0,1.1,1.4,0.8,2.4,0.5
			c0.4-0.1,1.6-0.1,2.3-0.4c1.2-0.3,0.8-1.6,0-1.9c-1.1-0.1-1.6,0.2-3,0.4C394.3,99.4,393.2,99.7,393.4,100.8z M395.2,107.3
			c1.1-0.1,2.5-0.3,3.5-0.6c0.6-0.5,1.2-1.8,0.1-1.8c-0.6,0-2.2,0.2-3.1,0.3c-1.1,0.2-2.5,0.5-2.3,1.8
			C393.5,107.6,394.6,107.1,395.2,107.3z"/>
		<path class="st5" d="M435.2,87.6c0.4,0.7,0.9,1.3,1,2c-0.1,0.4-0.4,1-0.7,2c-0.5,1.1-1.3,1.7-1.7,2.7c-0.5,0.7-0.7,0.9-1,1.4
			c-0.5,0.5-0.8,1.1-1.2,1.6c-0.7,0.9-0.1,2.2,0.4,2.8c0.3,1.3,0.2,2.3,0,3.4c-0.2,1.1,0.1,1.9-0.1,2.9c-0.2,1-0.2,2-0.1,2.9
			c0,0.8-0.3,1.9-0.1,2.9c0.1,0.8-0.1,2.1-0.1,2.9c0,1.2-0.2,2-0.1,2.9c-0.1,1,0.1,2.1-0.1,2.9c0,1.2,0.1,2.3-0.2,3
			c0.2,0.8-0.3,1.3-1.1,1.8c-0.8,0.6-1.3,0.7-2.1,0.7c-0.9,0.1-1.2-0.2-2-0.4c-0.4-0.6-0.7-0.9-0.9-1.6c0.1-0.7-0.2-1.5,0.1-2.6
			c0.1-0.6,0.1-1.6,0.1-2.5c0-0.6-0.1-1.7,0.1-2.6c0.1-0.8-0.1-1.5,0.1-2.5c-0.1-0.9,0.1-1.4,0.1-2.5c-0.2-1.1,0.2-1.5,0.1-2.6
			c-0.1-0.6,0.2-1.6-0.3-3.3c-0.8,0-1.3,0.4-1.7,0.9c-0.8,0.9-1.9,1.3-2.8,1.4c-0.7,0.1-1.4-0.1-2.1-0.7c-0.4-0.6-1-1.1-0.8-2
			c0.2-1.1,0.8-2,1.3-2.5c0.3-0.5,0.7-0.8,1.4-1.4c0.2-0.5,0.9-1.1,1.4-1.4c0.6-0.6,1.1-1.1,1.4-1.5c0.5-0.4,0.9-0.8,1.2-1.4
			c0.4-0.7,0.8-1,1.3-1.6c0.4-0.5,0.6-1.3,1.2-1.6c0.4-0.6,0.5-1,1.1-1.7c0.2-0.3,0.6-1.2,1.1-1.6c0.5-0.7,0.5-1.4,1.2-1.9
			c0.6-0.9,1.5-1.6,2.6-1.6C433.6,87,434.8,87.1,435.2,87.6z M418.9,89.3c0.1-0.7,0.6-2,1.3-2.5c0.5-0.5,0.6-0.8,1.2-1
			c0.7-0.4,1.2-1,2-1.9c0.4-0.7,1.2-1.1,1.8-2c0.8-0.8,1.2-1.5,1.7-2.1c0.4-0.6,1.1-1.2,1.5-2.2c0.2-0.5,0.5-1.1,1-1.4
			c0.7-0.5,1.5-1.3,2.4-1.4c0.8-0.3,1.4,0.2,2.2,0.6c0.8,0.4,0.7,1.3,1,1.9c0,0.4-0.2,1.3-0.5,1.5c-0.5,0.5-0.8,1.2-1.1,1.6
			c-0.2,0.7-0.7,1.2-1.2,1.6c-0.2,0.4-0.7,1.1-1.3,1.6c-0.7,0.4-1.1,1.1-1.4,1.6c-0.6,0.8-0.9,0.8-1.4,1.6c-0.6,0.4-1,1-1.4,1.5
			c-0.5,0.8-0.8,1.2-1.5,1.4c-0.3,0.2-0.9,1.1-1.4,1.3c-0.9,0.8-1.2,1-2.1,0.9c-0.8,0.3-1.7-0.1-2.1-0.8
			C419.2,91.2,419,90.1,418.9,89.3z M469.4,93.9c-0.3,0.8-1.3,1-1.8,1.1c-0.9,0-1.4-0.1-2.2,0.2c-0.9,0.3-1.6,0.3-2.8,0.2
			c-0.8,0.3-1.3,0.5-2,0.8c-0.4,0.3-1,0.7-1.1,1.1c0,0.1,0,0.1,0,0.2c-0.3,1.7,0,2.1-0.1,3.2c-0.1,1.1-0.2,1.9-0.1,2.6
			c-0.2,0.7-0.2,2-0.1,2.6c0.1,1.1-0.1,1.8-0.1,2.7c0.1,1.1-0.3,1.6-0.1,2.6c0.2,0.6-0.2,2-0.1,2.6c-0.3,0.7-0.1,2-0.1,2.6
			c-0.1,0.8,0,1.7-0.5,2.7c-0.1,0.9-0.9,1.9-1.5,2.4c-0.9,0.9-1.9,1.2-2.5,1.4c-1,0.4-2,0.4-2.7,0.5c-0.8,0.1-1.2-0.1-2.1,0.2
			c-1,0.2-1.4,0.1-2.1-0.2c-0.7,0.1-1.5-0.2-1.7-0.9c-0.4-0.5-0.7-1.3-0.6-1.9c0.3-0.9,0.5-1.6,0.8-2.1c0.7-0.3,1.1-1,2-1.1
			c1.8,0.2,2.4,0.1,3.4-0.2c1,0.1,1-0.3,1.2-1.4c-0.2-0.6-0.1-1.4,0.1-2.5c-0.2-0.7-0.1-1.8,0.1-2.5c-0.2-0.8,0.1-1.8,0.1-2.5
			c-0.2-0.7,0-1.8,0.1-2.5c0-1.1,0.3-1.8,0.1-2.5c-0.1-0.9,0.2-1.5,0.1-2.5c0.3-0.9,0.2-1.9,0.1-3.1c0.1-0.9-1.2-1.9-2.5-1.6
			c-1.8,0.3-3.1,0-4.3,0.3c-1.2,0-2.5,0.2-3.5,0.3c-1.4,0.2-2.3,0.3-3.5,0.3c-1,0.2-1.5-0.2-1.7-0.8c-0.6-0.4-0.3-1.3-0.5-1.9
			c0-0.8-0.1-1,0.6-1.9c0.6-0.7,1-0.7,1.8-1.1c1.3-0.3,2.4,0.1,3.6-0.3c1,0.1,2.1-0.2,3.5-0.3c1.4,0.1,2.5-0.1,3.5-0.3
			c0.9-0.1,2.4-0.1,3.5-0.3c1.1-0.1,2,0,3.5-0.3c1.1-0.2,2.4-0.2,3.5-0.3c1.1,0,2.5-0.1,3.5-0.3c0.9,0.1,2.2,0,3.6-0.3
			c0.4,0.1,1.5,0.4,1.7,0.8c0.4,0.7,0.5,1.1,0.5,1.9C470.2,92.6,469.8,93.6,469.4,93.9z M441.2,80.2c-0.2-0.5,0.4-1.3,0.6-1.9
			c0.3-0.3,0.8-0.7,1.8-1.1c1.1-0.2,1.5,0.1,2.7-0.2c0.6-0.1,1.6,0.1,2.6-0.2c0.8,0.1,1.5,0.1,2.6-0.2c0.7-0.3,1.6-0.3,2.7-0.2
			c0.7,0.2,1.9-0.2,2.6-0.2c1,0.1,1.6,0.1,2.7-0.2c1-0.1,1.6-0.3,2.5-0.2c0.7-0.2,1.7-0.1,2.8-0.2c0.8-0.1,1.2,0.5,1.7,0.8
			c0.5,0.5,0.4,1.2,0.5,1.9c0.1,0.5-0.2,1.7-0.7,1.9c-0.7,0.8-1,1.1-1.8,1.1c-0.8,0.1-1.9,0-2.7,0.2c-0.7-0.2-1.8,0.3-2.6,0.2
			c-0.8,0-1.8,0.3-2.7,0.2c-1.1,0.2-1.7,0.1-2.6,0.2c-0.7,0.1-1.8,0.2-2.7,0.2c-1-0.1-1.6,0.1-2.6,0.2c-0.7,0.1-1.7-0.1-2.6,0.2
			c-0.9-0.1-2.1,0.3-2.7,0.2c-0.9,0.1-1.5-0.2-1.7-0.8C441.5,81.6,441,81,441.2,80.2z"/>
	</g>
</g>
</svg>
