<?xml version="1.0" encoding="utf-8"?>
<!-- Generator: Adobe Illustrator 24.3.0, SVG Export Plug-In . SVG Version: 6.00 Build 0)  -->
<svg version="1.1" id="レイヤー_1" xmlns="http://www.w3.org/2000/svg" xmlns:xlink="http://www.w3.org/1999/xlink" x="0px"
	 y="0px" viewBox="0 0 605.5 720" style="enable-background:new 0 0 605.5 720;" xml:space="preserve">
<style type="text/css">
	.st0{fill:#CCCCCC;}
	.st1{fill:#93278F;}
	.st2{opacity:0.2;enable-background:new    ;}
	.st3{fill:#E6D246;}
	.st4{opacity:0.4;fill:#FCEE21;enable-background:new    ;}
	.st5{fill:#FFFFFF;}
</style>
<g>
	<g id="レイヤー_2_1_">
		<g id="レイヤー_1-2">
			<polygon class="st0" points="0,720 11.6,720 97.2,23 85.6,23 			"/>
			<path class="st1" d="M605.5,46.2C442-9.6,257.9,102,94.3,46.2L77.2,185.6c163.5,55.8,347.6-55.8,511.2,0
				c-12-28.3-24.2-55.2-36.5-81C569.9,83.9,587.8,64.4,605.5,46.2z"/>
			<polygon class="st2" points="7,720 11.6,720 97.2,23 92.6,23 			"/>
			
				<ellipse transform="matrix(0.7285 -0.6851 0.6851 0.7285 14.3371 67.4755)" class="st3" cx="92.3" cy="15.7" rx="16.6" ry="14.7"/>
			<path class="st3" d="M100.9,1.6c2.3,3,3.3,6.8,2.8,10.5C102.5,21,95,27.6,86.2,27.8c-2.3,0-4.6-0.5-6.7-1.6
				c2.7,3.3,6.7,5.2,10.9,5.1c8.9-0.2,16.3-6.8,17.6-15.6C108.8,9.9,106,4.3,100.9,1.6z"/>
			<path class="st4" d="M346.4,58.4c83.3-13.4,169.4-27.1,249.2-1.9l2.8-2.9c-81-26.1-167.9-12.2-252.1,1.3
				c-84.6,13.6-172.1,27.6-253,0.6l-0.4,3.7c33.8,11.1,68.6,15.2,103.9,15.2C246.3,74.4,296.9,66.3,346.4,58.4z"/>
			<path class="st4" d="M332,175.7c84.2-13.5,171.2-27.4,251.7-1l-1.9-4.4c-80.3-25.2-166.5-11.4-249.9,2
				c-84.6,13.6-172.1,27.6-253,0.6l-0.4,3.7c33.8,11.1,68.6,15.2,103.9,15.2C231.9,191.7,282.5,183.6,332,175.7z"/>
			<path class="st5" d="M138.1,141.1c-0.5,1.2-0.4,2.1-0.9,3.4c0,0.7-0.3,1.4-0.8,2c-0.4,0.7-0.8,1.2-1.4,1.7
				c-0.7,0.3-1.4,0.6-2.2,0.7c-0.7,0-1.4,0-2.1-0.1c-0.6-0.3-1.7,0-2.5-0.3s-1.8-0.1-2.5-0.3c-0.8,0.2-1.6,0-2.2-0.6
				c-0.6-0.4-1.2-0.9-1.7-1.5c-0.2-0.6-0.3-1.2-0.4-1.9c-0.2-0.5,0.1-1,0.3-1.9c0.1-1.2,0.4-2.3,0.9-3.4c0.4-1.1,0.6-2.4,0.9-3.4
				c0.2-0.7,0.4-1.4,0.8-2.1c0.1-0.8,0.8-1,1.5-1.7c0.6-0.5,1.3-0.7,2.1-0.7c0.5-0.1,1.5,0.1,2.1,0c0.8,0.2,1.7,0.4,2.5,0.3
				c0.9-0.1,1.7,0.1,2.5,0.3c0.7,0.1,1.5,0.3,2.2,0.5c0.8,0.4,1.3,0.6,1.7,1.5c0.2,0.6,0.3,1.3,0.4,1.9c0.1,0.6-0.4,1.4-0.3,1.9
				C138.5,139.1,138.5,140.1,138.1,141.1z M126.4,127.7c0.1-0.7-0.5-1.1-0.1-1.9c0.1-0.7,0.5-1.3,1-1.7c0.6-0.4,1.1-0.8,1.7-0.7
				c0.9,0.3,1.7,0.4,2.6,0.3c0.8,0.2,1.7,0.3,2.6,0.3c0.8,0.3,1.7,0.4,2.6,0.3c1-0.1,1.9,0.4,2.6,0.3c0.5,0.1,0.8,0.3,1.3,1.1
				c0.1,0.6,0.1,1.3,0,1.9c-0.2,0.7-0.5,1.3-1,1.7c-0.6,0.6-1.3,1-1.7,0.7c-0.9,0-1.8,0-2.6-0.3c-0.9-0.1-1.7-0.2-2.6-0.3
				c-0.9,0.1-1.7-0.1-2.6-0.3c-0.9,0.1-1.8-0.1-2.6-0.4C127.1,128.5,126.4,128.3,126.4,127.7z M132.4,113.9
				c-1.2-0.3-2.5-0.5-3.7-0.5c-0.8-0.2-1-0.8-1.3-1.1c-0.3-0.6-0.3-1.4,0-2c0.1-0.7,0.5-1.4,1-1.8c0.4-0.5,1.1-0.8,1.8-0.8
				c1.4,0.2,2.5,0.3,3.7,0.5s2.5,0.1,3.6,0.5c1.2,0,2.4,0.2,3.6,0.5c1.2,0.3,2.5,0.4,3.7,0.5c0.6,0.2,1.1,0.6,1.3,1.1
				c0.5,0.4,0.2,1.6,0.1,2c-0.2,0.7-0.5,1.3-1,1.8c-0.4,0.6-1.1,0.9-1.8,0.7c-1.3,0.1-2.5,0-3.7-0.4c-1.2,0.1-2.5-0.1-3.6-0.5
				C134.9,114,133.7,113.9,132.4,113.9z M131,143.6c0.5,0,1-0.4,1.1-0.9c0.1-0.8,0.3-1.5,0.6-2.2c0.1-0.7,0.2-1.4,0.5-2
				c0.1-0.8,0.1-1.2-0.6-1.4c-1.2-0.1-1.8-0.2-2.8-0.4c-0.6,0-0.8,0.2-1.2,1c-0.3,0.7-0.4,1.4-0.6,2.2c-0.2,0.8-0.5,1.6-0.6,2.2
				s0.1,1.1,0.6,1.2C129,143.5,130,143.6,131,143.6z M129.5,121.2c-0.9-0.2-1.1-0.5-1.2-1.1c0-0.8-0.3-1-0.1-1.9
				c0.3-0.4,0.3-1.1,1-1.7c0.4-0.5,1.1-0.7,1.7-0.7c0.6,0,1.8,0.5,2.7,0.3c0.8,0.1,1.7,0.2,2.5,0.3c0.9,0.1,1.7,0.2,2.6,0.3
				c0.9,0.2,1.7,0.3,2.6,0.3c0.6,0.2,1,0.6,1.3,1.1c0.1,0.6,0.1,1.3,0,1.9c-0.2,0.9-0.7,1.2-1,1.7c-0.3,0.6-1.1,0.9-1.7,0.7
				c-0.9-0.2-1.7-0.3-2.6-0.3c-0.9,0.1-1.8,0-2.6-0.3c-0.8-0.2-1.7-0.3-2.6-0.3C131.3,121.4,130.4,121.3,129.5,121.2L129.5,121.2z
				 M132.2,104.8c-0.3-0.6-0.3-1.3,0-1.9c0.1-0.7,0.5-1.3,1-1.7c0.4-0.5,1-0.7,1.7-0.7c0.9,0.1,1.9,0.2,2.7,0.3
				c0.8,0.2,1.7,0.3,2.5,0.3c0.9-0.1,1.7,0.1,2.6,0.3c0.9,0,1.8,0.1,2.6,0.3c0.6,0.1,1.1,0.5,1.3,1.1c0.2,0.3,0.2,0.9,0,1.9
				c-0.2,0.6-0.6,1.2-1,1.7c-0.5,0.4-1.1,0.6-1.7,0.7c-0.9-0.2-1.8-0.3-2.6-0.3c-0.8-0.3-1.7-0.4-2.6-0.3c-0.8-0.2-1.7-0.3-2.6-0.3
				c-0.9,0-1.8-0.1-2.6-0.4C132.9,105.7,132.4,105.3,132.2,104.8L132.2,104.8z M165.3,138.1c0.6,0.4,1.1,0.9,1.4,1.5
				c0.4,1.1,0.4,2.4-0.1,3.5c-0.2,0.7-0.8,1.5-0.9,2.3c-0.3,0.8-0.7,1.6-1.1,2.3c-0.4,0.8-0.8,1.5-1.4,2.1c-0.6,0.6-1.3,1.2-2,1.7
				c-0.6,0.4-1.3,0.7-2.1,0.7c-0.4,0-1.1,0-2,0c-1.2-0.4-2.4-0.1-3.5-0.9c-0.3-0.4-1-0.7-1.2-1.1c-0.4-0.6-0.2-1-0.1-1.9
				c0.1-0.7,0.5-1.4,1.1-1.8c0.4-0.6,1.1-0.8,1.8-0.7c1.4,0.1,1.9,0.6,3,0.7c0.8,0.2,1.2-0.1,1.4-0.6c0.3-0.2,0.6-1,1-1.6
				c0.4-0.8,0.6-1.9,0.1-1.9c-0.9-0.2-1.8-0.4-2.7-0.4c-0.9-0.1-1.5-0.1-2.1-0.8c-0.7-0.5-0.9-1.5-0.5-2.3c0.4-1,0.8-2,1.3-3
				c0.4-1,0.3-1.6-1.2-1.8c-1.2-0.2-1.6,0.3-2.1,1.5c-0.6,1-1.1,2.1-1.6,3.1c-0.4,0.8-0.9,1.6-1.5,2.4c-0.5,0.7-1.3,1.6-1.8,2.3
				c-0.5,0.7-1.2,1.3-1.8,1.9c-0.4,0.5-1.5,1.2-2.1,1.9c-1,0.8-1.7,1.1-2.3,1.6c-1,0.3-1.8,1.2-2.4,1.2c-0.5,0.4-1,0.3-1.5,0.2
				c-0.5-0.4-1.3-0.3-1.7-1.1c-0.5-0.6-0.4-1.2-0.1-2.2s0.4-1.4,1-1.8c0.7-0.2,1.4-0.6,1.9-1.2c0.5-0.4,1-0.7,1.6-1
				c0.4-0.5,1-0.6,1.5-1.1c0.6-0.3,1.1-0.8,1.4-1.3c0.5-0.7,0.8-1.1,1.3-1.4c0.6-0.5,0.6-0.9,1-1.4c0.5-0.7,0.9-1.4,1.3-2.2
				c0.4-0.7,1-1.3,0.9-1.9c-0.2-0.8-0.8-0.7-2.7-0.9c-1.2-0.4-1.6-0.7-1.6-1.1c-0.4-0.3-0.2-1.4-0.1-1.8c0.1-0.7,0.4-1.3,1-1.6
				c0.7-0.6,1.3-0.4,1.7-0.7c1.1-0.1,2.2,0.5,3.2,0.4c1.1,0,2.2,0.2,3.2,0.4c1.1,0,2.1,0.2,3.2,0.4c0.9,0.2,1.9,0.2,3.2,0.4
				c0.6,0.1,1.5,0.5,2,0.5c0.6,0.3,1.1,0.7,1.5,1.3c0.4,0.8,0.4,1.6,0.2,2.4c-0.4,0.8-0.6,1.8-1.1,2.7c-0.5,1.2-0.2,1.6,0.8,1.5
				C164,137.8,164.5,137.8,165.3,138.1L165.3,138.1z M172.3,125.5c0.5,0.6,0.2,1.3,0.2,1.8c-0.3,0.7-0.7,1.3-1.2,1.9
				c-0.6,0.4-1.3,0.7-2,0.6c-0.8-0.2-1.6-1.1-2.5-1.4c-0.8-0.3-1.4-0.9-1.8-1.7c-0.6-0.6-1.3-1.4-1.6-1.8c-0.7-0.6-1.2-1.3-1.6-2.1
				c-0.5-0.8-1.2-0.5-1.5,0.9c-0.3,0.8-0.5,1.5-0.6,2.3c-0.2,0.7-0.6,0.9-1.2,1.2c-0.5,0.3-1.2,0.4-1.8,0.3c-0.9,0-1.2-0.5-1.6-0.8
				c-0.7-0.5-0.5-0.9-0.6-1.5c0.2-0.5,0.5-1.8,0.8-2.7s-0.4-1.2-1.2-0.6c-0.9,0.5-1.8,1.1-2.6,1.8c-0.6,0.4-1.6,0.9-2.4,1.4
				c-1.6,1-3.4,1.7-5.2,2c-0.6-0.3-1.4-0.2-1.5-1c-0.1-0.6-0.5-1-0.2-1.9c0.2-1,1-1.8,2-2.1c1.1-0.6,1.7-0.6,2.9-1.3
				c0.8-0.3,1.7-0.8,2.4-1.3c0.5-0.5,1.4-0.7,2.3-1.4c0.5-0.6,0.5-1.1-0.6-1.3c-1,0-2.1-0.2-3.1-0.5c-0.5-0.1-0.8-0.6-1.3-1
				c-0.3-0.6-0.2-0.9-0.1-1.8c0.1-0.7,0.5-1.3,1-1.7c0.4-0.5,1-0.7,1.7-0.6c0.7,0.3,1.5,0.4,2.2,0.3c0.5,0,1.2,0.4,2.1,0.3
				s2.3,0.4,3.5,0.4c0.7,0,1-0.8,1-1.6s-0.9-0.5-1.6-0.3c-0.9-0.2-1.8,0.1-2.5-0.1c-0.8,0.1-1.6,0-2.3-0.2c-0.5-0.1-1.3-0.3-1.5-1
				c-0.3-0.6-0.4-1.3-0.2-2c0.3-0.6,0.7-1.2,1.2-1.7c0.6-0.3,1.2-0.5,1.8-0.6c0.7-0.1,1.6,0.2,2.3,0.1c0.8,0.1,1.5,0.1,2.3,0.1
				c0.7-0.1,1.5-0.1,2.2,0.1c0.7,0.3,1.5,0.3,2.2,0c0.9,0,1.8,0,2.7-0.1c0.9,0.1,1.8,0,2.7-0.2c1.1,0.1,2.3,0,3.4-0.3
				c0.8,0.2,2,0.6,2.2,1.1c0.2,0.7,0.4,1.4,0.4,2.1c-0.3,0.9-1,1.6-1.8,2c-0.9,0.3-1.8,0.5-2.7,0.5c-0.4,0-1.3,0.2-1.7,0.2
				c-0.6,0.3-2.5,0-3.2,0.4s-0.9,1.1-0.9,2c0,0.4,0.5,0.5,1.4,0.8c1.3,0.1,1.8,0.3,2.8,0.4c0.5,0.2,1.7,0.1,2.3,0.3
				c0.7,0.3,1.5,0.4,2.3,0.3c0.6,0,1.1,0.4,1.2,1c0.2,0.6,0.2,1.2,0.1,1.8c-0.3,0.6-0.6,1.1-1,1.6c-0.4,0.5-1,0.7-1.7,0.6
				c-1.3-0.1-2.1-0.3-3.4-0.4c-0.8-0.2-1.2,0-1.5,0.2c-0.1,0.2-0.1,0.4,0,0.5c0.5,0.5,1.1,1,1.5,1.6c0.7,0.4,1.1,1.2,1.5,1.3
				c0.5,0.5,1.1,0.6,1.6,1.2C171.4,124.2,172.3,124.9,172.3,125.5L172.3,125.5z"/>
			<path class="st5" d="M220.3,146c-0.9,0.1-1.8,0.1-2.7,0.1c-0.7,0-1.8,0.1-2.6,0c-1.1-0.1-2.2-0.1-3.3,0c-0.5,0.4-1.1,0.1-1.6,0.7
				c-0.4,0.4-0.4,2.3-0.6,2.8c-0.4,1.6-0.2,2.1-0.6,2.6s-0.6,1.2-1.4,1.8c-0.5,0.3-1.4,1.2-2.2,1.1c-0.8,0.3-1.6,0.4-2.4,0.3
				c-1.1,0.4-2.3,0.3-3.3-0.3c-0.7-0.3-1.1-0.3-1.2-0.8c-0.5-0.2-0.4-1-0.3-1.6c0-0.7,0.3-1.3,0.8-1.7c0.3-0.6,0.9-0.9,1.6-0.9
				c0.8-0.1,1.5,0,2.3,0.1c0.5,0.1,1-0.1,1-1.2c0.2-0.7,0.2-1.5,0.1-2.2c-0.7-0.3-1.5-0.5-2.2-0.5c-1.1,0.3-1.5-0.1-2.4,0
				c-0.6-0.1-1.2-0.1-1.8,0c-1.1-0.1-2.4,0.2-3.7,0c-0.6-0.1-1.1,0-1.6,0.3c-0.1,0.1-0.2,0.3,0,0.5c0,0,0,0,0,0
				c0.4,0.3,0.8,0.9,1.5,1.4c0.6,0.5,0.9,1.3,0.8,2.1c0,0.8-0.4,1.5-1,1.9c-0.5,0.5-1.2,0.7-1.9,0.8c-0.8,0-1.6-0.4-2.2-1
				c-0.8-0.7-1.3-1.2-1.9-1.8c-1-0.3-1.6-1.4-1.3-2.4c0.2-1-0.4-1.4-1.4-1.6c-1,0.2-2,0.2-3.1,0c-1-0.1-2-0.1-2.9,0
				c-0.8-0.2-2,0.2-3,0c-1.4,0.1-1.6-1.1-1.6-2.3c0.3-1,0.8-2.1,2.1-2.3c1-0.2,2.4,0.2,3.7-0.1c1.2-0.1,2.4-0.1,3.6,0
				c1.4-0.2,2.2,0.2,3.6,0s2.2,0.1,3.6-0.1c1.1-0.2,2.4,0.1,3.6,0s2.5,0.1,3.6,0c0.4,0.3,1.4,0,2.2,0c0.8-0.2,1.6-0.3,2.3-0.1
				c0.8,0.3,1.6,0.1,2.3-0.4c0.3-0.6,0.8-1.1,1.4-1.4c0.5-0.4,1.2-0.6,1.9-0.6c0.7,0.1,1.3,0.2,1.9,0.4c0.4,0.5,0.7,1,0.8,1.6
				c0.8,0.3,1.7,0.3,2.5,0c1.7,0.2,1.8-0.1,2.6,0.2c0.9-0.2,1.5,0.1,2.6,0s1.5,0.3,2.7,0c1,0.2,1.7,1.2,1.6,2.3
				c0.1,1.2-0.8,2.3-2,2.4C220.4,146,220.3,146,220.3,146z M183.3,128.3c0.1-0.8,0.2-1.7,0.4-2.5c0.3-0.9-0.5-1.2-1.1-1
				c-0.9,0.2-1.9,0.2-2.8,0c-0.6,0-1.1-0.3-1.5-0.8c-0.5-0.5-0.6-1.1-0.4-1.8c0-0.7,0.3-1.3,0.8-1.8c0.4-0.6,0.9-1,1.6-0.8
				c1.4,0.1,2.7,0,4.1-0.1c0.8-0.1,1.6-0.1,2.4,0.2c0.7,0.4,1.4,0.8,2,1.2c0.3,0.6,0.5,1.1,0.6,1.8c-0.1,0.6-0.1,1.3,0,1.9
				c-0.2,1-0.3,2-0.3,3c-0.2,1-0.3,2-0.3,3c0.6,0.2,1.1,0.6,1.8,1c0.8,0.5,1.1,0.9,1.9,0.9c0.6,0.4,1.3,0.7,2,0.6
				c0.7,0,1.4,0.2,2.1,0.4c0.7,0.2,1.5,0.3,2.2,0.2c0.7-0.1,1.4,0,2.1,0.1c1-0.1,1.7,0.3,2.2,0c0.7-0.1,1.4-0.1,2.2,0
				c0.8,0.1,1.7,0.1,2.5,0c0.8-0.1,1.7-0.1,2.5-0.1c0.5,0.2,1.7-0.3,2.4-0.1c0.8,0.1,1.7,0.1,2.5-0.1c1-0.1,1.7-0.1,2.8-0.2
				c1,0,1.9-0.1,2.9-0.2c0.6,0,1.2,0.2,1.6,0.6c0.5,0.5,0.7,1.2,0.5,1.8c-0.2,0.7-0.6,1.4-1.1,2c-0.9,0.3-1.9,0.5-2.8,0.7
				c-0.7,0.1-1.3,0.2-2,0.1c-1,0-2.4,0.1-3.7,0.2c-0.7,0-1.4,0-2.1,0.1c-0.9,0.1-1.4-0.1-2.1,0.1c-1,0.2-1.5-0.1-2.1,0
				c-0.7-0.1-1.4-0.1-2.1,0c-0.8-0.2-1.7-0.2-2.5,0c-0.8,0.3-1.7,0.2-2.6-0.1c-0.8-0.1-2,0.2-2.5-0.1c-0.6-0.2-1.8,0-2.5-0.3
				c-1-0.2-1.8-0.5-2.4-0.5c-0.9-0.4-1.8-0.4-2.3-0.7c-0.4,0-0.9-0.2-1.2-0.5c-0.4,0.1-1-0.5-1.5-0.9c-0.6-0.5-1.9-0.3-2.5-0.1
				c-0.4,0.4-1,1.2-1.5,1.3c-0.2,0.6-0.8,0.5-1.2,1c-0.7,0.8-1.8,1-2.4,1.6c-0.5,0.2-1.6,1-1.9,0.7c-0.7,0.2-1.4-0.2-1.7-0.8
				c-0.3-0.2-0.5-1.2-0.6-1.9c0.1-1.1,0.7-2,1.7-2.4c0.4-0.6,1-0.4,1.6-1.1c0.6-0.1,0.9-0.7,1.4-0.9c0.9-0.7,1.5-1.3,2.3-1.9
				C183,130.4,183.3,129.3,183.3,128.3L183.3,128.3z M181.1,108.8c0.1-0.8,0.5-1.5,1.1-2c0.6-0.3,1.3-0.6,2-0.8
				c0.8-0.1,1.1,0.3,1.9,0.7s1,1.1,1.4,1.4c0.4,0.6,1.3,1,1.7,1.8c0.4,0.8,0.6,1.6,0.7,2.4c-0.3,0.9-0.4,1.5-1,2
				c-0.6,0.5-1.3,0.8-2,0.8c-1,0-1.9-0.5-2.4-1.4c-0.5-0.5-0.9-1-1.3-1.5c-0.5-0.4-0.8-0.6-1-1C181.6,110.5,181.2,109.7,181.1,108.8
				L181.1,108.8z M192,110.2c0.2-0.9,1-2.1,2-2.2s2.4,0.2,3.9-0.1c0.6,0.2,1.2,0.1,1.8-0.1c0.4-0.2,0.5-0.5,0.2-0.8
				c-0.5-0.5-0.7-1.2-0.5-1.8c0.2-0.8,0.6-0.9,1-1.6c0.6-0.3,1.2-0.5,1.8-0.7c0.6,0.2,1.2,0.4,1.7,0.8c0.7,0.6,0.7,1.2,1.2,1.6
				c0.4,0.6,0.6,1.3,0.7,2.1c0.4,0.7,0.9,0.5,1.4,0.6c1.1,0.1,2.3,0,3.4-0.2c0-0.4,0.7-0.9,0.9-1.6c0.4-0.6,0.8-1.2,1.1-1.9
				c0.6-0.9,1.5-1.5,2.6-1.6c0.7-0.2,1.1,0.3,1.8,0.6s0.6,1.2,0.7,2c-0.1,1.1-0.8,1.3-0.8,2.1c0.1,0.4,1.7,0.2,2.2,0.2
				c0.9,0.3,1.4-0.2,2.3,0c0.6,0,1.3,0,1.9,0c0.8,0.3,1.8,1.1,1.6,2.1c0,1.1-0.9,2-2,2.1c-1.2,0.1-2.4,0-3.6-0.2
				c-1.3,0.1-2.6,0.1-3.9,0.1c-1.4-0.1-2.9,0.2-3.6,0c-0.7,0-2.3,0.1-2.5,1.2c-0.4,1,1.1,0.9,2.1,0.7c0.6,0.2,5-0.1,5.9,0.1
				c0.6,0.3,1.8,0.5,2.1,1.2c0.8,0.7,0.8,1.8,0.5,3.1c-0.1,0.7-0.1,1.5-0.2,2.2s0,1.7-0.3,2.3c-0.3,0.7-0.4,1.5-0.2,2.3
				c-0.2,0.7-0.3,1.5-0.3,2.3c-0.2,0.8-0.5,1.6-0.8,2.4c-0.4,0.8-1.1,1.5-1.9,1.7c-1.1,0.3-2.3,0.5-3.5,0.5
				c-1.2,0.1-2.4,0.1-3.6,0.1c-1.2,0.1-2.4,0.1-3.6,0c-1.4,0-2.4,0.1-3.6,0c-1.2,0.1-2.4,0.1-3.6,0.1c-0.8,0.2-1.7,0.1-2.5-0.2
				c-0.8-0.1-1.6-0.6-2.1-1.2c-0.8-0.8-1-2-0.5-3c0.2-0.6,0-1.4,0.3-2.4c0.2-0.8,0-1.8,0.3-2.3c-0.1-0.8,0-1.6,0.2-2.3
				c0.2-0.8,0.3-1.5,0.3-2.3c0.1-0.6,0.2-1.2,0.4-1.8c0.3-0.3,0.4-1,1.1-1.5c0.7-0.5,1.5-0.9,2.3-1.1c0.6,0,1.1,0,1.7-0.2
				c0.6-0.2,1.1-0.2,1.7-0.1c0.9-0.1,2,0,2.1-0.6c0.2-1.5-0.9-0.7-1.7-0.9c-0.6,0.2-1.2,0.1-1.7-0.2c-0.4-0.2-1.1,0.1-1.6,0.2
				c-0.8-0.1-1.6,0-2.3,0.1c-0.9,0.1-1.8,0.1-2.7-0.1C192.6,112.6,191.7,111.6,192,110.2z M213.9,127.5c0.3-1.4-2.7-0.6-3.2-0.7
				c-0.9-0.1-1.8-0.1-2.6,0c-0.7,0.2-1.3,0.2-2,0c-1,0.2-1.9,0.1-2.9-0.1c-0.8-0.1-2.8,0.1-3.6,0.2c-1.3,0-1.1,1.1-0.4,1.7
				c1.2,0.3,2.4,0.3,3.6,0c1-0.1,2,0,3,0.1c1.6,0.1,3.3,0.1,4.9-0.1C212,128.4,213.5,128.7,213.9,127.5L213.9,127.5z M211.5,122
				c-0.9,0.1-1.8,0.1-2.7,0c-0.7-0.2-1.4-0.2-2.1,0c-0.7-0.1-1.4-0.1-2.1,0c-0.9-0.1-1.8-0.1-2.7,0c-2.2-0.1-3.1,0.1-3.1,1.2
				c-0.1,0.2,0.3,0.3,0.8,0.4c0.7,0.1,1.5,0.1,2.2,0c0.9,0.2,1.8,0.2,2.7,0c0.7,0.2,1.4,0.2,2.1,0c0.9,0.2,1.2-0.2,2.1,0
				c0.9-0.1,1.8-0.1,2.7,0c1.1,0,2.8,0.2,3-0.9C214.5,122.1,212.8,122,211.5,122z M199.8,118.6c-0.1,1,2.1,0,2.9,0.3
				c1.4,0.4,2.8,0.4,4.3,0.2c0.9,0,1.9,0,2.8-0.1c0.8-0.2,1.9,0.2,2.8,0.1s2.2,0,2.4-0.8c0.2-1.4-1.7-1-2.5-1.1
				c-1.8,0.3-3.7,0.3-5.5,0.1c-1.1,0-4,0.1-4.9,0C200.7,117.2,199.5,117.4,199.8,118.6z"/>
			<path class="st5" d="M235.8,137.7c0.4,0.7,0.6,1.5,0.6,2.3c0,0.7-0.2,1.5-0.4,2.2c-0.3,1-0.5,1.4-0.6,2.1s-0.6,1.5-0.7,2
				c-0.4,0.6-0.5,1.6-0.8,2c-0.3,0.7-0.7,1.4-1.3,2c-0.6,0.4-1.3,0.8-2,1c-0.7-0.1-1.4-0.2-2.1-0.6c-0.7-0.3-0.9-0.8-1-2
				c0.1-0.5,0.2-1,0.4-1.5c0.1-0.7,0.5-0.9,0.8-1.7c0.4-0.4,0.3-0.8,0.7-1.7c0.2-1.2,0.8-2.1,1.1-3.5c0.2-1,0.6-1.9,1.3-2.6
				c0.5-0.4,1.1-0.7,1.8-0.9C234.4,136.7,235.3,137,235.8,137.7z M273.9,131.5c-0.2,1-0.2,2-0.1,3c0,0.9-0.4,2-0.4,3
				c-0.1,1-0.3,2-0.6,3c-0.2,1.1-0.6,2-0.8,2.9c-0.5,0.9-0.4,1.5-1,2.2c-0.4,0.8-0.9,1.4-1.6,1.9c-0.7,0.5-1.4,0.9-2.2,1.2
				c-0.8,0.3-1.6,0.5-2.4,0.5c-0.8,0.2-1.7,0.3-2.5,0.1c-0.8,0.1-1.7,0-2.4-0.3c-0.8-0.6-1.4-1.6-1.5-2.6c0.1-0.7,0.3-1.5,0.8-2.1
				c0.5-0.6,1.1-1,1.9-1.1c1.1-0.1,2.2-0.1,3.3,0c0.6,0,1.2-0.3,1.6-0.7c0.3-0.4,0.8-0.9,0.8-1.4c0-0.8,0.5-1.1,0.5-2
				c0-0.5,0.4-1.4,0.4-2.1c0.3-0.7,0.3-1.4,0.2-2.1c0.1-0.7,0.1-1.3,0.1-2c0-0.6-1-0.8-1.6-0.9c-1.3,0.2-2.1,0.2-3.2,0.3
				c-0.9,0.1-2.2,0.3-3.2,0.3c-1.1,0-2.2,0.1-3.2,0.3c-1.1,0-2.2,0.1-3.2,0.3c-1-0.1-2.3,0.4-3.2,0.3s-2.4,0.5-3.2,0.3
				c-1.4,0.1-2.2,0.5-3.2,0.3c-1,0.3-2.1,0.4-3.2,0.3c-1,0.2-2.1,0.2-3.1,0c-1.1,0.1-2.1-0.4-2.8-1.2c-0.7-0.4-0.5-1.3-0.9-1.8
				c0-0.7,0-1.3-0.2-2c-0.1-0.5,0.2-1.5,0-2.5c-0.1-0.7,0.1-1.8,0-2.4c-0.2-0.6,0.1-1.5,0-2.4c0.1-0.8,0.1-1.6,0-2.4
				c-0.2-0.8-0.2-1.6,0-2.4c0.1-0.8,0-1.8,0-2.4c0.1-0.8,0.1-1.6,0-2.4c0.1-0.9,0-1.5,0-2.5c0.2-0.9,0.1-1.4,0.4-2.3
				c0.2-0.8,0.6-1.6,1.3-2.2c0.8-0.7,1.6-1.2,2.6-1.6c0.9-0.5,1.7-0.2,2.9-0.6c1.2-0.3,2.3-0.4,3.5-0.4c1.4-0.2,2.5,0,3.5-0.4
				c1.2-0.2,2.3-0.3,3.5-0.4c1.2,0.1,2.4,0,3.5-0.4c1.2,0,2.3-0.1,3.5-0.4c1.2,0.1,2.4,0,3.5-0.4c1-0.1,2.3-0.2,3.5-0.4
				c1.2-0.3,2.4-0.4,3.6-0.3c0.6,0.1,1.1,0.3,1.6,0.7c0.1,0.5,0.7,1.3,0.5,1.8c0,0.7-0.2,1.4-0.6,1.9c-0.4,0.4-1,1.1-1.6,1
				c-1.5,0.2-2.5,0.4-3.7,0.4c-1.2,0.2-2.4,0.3-3.6,0.4c-1.2,0-2.3,0.2-4,0.4c-0.9-0.1-1.8,0.2-2.5,0.8c-0.7,0.8-0.4,1.6-0.3,2.4
				c0.1,0.3,0.7,0.5,1.7,0.3c1.2,0,2.3-0.2,3.4-0.4c1.1,0.1,1.6-0.3,2.8-0.3c1.2-0.3,1.8,0.1,2.9-0.2c0.7-0.3,0.9,0.1,1.5,0.6
				c0.2,0.6,0.3,1.3,0.5,1.6c-0.1,0.4-0.2,1.4-0.5,1.7s-0.7,1-1.5,0.9c-1.1,0.4-1.9,0-2.9,0.4c-0.9,0.3-1.9,0.4-2.8,0.3
				c-1.1-0.1-2,0.5-3.1,0.3c-0.7,0-1.4,0.4-1.8,1c-0.5,0.4-0.4,1.4-0.4,2.2c0.5,0.5,1.2,0.6,1.9,0.3c1.1-0.3,2.3-0.4,3.4-0.3
				c0.9,0,1.9-0.1,2.8-0.3c1-0.2,1.9-0.3,2.9-0.2c0.8-0.3,1,0.4,1.4,0.6s0.4,1.1,0.5,1.6c-0.3,0.5-0.3,1.5-0.5,1.7
				c-0.4,0.4-0.9,0.7-1.5,0.9c-1.2,0.2-2.1,0.1-2.9,0.4c-0.9,0-1.9,0.1-2.8,0.3c-1.1,0.3-2,0.1-3.4,0.4c-0.6-0.1-1.3,0.2-1.7,0.7
				c-0.2,0.8-0.2,1.6,0,2.4c0.6,0.4,1.3,0.6,2,0.4c1.3-0.1,2.6-0.2,4-0.4c1.1,0.1,2.2,0,3.3-0.3c1.1,0.1,2.2,0,3.2-0.3
				c1-0.3,2-0.3,3,0c1,0,1.9,0.5,2.6,1.3c0.5,0.3,0.9,0.9,0.9,1.6C273.7,130.5,274,131,273.9,131.5L273.9,131.5z M246.5,144.4
				c0,1-0.3,2.1-0.9,2.9c-0.5,0.7-1.3,1.1-2.1,1.1c-1,0.4-2.1-0.4-2.5-1.4s-0.3-1.4-0.6-2.2c-0.2-1.1-0.6-1.8-0.7-2.5
				c-0.4-1.5-1-2-0.8-2.9c-0.2-0.6,0.4-1.4,0.9-1.9c0.5-0.4,1.2-0.8,1.9-0.9c0.6,0,1.2,0.2,1.8,0.5c0.6,0.1,1,1.1,1.1,1.5
				c0.3,1,0.7,2,1.2,2.9C245.9,142.3,246.1,143.4,246.5,144.4L246.5,144.4z M248.9,125.8c-0.4-1.2-1.1-0.7-1.7-0.4
				c-1,0.1-2,0.2-3,0.3c-0.7-0.2-1.7,0.4-3,0.3c-0.6,0.2-1.9,1.2-1.8,2c0,1.3,0.3,1.6,1.7,1.5c0.7-0.3,1.4-0.4,2.1-0.2
				c0.9,0.1,1.8,0,2.7-0.3c1,0.1,2-0.3,2.7-1C249,127.4,248.7,126.7,248.9,125.8z M247.3,117c-1,0.3-2,0.4-3,0.3
				c-0.9,0-1.8,0.1-2.7,0.3c-0.6,0.2-1.6,0.4-1.7,0.8c-0.4,0.7-0.5,1.5-0.4,2.3c0.1,0.7,0.7,0.8,1.7,0.4c1-0.3,2-0.4,3-0.3
				c0.7,0.2,1.8-0.2,3-0.3c0.4,0.6,1.2-0.4,1.5-0.9c0.2-0.7,0.2-1.3,0.1-2C248.6,116.8,248,117.1,247.3,117z M239.7,111.2
				c-0.4,1.7,0.8,1.7,1.7,1.5c1,0,2-0.1,3-0.3c1,0,2-0.1,3-0.3c0.4-0.2,1.2-0.1,1.6-0.9c0.5-0.7,0.1-1.5,0.2-2.1
				c-0.1-0.4-1.9-0.6-3.3-0.2c-0.8-0.1-1.6,0-2.3,0.2c-0.6,0.2-1.3,0.3-2,0.2C240.4,109.7,239.6,109.6,239.7,111.2L239.7,111.2z
				 M255.4,139.9c0.1,0.5,0.4,1.4,0.6,2.2c-0.2,0.8-0.5,1.5-1,2.1c-0.5,0.6-1.2,1-2,1c-1.2,0.4-1.9-0.4-2.4-1.4
				c-0.4-0.7-0.5-1.3-1-2.1c-0.3-0.7-0.7-1.4-1.1-2.1c-0.1-1.1,0-2.3,0.4-3.4c0.6-0.9,1.2-0.5,1.8-1.1c0.8,0.2,1.7,0.1,2.2,0.9
				c0.5,0.6,1,1.3,1.4,2C254.9,138.5,255.3,139.2,255.4,139.9L255.4,139.9z M259.6,141.1c-0.5-0.6-0.9-1.3-1.2-2.1
				c-0.2-0.5-0.9-0.8-1-1.4c-0.4-0.4-0.6-1.1-0.5-1.6c0-0.7,0.3-1.3,0.9-1.7c0.6-0.1,1-0.6,1.8-0.5c0.6-0.2,1.3-0.2,1.9,0.2
				c0.5,0.4,1,0.9,1.3,1.6c0.2,0.6,0.6,1.2,1.1,1.6c0,0.6,0.5,1.1,0.5,1.9c-0.3,0.9-0.3,1.6-0.9,2c-0.4,0.7-1.1,1.1-1.9,1
				C260.7,142.2,260,141.4,259.6,141.1L259.6,141.1z"/>
			<path class="st5" d="M325.4,118.5c0,0.7-0.1,1.5-0.2,2.2c0.1,0.9-0.5,1.3-0.4,2.2c-0.2,0.7-0.4,1.4-0.7,2.1
				c-0.5,0.6-0.5,1.6-0.8,2c-0.2,0.7-0.6,1.4-1,2c-0.3,0.7-0.7,1.3-1.2,1.9c-0.5,0.9-1.1,1.2-1.5,1.8s-1.2,1.1-1.8,1.7
				c-0.8,0.8-1.7,1.3-2.2,1.8c-0.9,0.7-1.7,1.1-2.4,1.6c-0.9,0.4-1.4,0.8-2.3,1.1c-1,0.4-2,0.2-2.8-0.4c-0.8-0.4-1.2-1.3-1.1-2.1
				c-0.2-0.5,0.3-1.4,0.6-2s1-0.9,1.6-1.4c0.7-0.3,1.4-0.7,2-1.2c0.6-0.4,1.2-0.8,1.8-1.3c0.6-0.5,1.2-0.9,1.7-1.5
				c0.6-0.5,1.1-1.1,1.5-1.8c0.7-0.4,0.8-1.4,1.3-2.3c0.1-0.7,0.8-1.4,0.9-2.4c0.2-0.9,0.4-1.7,0.5-2.6c-0.1-0.9-0.1-1.7,0.1-2.6
				c-0.3-0.7-0.1-1.6-0.3-2.5c-0.2-0.8-0.4-1.6-0.7-2.3c-0.3-0.7-0.7-1.4-1.1-2.1c-0.4-0.8-1-1-1.5-1.7c-0.6-0.7-1.4-1.2-2.2-1.6
				c-0.8-0.5-1.6-0.8-2.5-1c-0.7-0.3-1.4-0.4-2.1-0.3c-1.1,0.2-2,1-2.3,2.1c-0.3,1.7-0.1,2.5-0.3,3.3c0,1.1-0.3,2.1-0.3,2.8
				c-0.2,0.9-0.4,1.9-0.4,2.9c-0.1,0.9-0.3,1.9-0.6,2.8c-0.4,1.1-0.4,2.1-0.7,2.8c-0.3,1.2-0.8,2-0.9,2.8c-0.3,0.8-0.7,1.6-1,2.7
				c-0.2,0.7-0.5,1.4-0.9,2.1c-0.2,0.7-0.5,1.4-1,2c-0.3,0.7-0.8,1.3-1.3,1.9c-0.6,0.5-1.1,1-1.5,1.6c-0.9,0.7-1.8,1.3-2.8,1.8
				c-1,0.5-2,0.8-3,0.9c-1.2,0.4-2.4,0.3-3.5-0.2c-0.6-0.1-1.1-0.4-1.6-0.6c-0.7-0.2-0.8-0.6-1.5-1c-0.9-0.5-1.1-1.2-1.7-2
				c-0.7-0.6-1.1-1.5-1.2-2.4c-0.2-0.9-0.4-1.8-0.7-2.7c-0.2-0.9-0.2-1.8-0.2-2.8c0.1-0.7,0.1-1.5,0-2.2c0.2-0.7,0.3-1.4,0.2-2.2
				c0.1-0.7,0.2-1.4,0.5-2.1c0-0.7,0.2-1.5,0.6-2.1c0.2-0.7,0.5-1.4,0.8-2.1c0.2-0.7,0.6-1.4,1-2c0.5-0.6,0.7-1.5,1.2-1.9
				c0.3-0.7,0.8-1.3,1.3-1.8c0.8-0.9,1.4-1.4,1.8-2c0.5-0.8,1.2-1.4,2-1.8c0.5-0.2,1.4-1.3,2.1-1.6c0.7-0.6,1.4-1,2.2-1.4
				c0.9-0.1,1.7-0.5,2.4-1.1c0.9-0.6,1.7-0.5,2.4-0.9c0.7-0.3,1.3-0.3,2.4-0.7c0.8-0.3,1.6-0.4,2.5-0.5c0.6-0.1,1.2-0.1,2.1-0.2
				c0.7-0.1,1.3-0.1,2,0c0.9-0.1,1.3,0.2,2,0.1c0.6,0.2,1.3,0.3,2,0.3c0.6,0.3,1.3,0.4,2,0.5c0.6,0.4,1.2,0.6,1.9,0.8
				c0.6,0.4,1.1,0.7,1.8,0.9c0.7,0.4,1.1,0.9,1.6,1.2s0.7,0.9,1.2,1.2c0.3,0.5,0.7,0.9,1.1,1.4c0.2,0.5,0.5,1,0.9,1.5
				c0.1,0.7,0.7,1,0.8,1.6c0.4,0.5,0.7,1.1,0.6,1.7c0,0.7,0.5,1,0.4,1.8c0.3,1.2,0.4,2.4,0.4,3.7C325.3,117,325.3,117.8,325.4,118.5
				z M299.8,109.1c-0.2-0.7-0.9-1.2-1.6-1c-0.1,0-0.1,0-0.2,0.1c-0.6,0.2-1.1,0.4-1.6,0.7c-0.5,0.3-1,0.8-1.5,1.1s-1,1.1-1.6,1.3
				c-0.7,0.7-1,0.9-1.4,1.5c-0.5,0.3-0.6,1-1.2,1.6s-0.6,1.3-1,1.7c-0.2,0.6-0.5,1.3-0.9,1.8c-0.3,0.6-0.5,1.2-0.7,1.8
				c-0.3,0.6-0.4,1.3-0.5,1.9c-0.3,1.3-0.5,2.6-0.3,3.9c0.2,0.7,0.2,1.3,0.2,2c0.2,0.5,0.1,1.5,0.6,2.1s0.6,1.1,1.1,1.6
				c0.5,0.4,1.2,0.6,1.8,0.4c0.7-0.2,1.3-0.4,1.9-0.8c0.4-0.3,0.7-1,1.4-1.6c0.5-0.7,0.7-1.4,1.1-2c0.3-0.6,0.6-1.3,0.8-2
				c0.2-0.8,0.5-1.5,0.8-2.2c0.2-0.8,0.5-1.6,0.6-2.3c0.3-0.7,0.5-1.5,0.6-2.3c0-0.8,0.1-1.6,0.4-2.3c0-0.8,0.1-1.5,0.3-2.3
				c0.1-0.8,0.2-1.6,0.3-2.3C299.8,110.7,299.8,109.9,299.8,109.1L299.8,109.1z"/>
			<path class="st5" d="M372.2,114.4c0.1,1,0.5,2,0.4,2.7c-0.1,1.2-0.1,1.8-0.1,2.9c-0.1,1-0.4,1.9-0.8,2.8c-0.4,0.9-1,1.8-1.4,2.6
				c-0.6,0.9-1.2,1.6-2,2.3c-0.5,0.6-1.1,1.1-1.8,1.4c-0.7,0.3-1.5,1-2.2,1.4c-0.9,0.5-1.8,0.6-2.4,1c-0.7,0.3-1.4,0.4-2.2,0.4
				c-0.6-0.1-1.6-0.4-1.8-0.8c-0.5-0.5-0.7-1.2-0.8-1.8c-0.2-0.7,0-1.5,0.6-2.1c0.4-0.6,1-1.1,1.7-1.3c0.6-0.2,1.2-0.4,1.8-0.7
				c0.8-0.3,1.6-0.7,2.2-1.3c0.7-0.5,1.4-1.1,1.8-1.9c0.2-0.5,0.8-1.3,0.8-1.9c0.3-0.6,0.4-1.3,0.2-2c0.1-0.9-0.2-1.7-0.8-2.4
				c-0.6-0.6-1.3-0.9-1.8-1.4c-0.8-0.3-1.6-0.5-2.4-0.5c-0.9-0.1-1.7-0.1-2.6,0.1c-0.9,0.4-1.5,0-2.3,0.5c-0.8,0.1-1.5,0.3-2.2,0.6
				c-0.8,0.5-1.5,0.5-2.8,1c-0.9,0.4-1.4,1.3-1.4,2.3c0,1.3,0.2,2.5,0.1,3.1c-0.1,1,0.2,1.7,0.1,2.4c0.2,0.8,0.3,1.6,0.1,2.4
				c0.1,1.1,0,2.3-0.2,3.4c0,0.6-0.2,1.2-0.6,1.7c-0.2,0.6-0.5,1.1-0.9,1.5c-0.6,0.9-1.5,1.5-2.5,1.7c-0.9,0.4-1.8,0.6-2.8,0.8
				c-1.1,0.3-2.3,0.2-3.4-0.1c-0.5,0.1-1.4-0.4-1.8-0.4c-0.3-0.5-1.2-0.2-1.5-0.8c-0.7-0.4-1-0.4-1.4-1c-0.3-0.3-1-0.6-1-1.4
				c-0.4-0.4-0.6-1-0.7-1.5c-0.3-0.5-0.4-1.2-0.3-1.8c-0.1-1.1,0.2-1.7,0.2-2.4c0.2-0.7,0.5-1.5,0.7-2.2c0.5-0.8,0.8-1.7,1.1-2.1
				c0.4-0.7,0.9-1.4,1.5-1.9c0.6-0.5,1.2-1.1,1.7-1.7c0.4-0.8,1.1-0.8,1.9-1.6c0.9-0.4,1.7-1,2.3-1.7c0.6-0.7,1-1.6,1.3-2.5
				c-0.1-1-0.1-2-0.1-2.9c-0.1-0.8,0-1.2-0.1-2.8c0-0.7-1.1-1.5-1.6-1.2c-0.7,0.2-1.5,0.4-2.3,0.5c-1.1,0.4-2.2,0.6-3.3,0.6
				c-0.7,0.2-1.4,0-1.9-0.6c-0.7-0.3-0.7-1.1-0.8-1.9c-0.1-0.8,0.1-1.6,0.6-2.2c0.4-0.7,1.1-1.1,1.8-1.2c0.8,0,1.5-0.2,2.2-0.5
				c0.9,0,1.7-0.2,2.5-0.6c0.7-0.3,1.2-0.8,1.7-1.4c0.4-0.7,0.5-1.5,0.5-2.3c0.1-1,0.1-2-0.1-2.9c-0.1-0.8-0.1-1.5,0-2.3
				c0.1-0.8,0.4-1.5,0.8-2.2c0.6-0.5,1.3-0.8,2-1c0.7,0,1.4,0.1,2,0.4c0.7,0.3,1.1,1.1,1,1.9c0.1,0.5,0.1,1.6,0.1,2
				c-0.1,0.9,0,1.7,0.1,2.6c0.1,0.7,0.4,1.3,1,1.7c0.6,0.3,1.2,0.4,1.8,0.2c1.4-0.5,1.9-0.7,2.7-1c0.8-0.1,1.6,0,2.3,0.5
				c0.4,0.6,0.8,1.2,1,1.9c0.1,1-0.4,1.9-1.1,2.5c-0.8,0.4-1.9,1.3-2.5,1.3c-0.7,0.6-0.9,0.5-2.4,0.9c-0.7,0.3-1.2,0.8-1.6,1.4
				c-0.5,0.7-0.8,1.5-0.6,2.3c0,0.6,0,1.2,0.1,1.8c0,0.7,0.2,1.3,0.5,1.9c0.3,0.5,0.9,0.6,1.4,0.4c0.7-0.4,1.5-0.6,2.4-0.7
				c0.8-0.1,1.6-0.3,2.3-0.6c0.8,0,1.5-0.2,2.2-0.4c0.8,0.1,1.6,0,2.3-0.3c0.8-0.2,1.5-0.2,2.3,0c0.7-0.1,1.5,0,2.2,0.3
				c0.7,0.4,1.3,0.3,2.2,0.7c0.7,0.5,1.4,0.9,2.1,1.3c0.4,0.5,1.2,1.4,1.6,1.9C371.7,112.9,372.1,113.6,372.2,114.4z M344.3,122.7
				c-0.1-1.5-0.6-1.9-1.5-1.5c-0.7,0.5-1.3,1.1-1.9,1.8c-0.6,0.5-1,1.2-1.2,1.9c-0.4,0.7-0.5,1.4-0.4,2.2c-0.1,1.2,0.8,1.6,1.3,1.9
				c0.7,0.6,1.7,0.7,2.5,0.3c1.4-0.3,1.4-1,1.4-2.5C344.4,125.4,344.3,124.1,344.3,122.7z M375.1,98.6c-0.1,0.9-0.4,1.7-0.8,2.4
				c-0.5,0.7-1.3,1.2-2.1,1.3c-0.8,0.1-1.6-0.1-2.3-0.6c-0.3-0.5-1-0.5-1.4-1c-0.5-0.2-1-0.5-1.4-0.9c-0.5-0.2-1-0.5-1.5-0.8
				c-0.5-0.1-1.1-0.4-1.5-0.8c-0.7-0.1-1.4-0.6-1.8-1.2c-0.6-0.3-0.4-0.8-0.6-1.4c0-0.9,0.3-1.8,0.8-2.5c0.5-0.7,1.3-1.2,2.1-1.4
				c0.9,0.1,1.7,0.3,2.6,0.5c1,0.3,1.7,1.1,2.3,1.1c0.8,0.2,1.7,1.1,2.5,1.4c0.4,0.3,0.6,0.7,1.2,0.8c0.4,0.2,0.8,0.6,1.1,0.9
				C375,97,375.3,97.8,375.1,98.6L375.1,98.6z"/>
			<path class="st5" d="M424.5,118c0.2,0.9,0.1,1.9-0.3,2.8c-0.3,0.9-0.7,1.8-1.3,2.5c-0.7,0.8-1.6,1.3-2.6,1.7
				c-0.9,0.4-1.9,0.7-2.9,0.7c-1.4,0.2-2.3,0.2-3.6,0.5c-1.4,0.3-2.5,0.2-3.6,0.5c-1.2,0-2.4,0.2-3.6,0.5c-1.2,0.3-2.4,0.4-3.6,0.5
				c-1.2,0-2.4,0.2-3.6,0.5c-1.4,0.4-2.3,0.1-3.6,0.5c-1.2,0.3-2.4,0.5-3.6,0.5c-1.4,0-2.5,0.6-3.5,0.5c-1,0.3-2.1,0.3-3.1,0.1
				c-0.5,0-1-0.1-1.5-0.4c-0.3-0.2-0.9-0.4-1.2-0.8c-0.7-0.5-1.1-1.3-1.1-2.1c-0.3-0.9-0.1-1.7-0.3-2.5c-0.1-0.9-0.1-1.8,0-2.7
				c0.1-0.9,0.1-1.8,0-2.7c0.1-0.9,0.1-1.8,0-2.7c-0.2-0.9-0.2-1.9,0-2.8c0.2-0.6,0.3-1.5,1-2c0.6-0.4,1.3-0.7,2-0.9
				c0.4,0.1,1.7-0.1,2,0.3c0.8,0.2,1.2,1,1,1.8c0.1,0.8,0.1,1.7,0.1,2.5c0.2,0.8,0.2,1.6,0,2.4c-0.2,0.8-0.2,1.7,0,2.5
				c-0.1,0.8-0.1,1.6,0,2.4c0.2,0.7,0.2,1.6,0.4,1.5c0.2,0.5,0.8,0.4,1.7,0.2c0.9,0,1.7-0.1,2.5-0.3c0.9,0.1,1.7,0,2.5-0.3
				c0.8-0.2,1.6-0.1,3.2-0.4c0.7-0.3,1.9-1.1,1.8-1.8c-0.2-0.9-0.2-1.9,0-2.8c-0.1-0.9,0-1.5,0-2.2s0.1-1.4,0-2.3
				c-0.2-0.7-0.2-1.5,0-2.2c-0.2-0.8-0.2-1.5,0-2.3c-0.2-0.9-0.2-1.8,0-2.7c0-0.9-1.1-1.3-1.5-1.4c-0.9,0.1-1.8,0.2-2.6,0.4
				c-0.6,0-1.5,0.3-2.1,0.3c-0.7,0.2-1.4,0.3-2.1,0.3c-1,0.2-2.1,0.3-3.1,0.1c-1.1-0.3-2.3-0.2-2.7-1.2c-0.7-0.5-1.1-1.3-1.1-2.2
				c-0.5-0.7-0.1-1.5-0.3-2.4c-0.2-0.7,0.1-1.8,0-2.7c0.2-0.9,0.2-1.8,0-2.7c-0.1-0.8,0.1-1.9,0-2.7c-0.2-0.9-0.2-1.9,0-2.8
				c0.1-0.8,0.5-1.5,1-2c0.6-0.4,1.3-0.7,2-0.9c0.7,0.1,1.3,0.2,2,0.3c0.6,0.4,1,1.1,1,1.8c-0.1,0.8-0.1,1.7,0.1,2.5
				c-0.1,0.8-0.1,1.6,0,2.5c-0.1,0.7,0.1,1.9,0,2.4c-0.3,0.6,0.1,1.8,0,2.4c0.2,1,0.1,1.5,0.4,1.5s1,0.6,1.7,0.2
				c0.7,0.1,1.4,0,2-0.3c0.9-0.2,1.8-0.3,2.7-0.4c0.7-0.2,1.4-0.7,1.8-1.3c0.4-0.7,0.8-1.5,1-2.3c0.1-1.7-0.2-2.7,0-3.2
				c-0.2-0.7-0.2-1.5,0-2.2c0.1-0.7,0.1-1.5,0-2.2c-0.2-0.7-0.2-1.5,0-2.2c0.2-0.7,0.2-1.5,0-2.2c-0.1-0.7-0.1-1.5,0-2.2
				c0-0.8,0.4-1.5,1-2c0.6-0.5,1.3-0.8,2-0.9c0.8-0.2,1.1,0.2,2,0.3c0.4,0.5,1.2,0.9,1,1.7s0.1,1.6,0,2.2c0.2,0.7,0.2,1.5,0.1,2.2
				c-0.2,0.7-0.2,1.5,0,2.2c-0.1,0.7-0.1,1.5,0,2.2c-0.2,0.7-0.2,1.5,0,2.2c-0.1,1,0.2,1.4,0,2.2c0.2,0.9-0.1,1.7,0,2.7
				c-0.1,0.6,0.6,0.8,1,0.8c0.4,0.3,1.5,0.1,2,0.3c1.3-0.4,2-0.1,2.8-0.4s1.4,0,2.1-0.3c0.7-0.1,1.3-0.4,1.8-0.8
				c0.2-0.5,0.3-1,0.3-1.5c0-0.8-0.1-1.7,0-2.4s-0.1-1.5,0-2.5c0.1-0.8,0.1-1.6,0-2.4c-0.1-0.8-0.1-1.7,0-2.5c0.1-0.8,0.5-1.5,1-2
				c0.6-0.3,1.3-0.6,2-0.9c0.8,0.2,1.5-0.1,2,0.3c0.3,0.7,1,1.1,1,1.8c-0.1,0.9-0.1,1.9,0.1,2.8c0,0.8,0,1.6,0,2.7
				c-0.1,0.9-0.1,1.8,0,2.7c-0.1,0.9-0.1,1.8,0,2.7c0.1,0.8-0.3,1.8-0.3,2.8c-0.3,0.9-0.8,1.7-1.3,2.5c-0.7,0.8-1.6,1.4-2.6,1.7
				c-1,0.2-2,0.4-2.9,0.7c-1,0-1.5,0.4-2.3,0.3c-0.8,0-1.5,0.1-2.2,0.3c-0.9,0.3-1.9,0.4-2.8,0.4c-0.8,0.3-1.4,1-1.5,1.8
				c0.1,1.5,0,1.9,0,2.7s-0.2,1.4,0,2.3c0.2,0.5-0.1,1.8,0,2.2c-0.1,0.8-0.1,1.5,0,2.3c0.1,0.9-0.2,1.8,0,2.2c0.1,1,0.1,1.6,0,2.8
				c0.2,0.6,0.8,1.7,1.9,1.3c1.5-0.2,2.2-0.3,3.3-0.4c0.9,0,1.8-0.1,2.6-0.3c0.9,0.1,1.8-0.1,2.7-0.4c0.5,0.2,1.1,0,1.8-0.8
				c0.4-0.2,0.1-0.7,0.3-1.5c-0.1-0.8-0.1-1.6,0-2.4c-0.1-0.8-0.1-1.6,0-2.5c-0.1-0.8-0.1-1.6,0-2.4c0.1-0.8,0.1-1.7,0-2.5
				c0.1-0.7,0.5-1.4,1-2c0.6-0.4,1.3-0.7,2-0.9c0.7-0.1,1.4,0.1,2,0.3c0.3,0.4,1.2,0.8,1,1.8c-0.1,0.9-0.1,1.9,0.1,2.8
				c0.1,0.9,0.1,1.8,0,2.7c0.1,0.9,0.1,1.8,0,2.7C424.4,116,424.4,117.2,424.5,118z"/>
			<path class="st5" d="M477.4,117.6c0,0.7-0.2,1.4-0.7,2c-0.3,0.6-0.9,0.9-1.6,1c-1.2,0.7-2.5,0.5-3.8,0.6
				c-0.9,0.2-2.1,0.2-3.4,0.4c-1.2,0.4-2.5,0.5-3.8,0.4c-1.2,0.2-2.4,0.2-3.8,0.3c-1,0.1-2.1,0.2-3.2,0.2c-1.1,0.1-2.1,0.1-3.2,0.1
				c-1.1,0.1-2.1,0.1-3.2,0c-1,0-2.1-0.1-3.1-0.3c-0.6,0.1-1.2,0-1.7-0.3c-0.6-0.1-1.1-0.2-1.7-0.4c-0.6-0.2-0.9-0.6-1.6-0.6
				c-0.6,0.1-1.2-0.2-1.6-0.7c-0.7-0.2-0.9-0.8-1.9-1.2c-0.6-0.3-1.3-0.3-1.9,0.1c-0.4,0.7-1,1.2-1.6,1.7c-0.6,0.5-0.9,0.9-1.4,1.4
				c-0.5,0.4-1,0.8-1.4,1.3c-0.8,0.7-1.6,1.1-2.6,1.4c-0.7,0.2-1.5-0.1-1.9-0.7c-0.4-0.5-1.1-1-0.8-2c0-0.7,0.2-1.3,0.7-1.8
				c0.5-0.4,1-0.9,1.4-1.4c0.2-0.5,1.1-1,1.4-1.2s0.7-1,1.4-1.2c0.5-0.3,1-0.8,1.3-1.3c0.6-0.3,1-0.8,1.3-1.4
				c-0.3-0.7-0.2-1.6,0.1-2.3c0-0.8,0-1.7,0.1-2.5c-0.1-0.8-0.1-1.7,0.1-2.5c-0.1-0.8-0.1-1.6,0.1-2.4c0.1-1.2-0.4-1.3-1.3-1.1
				c-0.9-0.1-1.8,0-2.7,0.1c-0.8,0.1-1.4-0.1-1.7-0.8c-0.6-0.4-0.7-1.1-0.5-1.9c0.2-0.7,0.4-1.4,0.7-2c0.5-0.4,1.1-0.8,1.8-1
				c1.3,0,2.6,0,3.9-0.3c0.8,0.1,1.7,0.2,2.5,0.1c0.7,0.3,1.4,0.7,2.1,1.2c0.5,0.6,0.8,1.3,0.9,2c-0.1,1,0.4,1.4,0.1,2.3
				c-0.1,0.9-0.2,1.7-0.1,2.6c0.1,0.9,0.1,1.8-0.1,2.6c0,0.9,0,1.7-0.1,2.6c-0.3,1,0.1,1.6-0.1,2.6c0.5,0.1,0.8,0.9,1.4,1
				c0.3,0.6,0.8,0.4,1.6,0.9c0.4,0.5,1,0.7,1.7,0.7c0.6,0.2,1.2,0.4,1.8,0.4c1.1,0,2.1,0.2,3.2,0.4c1.3,0,2.1,0.1,3.3,0.1
				c1.1,0.1,2.2,0.1,3.3-0.1c1.3-0.3,2,0.1,3.3-0.2c0.8,0.1,1.7,0,2.5-0.2c0.9,0.1,1.7,0,2.5-0.2c0.7-0.2,1.5,0,2.5-0.2
				s1.5,0,2.5-0.3c0.5-0.1,1.2-0.2,2.3-0.4c0.8,0.1,1.6,0,2.3-0.2c0.7,0,1.3,0.3,1.6,0.9C477.2,116.2,477.4,116.9,477.4,117.6z
				 M432.7,80.2c0-0.8,0.3-1.6,1-2.2c0.7-0.4,1.4-0.7,2.1-1c0.8-0.1,1.6,0.2,2.2,0.7c0.5,0.6,1.1,1.1,1.8,1.5
				c0.7,0.6,1.4,1.2,1.9,1.9c0.5,0.9,1.2,1.6,1,2.7c0,0.9-0.4,1.8-1.1,2.3c-0.6,0.6-1.4,1-2.2,1.1c-0.9,0-1.7-0.4-2.3-1.2
				c-0.4-0.5-1.2-1.4-1.7-1.9s-0.8-0.9-1.4-1.4C433.2,81.8,432.4,81,432.7,80.2z M443,108.3c-0.2-0.6,0.3-1.4,0.9-2
				c0.1-0.4,0.7-0.3,1.1-1c0.1-0.3,0.8-0.4,0.9-1.9c0.2-0.8,0-1.6,0.3-2.5c0.1-0.6,0.2-1.2,0.2-1.8c-0.1-0.8,0.3-1.9,0.2-3.2
				c0-1.1,0.2-2.2,0.4-3.3c0-1.3-0.1-2.2,0-3.6c0.2-0.9,0-2.1,0.3-3.2c0.2-1.3-0.2-2,0.2-3.2c0.1-1.1,0.1-2.2,0.1-3.2
				c0-0.8,0.3-1.5,1-1.9c0.6-0.2,1.3-0.5,2-0.8c0.7,0.2,1.1,0,1.6,0.3c1.1-0.4,2.1-0.8,3.1-1.4c1.1-0.4,2.1-1,3-1.6
				c0.5,0,1-0.4,2-0.7c0.6,0.2,1.2,0.4,1.7,0.7c0.5,0.5,0.7,1.2,0.7,1.9c0,0.9-0.4,1.8-1.1,2.4c-0.7,0.6-1.6,1.1-2.5,1.3
				c-0.7,0.4-1.4,0.8-2.1,1.1c-0.9,0.2-1.8,0.6-2.5,1.2c-0.7,0.6-1.2,1.4-1.3,2.3c0,1.4-0.3,2.7-0.2,3.3c-0.1,1,0,1.8-0.1,2.6
				c0,0.9,0,1.8-0.1,2.6c0,1,0,1.6-0.1,2.6c-0.2,0.9-0.2,1.8-0.1,2.6c0,1-0.1,2.1-0.2,3.1c-0.2,1.5,0.9,1.2,2,1
				c0.7-0.4,1.5-0.7,2.4-0.8c0.6,0.1,1.2,0.4,1.6,0.8c0.5,0.4,0.4,1,0.6,1.8c-0.2,1.1-0.8,2.1-1.7,2.7c-0.9,0.5-1.9,1-2.9,1.4
				c-1,0.3-1.9,0.7-2.8,1.1c-0.9,0.3-1.2,0.5-2,0.8c-0.7,0.3-1.3,0.6-2,0.8c-0.4,0.2-0.9,0.4-1.4,0.5c-1.1-0.1-1.9-0.2-2.3-0.7
				C443.2,109.8,442.9,109.1,443,108.3z M464.5,77.5c0.6-0.2,1.5-0.2,2.4-0.4c0.8,0.2,1.3-0.3,2.4-0.2c0.8,0.1,1.6,0.1,2.4-0.2
				c0.8-0.1,1.7-0.1,2.5,0.1c0.8,0.2,1.5,0.6,2.2,1.1c0.4,0.5,0.7,1.1,0.8,1.7c0.3,0.6,0.4,1.3,0.2,2c0.1,0.8,0.1,1.7-0.1,2.5
				c-0.1,0.8-0.2,1.6-0.1,2.5c0,0.8,0,1.7-0.1,2.5c0.1,0.7-0.2,1.5-0.1,2.5s-0.2,1.9-0.1,2.5c0.1,0.8,0,1.7-0.1,2.5
				c-0.2,0.8-0.2,1.7-0.1,2.5c0,0.8,0,1.7-0.1,2.5c-0.1,0.8-0.2,1.6-0.4,2.3c-0.5,0.9-0.9,1.5-1.2,2.1c-0.6,0.5-1.3,1.2-2,1.2
				c-0.5,0.5-1.3,0.1-2.1,0.4c-1.2,0-2.5,0.4-3.2-0.2c-1-0.4-1.5-1.4-1.3-2.5c0.1-0.5,0.4-1.4,0.3-1.8c0.5-0.5,0.7-1.1,1.5-1
				c2.7-0.1,2.9-0.1,2.9-1c-0.1-0.8-0.1-1.5,0.1-2.3c-0.2-1,0.2-1.4,0.1-2.3c-0.1-0.8-0.1-1.6,0.1-2.3c0.1-0.8,0.2-1.5,0.1-2.3
				c0.1-0.8,0.2-1.6,0.1-2.4c0-0.8,0-1.5,0.1-2.3c0.1-0.8,0.1-1.5,0.1-2.3c-0.2-0.7-0.2-1.5,0.1-2.2c-0.2-0.7-0.3-1.1-1.2-1.1
				c-0.9,0.2-1.9,0.2-2.8,0.2c-0.9,0.3-1.5,0.3-1.4,1.3c-0.2,1.2-0.3,2.4-0.2,3.6c-0.1,1.2-0.2,2.4-0.2,3.6
				c-0.3,1.5,0.1,2.3-0.2,3.6c-0.2,1.2-0.3,2.5-0.2,3.7c-0.2,1.2-0.3,2.4-0.2,3.6c-0.2,1.3,0,2.3-0.2,3.6c0,1.2,0,2.4-0.2,3.6
				c-0.2,1.2-0.3,2.5-0.2,3.7c-0.2,0.7-0.5,1.3-1,1.9c-0.5,0.6-1.1,0.2-1.9,0.4s-1.6,0.3-1.9-0.1c-0.5-0.4-0.9-1-0.8-1.7
				c-0.1-1.3,0-2.6,0.2-3.8c-0.1-1.2-0.1-2.5,0.2-3.7c-0.1-1.2,0-2.5,0.2-3.7c-0.1-1.4,0.4-2.8,0.2-3.7s0.2-2.6,0.2-3.8
				c-0.1-1.2,0-2.5,0.2-3.7c0.1-1.1,0.1-2.6,0.2-3.7c0.2-1.2,0.2-2.5,0.2-3.7c0-0.7,0.1-1.5,0.4-2.2c0.2-0.8,0.6-1.4,1.2-1.9
				C462.8,78,463.6,77.6,464.5,77.5z"/>
			<path class="st5" d="M523.6,115.2c-0.2,1.2-0.9,2.2-2,2.8c-0.8,0.1-1.6,0.3-2.3,0.6c-1,0-2,0.2-3,0.4c-1,0.1-2,0.2-3,0.2
				c-0.8-0.1-1.5-0.1-2.3,0c-0.9-0.1-1.3,0.2-1.9-0.1c-0.6-0.2-1.2-0.4-1.8-0.4c-0.6,0-1.2-0.3-1.6-0.8c-0.7-0.1-1.2-0.6-1.3-1.3
				c-0.6-0.3-0.5-0.8-0.9-1.6c-0.2-0.6-0.4-1.2-0.4-1.8c-0.2-1.3-0.2-2.6,0-3.8c0.2-1,0.2-2,0-3c0.1-0.3-0.5-1-1.2-1
				c-1.1,0-2.1,0.2-3.1,0.7c-0.5,0.1-1,0.4-1.4,0.8c-0.4,0.4-0.9,0.8-1.4,1c-0.4,0.5-0.9,0.9-1.5,1.2c-0.5,0.3-1,0.7-1.4,1.2
				c-0.5,0.3-1,0.7-1.3,1.2c-0.4,0.4-0.8,0.8-1.2,1.1c-0.5,0.5-1,0.6-1.3,1.2c-0.3,0.4-1,0.9-1.2,1.2c-0.6,0.5-0.9,0.7-1.2,1.2
				s-0.8,0.6-1.3,1.2c-0.6,0.8-1.6,1.3-2.6,1.1c-0.8,0.2-1.6-0.2-1.9-0.9c-0.8-0.5-0.5-1.4-0.6-2.2c0.3-0.9,0.7-1.7,1.4-2.4
				c0.4-0.5,0.9-1,1.5-1.4c0.5-0.7,1.2-0.9,1.4-1.3s1-0.7,1.4-1.3c0.7-0.4,1.1-1.1,1.4-1.3c0.4-0.5,0.9-1,1.5-1.4
				c0.5-0.4,1-0.8,1.4-1.3c0.3-0.7,0.8-0.6,1.4-1.3c0.6-0.3,0.9-1,1.4-1.3s0.7-1.1,1.5-1.4c0.7-0.7,0.8-0.6,1.4-1.3
				c0.2-0.5,0.9-0.6,1.4-1.3c0.6-0.3,0.7-0.7,1.5-1.4c0.6-0.3,1.1-0.8,1.4-1.4c0.4-0.2,0.8-0.9,1.5-1.4c0.4-0.3,0.7-0.7,1-1.1
				c0.1-0.2,0.1-0.5,0-0.7c-0.2-0.3-0.5-0.4-1.2-0.2c-0.6,0.2-1.3,0.3-2,0.3c-0.9,0.1-1.4,0-1.8,0.3c-1.1,0.3-2.3,0.4-3.5,0.5
				c-1.1,0-2.4,0.4-3.5,0.5c-1.5,0.1-2.3-0.3-2.5-1.1c-0.3-0.7-0.5-1.5-0.3-2.2c0.1-0.7,0.4-1.3,0.9-1.8c0.5-0.6,1.2-1,2-1
				c0.8,0,1.6-0.1,2.4-0.3c0.8-0.1,1.6-0.2,2.3-0.3c0.7-0.1,1.7-0.2,2.3-0.3s1.4-0.1,2.3-0.3c0.8,0,1.6-0.1,2.3-0.3
				c1-0.2,1.7-0.1,2.3-0.3c0.7-0.2,1.5-0.3,2.3-0.3c0.6,0.2,1.6-0.4,2.4-0.3c0.5-0.1,1,0.2,1.5,0.1c0.9,0,1.5,0.8,2.1,1.3
				c0.4,0.8,0.6,1.7,0.5,2.6c-0.4,1.3-0.6,2.1-1.4,2.7c-0.5,0.3-0.8,1-1.3,1.2c-0.6,0.1-0.8,1-1.3,1.1c-0.4,0.4-0.8,0.8-1.3,1.2
				c-0.4,0.4-0.8,0.8-1.3,1.2c-0.4,0.4-0.8,0.8-1.3,1.1c-0.4,0.3-0.9,0.7-1.2,1.2c-0.4,0.3-0.7,0.6-1.1,1c-0.3,0.4-0.1,1.1,0.9,0.9
				c0.7,0,1.5,0,2.2,0.3c0.6,0.3,1.2,0.8,1.6,1.4c0.2,0.9,0.7,1.7,0.9,2.6c0.2,1,0.2,2,0,2.9c0.1,1.2-0.4,2.4-0.3,3.1
				c-0.1,0.7,0.1,1.3,0.5,1.8c0.5,0.6,1.4,0.5,2.1,0.7c0.7,0.2,1.4,0.2,2.1,0c0.7,0.1,1.4,0.1,2.1-0.2c0.7-0.2,1.4-0.3,2.1-0.3
				c0.7,0,1.5-0.1,2.2-0.3c1,0,1.9,0.4,2.6,1C523.6,113.5,523.9,114.4,523.6,115.2z M499,74.1c0.6-0.6,1-1.1,2-1
				c0.7-0.3,1.4,0.2,2.1,0.1c0.8,0.3,1.7,0.6,2.6,0.6c0.9,0.3,1.7,0.6,2.6,0.7c0.9,0.3,1.3,0.5,1.9,0.7c1,0.2,1.9,0.6,2.7,1.2
				c0.6,0.8,1.4,1.4,1.1,2.6c-0.3,0.9-0.3,1.6-1.2,2.2c-0.5,0.6-1.3,0.9-2.1,0.9c-1-0.2-1.9-0.6-2.8-1c-0.9,0-1.7-0.2-2.4-0.7
				c-1.4-0.5-2.9-0.9-4.4-1.2c-0.9-0.2-1.8-0.7-2.6-1.2c-0.5-0.2-0.7-1.3-0.6-2C498,75.3,498.4,74.5,499,74.1z"/>
		</g>
	</g>
</g>
</svg>
