<?xml version="1.0" encoding="utf-8"?>
<!-- Generator: Adobe Illustrator 25.4.1, SVG Export Plug-In . SVG Version: 6.00 Build 0)  -->
<svg version="1.1" id="レイヤー_1" xmlns="http://www.w3.org/2000/svg" xmlns:xlink="http://www.w3.org/1999/xlink" x="0px"
	 y="0px" width="603.8px" height="715.8px" viewBox="0 0 603.8 715.8" style="enable-background:new 0 0 603.8 715.8;"
	 xml:space="preserve">
<style type="text/css">
	.st0{fill:#CCCCCC;}
	.st1{fill:#FCEE21;}
	.st2{fill:#C69C6D;}
	.st3{opacity:0.2;}
	.st4{fill:#E6D246;}
	.st5{opacity:0.4;fill:#42210B;}
	.st6{fill:#42210B;}
</style>
<g>
	<g>
		<g>
			<g>
				<polygon class="st0" points="0,715.8 11.5,715.8 96.6,22.8 85.1,22.8 				"/>
				<g>
					<path class="st1" d="M182.2,201c-39.4,0-74-5.2-105.6-16l-0.4-0.1L93.4,45.3l0.6,0.2c31.5,10.8,66,16,105.2,16c0,0,0,0,0,0
						c48.9,0,99.6-8.1,148.6-16c49.1-7.9,99.8-16,148.8-16c39.4,0,74,5.2,105.6,16l0.8,0.3l-0.6,0.6c-16.9,17.3-34.7,36.7-53.1,57.8
						c12.6,26.3,24.7,53.3,36.2,80.3l0.4,1l-1.1-0.4c-31.5-10.8-66-16-105.3-16c-48.9,0-99.6,8.1-148.6,16
						C281.9,192.9,231.1,201,182.2,201z"/>
					<g>
						<path class="st2" d="M496.6,29.9c35.8,0,71.1,4.3,105.4,16C584.4,64,566.6,83.4,548.7,104c12.3,25.6,24.4,52.4,36.3,80.5
							c-34.4-11.7-69.6-16-105.4-16c-97.8,0-199.5,32-297.3,32c-35.8,0-71.1-4.3-105.4-16c5.7-46.2,11.3-92.4,17-138.6
							c34.4,11.7,69.6,16,105.4,16C297,61.9,398.8,29.9,496.6,29.9 M496.6,28.9c-49,0-99.7,8.1-148.8,16c-49,7.9-99.7,16-148.5,16
							c-39.2,0-73.6-5.2-105.1-16L93,44.6l-0.1,1.2l-17,138.6l-0.1,0.8l0.8,0.3c31.7,10.8,66.3,16.1,105.8,16.1
							c49,0,99.7-8.1,148.8-16c49-7.9,99.7-16,148.5-16c39.2,0,73.6,5.2,105.1,16l2.1,0.7l-0.9-2.1c-11.4-26.9-23.5-53.8-36-80
							c18.3-20.9,36.1-40.3,52.9-57.5l1.1-1.1l-1.5-0.5C570.6,34.2,536,28.9,496.6,28.9L496.6,28.9z"/>
					</g>
				</g>
				<g>
					<polygon class="st3" points="6.9,715.8 11.5,715.8 96.6,22.8 92,22.8 					"/>
				</g>
				
					<ellipse transform="matrix(0.7284 -0.6851 0.6851 0.7284 14.2593 67.0852)" class="st4" cx="91.8" cy="15.6" rx="16.5" ry="14.6"/>
				<g>
					<path class="st4" d="M100.3,1.6c2.2,2.8,3.3,6.4,2.8,10.5c-1.1,8.6-8.9,15.6-17.5,15.6c-2.5,0-4.7-0.6-6.6-1.6
						c2.5,3.1,6.3,5.1,10.8,5.1c8.6,0,16.4-7,17.5-15.6C108.1,9.4,105.2,4.1,100.3,1.6z"/>
				</g>
				<path class="st5" d="M344.4,58c82.8-13.3,168.4-27,247.7-1.9c0.9-1,1.8-1.9,2.7-2.9c-80.5-25.9-167-12.1-250.6,1.3
					C260.1,68.1,173.1,82,92.7,55.2c-0.1,1.2-0.3,2.4-0.4,3.6c33.6,11,68.2,15.1,103.3,15.1C244.9,74,295.1,65.9,344.4,58z"/>
				<path class="st5" d="M330.1,174.7c83.7-13.4,170.2-27.3,250.3-1c-0.6-1.5-1.3-2.9-1.9-4.4c-79.9-25-165.6-11.3-248.5,2
					c-84.2,13.5-171.1,27.4-251.6,0.6c-0.1,1.2-0.3,2.4-0.4,3.6c33.6,11,68.2,15.1,103.3,15.1C230.6,190.6,280.8,182.6,330.1,174.7z
					"/>
			</g>
		</g>
	</g>
	<g>
		<path class="st6" d="M226,118.2c-0.6,1-0.3,2.5,0.4,2.4c0.8,0.5,0.8,1,0.9,1.6c0.2,1,0,2.7,0,3.7c0,1.1-0.1,2.6-0.1,3.7
			c-0.3,1.3-0.1,2.4-0.1,3.7c0.1,1.2-0.1,2.5-0.1,3.7c-0.1,1,0,2.4-0.1,3.7c0.2,1.2,0.1,2.2-0.1,3.7c0,1-0.3,2.5-0.1,3.6
			c0.2,1.1-0.4,2.8-0.2,3.8c-0.1,1-0.7,1.6-1.1,1.8c-0.8,0.6-1.6,0.7-2,0.7c-0.6,0-1.8,0.2-2-0.4c-0.8-0.1-0.8-0.8-1-1.6
			c-0.2-1.1,0-2.3,0-3.2c-0.1-0.8,0.2-1.9,0.1-3.1c-0.1-1,0.2-2.3,0.1-3.1c-0.3-0.9,0.2-2,0.1-3.1c0.1-1.2,0.2-2.3,0.1-3.1
			c-0.2-0.8-0.1-1.9,0.1-3.1c0.1-1.1,0-2.2,0.1-3.3c0.1-0.7,0-1-0.2-1.2c-0.2-0.1-0.3,0-0.4,0.1c-0.4,0.6-0.6,0.9-1.3,1.4
			c-0.6,0.5-1.3,0.7-1.8,0.8c-0.7,0-1.6-0.3-2.1-0.6c-0.5-0.3-1-1.1-0.9-2c0.2-0.8,0.4-1.6,0.7-2c0.1-0.7,0.8-1.5,1.2-2
			c0.5-0.8,1-1.4,1.2-2.1c0.5-0.6,0.7-1.1,0.9-1.9c0.4-0.9,0.6-1.4,1-2.1c0.3-1,0.7-1.8,1.1-2.6c0.3-0.6,0.9-1.5,1-2.7
			c0.5-1.1,0.7-1.5,0.9-2.6c0.1-0.9,0.3-1.6,0.8-2.7c0.2-0.9,0.5-2,0.7-2.8c0.2-0.8,0.6-1.5,1.3-1.8c0.5-0.2,1-0.8,2-0.7
			c0.8,0.2,1.4,0.3,2.3,0.5c0.6,0.3,0.9,0.9,1,2c0,0.8-0.3,1.6-0.5,2.4c-0.4,0.9-0.4,1.6-0.7,2c-0.1,0.8-0.4,1.8-0.9,2.8
			c-0.6,0.7-0.9,1.8-1,2.7C226.8,116.2,226.6,116.6,226,118.2z M265.4,138.2c-0.5,0.7-1.6,1.1-2.3,1.2c-0.8-0.1-1.7,0-2.5-0.8
			c-1-0.3-1.3-1.1-1.9-1.7c-0.7-0.5-1-0.6-1.3-1.4c-0.5-0.3-1.1-0.7-1.3-1.4c-0.6-0.7-1-1.2-1.3-1.5c-0.6-0.2-0.6-1-1.2-1.5
			c-0.2-0.3-1-0.8-1.2-1.6c-0.2-0.5-0.9-1.2-1.1-1.6c-0.6-0.6-0.6-1.3-1.1-1.6c-0.1-0.1-0.3-0.1-0.4,0c-0.2,0.1-0.3,0.6-0.3,1.5
			c-0.3,1.4,0,2.9,0.1,3.9c0,0.9-0.2,1.7-0.1,2.8c-0.2,1,1,1.7,1.7,1.4c1.2,0,2.4-0.1,3.2-0.3c0.8,0.2,1,0.5,1.6,0.7
			c0.3,0.7,0.3,1.3,0.6,1.8c0,0.6-0.2,1.5-0.7,1.9c-0.2,0.8-0.9,0.9-1.6,1c-0.9,0-1.9,0.2-3.2,0.4c-0.4-0.1-1.1,0.8-1.2,1.1
			c-0.1,0.4-0.7,1.5-0.6,1.9c0.1,1-0.1,2-0.1,2.8c0.1,0.9-0.2,1.7-0.1,2.1c0,1-0.4,1.2-1,1.9c-0.8,0.7-1.2,0.8-2.1,0.8
			c-0.7,0-1.7-0.2-2.1-0.4c-0.4-0.5-1.2-1-1-1.7c-0.2-0.7-0.1-1.5,0.1-2.1c-0.1-1-0.1-1.6,0.1-2.8c0.1-0.8-0.2-1.5-0.4-1.9
			c-0.4-0.3-0.8-0.7-1.4-0.7c-1.3,0.2-2.4,0-3.3,0.3c-0.9,0.3-1.2-0.2-1.6-0.7c-0.5-0.6-0.6-1.3-0.5-1.8c0.5-0.8,0.8-1.2,0.9-1.7
			c0.6-0.4,0.9-1.1,1.4-1.1c0.7,0.1,1.7-0.3,3.3-0.3c0.8,0,1.9-0.6,1.9-1.8c0.1-1.3-0.2-2,0.1-2.8c0-1.1,0-3.1,0.1-3.8
			c0-1.2-0.6-0.9-1.1,0c-0.6,0.9-1.1,1.6-1.6,2.5c-0.5,0.9-1,1.5-1.2,1.9c-0.7,0.4-1,1.6-1.3,1.9c-0.3,0.8-0.9,1.2-1.3,1.8
			c-0.3,0.8-1.2,1-1.4,1.8c-0.2,0.3-1.1,1.5-1.4,1.8c-0.4,0.7-1.1,1.2-1.7,1.8c-0.9,0.6-1.1,0.9-2.2,1.1c-0.7,0.1-1.3,0-2-0.6
			c0-0.7-0.6-1.1-0.4-1.9c-0.5-0.6,0.1-1.3,0.4-1.8c0.1-0.4,0.9-1,1.4-1.7c0.4-0.4,1-1.2,1.8-2.1c0.3-0.5,1-1.2,1.7-2.2
			c0.3-0.7,0.9-1.6,1.6-2.2c0.3-0.7,1.1-1.7,1.6-2.3c0.2-0.6,0.8-1.6,1.4-2.3c0.4-1,1.1-1.6,1.3-2.4c0.4-0.8,1-1.5,1.6-2.9
			c0.6-0.9,0.1-1.4-0.9-1.6c-1.1,0.3-1.7,0.4-2.7,0.2c-0.9,0-1.6,0.3-2.3,0.2c-0.7,0.1-1.6,0.2-2.4,0.2c-0.8,0-1.1-0.3-1.7-0.8
			c-0.2-0.4-0.7-1-0.6-1.8c-0.1-0.5-0.1-1.4,0.7-2c0.3-0.5,0.9-1,1.7-1.1c1.1-0.2,1.9,0,2.9-0.3c0.9,0.1,1.7-0.1,2.9-0.3
			c0.9,0,2-0.1,3.5-0.3c1.2-0.2,2-1.3,2.1-1.8c-0.1-1.2,0.2-2.2,0.1-2.9c-0.1-0.8-0.1-1.4,0.1-2.4c0.1-0.9-0.2-1.6,0.1-2.4
			c0.3-0.9,0.6-1.5,1-2c0.8-0.2,1.3-0.7,2.1-0.8c0.5,0.1,1.3,0.1,2,0.4c0.3,0.5,1.2,0.8,0.9,1.8c-0.3,0.6,0.1,1.8,0,2.4
			c-0.2,0.9,0.1,1.6-0.1,2.4c0.2,0.6,0.1,1.4-0.1,2.9c0.1,0.9,1.1,1.6,2.3,1.4c1.8,0.1,2.7-0.3,4-0.4c1.1-0.1,2-0.1,3.2-0.3
			c1.1-0.2,2.3,0.1,3.4-0.3c0.7-0.2,1,0.6,1.7,0.8c0.6,0.3,0.6,1.4,0.6,1.9c-0.3,0.7-0.1,1.5-0.7,1.9c-0.4,0.8-1.1,0.9-1.7,1.1
			c-1.2,0-2,0.5-3,0.3c-0.8,0.2-2.1,0.5-2.8,0.3c-1,0.4-1.9,0.3-3.1,0.3c-1.4,0.2-2.1,1.2-1.5,1.7c0.9,0.8,1.2,2.1,1.6,2.5
			c0.3,1,0.7,1.4,1.4,2.1c0.8,0.8,1.2,1.4,1.6,1.9c0.3,0.6,1.1,1.3,1.7,1.9c0.5,0.6,0.8,1.4,1.7,1.8c0.5,0.4,1.2,1.1,1.8,1.6
			c0.5,0.6,1.5,1.2,2,1.6c0.6,0.3,1,1,1.5,1.3c0.5,0.8,0.5,1.2,0.7,1.9C266.5,136.6,265.9,137.8,265.4,138.2z"/>
		<path class="st6" d="M279.3,134.4c0.4,1.4,0.1,2.4,0,3.8c-0.3,0.4-0.4,1-0.4,1.9c-0.3,1-0.1,1.3-0.5,2c-0.6,1.2-1.2,1.8-2.1,1.8
			c-1.3,0.3-2-0.4-2.2-1.5c-0.1-0.9,0.1-1.6,0.5-2c-0.1-0.5,0.1-1.3,0.4-1.8c0-1.3,0.3-1.9,0.4-3.1c0.3-0.8,0.1-1.8,0.8-2.1
			c0.6-0.7,0.7-0.4,1.3-0.7C278.9,132.6,279.6,133.4,279.3,134.4z M296.5,137.5c-0.1,1-0.5,2.7-0.8,3.5c-0.4,0.7-0.7,1.5-0.9,2
			c-0.3,0.7-0.9,1.3-1.6,1.7c-0.7,0.5-1,0.9-1.9,0.9c-0.7,0.4-1.1,0.6-2,0.5c-0.7,0.3-1.1,0.3-2,0.2c-0.8-0.1-1.2-0.2-2-0.1
			c-1-0.3-1.9-1.3-1.7-2.3c0.1-0.8,0.1-1.2,0.6-1.9c0.4-0.4,0.8-0.9,1.7-1.1c1.6-0.1,2.2-0.3,2.9-0.2c1,0.1,1.7-0.7,1.8-1.8
			c0.2-1.1,0.2-1.9,0.5-3c0.4-1.1-0.3-1.8-0.8-1.5c-0.4,0.1-1.1-0.3-1.5-0.7c-0.2-1-0.5-1.6-1.1-2.3c-0.9-2.3,0.2-3,0.7-3.1
			c0.6,0,1.5,0.1,1.7,0.7c0.3,0.6,0.6,1.3,1.1,1.8c0.1,0.2,0.2,0.1,0.3-0.2c0-0.4,0.1-1.3-0.1-2.1c0.1-0.7-0.4-1-1.1-0.8
			c-1,0.3-1.6,0.2-2.3,0.4c-0.6,0.1-1.6,0.3-2.3,0.4c-0.9-0.1-1.4,0.2-2.3,0.3c-0.6,0.1-1.5,0-2.4,0.4c-0.8,0.3-1.3,0.2-2.2,0.1
			c-0.5-0.3-1.3-0.5-2-0.8c-0.7-0.8-1.2-1.8-1-3c-0.3-1-0.2-1.5-0.1-2.7c-0.2-1-0.3-1.8-0.1-2.6c0.2-1.1-0.2-1.5-0.1-2.6
			c0-1-0.2-1.7-0.1-2.7c-0.1-1,0-1.6-0.1-2.7c0-1,0.1-1.6-0.1-2.6c0.1-1.1-0.3-1.8-0.1-2.6c-0.1-0.7-0.2-1.5-0.1-2.7
			c-0.1-0.7,0.1-1.1,0.2-2.1c-0.1-0.9,0.6-1.1,1.1-1.9c0.5-0.4,1.2-1.1,2.2-1.4c0.8-0.3,1.4-0.3,2.4-0.6c0.8,0.1,2-0.1,3.2-0.5
			c1.2-0.2,2.1-0.4,3.2-0.5c1.3-0.4,2.2-0.2,3.2-0.5c1.2-0.3,2.2-0.2,3.3-0.5c0.5,0,1,0.3,1.6,0.5c0.1,0.8,0.8,1.2,0.6,1.7
			c0.1,0.7-0.1,1.1-0.5,1.8c-0.3,0.8-0.9,1.1-1.6,1.1c-1.2,0.4-2,0.6-3.3,0.7c-0.8,0.2-1.4,0.1-1.7,0.7c-0.3,0.9-0.1,1.9-0.1,2.5
			c-0.1,0.1,0.1,0.3,0.3,0.3c0.2,0.1,0.6,0.1,0.9,0c0.5,0.2,1.7,0.1,2.8-0.2c1,0.2,2,1.1,1.9,2c-0.2,0.7-0.2,1.4-0.4,1.7
			c-0.2,0.4-0.8,0.9-1.8,1.1c-1,0.3-2.4,0.2-3.1,1.1c-0.8,0.6-0.1,1.7-0.3,2.4c0.1,0.5,0.5,0.6,1.2,0.3c0.8,0,1.5,0.2,2.8-0.3
			c1.3,0.1,1.9,0.8,1.9,2.1c-0.1,0.4,0,0.8-0.4,1.6c-0.4,0.8-0.7,1.2-1.8,1.1c-0.8,0.3-2.2,0.4-3,1c-0.7,1-0.1,2.3-0.1,3
			c-0.1,0.1,0,0.2,0.2,0.2c0.3,0.1,1.1-0.1,1.6-0.1c1.4-0.4,2.2-0.2,2.7-0.2c0.4-0.1,1.1,0.3,1.8,0.8c1,0.7,0.8,1.9,1.1,3.1
			c0.2,1.3-0.1,2.5,0,3.5c0.2,1.2-0.2,2.3-0.2,3.8C296.6,134.9,296.7,136.3,296.5,137.5z M282.5,140.6c-1.2,0-1.4-0.8-1.8-1.6
			c-0.3-1.1-0.4-2.4-0.5-3.6c-0.2-0.5-0.7-1.3-0.4-2.1c0.3-0.6,0.8-1.5,1.7-1.7c1.4-0.2,1.7,0.6,1.9,1.6c0.3,1.5,0.4,2.3,0.7,3
			c0,0.7,0.2,1.8,0.3,2.3C284.6,139.4,283.6,140.5,282.5,140.6z M283.8,103.8c-0.9-1.1-1-0.2-1.6-0.3c-0.9,0.2-1.5,0.4-1.3,1.5
			c-0.2,0.9-0.2,1.3,0.6,2c0.3,0.4,1.6-0.4,2.6-0.1C284,106.2,283.8,104.6,283.8,103.8z M281.5,115.5c1,0.4,1.8-0.2,2.2-0.2
			c0.7-0.9,0.3-1.5,0.4-3.2c-0.3-0.1-0.3-0.4-1.2-0.3c-0.6-0.1-2.1,0.3-1.7,1.2C281.4,114.1,281.2,115.2,281.5,115.5z M283.5,120.1
			c-0.5,0-1.2,0.1-1.7,0.1c-0.1,0-0.1,0.1-0.2,0.2c-0.2,0.5-0.2,1.7-0.2,2.7c0.1,0.8,0.2,1.2,1.4,0.8c0.7-0.3,1.2-0.1,1.5-1
			c0.5-0.8,0.1-1.7,0.2-2.4C284.5,120.3,284.1,120.2,283.5,120.1z M285.2,130.1c0.8,0,1.4,0.5,1.9,1.1c0.7,1,0.9,1.7,1.1,2.6
			c0.1,1,0.5,1.2,0.4,2.1c0.2,0.7-0.8,1.9-1.7,1.9c-0.9,0-1.7-0.1-1.7-1.1c-0.3-1.2-0.3-1.8-0.7-2.4c-0.4-0.6-0.3-1-0.7-1.8
			C283.5,131,284.7,130,285.2,130.1z M326.3,105.6c0,1.1-0.6,1.8-0.9,2.3c-0.5,0.5-1.4,0.9-2.1,1.2c-1,0.3-1.7,0.2-2.6-0.5
			c-0.7-0.3-1.3-0.6-1.6-0.7c-0.2-0.1-0.3,0-0.3,0.3c0,0.8-0.1,1.1-0.6,1.8c-0.5,0.3-0.8,0.7-1.8,1c-0.7,0.4-1.9,0.4-2.5,0.8
			c-0.6,0.6-0.5,1.2-0.6,2c-0.4,0.3-0.3,0.4,0,0.4c0.2,0,0.3,0,0.6-0.1c0.8-0.1,2-0.4,2.6-0.3c1.5-0.3,2.7-0.2,3.5-0.3
			c1-0.1,1.7,0.2,2.3,0.8c0.7,1,0.8,2.1,1.1,3c-0.2,0.9,0.1,1.4,0.1,2.3c-0.2,1-0.1,1.5,0.1,2.4c-0.2,0.7,0.1,1.4-0.2,1.8
			c-0.1,0.8-0.6,1.5-0.9,1.8c-0.4,0.7-1.3,0.8-2.1,1.3c-0.8,0.2-1.8,0.5-2.8,0.6c-1.3,0.4-2,1.4-1.3,1.9c0.3,0.4,0.8,0.8,1.2,1.1
			c0.2,0.5,0.7,0.4,1,0.9c0.6,0.5,1.5,1.1,2.2,1.5c0.6,0.6,1.8,1,2.4,1.3c0.2,0.3,0.7,0.5,1.4,0.7c0.7,0,1.1,0.4,1.3,1
			c0.4,0.6,0.6,0.9,0.6,1.5c0.1,0.8-0.6,1.7-0.9,2.3c-0.7,0.8-1.4,1-2.1,1.2c-0.7,0-1.4,0-2-0.3c-0.7-0.2-1.5-0.9-1.8-1
			c-1.1-0.5-1.6-1-2.4-1.6c-0.9-0.6-1.8-1-2.2-1.8c-0.2-0.6-0.9-0.5-1.1-1c-0.7-0.4-0.7-0.5-1.3-1.3c-0.5-0.4-1.1-0.6-1.5-0.7
			c-0.2-0.1-0.4,0-0.4,0.1c-0.4,0.7-0.8,0.9-1,1.8c-0.1,0.3-0.7,1.3-1,1.5c-0.5,0.5-0.9,0.8-1.1,1.5c-0.1,0.5-0.4,0.9-1.1,1.3
			c-0.5,0.4-1,0.8-1.2,1.3c-0.5,0.2-1,0.9-1.4,1.2c-0.3,0.3-1,0.8-1.4,1.2c-0.7,0.8-2.1,1.8-3.1,1.7c-0.7,0-1.3-0.1-2-0.6
			c-0.3-0.4-0.8-1-0.9-1.8c0.4-0.9,0.7-2.1,1.6-2.8c0.4-0.1,0.8-0.5,1.4-1.1c0.7-0.4,1.4-1.2,2.4-2c0.9-0.6,1.5-1.4,1.9-2.3
			c0.4-0.6,0.8-0.7,0.9-1.3c0.4-0.5,0.5-1.2,0.9-1.7c0.6-1-0.1-1.8-1.1-1.7c-1.1,0.2-2.1,0.4-2.7,0.1c-1.1,0-1.7-0.4-2.3-0.9
			c-0.8-0.8-1-1.7-1.1-3c-0.2-0.6-0.2-1.3-0.1-2.4c-0.3-0.7-0.2-1.7-0.1-2.3c0-0.3,0.2-1,0.2-1.8c0.3-0.9,0.5-1,0.9-1.7
			c0.4-0.3,1.4-1.2,2.1-1.3c0.7-0.4,1.5-0.4,3.2-0.6c0.4-0.2,1.9-0.2,2.3-1c0.7-0.4,0.2-0.9,0.4-1.7c0-0.3-0.8-0.4-2-0.1
			c-0.9,0.2-1.4,0.1-2.1-0.2c-0.3-0.1-1.3-0.9-1.1-1.8c-0.9,1.3-1.5,1.7-2.2,2.2c-0.6,0.2-1.3,0.7-1.7,0.8c-0.7,0-1.6-0.3-2.1-0.6
			c-0.6-0.2-1-1-1-1.9c0.1-1.2,0.8-2.2,1.4-2.7c0.2-0.2,1-0.9,1.4-1.4c0.4-0.3,0.5-0.6,1.1-1.2c0.4-0.3,0.5-0.5,1.1-1.3
			c0.3-0.4,0.7-0.8,1.1-1.3c0.2-0.5,0.7-1.1,1.1-1.4c0.2-0.2,0.9-0.8,1-1.4c0.2-0.4,0.8-1.2,1-1.4c0.5-0.4,0.5-0.9,1-1.5
			c0.2-0.4,0.3-1.1,0.8-1.4c0.5-0.8,0.8-1,1-1.8c0.6-1,1.4-1.7,2.5-1.8c0.7-0.2,1.4-0.2,2.2,0.4c0.6,0.6,0.8,0.9,1.1,1.8
			c0.6,0.5,0.8,1,1.2,1.2c0.1,0.5,0.5,1,1.2,1.1c0.3,0.2,0.5,0.5,1.2,1c0.6,0.5,0.6,0.8,1.2,1c0.2,0.3,0.8,0.4,1.3,0.9
			c0.6,0.2,0.6,0.7,1.3,0.9c0.4,0.4,0.9,0.3,1.3,0.8c0.2,0.6,1,0.7,1.4,0.7c0.7,0.3,0.9,0.6,1.4,0.8c0.6,0.5,1.1,0.4,1.3,1
			C326,104.4,326.3,105.3,326.3,105.6z M307.4,119.9c-0.5-0.1-1.6,0.1-2,0.1c-1.1,0.3-1.7,0.3-1.5,1c-0.2,1.2,0.3,2,0.1,2.9
			c-0.2,0.2-0.1,0.3,0,0.5c0.2,0.2,0.8,0.3,1.4,0.1c0.9-0.2,1.9-0.3,2.3-0.7c0.3-0.4,0.3-1.3,0.3-1.7
			C308,121.8,307.9,120.2,307.4,119.9z M315.2,104.9c-0.6-0.6-1.4-0.7-1.7-1.4c-0.3-0.6-1.4-0.7-2-1.8c-0.7-0.2-1.8-0.1-2.4,0.6
			c-1.1,1.1-1.4,2.1-1.8,2.5c-0.3,0.4-1.1,1.4-1.6,1.9c-0.5,0.5-0.7,0.7-0.7,0.8c0,0.1,0.1,0.2,0.2,0.2c0.2,0,0.5,0,0.8-0.1
			c1.1-0.1,3.9-0.7,4.8-0.7c1.1-0.1,2.8-0.6,4-0.6C315.4,106.4,316.1,105.8,315.2,104.9z M313.4,121.2c0.1,0.5-0.4,1.6,0.5,1.8
			c0.4,0.1,1.8-0.2,2.8-0.2c1.2,0.1,1.2-0.2,1.4-1c0.1-1.1-0.3-1.8-0.1-2.9c0.2-0.7-0.5-0.6-1.5-0.5c-1,0.3-2.1,0-2.8,0.6
			C313.2,119.4,313.2,120.5,313.4,121.2z"/>
		<path class="st6" d="M385.8,127.4c-0.6,0.9-1.1,1.2-2.1,1.3c-1.1,0.1-2.3-0.4-3.4-0.3c-1.1-0.3-2.2-0.4-3-0.7
			c-1.2-0.1-1.8-0.4-2.8-0.8c-0.8-0.1-1.9-0.4-2.7-1c-0.9-0.2-1.9-0.9-2.4-1c-0.7-0.4-1.8-0.7-2.3-1.2c-1-0.2-1.7-0.9-2.6-1.5
			c-1-0.6-1.7,0-1.5,0.8c-0.2,1.4,0.2,2.2,0.2,2.9c0.3,1.1,0,2.2,0.1,3.1c0.1,0.9,0.2,2.4,0.1,3.2c-0.2,0.9-0.1,1.4-0.8,1.9
			c-0.4,0.3-1.1,0.8-2,0.9c-0.6,0-1.6,0.1-2-0.3c-0.4-0.2-1-0.9-1-1.6c-0.1-0.7-0.2-1.6-0.1-2.9c-0.3-0.9-0.2-1.9-0.1-2.9
			c-0.2-0.7,0-2.1-0.2-3.3c0.1-1.1-0.9-0.8-1.4-0.4c-1.1,0.7-1.7,1.8-2.2,2.1c-0.6,0.8-1.4,1.1-2,1.8c-0.5,0.8-1.7,1-2.1,1.7
			c-0.5,0.3-1.6,1.4-2.2,1.7c-1,0.4-1.5,1.3-2.2,1.6c-0.6,0.6-1.7,1.3-2.3,1.4c-0.8,0.8-1.5,1.1-2.3,1.4c-0.8,0.3-1.8,0.9-3,1.3
			c-1,0.3-1.6,0-2-0.6c-0.4-0.4-0.7-1-0.9-1.8c0-1.2,0.7-2.2,1.8-2.7c0.7-0.4,1.5-0.6,2.1-1.1c0.5-0.3,1.4-0.9,2-1.1
			c0.4-0.2,1.2-0.9,2-1.2c0.6-0.6,1.5-1,2-1.3c0.5-0.5,1.4-0.7,1.8-1.4c0.8-0.5,1.3-1.2,1.8-1.4c0.4-0.2,1.2-1.2,1.8-1.5
			c0.5-0.3,1-0.9,1.9-1.7c0.3-0.2,0.1-0.5-0.3-0.6c-0.3-0.1-0.7-0.1-1.1-0.1c-1.4,0.5-2.3,0.6-3.7,0.6c-1.1-0.1-2.2,0.6-3.4,0.5
			c-1.3,0.2-2.6,0.6-3.5,0.5c-0.6-0.2-1.4,0.1-1.5-0.5c-0.3-0.3-0.5-1.1-0.6-1.5c-0.1-0.8,0.1-0.9,0.5-1.8c0.5-0.3,0.6-0.8,1.5-1
			c1.1-0.2,1.6-0.1,3.4-0.6c0.3-0.3,1.6-0.1,2-1c0.3-0.5,0-2.1-0.2-2.5c0.1-0.2-0.5-0.4-1.2-0.4c-0.7,0-1.4,0.1-2,0.3
			c-1.4,0.1-2.3,0.6-3.1,0.4c-1,0.4-1.7,0.2-2.4,0.4c-0.9,0.4-1.3-0.1-1.6-0.6c-0.5-0.3-0.8-1-0.7-1.5c0-0.5,0.2-1.2,0.5-1.8
			c0.1-0.3,0.7-0.6,1.6-1c0.8,0,1.5-0.3,2.4-0.4c1,0,2-0.5,3.1-0.5c0.7,0,2.2,0,2.9-1c0.8-0.6,0.2-2.3,0.2-2.8
			c-0.2-0.9-1.2-0.3-1.7-0.4c-1.4-0.1-2.6,0.3-3.2,0.4c-0.4,0.1-1.3,0-1.6-0.6c-0.6-0.3-0.5-1-0.6-1.6c-0.1-0.5,0.1-1.2,0.5-1.8
			c0.3-0.6,1.1-1,1.6-1c1.3,0.1,2.9-0.7,4.3-0.7c1.3-0.3,2.8-0.5,4.3-0.7c0.6,0.1,1.4-0.3,2.2-0.3c0.6,0,1.6-0.4,2.9-0.5
			c0.7-0.2,2.1-0.3,2.7-0.6c0.5-0.4,0.4-1.7,0.2-2.2c-0.4-0.6-1.8-0.1-2.6,0.2c-1.1,0.2-1.5,0.5-2.5,0.6c-0.7,0.4-1.5,0.5-1.8,0.4
			c-1.3,0.5-2.2,0.6-3.4,0.7c-1.2,0.5-2.4,0.6-3.3,0.6c-0.5,0.4-1.6-0.1-2-0.5c-0.6-0.2-1.1-1-0.9-1.9c-0.3-0.6,0.4-1.5,0.7-1.9
			c0.6-0.6,1.1-0.9,1.7-1c1.3,0,2.5-0.7,3.7-0.7c1.1,0,1.8-0.2,2.4-0.5c0.6-0.1,1.6-0.3,2.4-0.5c0.7-0.2,1.3-0.2,2.4-0.6
			c0.7-0.3,1.6-0.4,2.4-0.6c0.6-0.1,1.7-0.3,2.3-0.6c0.6,0,1.3-0.2,2.4-0.6c0.6,0,1.4-0.2,2.3-0.6c0.5-0.1,1.4-0.6,2.4-0.7
			c0.3-0.1,1.2-0.5,1.9-0.6c0.7-0.3,1.5-0.4,2-0.6c0.8-0.2,1.4-0.3,1.9-0.6c0.7-0.4,1.3-0.4,1.9-0.6c0.8,0,1.3-0.3,2.2-0.6
			c1-0.3,1.5,0.3,2,0.6c0.3,0.7,0.7,1.2,0.9,1.8c-0.1,0.6-0.3,1.1-0.5,1.7c-0.5,0.6-0.7,0.7-1.4,1.1c-1.2,0.4-2.7,1.2-3.4,1.2
			c-0.9,0.2-2.4,0.6-3.3,1c-0.8,0.5-0.9,0.2-1.9,0.6c-0.8,0.4-1.7,0.4-2.4,0.7c-0.4,0.2-1.2,0.2-1.8,1c-0.3,0.6-0.3,1.9-0.1,2.4
			c0,0.5,1.4,0.2,2.7,0.1c1.1-0.2,2,0,3-0.5c0.7-0.1,1.3-0.4,2.3-0.4c1.2-0.4,2.7-0.5,4.3-0.7c0.6,0.2,1.3-0.3,2.2-0.3
			c0.5-0.2,1.7-0.5,2.2-0.3c0.4,0,1.4,0.3,1.6,0.5c0.5,0.6,0.5,0.9,0.6,1.6c0.1,0.5-0.2,1.5-0.5,1.8c-0.2,0.8-1.1,0.9-1.6,1
			c-0.7,0.4-1.6,0.3-3.2,0.6c-0.3,0.3-1,0.1-1.5,0.9c-0.4,0.6-0.4,1.8-0.1,2.6c0,0.3,1.1,0.3,1.6,0.5c1.2-0.2,1.9-0.2,2.8-0.4
			c0.9,0,1.6-0.1,2.2-0.3c0.9-0.3,1.7-0.2,2.3-0.4c0.8-0.1,1.2,0.4,1.6,0.5c0.5,0.5,0.5,1.1,0.6,1.7c0.3,0.8-0.2,1.3-0.5,1.8
			c-0.3,0.3-1.1,1.2-1.6,1c-0.8,0.3-1.7,0.3-2.3,0.4c-0.8,0.2-1.3,0.4-2.2,0.3c-0.8,0.3-1.3,0.5-2.8,0.4c-0.4,0.2-1.2,0.2-1.2,1
			c-0.4,0.9-0.2,1.7-0.2,2.5c0.6,0.9,1.4,0.4,2,0.3c1.6,0,2.5-0.2,3.5-0.5c0.5,0.1,1,0.1,1.5,0.5c0.3,0.2,0.7,0.8,0.6,1.6
			s-0.2,1.1-0.5,1.7c0.1,0.5-0.6,1-1.5,1c-1.4,0.2-2.7,0.5-3.7,0.6c-1.2,0.1-2.6,0.4-3.6,0.6c-1,0-2.4,0.5-3.9,0.6
			c-0.8,0.2-1.3,0.4-1.5,0.6c-0.2,0.1-0.2,0.3,0.1,0.4c0.7,0.7,1.2,0.7,2,0.9c0.7,0.2,1.1,0.7,1.9,0.7c0.6,0.1,1.4,0.7,2,0.6
			c0.3,0.1,1.4,0.6,2,0.6c0.5,0.4,1.4,0.4,2,0.5c0.9,0,1.5,0.1,2,0.4c0.6,0.2,1.6,0.1,2.1,0.3c0.9,0.4,1.6,0.2,2.5,0.4
			c0.6,0,1.1,0.3,1.6,0.8c0.5,0.3,0.4,0.9,0.7,1.7C386.9,125.9,386.5,126.7,385.8,127.4z M350.3,105.5c0.2,0.2,1.1,0.8,2.4,0.3
			c0.3-0.2,0.4-0.3,1.4-0.2c0.7,0.1,1.6,0,2.1-0.6c0.5-0.4,0.4-2,0.1-3.1c-0.1-0.6-1.2-0.5-2.4-0.3c-0.3,0-0.6-0.1-1.4,0.2
			c-0.3,0-1.4,0.1-1.8,0.8C350,103.2,350.1,104.8,350.3,105.5z M356.6,110.9c0-0.2-0.3-0.4-1.1-0.4c-0.4,0-0.9,0-1.3,0.1
			c-0.4,0.2-0.4,0.3-1.4,0.2c-0.4,0-1.8,0.3-1.8,0.9c-0.4,0.7-0.1,2-0.1,2.6c0.3,0.9,0.9,0.7,2.1,0.4c0.2,0.2,0.2,0.1,1.4-0.2
			c0.5-0.3,1.5,0,2-0.4C357,113.2,356.8,111.8,356.6,110.9z M362.3,103.6c0,0.6,1.3,0.7,2.5,0.3c0.2,0.2,0.3-0.2,1.5-0.2
			c0.3,0.2,1.7-0.2,2.1-0.8c0.3-0.5,0.5-1.6,0.2-2.9c-0.2-0.6-1.6-0.6-2.5-0.3c-0.4-0.1-0.6,0-1.5,0.2c-0.4,0-1.8,0.4-1.9,0.9
			C361.9,101.5,362.2,103.1,362.3,103.6z M368.9,111.7c0.6-0.8,0.5-2,0.1-2.8c-0.6-0.6-1.4-0.3-2.1-0.3c-0.5,0-0.9,0.4-1.9,0.3
			c-0.8,0.3-1.8,0.5-2.2,0.9c-0.3,0.9-0.4,2.2,0.1,2.8c0.7,0.7,1.1,0.1,2.3,0.1c0.4-0.2,0.5-0.2,1.5-0.2
			C367.2,112.7,368.7,112.3,368.9,111.7z"/>
		<path class="st6" d="M403,113.4c0.5,0.8,0.6,1.3,0.7,2.3c-0.1,1-0.2,1.6-0.5,2.2c-0.3,1-0.6,1.4-0.7,2.1c-0.2,0.7-0.6,1.5-0.7,2
			c-0.4,0.6-0.5,1.6-0.8,2c-0.4,1-1.1,1.6-1.3,2c-0.6,0.4-1.3,0.7-2.1,1c-0.6,0-1.6-0.2-2.2-0.5c-0.8-0.3-1-0.8-1-2
			c0-0.6,0.2-0.8,0.4-1.5c0.1-0.7,0.6-0.9,0.8-1.7c0.4-0.4,0.3-0.8,0.7-1.7c0.2-1.2,0.8-2.1,1.2-3.5c0.4-1.2,0.7-2.1,1.3-2.6
			c0.6-0.3,1.1-0.7,1.9-0.9C401.5,112.5,402.3,112.6,403,113.4z M443.6,106.6c-0.2,1.1-0.2,2.2-0.1,3c0,0.9-0.4,2-0.4,3
			c0,0.9-0.4,2.2-0.6,3c-0.2,1.1-0.7,2-0.8,2.9c-0.5,0.9-0.4,1.5-1.1,2.3c-0.3,0.5-0.8,1.3-1.7,1.9c-0.6,0.5-1.7,1.1-2.3,1.2
			c-0.7,0.5-1.8,0.4-2.6,0.6c-1.1,0.3-1.8,0.3-2.7,0.2c-0.8,0.1-1.7,0.1-2.6-0.3c-0.9-0.5-1.5-1.6-1.6-2.5c0.2-0.7,0.2-1.4,0.8-2.1
			c0.3-0.5,1.3-1.1,2-1.2c1.2-0.1,2.4,0,3.5,0c0.6,0,1.2-0.3,1.7-0.7c0.3-0.4,0.9-0.9,0.8-1.5c0-0.8,0.5-1.1,0.5-2
			c0-0.5,0.4-1.4,0.4-2.1c0.3-0.9,0.3-1.6,0.2-2.1c-0.1-0.5,0.2-1.4,0.1-2c0-0.6-1.1-0.8-1.7-0.9c-1.4,0.3-2.3,0.2-3.4,0.4
			c-0.9,0.1-2.3,0.3-3.4,0.4c-1.3-0.1-2.2,0.2-3.4,0.4c-0.9,0.2-2.2,0-3.4,0.4c-1.1,0-2.5,0.4-3.4,0.4c-0.9,0-2.6,0.5-3.4,0.4
			c-1.4,0.1-2.4,0.5-3.4,0.4c-1.2,0.3-2.4,0.5-3.4,0.4c-0.8,0.4-2.3,0.2-3.3,0.1c-1.2,0.1-2.5-0.4-3-1.2c-0.8-0.4-0.5-1.3-1-1.7
			c0.1-0.7-0.1-1.4-0.2-2c-0.1-0.5,0.2-1.5,0-2.5c-0.2-0.7,0.1-1.8,0-2.4c-0.3-0.6,0.1-1.5,0-2.4c0.1-0.9,0.1-1.8,0-2.4
			c-0.2-0.6-0.1-1.4,0-2.4c0.1-0.8,0-1.7,0-2.4c0.2-1.1,0-1.5,0-2.4c0.1-0.9,0-1.5,0-2.5c0.2-0.9,0.1-1.4,0.4-2.3
			c0.1-0.6,0.5-1.5,1.3-2.2c0.8-0.6,1.7-1.4,2.8-1.6c1-0.5,1.8-0.2,3.1-0.6c1.1-0.2,2.4-0.5,3.8-0.4c1.4-0.3,2.7,0,3.7-0.4
			c1.2-0.1,2.6-0.5,3.7-0.4c1.1,0.2,2.6-0.1,3.8-0.4c1.3-0.1,2.2-0.1,3.7-0.4c1.1,0.1,2.3,0,3.8-0.4c1.1-0.1,2.4-0.2,3.7-0.4
			c1.1-0.2,2.5-0.5,3.8-0.4c0.8,0.2,1.1,0.2,1.7,0.6c0.1,0.5,0.8,1.3,0.6,1.8c0.2,0.7-0.3,1.4-0.6,1.9c-0.4,0.4-1.1,1.1-1.7,1
			c-1.6,0.2-2.7,0.4-3.9,0.5c-1.3,0.1-2.8,0.5-3.9,0.4c-1.3,0-2.5,0.3-4.3,0.5c-0.9-0.1-2,0.3-2.7,0.8c-0.7,0.8-0.5,1.6-0.3,2.4
			c0.1,0.3,0.7,0.5,1.8,0.2c1.8,0,2.6-0.3,3.7-0.4c1.2,0.1,1.7-0.4,3-0.3c1.3-0.4,1.9,0.1,3.1-0.3c0.8-0.3,0.9,0.1,1.5,0.6
			c0.3,0.6,0.4,1.3,0.5,1.6c-0.1,0.4-0.2,1.4-0.6,1.7c-0.4,0.4-0.8,1-1.6,0.9c-1.2,0.4-2.1,0.1-3.1,0.4c-1.1,0.3-2.2,0.4-3,0.3
			c-1.2-0.1-2.1,0.5-3.3,0.4c-0.7,0.1-1.4,0.2-1.9,1c-0.5,0.4-0.4,1.4-0.4,2.2c0.3,0.3,1,0.6,2,0.3c1.6-0.4,2.9-0.4,3.7-0.4
			c0.9-0.1,2.1,0,3-0.3c1.2-0.1,2.2-0.5,3.1-0.3c0.9-0.3,1,0.4,1.5,0.6c0.4,0.3,0.4,1.1,0.5,1.6c-0.3,0.5-0.3,1.5-0.6,1.7
			c-0.6,0.4-1.1,0.8-1.6,0.9c-1.3,0.3-2.3,0.1-3.1,0.4c-1.2,0.2-1.9,0.1-3,0.3c-1.2,0.3-2.1,0.1-3.7,0.4c-0.7,0-1.2,0.1-1.8,0.7
			c-0.2,0.5-0.1,1.8,0,2.4c0.2,0.3,1,0.5,2.2,0.4c1.8-0.1,3.3-0.3,4.2-0.5c0.9,0.1,2.1-0.1,3.5-0.4c0.9,0.1,2.2,0,3.4-0.4
			c0.9-0.2,2-0.3,3.2,0c1.1,0,1.8,0.4,2.8,1.2c0.7,0.5,0.9,0.9,0.9,1.5C443.4,105.6,443.8,106.1,443.6,106.6z M414.6,119.9
			c0.2,1.2-0.6,2.4-1,2.9c-0.8,0.9-1.2,1.1-2.2,1.1c-1.1,0.4-2.2-0.4-2.7-1.4c-0.4-0.9-0.3-1.4-0.7-2.2c-0.2-1.1-0.7-1.8-0.8-2.5
			c-0.5-1.5-1-2-0.9-2.9c-0.3-0.6,0.5-1.4,1-1.9c0.6-0.6,1.2-0.6,2-0.9c0.9,0,1.3,0.2,1.9,0.4c0.6,0.2,1,1.1,1.2,1.5
			c0.4,1.2,0.8,2.1,1.3,2.9C413.8,117.9,414.1,118.9,414.6,119.9z M415.2,92.5c-1.3,0.4-2.5,0.5-3.2,0.4c-0.7,0.1-1.9,0-2.9,0.3
			c-0.7,0.2-1.7,0.5-1.8,0.9c-0.4,0.5-0.6,1.8-0.3,2.3c0.1,0.6,0.8,0.8,1.8,0.4c1.2-0.4,2.2-0.5,3.2-0.4c0.7,0.2,1.9-0.2,3.2-0.4
			c0.4,0.6,1.3-0.4,1.6-0.9c0.2-0.3,0.2-1.3,0.1-2C416.5,92.3,415.8,92.6,415.2,92.5z M416.9,101.3c-0.5-1.1-1.2-0.6-1.8-0.4
			c-1.8,0.1-2.4,0.3-3.2,0.4c-0.7-0.1-1.8,0.5-3.2,0.4c-0.6,0.2-2.1,1.3-1.8,2.1c0,1.3,0.4,1.5,1.9,1.5c0.7-0.3,1.2-0.4,2.2-0.2
			c0.7,0.1,1.6,0,2.9-0.3c0.6,0.2,2.2-0.2,2.8-1C417,102.9,416.7,102.2,416.9,101.3z M406.9,86.8c-0.4,1.7,0.9,1.7,1.8,1.5
			c1.3,0.1,2.1-0.3,3.2-0.4c1.1,0,1.9-0.1,3.2-0.4c0.4-0.2,1.3-0.1,1.7-0.9c0.6-0.7,0.1-1.5,0.2-2.1c-0.1-0.4-2-0.5-3.5-0.2
			c-0.7-0.1-1.9,0.2-2.5,0.3c-1,0.4-1.7,0.2-2.2,0.2C407.7,85.3,406.8,85.3,406.9,86.8z M424,115.3c0.2,0.5,0.4,1.4,0.6,2.2
			c-0.2,0.8-0.6,1.6-1,2.1c-0.4,0.7-1.3,1-2.2,1c-1.3,0.4-2-0.3-2.5-1.4c-0.4-0.7-0.5-1.3-1-2.1c-0.3-0.5-0.5-1.1-1.1-2.1
			c-0.3-1.3,0.2-2.4,0.4-3.4c0.6-0.9,1.3-0.5,1.9-1.1c0.8,0.2,1.8,0,2.4,0.8c0.5,0.5,1,1.3,1.5,2C423.4,113.7,423.8,114.6,424,115.3
			z M428.4,116.4c-0.5-0.6-1.1-1.4-1.3-2c-0.2-0.5-0.9-0.8-1-1.4c-0.5-0.3-0.7-1.1-0.5-1.6c0-0.9,0.3-1.2,0.9-1.7
			c0.6-0.1,1.1-0.7,1.9-0.5c0.8-0.2,1.6-0.2,2,0.2c0.7,0.5,1.1,1.1,1.4,1.5c0.2,0.5,0.5,1.2,1.2,1.6c0.1,0.6,0.5,1.1,0.6,1.9
			c-0.3,0.9-0.3,1.6-1,2c-0.4,0.7-1.3,1.1-2,1C429.7,117.5,428.9,116.7,428.4,116.4z"/>
	</g>
</g>
</svg>
