<svg xmlns="http://www.w3.org/2000/svg" viewBox="0 0 601.99 715.81"><defs><style>.cls-1{isolation:isolate;}.cls-2{fill:#ccc;}.cls-3{fill:#0071bc;}.cls-4{opacity:0.2;}.cls-5,.cls-6{fill:#e6d246;}.cls-6{mix-blend-mode:multiply;}.cls-7{fill:#fcee21;opacity:0.4;}.cls-8{fill:#fff;}</style></defs><g class="cls-1"><g id="レイヤー_2" data-name="レイヤー 2"><g id="レイヤー_1-2" data-name="レイヤー 1"><polygon class="cls-2" points="0 715.81 11.55 715.81 96.64 22.82 85.09 22.82 0 715.81"/><path class="cls-3" d="M602,45.92c-162.59-55.44-345.6,55.44-508.19,0l-17,138.6c162.59,55.44,345.6-55.44,508.19,0C573,156.38,560.91,129.61,548.66,104,566.59,83.42,584.37,64,602,45.92Z"/><polygon class="cls-4" points="6.93 715.81 11.55 715.81 96.64 22.82 92.02 22.82 6.93 715.81"/><ellipse class="cls-5" cx="91.75" cy="15.56" rx="16.54" ry="14.63" transform="translate(14.26 67.09) rotate(-43.24)"/><path class="cls-6" d="M100.31,1.6a14,14,0,0,1,2.81,10.49A18.11,18.11,0,0,1,85.65,27.65,14.24,14.24,0,0,1,79,26a13.6,13.6,0,0,0,10.84,5.07,18.1,18.1,0,0,0,17.47-15.55A13.51,13.51,0,0,0,100.31,1.6Z"/><path class="cls-7" d="M344.38,58c82.81-13.29,168.38-27,247.75-1.86l2.74-2.88C514.4,27.34,427.92,41.18,344.24,54.61,260.09,68.11,173.09,82,92.66,55.22l-.45,3.64C125.8,69.91,160.43,74,195.49,74,244.89,74,295.12,65.93,344.38,58Z"/><path class="cls-7" d="M330.06,174.68c83.69-13.43,170.19-27.27,250.25-1.05-.63-1.47-1.27-2.92-1.91-4.39-79.86-25-165.55-11.29-248.49,2-84.15,13.5-171.14,27.43-251.57.61l-.45,3.64c33.58,11.05,68.22,15.13,103.28,15.13C230.56,190.64,280.8,182.58,330.06,174.68Z"/><path class="cls-8" d="M151.81,137.92a4.72,4.72,0,0,1,.28,2.46,7.52,7.52,0,0,1-.81,2.12c-.45,1-.79,1.35-1,2s-.86,1.4-1.06,1.94c-.48.53-.78,1.57-1.16,1.89a7.15,7.15,0,0,1-1.64,1.8,7.58,7.58,0,0,1-2.21.66,6.06,6.06,0,0,1-2-.89c-.7-.42-.82-1-.67-2.14a5.92,5.92,0,0,1,.64-1.47c.18-.71.7-.85,1.06-1.61.43-.31.4-.75,1-1.55.37-1.2,1.16-1.94,1.73-3.3a5.59,5.59,0,0,1,1.75-2.4,6.31,6.31,0,0,1,2-.62A2.35,2.35,0,0,1,151.81,137.92Zm40.38-.1a11.61,11.61,0,0,0-.64,3c-.16.88-.73,2-.85,2.95a15,15,0,0,1-1.07,2.94c-.41,1.09-1,2-1.27,2.82-.63.8-.63,1.41-1.41,2.09a5.13,5.13,0,0,1-2,1.62,7.71,7.71,0,0,1-2.47.87,6.66,6.66,0,0,1-2.56.14,5.83,5.83,0,0,1-2.61-.25,4.64,4.64,0,0,1-2.46-.74,4,4,0,0,1-1.16-2.83,4.93,4.93,0,0,1,1.13-2,3.09,3.09,0,0,1,2.13-.83,31.45,31.45,0,0,1,3.43.57,2.71,2.71,0,0,0,1.78-.41c.33-.31,1-.72,1.06-1.33.09-.83.68-1,.83-1.9.09-.49.61-1.3.74-2a3.87,3.87,0,0,0,.58-2.08,11.39,11.39,0,0,0,.41-2c.1-.6-.93-1-1.51-1.19-1.38,0-2.23-.17-3.38-.17-.93-.05-2.31-.07-3.33-.18a17.4,17.4,0,0,0-3.39-.18,22.77,22.77,0,0,0-3.39-.17c-1.06-.23-2.48,0-3.39-.18s-2.55.09-3.39-.18c-1.41-.13-2.39.15-3.38-.18a9.5,9.5,0,0,1-3.34-.17,7.37,7.37,0,0,1-3.23-.45,3.2,3.2,0,0,1-2.68-1.69c-.69-.48-.31-1.35-.65-1.92a7.72,7.72,0,0,0,.13-2c0-.56.43-1.48.44-2.47,0-.73.43-1.81.42-2.42-.16-.62.37-1.48.43-2.42a9.11,9.11,0,0,0,.42-2.42,6,6,0,0,1,.43-2.42c.25-.82.25-1.77.42-2.42a9.74,9.74,0,0,0,.43-2.42c.22-.93.2-1.49.43-2.48.38-.87.3-1.37.74-2.29a3.73,3.73,0,0,1,1.66-2,8,8,0,0,1,3-1.17c1-.34,1.8.09,3-.12a17.13,17.13,0,0,1,3.72.19c1.44,0,2.57.42,3.66.2a26.24,26.24,0,0,1,3.66.19,10.25,10.25,0,0,0,3.71.19,21,21,0,0,0,3.66.2,9.33,9.33,0,0,0,3.72.19c1.09.06,2.39.18,3.66.19a12.64,12.64,0,0,1,3.76.25,3.51,3.51,0,0,1,1.55.92c0,.55.53,1.41.27,1.9a3.08,3.08,0,0,1-.93,1.84c-.45.36-1.21.93-1.83.73-1.53-.08-2.65,0-3.89-.14a29.34,29.34,0,0,1-3.83-.21c-1.29-.17-2.46-.12-4.21-.22a4.06,4.06,0,0,0-2.7.36c-.85.73-.71,1.52-.7,2.41.05.33.6.64,1.72.53a26.05,26.05,0,0,0,3.61.19c1.11.28,1.72-.08,2.95.15,1.3-.15,1.81.38,3.05.22.8-.18.9.21,1.4.85.15.67.15,1.34.25,1.68-.19.43-.4,1.36-.83,1.62s-.93.89-1.67.69c-1.25.21-2-.27-3.07-.11a7.42,7.42,0,0,1-2.95-.15c-1.16-.28-2.12.17-3.28-.17a2.38,2.38,0,0,0-2,.67c-.54.3-.62,1.35-.76,2.18a1.91,1.91,0,0,0,1.87.65,14.75,14.75,0,0,1,3.6.19,12.62,12.62,0,0,0,3,.15,11.4,11.4,0,0,1,3,.22c.92-.18,1,.6,1.4.85s.18,1.17.26,1.68c-.36.42-.59,1.46-.84,1.62a6,6,0,0,1-1.67.69c-1.27,0-2.22-.23-3.06-.11a26.06,26.06,0,0,0-3-.15c-1.23.1-2-.22-3.6-.19a2.15,2.15,0,0,0-1.84.4,6.42,6.42,0,0,0-.42,2.42,2.59,2.59,0,0,0,2,.77,34.29,34.29,0,0,0,4.16.22,10.2,10.2,0,0,0,3.44.18,8.73,8.73,0,0,0,3.39.18,6.36,6.36,0,0,1,3.11.5,3.84,3.84,0,0,1,2.46,1.68,1.83,1.83,0,0,1,.64,1.7C192.15,136.76,192.4,137.27,192.19,137.82Zm-30.34,8.56a4.93,4.93,0,0,1-1.42,2.76,2.66,2.66,0,0,1-2.35.77c-1.08.22-2.06-.78-2.37-1.85s-.08-1.45-.31-2.35c0-1.16-.38-1.9-.31-2.62-.21-1.62-.66-2.2-.34-3.07-.17-.62.67-1.3,1.24-1.77a5.09,5.09,0,0,1,2.1-.61,3.7,3.7,0,0,1,1.74.76c.56.25.82,1.26.92,1.66a12.06,12.06,0,0,0,.78,3.09A10.32,10.32,0,0,0,161.85,146.38Zm5.42-18.3c-.29-1.24-1.07-.84-1.7-.7a29.52,29.52,0,0,0-3.17-.17c-.67-.26-1.8.18-3.17-.16-.63.13-2.21.93-2.13,1.77-.23,1.32.1,1.61,1.56,1.8a3.68,3.68,0,0,1,2.18.12,6.11,6.11,0,0,0,2.84.15,3.42,3.42,0,0,0,2.92-.57C167.09,129.68,167,129,167.27,128.08Zm-.22-9.17a7.46,7.46,0,0,1-3.17-.17,12.62,12.62,0,0,0-2.84-.15c-.67.08-1.68.19-1.92.57a3.26,3.26,0,0,0-.72,2.24c0,.66.61.92,1.7.7a7.67,7.67,0,0,1,3.17.16c.66.31,1.91.1,3.16.17.33.68,1.37-.21,1.67-.69a4.84,4.84,0,0,0,.47-2C168.36,119,167.67,119.16,167.05,118.91Zm-7-7.08c-.67,1.63.57,1.8,1.5,1.8a20.28,20.28,0,0,0,3.17.16,12.29,12.29,0,0,0,3.17.17c.46-.09,1.3.12,1.77-.63.66-.63.37-1.48.53-2.08,0-.45-1.89-.88-3.4-.73a7.11,7.11,0,0,0-2.46-.13,5.29,5.29,0,0,1-2.13-.12C161,110.49,160.24,110.28,160.08,111.83Zm11.68,31.47c.07.55.18,1.5.26,2.29a4.6,4.6,0,0,1-1.33,1.92,2.51,2.51,0,0,1-2.26.66c-1.36.21-1.88-.65-2.23-1.78-.31-.74-.31-1.35-.64-2.31a20.44,20.44,0,0,0-.76-2.26,7,7,0,0,1,1-3.33c.75-.85,1.37-.26,2-.79.77.32,1.71.32,2.16,1.23A16.1,16.1,0,0,1,171,141.2,3.59,3.59,0,0,1,171.76,143.3Zm4.09,1.82a7.43,7.43,0,0,1-.92-2.27c-.13-.5-.77-1-.77-1.59a1.79,1.79,0,0,1-.25-1.74,2.11,2.11,0,0,1,1.17-1.6c.6,0,1.19-.49,2-.23a2.06,2.06,0,0,1,1.89.54A4.37,4.37,0,0,1,180,140a3.43,3.43,0,0,0,.9,1.82c-.05.61.33,1.24.25,2-.43.87-.55,1.58-1.27,1.88a2.13,2.13,0,0,1-2.1.67C176.89,146.45,176.27,145.59,175.85,145.12Z"/><path class="cls-8" d="M231.86,146.43a2.88,2.88,0,0,1-.49,1.6,2.75,2.75,0,0,1-1.32,1,6.91,6.91,0,0,1-2.33.62c-.83.09-1.9.46-2.81.47a13.36,13.36,0,0,1-2.88.31,11,11,0,0,1-2.39.18,10.3,10.3,0,0,1-2.56.07,11.33,11.33,0,0,1-2.6-.16,5.27,5.27,0,0,1-2.48-.42,7,7,0,0,1-2.33-.91c-.46-.37-1.35-.58-1.53-1.18-.63-.32-.63-1-1.08-1.56a2.59,2.59,0,0,1-.62-1.85,3,3,0,0,1-.09-2,4.5,4.5,0,0,1,.29-1.81,3.91,3.91,0,0,1,.54-1.7,4.42,4.42,0,0,0,.75-1.53,14.21,14.21,0,0,0,1-1.46,5,5,0,0,1,1.17-1.39,4.32,4.32,0,0,1,1.29-1.26A12.69,12.69,0,0,1,213,132a2.55,2.55,0,0,0,.85-2.46c-.15-1-.2-1.61-.26-2.09a11.21,11.21,0,0,1-.14-1.87,4.94,4.94,0,0,1-.1-2c0-.66-.09-1.35,0-1.92s-.06-1.18,0-1.93a7.74,7.74,0,0,0,.08-2,6.55,6.55,0,0,1,.12-2,2.08,2.08,0,0,1,.9-1.8,2.55,2.55,0,0,1,1.87-.77c.77.17,1.33.14,1.78.55a3.31,3.31,0,0,1,.72,1.71c0,1.09-.23,2.25-.12,3.29.1,1.22,0,2.11,0,3.2a6.08,6.08,0,0,1,0,1.62,7,7,0,0,0,.08,1.57,6.19,6.19,0,0,0,.19,1.79,1.34,1.34,0,0,0,1.71.38,16.9,16.9,0,0,1,1.57-.75,7.37,7.37,0,0,0,1.47-.7,3.86,3.86,0,0,0,1.47-.66c.24-.28.88-.18,1.34-.52,1-.27,1.68-.53,2-.55a2.31,2.31,0,0,1,1.65.69,2.54,2.54,0,0,1,.54,1.72c.06.48-.45,1-.52,1.43-.3.63-.78.62-1.28,1a4.6,4.6,0,0,0-1.51.57c-1.06.46-1.82.77-2.62,1.08a3.54,3.54,0,0,1-1.34.6,6.91,6.91,0,0,0-1.29.61c-.5.33-1.06.28-1.35.69-.36.24-1,.54-1.26.73-.54.38-.93.41-1.12.64-.37.37-.85.4-1.27.86a16.53,16.53,0,0,0-3.62,3.15c-.34.68-1,1.42-1.25,2a5.12,5.12,0,0,0-.57,2.22,2.59,2.59,0,0,0,.48,2,3.72,3.72,0,0,0,1.67,1.13,2.79,2.79,0,0,0,1.49.3c.42.28.77.17,1.56.13a10.56,10.56,0,0,0,3.12-.05,13.86,13.86,0,0,0,2-.17,8.24,8.24,0,0,0,2.05-.21c.47,0,1.53-.31,2.06-.34l2-.42a4.29,4.29,0,0,1,1.92-.25,1.89,1.89,0,0,1,1.13.68A3.1,3.1,0,0,1,231.86,146.43Z"/><path class="cls-8" d="M280.24,128.5a7.07,7.07,0,0,1-.26,1.74c0,.74-.44,1.06-.39,1.75a11,11,0,0,1-.61,1.69c-.39.44-.48,1.28-.74,1.62a5.78,5.78,0,0,1-.91,1.6,3.93,3.93,0,0,1-1.05,1.48c-.43.71-1,1-1.26,1.42s-1,.86-1.52,1.36c-.7.66-1.49,1-1.92,1.41-.79.54-1.44.88-2,1.21-.74.26-1.17.58-1.91.84a2.46,2.46,0,0,1-2.36-.42,1.61,1.61,0,0,1-.83-1.73c-.17-.38.26-1.08.52-1.6s.87-.67,1.35-1.12a8.5,8.5,0,0,0,1.7-.95,16.78,16.78,0,0,0,1.53-1,17.84,17.84,0,0,0,1.48-1.14,5.93,5.93,0,0,0,1.3-1.39c.57-.33.7-1.13,1.18-1.8.13-.54.74-1.14.82-1.93a12.32,12.32,0,0,0,.48-2.07,9.4,9.4,0,0,1,.13-2.07c-.22-.54,0-1.27-.18-2a13.51,13.51,0,0,0-.52-1.91,8.5,8.5,0,0,0-.87-1.69c-.31-.62-.79-.86-1.18-1.43a6,6,0,0,0-1.84-1.35,7.27,7.27,0,0,0-2.09-.84,3.92,3.92,0,0,0-1.74-.28,2.38,2.38,0,0,0-2,1.64c-.26,1.34-.18,2-.35,2.66,0,.88-.3,1.7-.35,2.23a12.11,12.11,0,0,0-.43,2.29,15.23,15.23,0,0,1-.56,2.21c-.35.87-.4,1.7-.66,2.22-.26.95-.74,1.62-.82,2.2-.26.64-.61,1.25-.92,2.16a5.56,5.56,0,0,1-.82,1.63,3.58,3.58,0,0,1-.92,1.55,6,6,0,0,1-1.13,1.49,7.61,7.61,0,0,0-1.3,1.3,11.75,11.75,0,0,1-2.4,1.38,8.54,8.54,0,0,1-2.57.7,4.24,4.24,0,0,1-2.92-.26,5.28,5.28,0,0,1-1.31-.54c-.61-.15-.66-.53-1.18-.82-.7-.4-.92-1-1.35-1.63a3,3,0,0,1-.92-1.95,19.84,19.84,0,0,0-.49-2.17,12.56,12.56,0,0,1-.13-2.21,8.46,8.46,0,0,0,.09-1.76,7.66,7.66,0,0,0,.26-1.74,6.81,6.81,0,0,1,.43-1.71,3.48,3.48,0,0,1,.57-1.69,8.6,8.6,0,0,1,.73-1.66,5.53,5.53,0,0,1,.88-1.55c.39-.44.65-1.22,1-1.52a6.2,6.2,0,0,1,1.13-1.41c.66-.73,1.18-1.1,1.57-1.59a3.85,3.85,0,0,1,1.74-1.43c.44-.18,1.18-1,1.79-1.22a7.94,7.94,0,0,1,1.92-1.06,4,4,0,0,0,2-.86c.74-.43,1.4-.34,2.05-.68s1.13-.22,2.05-.51a8.76,8.76,0,0,1,2.09-.34c.48,0,1,0,1.75-.16a8.08,8.08,0,0,1,1.7,0c.74-.09,1.09.18,1.7.1a4.88,4.88,0,0,0,1.65.29,6.52,6.52,0,0,0,1.62.46,4.84,4.84,0,0,0,1.52.65,15.19,15.19,0,0,0,1.44.78,14.36,14.36,0,0,1,1.31,1c.4.3.57.72,1,1a8.4,8.4,0,0,0,.87,1.12,9,9,0,0,0,.7,1.23c.09.56.52.85.61,1.28a1.88,1.88,0,0,1,.48,1.38c0,.53.35.84.31,1.41a11.2,11.2,0,0,1,.26,2.94A4.82,4.82,0,0,0,280.24,128.5Zm-21.11-8.13a1.1,1.1,0,0,0-1.44-.79,4.75,4.75,0,0,0-1.4.56c-.43.27-.87.63-1.26.85s-.83.89-1.35,1c-.57.55-.87.67-1.18,1.15-.39.26-.52.76-1,1.26s-.57,1.07-.92,1.33a7.68,7.68,0,0,1-.78,1.45,5.1,5.1,0,0,0-.61,1.48,4.59,4.59,0,0,0-.43,1.54,8.08,8.08,0,0,0-.39,3.1,7.37,7.37,0,0,1,.13,1.65c.13.38,0,1.22.44,1.69s.43.92.92,1.29a2,2,0,0,0,1.52.39,4.88,4.88,0,0,0,1.61-.63c.35-.26.66-.82,1.18-1.24.43-.57.65-1.12,1-1.6a9.71,9.71,0,0,0,.74-1.62,10.32,10.32,0,0,1,.74-1.75c.17-.68.48-1.24.61-1.83a9,9,0,0,0,.56-1.81,4.57,4.57,0,0,1,.44-1.85,8,8,0,0,1,.34-1.83,15,15,0,0,0,.31-1.88A10.13,10.13,0,0,0,259.13,120.37Z"/><path class="cls-8" d="M304.35,124.22c.47.58,1.38,1.1,1.19,2a6.52,6.52,0,0,1-.79,2.43c-.1.45-.59.75-1.06,1.48a12.09,12.09,0,0,0-1.07,1.31,8.71,8.71,0,0,1-1.11,1.32c-.61.26-.85,1.18-1.18,1.28-.31.65-.86.8-1.24,1.24-.19.63-1.08.71-1.23,1.23-.49.19-.64.7-1.29,1.19s-.75.93-1.35,1.14a2.37,2.37,0,0,1-2.14,1,2.59,2.59,0,0,1-2.37-.67c-.58-.56-1.27-1.17-1.14-2.17-.24-.51.23-1.19.43-1.71,0-.33.58-.91,1.17-1.44a28.84,28.84,0,0,1,2.26-2,13.84,13.84,0,0,0,1.89-1.83,6.33,6.33,0,0,0,1.6-1.78,11.3,11.3,0,0,0,1.44-1.7,13.16,13.16,0,0,1,2-2.12,4.79,4.79,0,0,1,1.59-.69A4.07,4.07,0,0,1,304.35,124.22Zm18,1.17a8.48,8.48,0,0,1,.51,3,17,17,0,0,1-.09,2c-.37.5-.1,1.55-.42,2-.36.82-.34,1.31-.82,1.88a4.9,4.9,0,0,1-1.27,1.73c-.47.73-1.08.88-1.4,1.26a6.3,6.3,0,0,1-1.58.9,5.47,5.47,0,0,1-3.42,1.09,14.23,14.23,0,0,1-2.94.29,5.27,5.27,0,0,1-2.86-.32c-.39.07-.91-.45-1.32-1a2.15,2.15,0,0,1-.56-1.55,3,3,0,0,1,.85-2.33,7.5,7.5,0,0,1,2.18-1.27c.78-.23,1.35.28,2.29-.08.83-.13,1.23.24,1.84-.07.66-.05,1.82-.45,2.07-1.15.49-.35.61-1.51.63-2.28-.14-.8-.22-1.39-.35-2a10.41,10.41,0,0,0-.84-1.56c-.26-.79-.7-.77-1.23-1.4-.63-.45-1.25-.62-1.5-1.24a20.41,20.41,0,0,1-1.73-1.37,6.68,6.68,0,0,0-1.45-1.52c-.7-.77-1.05-1.2-1.08-1.86-.41-.37-.45-1.62-.48-2.22a7.17,7.17,0,0,1,.08-2.31c0-.77.44-1.54.56-2.6.31-.71,1-1.41,1.26-2.22a3.45,3.45,0,0,1,2.18-1.17,4.31,4.31,0,0,1,2.25.36,3,3,0,0,1,1.18,1.84,4.4,4.4,0,0,1-.47,2.1c-.08.78-.6,1.68-.46,2.59a5.06,5.06,0,0,0,.81,2.11c.2.79,1.11,1.2,1.68,1.54.3.39,1,.51,1.26.9a2.1,2.1,0,0,0,1.16,1c.45.2.53.73,1.1,1s.65.93,1,1.15A16.4,16.4,0,0,0,322.35,125.39Zm-.1-25.25a3,3,0,0,1,1,2.24,6.54,6.54,0,0,1-.9,2.5,4,4,0,0,1-2.29,1.39,2.94,2.94,0,0,1-2.25-.46c-.91-.41-1.88-1.13-2.34-1.33a19.47,19.47,0,0,1-2.05-1,8.31,8.31,0,0,1-1.82-.92,7.88,7.88,0,0,0-1.76-.7c-1.07-.49-1.54-.91-2.22-1.24-.24-.4-.81-.75-.73-1.47a2.78,2.78,0,0,1,1-2.57,4.85,4.85,0,0,1,2.46-1.31,4.53,4.53,0,0,1,3,.45,18,18,0,0,0,2.66,1.06c.18.24.91.35,1.53.69a4.14,4.14,0,0,1,1.65.83,12.53,12.53,0,0,1,1.66.89C321.43,99.28,321.85,99.87,322.25,100.14Zm17.08,27.29c.2.79-.54,1.83-1.07,2.57a6,6,0,0,1-2.51,1.38c-1,.38-1.34,0-2-.4a4.61,4.61,0,0,1-1.34-1.48,7.24,7.24,0,0,0-1.25-2,5.3,5.3,0,0,1-1.41-1.86,4.29,4.29,0,0,1-1.52-1.78,9.22,9.22,0,0,0-1.63-1.77,3.08,3.08,0,0,1-1-2,3.51,3.51,0,0,1,1-2.23,9,9,0,0,1,2.3-1.24,2.45,2.45,0,0,1,2.82.82,17,17,0,0,1,2,1.82c.61.12.65,1.16,1.22,1.29a7.16,7.16,0,0,0,1.28,1.44,12.3,12.3,0,0,0,1.18,1.51,3.48,3.48,0,0,1,1,1.43A11.57,11.57,0,0,1,339.33,127.43Z"/><path class="cls-8" d="M398.49,113.08a3,3,0,0,1,1.07,2,5.49,5.49,0,0,1-1,2.56c-.58.85-1.39,1.63-2.08,2.5a8.37,8.37,0,0,1-2.5,2.07,5.63,5.63,0,0,1-2.73,1.62c-.94.2-2.2.77-3,.9-1-.08-2,.19-3.29.06a7.65,7.65,0,0,1-2.83-1.27,5.69,5.69,0,0,1-1.36-2.47c-.42-.82-.07-2-.27-2.86s.07-1.27,0-2.3c-.25-1,.18-1.4,0-2.36-.13-.58.17-1.5.09-2.31a5.87,5.87,0,0,0,0-2.36c-.08-.64.17-1.66,0-2.36a6.4,6.4,0,0,1,0-2.3,10.66,10.66,0,0,1,.08-2.36c.14-.9-.05-1.42,0-2.3a2.71,2.71,0,0,0-.29-1.93c0-.44-.69-.61-1.41-.55a6.14,6.14,0,0,0-2.64,1.27c-1.14.88-1.72,1.58-2.32,2.1s-1,.6-1.24,1.23a17.79,17.79,0,0,0-1.24,1.28c-.54.63-.92.8-1.18,1.33s-.81.67-1.18,1.33a6.48,6.48,0,0,0-1.24,1.39c-.59.58-.69,1.08-1.18,1.38a4.78,4.78,0,0,1-1.12,1.37A3,3,0,0,0,365,111a5.87,5.87,0,0,0-.2,2.22c.26,1-.17,1.45.08,2.34.24.51-.11,1.82.08,2.29a8.16,8.16,0,0,0,.08,2.34c.14.91-.17,1.83.07,2.28a15.38,15.38,0,0,1,.08,2.34,7.89,7.89,0,0,0,.08,2.29c.08.75-.11,1.71,0,2.35a2.6,2.6,0,0,1-.87,2.21,2.53,2.53,0,0,1-2.14,1.14,1.86,1.86,0,0,1-2.19-.49,1.83,1.83,0,0,1-1-1.92,28.79,28.79,0,0,1-.05-3.17,17.75,17.75,0,0,1-.1-3c0-.82,0-2.3-.06-3.33,0-.77-.75-.82-1.12-.32-.21.41-.43.66-.64,1.08-.47.73-.68,1.3-1,1.73a12.45,12.45,0,0,0-1,1.8,2.84,2.84,0,0,1-2.45,1.79,4.71,4.71,0,0,1-2.19-.55,2.56,2.56,0,0,1-1.07-1.91,8,8,0,0,1,1-2.73,9.44,9.44,0,0,1,1.11-1.86,3.2,3.2,0,0,0,1.1-2,8.89,8.89,0,0,0,1.05-1.91,6.73,6.73,0,0,1,1.11-2c.42-.72.61-1.46,1-2a7.15,7.15,0,0,0,.88-1.83,5,5,0,0,0,1-2,8.58,8.58,0,0,0,.72-2c.09-.57.21-1.84-.47-2.28a2.09,2.09,0,0,0-1.67-.08c-.67.16-1.49.5-2.32.79s-1,.43-1.82.6a2.45,2.45,0,0,1-2.24-.32,2.77,2.77,0,0,1-.9-2.16,2.32,2.32,0,0,1,.49-1.93c.53-.79.92-.8,1.63-1.23a6.82,6.82,0,0,1,2-.69c.5,0,1.48-.61,2.7-.9.71-.38,1.43-.44,2.07-1.3a3.08,3.08,0,0,0,.61-1.84c0-1.09,0-2.79-.19-3.86-.08-.81,0-1.75,0-2.35a2.66,2.66,0,0,1,1-2.06,4.05,4.05,0,0,1,2.08-1,3.47,3.47,0,0,1,2.13.34,1.89,1.89,0,0,1,1,1.81c-.09.73.11,1.63.07,2.12a20,20,0,0,0,0,2.57c0,1.32.13,2.28.64,2.53a2.36,2.36,0,0,1,1.35,2,3.44,3.44,0,0,1-.59,2.22,12.53,12.53,0,0,1-1.16,2c-.16.3-.09.56.13.64s.73,0,1.15-.61c.92-1,1.45-1.59,2.26-2.48s1.46-1.15,2-2.11c.42-.51,1.51-1.27,2.21-2.09.71-.54.81-.72,1.68-1.35.38-.27,1.42-.87,1.85-1.26a6.33,6.33,0,0,0,1.92-1c.44-.12,1.16-.34,2.1-.54.84.15,2.17-.06,3,0a6.38,6.38,0,0,1,2.55,1.36c.86.58,1,1.55,1.49,2.62a8.91,8.91,0,0,1,.38,3.11,12.8,12.8,0,0,0-.09,2.42,10.06,10.06,0,0,1,0,2.41,8,8,0,0,1,0,2.42,9,9,0,0,0-.08,2.42,7.18,7.18,0,0,1,0,2.41,7.25,7.25,0,0,1,0,2.41,4.37,4.37,0,0,0-.09,2.42,12.2,12.2,0,0,0,0,2.41c.14.85.37,1.2,1.21,1.29a8.79,8.79,0,0,0,2.85-1.47c.66-.43,1-1.07,1.24-1.23.65-.7.8-1.1,1.07-1.31a3.81,3.81,0,0,1,2.57-1.53A5.43,5.43,0,0,1,398.49,113.08Z"/><path class="cls-8" d="M454.56,108.75c-.46.92-.49,2.12-.85,2.87a17,17,0,0,1-1.39,2.7,10.1,10.1,0,0,1-1.88,2.53c-.91,1-1.64,1.47-2.38,2.25s-1.8,1.16-2.7,2c-1,.53-2.13,1.13-3,1.54a9.05,9.05,0,0,1-3.12,1.07c-.95,0-2.11.09-2.76-.61a2.7,2.7,0,0,1-.89-2.1,2.83,2.83,0,0,1,.77-2c.4-.7.79-.68,1.75-1.26a5.54,5.54,0,0,0,1.9-.84c.62-.44,1.17-.55,1.84-.94.51-.22.91-.86,1.69-1.1.56-.38.85-.73,1.58-1.3.57-.71,1-.8,1.31-1.54.23-.57.68-.83,1-1.68.18-.57.42-1.35.6-1.86a9,9,0,0,0,.27-1.94,6.59,6.59,0,0,0-.64-3.39c-.38-.62-.59-1-.85-1.44-.33-.19-.49-.61-1.14-1.26-.54-.28-.86-.69-2-1.24a2.9,2.9,0,0,0-3.17,1,29.26,29.26,0,0,0-1.34,2.7c-.35.74-1,1.62-1.22,2.25-.57.65-.81,1.72-1.38,2.21-.73.51-.81,1.61-1.43,2.1-.69.89-.92,1.4-1.54,2.06-.35.53-1,1.14-1.77,2s-1.19,1.15-1.37,2a8.92,8.92,0,0,0,.26,3,3.31,3.31,0,0,1-1,2.78,3.36,3.36,0,0,1-2.24,1.09,2.16,2.16,0,0,1-2-.68c-.69-1.14-1.9-1.3-3.35-.77a40.84,40.84,0,0,1-4.62,1,5.09,5.09,0,0,1-3.25-.29,8.27,8.27,0,0,0-1.49-.57,3.24,3.24,0,0,1-1.25-1,6.5,6.5,0,0,1-1.43-2.54,22.12,22.12,0,0,1-.37-2.92c.18-.73.14-1.44.28-2.32a10.14,10.14,0,0,0,.66-2.2,3.5,3.5,0,0,1,1-2.17,14.25,14.25,0,0,1,1.27-2.09c.45-.26.63-1,1.08-1.36s.47-1,1.14-1.31c.62-.67.62-.56,1.19-1.21.23-.52.84-.52,1.3-1.11.56-.22.67-.45,1.35-1.06.5-.1.95-.58,2.31-1.59a5.1,5.1,0,0,0,1.36-1.55,4.3,4.3,0,0,0,.72-2.15c.06-.28.08-1.1.15-1.82a2.08,2.08,0,0,0-.62-1.8c-.59-.76-1.65-.49-2.25-.54a15.2,15.2,0,0,1-2.17.2,17.23,17.23,0,0,1-1.72.17,3.14,3.14,0,0,1-2-.68,2.59,2.59,0,0,1-.72-2,5.42,5.42,0,0,1,.82-2.11,5.44,5.44,0,0,1,2.07-1.07,9.58,9.58,0,0,0,2.11-.26,22,22,0,0,1,2.77-.32,3.09,3.09,0,0,0,2.07-.8,4.48,4.48,0,0,0,1-1.79,23.74,23.74,0,0,0,.38-2.44c-.15-.48.42-1.3.38-1.84,0-.93.64-1.16,1-1.63a3,3,0,0,1,2.12-.91,3.08,3.08,0,0,1,2.2.55,2.19,2.19,0,0,1,.78,2.06,18.53,18.53,0,0,0-.64,3.67c-.08,1,.74,1.35,2.3,1.09a5.79,5.79,0,0,0,2.5-.35,17.17,17.17,0,0,1,1.89-.4,8.9,8.9,0,0,0,2.34-.66,11.44,11.44,0,0,0,2.5-.46,2.14,2.14,0,0,1,1.92.69,2.42,2.42,0,0,1,.78,2,4.67,4.67,0,0,1-.76,1.93,4.52,4.52,0,0,1-1.8,1.16,21.65,21.65,0,0,1-3.28.86,14,14,0,0,1-3.23.75c-1.12.49-2.28.38-4,.76a7.82,7.82,0,0,0-1.58,1,3.72,3.72,0,0,0-1,2c-.37,1.84.16,2.77,1.16,2.51s1.56-.42,3.5-.77a4,4,0,0,0,2.41-1.05,4.16,4.16,0,0,0,1.14-1.43A5.12,5.12,0,0,1,439,89c.23-.46,1.12-.76,2.07-.91.44.07,1.48.19,1.8.71.77.3,1,.88.84,2.1a1.73,1.73,0,0,0,.83,2.22,10,10,0,0,1,2.14.61,3.9,3.9,0,0,0,1.65.72c.65.54,1.2.54,1.58.94a10.26,10.26,0,0,0,2.16,2,6.86,6.86,0,0,1,1.6,2.47,15.8,15.8,0,0,1,1,2.81c.13,1.19.06,1.9.26,3.09A14.49,14.49,0,0,1,454.56,108.75Zm-31.28,3.06a31.14,31.14,0,0,0-.19-3.59,16.29,16.29,0,0,1-.15-3c-.09-.86-.41-1.11-.91-1.06a2.23,2.23,0,0,0-1.41,1,10.85,10.85,0,0,1-1.24,1.22c-.35.41-.41.8-1.09,1.3a11,11,0,0,0-1.67,2.84,14.62,14.62,0,0,0-.68,3.13c.09.81,0,1.2.35,1.66s1,.61,1.7.66a4.72,4.72,0,0,0,1.67-.49,6.39,6.39,0,0,0,2.12-.92A4.34,4.34,0,0,0,423.28,111.81ZM432.72,99a10.17,10.17,0,0,1-1.45.36,3.71,3.71,0,0,0-1.46,1.07c-.68.72-.8,1-.81,1.39a8.56,8.56,0,0,0,0,2.9c.1.64,0,1.48.11,2.34a.45.45,0,0,0,.49.39,1.78,1.78,0,0,0,1-.87,20,20,0,0,0,1.84-2.91,13.29,13.29,0,0,0,.8-1.39,9.79,9.79,0,0,1,.93-1.73C434.59,99.41,434,98.64,432.72,99Z"/><path class="cls-8" d="M492,106.48c-.08,1-.92,2-1.13,2.75-.68.93-.59,1.53-1.19,2.36a6.75,6.75,0,0,1-1.37,2c-.35.94-1.11,1.26-1.66,1.75a5.72,5.72,0,0,1-2.7,1.69c-1,.27-2,.42-2.94.58s-1.51-.29-2.17-.24c-.79-.34-1.32-.51-1.88-.79-.6-.06-.88-.45-1.55-1.17-.35-.72-.84-.78-1.28-1.61a4.47,4.47,0,0,1-1-1.83c-.33-.83-.57-1.49-.76-2.15a12.4,12.4,0,0,0-.58-2.33,13.08,13.08,0,0,0-.39-2.42,25,25,0,0,1-.21-2.6,8.42,8.42,0,0,1-.1-2.59,10.26,10.26,0,0,1,.06-2.59,6.34,6.34,0,0,1,.11-2.48,14.89,14.89,0,0,0,.15-2.37,7.55,7.55,0,0,1,.23-2.2,21.09,21.09,0,0,1,.43-3.69c.1-1.16.48-2.37.48-3.2a11.88,11.88,0,0,0,.62-2.64c.41-.6.59-1.15.86-1.48a3.55,3.55,0,0,1,2.73-1.08,3.68,3.68,0,0,1,2.3.91c.3.6,1,1.27.68,2.32-.18,1.37-.37,2-.54,2.86a17,17,0,0,0-.34,2.2,5.68,5.68,0,0,0-.25,1.87,12,12,0,0,0-.39,3.42c0,.94-.2,2.31-.1,3.64-.26.77,0,1.54-.11,2.09a13.78,13.78,0,0,0,0,2.15,4.09,4.09,0,0,0,.11,2,9.33,9.33,0,0,1,.12,2,5.2,5.2,0,0,0,.25,1.88,5,5,0,0,0,.38,1.66,5.78,5.78,0,0,0,1.11,2.49c.12.71,1.07,1.05,1.69,1a2.7,2.7,0,0,0,2.72-1.85c.25-.61.52-1,.89-1.76a4.8,4.8,0,0,0,.71-1.65,7.41,7.41,0,0,1,1.25-1.47,8.2,8.2,0,0,1,1.83-.59,2.49,2.49,0,0,1,2.2.9A2.28,2.28,0,0,1,492,106.48Zm22.07-1.18a3.25,3.25,0,0,1-2.33,1c-.37-.17-.93-.07-1.54-.46a3,3,0,0,1-1.06-1.16c-.23-.72-.15-1.33-.57-1.88A3.39,3.39,0,0,1,508,101a6.93,6.93,0,0,0-.62-1.61c-.25-.61-.55-1.27-.67-1.6a3.15,3.15,0,0,1-.73-1.55,6.86,6.86,0,0,0-.84-1.55,4.78,4.78,0,0,1-.85-1.5,15.45,15.45,0,0,0-.91-1.44c-.24-.66-.87-.94-1-1.39s-1-.78-1.08-1.39a1.65,1.65,0,0,1-.6-2.1,3.38,3.38,0,0,1,1.32-2.08,5,5,0,0,1,2.31-.86,4.77,4.77,0,0,1,3,1.68c.35.28.44,1.22,1.08,1.39.61.39.62,1.16.88,1.27.63.67.93,1.72,1.47,2.28.6.83.72,1.6,1.28,2.32s.65,1.77,1.11,2.49c.4,1.11.68,1.55.94,2.49a15.41,15.41,0,0,0,.66,2.05,13.52,13.52,0,0,1,.48,2.26C515.32,103.71,514.9,104.81,514.07,105.3Z"/></g></g></g></svg>