<?xml version="1.0" encoding="utf-8"?>
<!-- Generator: Adobe Illustrator 25.4.1, SVG Export Plug-In . SVG Version: 6.00 Build 0)  -->
<svg version="1.1" id="レイヤー_1" xmlns="http://www.w3.org/2000/svg" xmlns:xlink="http://www.w3.org/1999/xlink" x="0px"
	 y="0px" width="602px" height="715.8px" viewBox="0 0 602 715.8" style="enable-background:new 0 0 602 715.8;"
	 xml:space="preserve">
<style type="text/css">
	.st0{fill:#CCCCCC;}
	.st1{fill:#006837;}
	.st2{opacity:0.2;}
	.st3{fill:#E6D246;}
	.st4{opacity:0.4;fill:#FCEE21;}
	.st5{fill:#FFFFFF;}
</style>
<g>
	<g>
		<g>
			<g>
				<polygon class="st0" points="0,715.8 11.5,715.8 96.6,22.8 85.1,22.8 				"/>
				<path class="st1" d="M602,45.9c-162.6-55.4-345.6,55.4-508.2,0c-5.7,46.2-11.3,92.4-17,138.6c162.6,55.4,345.6-55.4,508.2,0
					c-11.9-28.1-24.1-54.9-36.3-80.5C566.6,83.4,584.4,64,602,45.9z"/>
				<g>
					<polygon class="st2" points="6.9,715.8 11.5,715.8 96.6,22.8 92,22.8 					"/>
				</g>
				
					<ellipse transform="matrix(0.7284 -0.6851 0.6851 0.7284 14.2593 67.0852)" class="st3" cx="91.8" cy="15.6" rx="16.5" ry="14.6"/>
				<g>
					<path class="st3" d="M100.3,1.6c2.2,2.8,3.3,6.4,2.8,10.5c-1.1,8.6-8.9,15.6-17.5,15.6c-2.5,0-4.7-0.6-6.6-1.6
						c2.5,3.1,6.3,5.1,10.8,5.1c8.6,0,16.4-7,17.5-15.6C108.1,9.4,105.2,4.1,100.3,1.6z"/>
				</g>
				<path class="st4" d="M344.4,58c82.8-13.3,168.4-27,247.7-1.9c0.9-1,1.8-1.9,2.7-2.9c-80.5-25.9-167-12.1-250.6,1.3
					C260.1,68.1,173.1,82,92.7,55.2c-0.1,1.2-0.3,2.4-0.4,3.6c33.6,11,68.2,15.1,103.3,15.1C244.9,74,295.1,65.9,344.4,58z"/>
				<path class="st4" d="M330.1,174.7c83.7-13.4,170.2-27.3,250.3-1c-0.6-1.5-1.3-2.9-1.9-4.4c-79.9-25-165.6-11.3-248.5,2
					c-84.2,13.5-171.1,27.4-251.6,0.6c-0.1,1.2-0.3,2.4-0.4,3.6c33.6,11,68.2,15.1,103.3,15.1C230.6,190.6,280.8,182.6,330.1,174.7z
					"/>
			</g>
		</g>
	</g>
	<g>
		<path class="st5" d="M224.6,138.3c0.5,0.8,0.6,1.3,0.7,2.3c-0.1,1-0.3,1.6-0.5,2.2c-0.3,1-0.6,1.4-0.7,2.1c-0.2,0.7-0.6,1.5-0.8,2
			c-0.4,0.6-0.5,1.6-0.9,2c-0.4,1-1.1,1.6-1.4,2c-0.6,0.4-1.3,0.7-2.1,1c-0.6-0.1-1.6-0.2-2.2-0.6c-0.8-0.3-1-0.8-1-2
			c0-0.6,0.2-0.8,0.4-1.5c0.1-0.7,0.6-0.9,0.8-1.7c0.4-0.4,0.3-0.8,0.8-1.7c0.2-1.2,0.9-2.1,1.2-3.5c0.4-1.2,0.8-2.1,1.4-2.6
			c0.6-0.3,1.1-0.7,1.9-0.9C223.1,137.4,223.9,137.5,224.6,138.3z M265.3,132.2c-0.2,1.1-0.3,2.2-0.2,3c0,0.9-0.4,2-0.4,3
			c0,0.9-0.4,2.2-0.6,3c-0.2,1.1-0.7,2-0.8,2.9c-0.5,0.9-0.4,1.5-1.1,2.2c-0.3,0.5-0.8,1.3-1.8,1.9c-0.6,0.5-1.7,1-2.4,1.2
			c-0.7,0.4-1.8,0.4-2.6,0.5c-1.1,0.3-1.8,0.3-2.7,0.1c-0.8,0.1-1.7,0-2.6-0.4c-0.9-0.5-1.5-1.7-1.6-2.6c0.2-0.7,0.2-1.4,0.8-2.1
			c0.3-0.5,1.4-1.1,2-1.1c1.2-0.1,2.4,0,3.5,0c0.6,0.1,1.2-0.3,1.7-0.7c0.3-0.4,0.9-0.9,0.9-1.4c0-0.8,0.5-1.1,0.5-2
			c0-0.5,0.4-1.4,0.4-2.1c0.4-0.9,0.4-1.6,0.3-2.1c0-0.5,0.3-1.4,0.1-2c0-0.6-1.1-0.8-1.7-0.9c-1.4,0.2-2.3,0.2-3.4,0.3
			c-0.9,0.1-2.3,0.3-3.4,0.3c-1.3-0.1-2.2,0.2-3.4,0.3c-0.9,0.1-2.2,0-3.4,0.3c-1.1-0.1-2.5,0.3-3.4,0.3c-0.9,0-2.6,0.5-3.4,0.3
			c-1.4,0.1-2.4,0.5-3.4,0.3c-1.2,0.3-2.4,0.5-3.4,0.3c-0.8,0.4-2.3,0.2-3.3,0c-1.2,0.1-2.5-0.4-3-1.2c-0.8-0.4-0.5-1.3-1-1.8
			c0.1-0.7-0.1-1.4-0.2-2c-0.1-0.5,0.2-1.5,0.1-2.5c-0.1-0.7,0.2-1.8,0.1-2.4c-0.3-0.6,0.1-1.5,0.1-2.4c0.1-0.9,0.2-1.8,0.1-2.4
			c-0.2-0.6-0.1-1.4,0.1-2.4c0.1-0.8,0-1.7,0.1-2.4c0.2-1.1,0-1.5,0.1-2.4c0.1-0.9,0-1.5,0.1-2.5c0.2-0.9,0.1-1.4,0.4-2.3
			c0.1-0.6,0.5-1.5,1.4-2.2c0.8-0.6,1.7-1.4,2.8-1.6c1-0.5,1.8-0.2,3.1-0.6c1.1-0.2,2.4-0.5,3.8-0.4c1.4-0.2,2.7,0,3.7-0.4
			c1.2-0.1,2.6-0.5,3.7-0.4c1,0.2,2.5-0.1,3.8-0.4c1.3-0.1,2.2,0,3.7-0.4c1,0.1,2.3,0.1,3.8-0.4c1.1-0.1,2.4-0.2,3.7-0.4
			c1.1-0.2,2.5-0.5,3.8-0.3c0.8,0.2,1.1,0.2,1.7,0.7c0.1,0.5,0.7,1.3,0.6,1.8c0.1,0.7-0.4,1.4-0.7,1.9c-0.4,0.4-1.1,1.1-1.7,1
			c-1.6,0.1-2.7,0.4-3.9,0.4c-1.3,0.1-2.8,0.4-3.9,0.4c-1.3,0-2.5,0.2-4.3,0.4c-0.9-0.1-2,0.2-2.7,0.7c-0.7,0.8-0.5,1.6-0.3,2.4
			c0.1,0.3,0.7,0.5,1.8,0.3c1.8,0.1,2.6-0.3,3.7-0.3c1.2,0.1,1.7-0.3,3-0.3c1.3-0.3,1.9,0.1,3.1-0.2c0.8-0.3,0.9,0.1,1.5,0.6
			c0.3,0.6,0.4,1.3,0.5,1.6c-0.1,0.4-0.2,1.4-0.6,1.7c-0.4,0.4-0.8,1-1.6,0.9c-1.2,0.4-2,0-3.1,0.4c-1.1,0.3-2.2,0.4-3,0.3
			c-1.2-0.1-2.1,0.5-3.3,0.3c-0.7,0.1-1.4,0.2-2,1c-0.5,0.4-0.4,1.4-0.4,2.2c0.3,0.3,1,0.7,2,0.4c1.6-0.4,2.9-0.3,3.7-0.3
			c0.9-0.1,2.1,0,3-0.3c1.2-0.1,2.2-0.4,3.1-0.2c0.9-0.3,1,0.4,1.5,0.6c0.4,0.3,0.4,1.1,0.5,1.6c-0.3,0.5-0.4,1.5-0.6,1.7
			c-0.6,0.4-1.1,0.8-1.6,0.9c-1.3,0.2-2.3,0.1-3.1,0.4c-1.2,0.2-1.9,0-3,0.3c-1.2,0.3-2.1,0.1-3.7,0.3c-0.7,0-1.2,0.1-1.8,0.7
			c-0.2,0.5-0.2,1.8-0.1,2.4c0.2,0.3,1,0.6,2.1,0.5c1.8-0.1,3.3-0.2,4.2-0.4c0.9,0.1,2.1,0,3.5-0.3c0.9,0.1,2.2,0,3.4-0.3
			c0.9-0.2,2-0.3,3.2,0c1.1,0.1,1.8,0.4,2.7,1.3c0.7,0.5,0.9,1,0.9,1.6C265.1,131.2,265.4,131.7,265.3,132.2z M236,145
			c0.1,1.2-0.7,2.4-1,2.9c-0.8,0.8-1.2,1-2.2,1.1c-1.1,0.4-2.2-0.4-2.7-1.4c-0.4-0.9-0.3-1.4-0.7-2.2c-0.2-1.1-0.7-1.8-0.7-2.5
			c-0.5-1.5-1-2-0.8-2.9c-0.3-0.6,0.5-1.4,1-1.9c0.6-0.6,1.2-0.6,2-0.9c0.9,0,1.3,0.2,1.9,0.5c0.6,0.2,1,1.1,1.2,1.5
			c0.4,1.2,0.7,2.1,1.3,2.9C235.3,143,235.6,144,236,145z M238.7,126.5c-0.5-1.2-1.2-0.7-1.8-0.4c-1.8,0.1-2.4,0.2-3.2,0.3
			c-0.7-0.2-1.8,0.4-3.2,0.3c-0.6,0.2-2.1,1.2-1.9,2c0,1.3,0.3,1.6,1.8,1.5c0.7-0.3,1.2-0.3,2.2-0.2c0.7,0.2,1.6,0.1,2.9-0.3
			c0.5,0.2,2.2-0.2,2.8-1C238.8,128,238.5,127.3,238.7,126.5z M237.1,117.6c-1.3,0.3-2.5,0.5-3.2,0.3c-0.7,0.1-1.9,0-2.9,0.3
			c-0.7,0.2-1.7,0.4-1.8,0.8c-0.4,0.5-0.6,1.8-0.4,2.3c0.1,0.6,0.8,0.8,1.8,0.4c1.2-0.3,2.2-0.4,3.2-0.3c0.7,0.2,1.9-0.2,3.2-0.3
			c0.4,0.6,1.3-0.4,1.6-0.9c0.2-0.3,0.2-1.3,0.2-2C238.4,117.5,237.7,117.7,237.1,117.6z M229,111.7c-0.4,1.7,0.8,1.7,1.8,1.5
			c1.3,0.1,2.1-0.3,3.2-0.3c1.1,0.1,1.9-0.1,3.2-0.3c0.4-0.2,1.3-0.1,1.7-0.9c0.6-0.7,0.1-1.5,0.2-2.1c-0.1-0.4-2-0.6-3.5-0.2
			c-0.7-0.2-1.9,0.1-2.5,0.2c-1,0.4-1.7,0.2-2.2,0.2C229.7,110.3,228.9,110.2,229,111.7z M245.5,140.6c0.2,0.5,0.4,1.4,0.6,2.2
			c-0.2,0.8-0.6,1.6-1,2.1c-0.5,0.6-1.4,1-2.2,1c-1.3,0.4-2-0.4-2.5-1.4c-0.4-0.7-0.5-1.3-1-2.1c-0.3-0.5-0.5-1.2-1.1-2.1
			c-0.3-1.3,0.2-2.4,0.5-3.4c0.6-0.9,1.3-0.5,1.9-1.1c0.8,0.2,1.8,0,2.4,0.9c0.5,0.5,1,1.3,1.4,2C245,139,245.4,139.9,245.5,140.6z
			 M249.9,141.7c-0.5-0.7-1.1-1.4-1.3-2.1c-0.2-0.5-0.9-0.8-1-1.4c-0.5-0.3-0.6-1.1-0.5-1.6c0-0.9,0.4-1.2,0.9-1.7
			c0.6-0.1,1.1-0.7,1.9-0.5c0.8-0.2,1.6-0.2,2,0.2c0.7,0.5,1.1,1.1,1.3,1.6c0.2,0.5,0.5,1.2,1.2,1.6c0,0.6,0.5,1.2,0.6,1.9
			c-0.3,0.9-0.3,1.6-1,2c-0.5,0.6-1.4,1.1-2,1C251.2,142.9,250.4,142.1,249.9,141.7z"/>
		<path class="st5" d="M317.9,122.8c0.1,0.7-0.1,1.1-0.2,1.7c0.1,0.7-0.4,1.1-0.3,1.8c0,0.3-0.5,1.4-0.6,1.7
			c-0.4,0.5-0.4,1.3-0.7,1.6c-0.2,0.7-0.7,1.3-0.9,1.6c-0.2,0.7-0.6,1.1-1,1.5c-0.4,0.7-0.9,1-1.2,1.5c-0.2,0.6-1,0.9-1.5,1.4
			c-0.7,0.7-1.5,1-1.9,1.5c-0.8,0.6-1.4,0.9-2,1.3c-0.7,0.3-1.2,0.6-1.9,0.9c-1,0.4-1.8,0-2.4-0.3c-0.5-0.2-1-0.8-0.9-1.7
			c-0.2-0.4,0.2-1.1,0.5-1.6c0.3-0.5,0.9-0.7,1.3-1.2c0.7-0.5,1.1-0.5,1.7-1c0.3-0.2,0.9-0.6,1.5-1.1c0.3-0.2,1.2-0.9,1.5-1.2
			c0.6-0.5,0.9-0.9,1.3-1.4c0.6-0.3,0.7-1.1,1.1-1.8c0.1-0.5,0.7-1.2,0.8-2c0.2-0.5,0.3-1.4,0.4-2.1c0-0.8-0.1-1.2,0.1-2.1
			c-0.2-0.5,0-1.3-0.2-2c-0.1-0.7-0.4-1.1-0.6-1.9c-0.1-0.6-0.6-1.1-0.9-1.7c-0.3-0.6-0.8-0.8-1.2-1.4c-0.5-0.6-1.4-1-1.9-1.3
			c-0.6-0.3-1.4-0.6-2.1-0.8c-0.5-0.2-0.9-0.3-1.8-0.2c-0.8,0.1-1.9,0.9-1.9,1.7c-0.2,1.3-0.1,2-0.3,2.7c0,0.9-0.2,1.7-0.3,2.2
			c-0.3,0.7-0.2,1.7-0.4,2.3c0,0.6-0.3,1.4-0.5,2.2c-0.3,0.9-0.3,1.7-0.6,2.2c-0.2,1-0.7,1.6-0.8,2.2c-0.2,0.6-0.6,1.3-0.8,2.2
			c-0.1,0.3-0.3,1.1-0.8,1.6c-0.1,0.5-0.4,1-0.9,1.6c-0.5,0.7-0.6,1.1-1.1,1.5s-0.9,0.8-1.3,1.3c-0.7,0.6-1.5,1-2.4,1.4
			c-0.7,0.4-1.5,0.6-2.6,0.8c-1.1,0.3-2.2,0.2-2.9-0.2c-0.3,0-0.9-0.3-1.3-0.5c-0.6-0.1-0.7-0.5-1.2-0.8c-0.7-0.4-1-1-1.4-1.6
			c-0.6-0.4-0.8-1.2-1-1.9c-0.2-0.6-0.3-1.3-0.6-2.1c0-0.8-0.3-1.4-0.2-2.2c0-0.7,0.1-1.2,0-1.8c0.2-0.5,0.2-1.1,0.2-1.7
			c0.1-0.7,0.2-1.1,0.4-1.7c0.1-0.4,0.1-1.3,0.5-1.7c0.2-0.6,0.3-1,0.7-1.7c0.1-0.4,0.4-1.1,0.8-1.6c0.4-0.5,0.6-1.2,1-1.5
			c0.3-0.5,0.6-1,1.1-1.4c0.6-0.8,1.1-1.1,1.5-1.6c0.4-0.7,0.9-1.1,1.7-1.5c0.4-0.2,1.1-1,1.8-1.3c0.6-0.5,1.2-0.8,1.9-1.1
			c0.7-0.1,1.5-0.4,2-0.9c0.7-0.5,1.4-0.4,2-0.7c0.6-0.2,1.1-0.3,2-0.6c0.5-0.2,1.3-0.4,2.1-0.4c0.5-0.1,1-0.1,1.7-0.2
			c0.6-0.1,1,0,1.7,0c0.7-0.1,1.1,0.1,1.7,0c0.6,0.2,1,0.2,1.7,0.2c0.5,0.2,1.2,0.4,1.6,0.4c0.5,0.3,1.2,0.6,1.6,0.6
			c0.4,0.2,0.9,0.6,1.5,0.7c0.6,0.3,0.9,0.7,1.3,1c0.4,0.3,0.6,0.7,1,0.9c0.2,0.3,0.7,0.9,0.9,1.1c0.1,0.3,0.6,1,0.7,1.2
			c0.1,0.6,0.6,0.8,0.7,1.3c0.4,0.3,0.5,0.7,0.5,1.4c0,0.5,0.4,0.8,0.4,1.4c0.4,0.9,0.2,2.1,0.4,2.9
			C317.7,121.4,317.8,122.4,317.9,122.8z M296.4,115.3c-0.1-0.6-0.9-1-1.5-0.7c-0.6,0.2-1.1,0.4-1.4,0.6c-0.4,0.3-0.9,0.7-1.2,0.9
			c-0.3,0.2-0.8,0.9-1.3,1.1c-0.6,0.6-0.9,0.7-1.1,1.2c-0.4,0.3-0.5,0.8-1,1.3c-0.4,0.5-0.5,1.1-0.9,1.4c-0.1,0.4-0.4,0.8-0.7,1.5
			c-0.4,0.7-0.4,0.8-0.6,1.5c-0.2,0.7-0.4,1.2-0.4,1.5c-0.3,1.2-0.5,2.3-0.3,3.1c0.1,0.7,0.2,1,0.2,1.6c0.1,0.4,0.1,1.2,0.5,1.7
			c0.4,0.5,0.5,0.9,1,1.3c0.4,0.3,1.1,0.5,1.5,0.3c0.6-0.1,1.2-0.4,1.6-0.7c0.3-0.3,0.6-0.8,1.1-1.3c0.4-0.6,0.6-1.1,1-1.6
			c0.2-0.4,0.4-1,0.7-1.6c0.2-0.6,0.3-1,0.7-1.8c0.2-0.7,0.4-1.2,0.6-1.8c0.1-0.5,0.5-1.1,0.5-1.8c-0.1-0.4,0.1-1.1,0.4-1.9
			c-0.1-0.4,0.1-1,0.3-1.8c0.1-0.6,0.3-1.3,0.2-1.9C296.2,116.7,296.5,116.2,296.4,115.3z"/>
		<path class="st5" d="M351.5,118.5c-0.2,1.4,0,2-0.1,3.4c-0.1,1-0.1,2.2-0.1,3.4c-0.1,0.7,0.1,1.6-0.1,2c0,0.9,0.1,1.7-0.2,2.2
			c-0.2,0.7-0.4,1.5-0.5,2.1c-0.1,0.8-0.5,1.4-1,2c-0.4,1.1-1.1,1.5-2,2c-0.8,0.2-2,0.8-2.7,0.9c-1.4,0.5-3,0.6-4,0.1
			c-1.1-0.1-2-1.2-1.9-2.5c0-0.8,0.4-1.5,0.6-2.2c0.4-0.5,1-1.1,1.9-1.3c1.5,0,2.2,0,3.1-0.5c0.4-0.9,0.5-1.7,0.4-2.6
			c0-0.5,0.2-1.3,0.2-1.7c0-1.1,0-2.3,0.2-3.1c-0.1-0.7-0.1-1.5,0.1-2.4c0.1-0.9-0.2-1.5,0-2.4c0.1-0.9-0.1-1.4,0-2.3
			c0-0.6-0.2-1.4-0.1-2.3c0.1-0.6-0.5-1.1-1.7-0.9c-1,0.2-1.9,0.3-1.9,2.3c-0.2,1.7-0.4,2.7-0.4,3.4c-0.3,0.7-0.4,1.6-0.3,2.7
			c-0.3,1.2-0.1,1.8-0.5,2.8c0,1.1-0.5,2.1-0.6,2.7c-0.1,0.9-0.7,1.6-0.8,2.7c-0.5,0.8-0.7,1.8-0.9,2.7c-0.1,0.6-0.6,2.1-1.1,2.7
			c-0.4,1.1-1.1,2-1.4,2.6c-0.6,0.6-1.5,1.1-2.5,1.5c-0.6,0-1.6-0.2-2.2-0.5c-0.7-0.3-0.9-0.8-1-1.9c0-0.8,0.3-1.2,0.5-2.1
			c0.4-0.5,0.5-1.2,0.8-1.6c0.4-0.8,0.5-0.9,0.7-1.6c0.2-0.9,0.8-2.2,1.2-3.2c0.5-1.1,0.6-2.1,0.9-3.3c0.1-1.3,0.6-2.2,0.7-3.3
			c0.4-1.1,0.4-2.4,0.4-3.3c0.2-1.3,0-2.1,0.3-3.3c0.2-1.3-0.2-2,0.1-3.4c-0.3-1.1-0.1-1.9-0.1-3.3c-0.2-0.5-0.2-1.5-0.1-2.7
			c-0.1-0.6-0.1-1.2-0.9-1.2c-0.8,0.1-1.7,0.3-2.8,0.2c-1.1,0.3-1.9,0.1-2.2-0.6c-0.7-0.5-0.6-0.9-0.6-1.8c0-0.7-0.1-1.4,0.5-1.9
			c0.1-0.5,1-0.9,1.7-1.2c1-0.2,1.7-0.3,3.5-0.6c0.4-0.1,1.3-0.3,1.6-0.7c0.4-0.8,0.2-1.5,0.3-2.2c-0.1-0.9-0.1-1.9-0.1-2.5
			c-0.2-0.7-0.1-1.5,0-1.9c0.1-0.6,0.1-1.4,0.9-2c0.3-0.4,1.5-0.7,2.1-0.9c0.9-0.1,1.4,0.1,2.1,0.3c0.6,0.2,1,0.9,1.1,1.7
			c0,0.8,0.2,1.3,0.1,1.9c0,0.8-0.1,2-0.1,2.8c0,0.5,0.1,1.3,0.5,1.7c0.6,0.5,1.9,0.3,2.6,0.1c1.3-0.3,1.9-0.3,2.8-0.4
			c1,0,1.4,0.1,2.1-0.3c0.5,0.1,1.4,0.3,1.8,0.6c0.5,0.4,0.6,1.4,0.7,1.8c0.3,0.7-0.3,1.5-0.5,2c-0.3,0.4-0.8,1.3-1.7,1.1
			c-0.8,0.4-1.7,0.3-2.4,0.4c-0.7,0.1-1.7,0.4-2.3,0.4c-0.9,0-1.5,0.5-2.8,0.4c-0.6,0-1.6,0.5-1.5,1.8c0.2,1.3-0.2,2.2,0.3,2.8
			c0.1,0.6,1.6-0.1,3,0c0.8,0,1.7-0.2,2.7-0.1c0.7,0,1.5,0.5,2.4,1c0.7,0.4,0.7,1.3,1.1,1.8c0,0.9,0.6,1.5,0.4,2.2
			c0.2,1,0.3,2.3,0.1,3.4C351.3,116,351.3,117.3,351.5,118.5z M381.5,127.1c0.3,1.1-0.4,1.6-0.9,2.3c-0.7,0.9-1.6,1.2-2.2,1.3
			c-1,0.3-1.2-0.2-2-0.3c-0.4-0.3-1.1-0.7-1.7-1c-0.6-0.7-1.4-0.7-2.1-1.4c-0.9-0.5-1.7-0.8-2.1-1.6c-0.4-0.4-0.9-0.2-1-0.8
			c-0.2-0.5-0.9-0.5-1.3-1.2c-0.4-0.6-1.5-1.1-2-0.3c-0.8,0.7-0.8,1.2-1.2,1.7c-0.4,0.5-0.8,0.6-1.1,1.3c-0.4,0.4-0.6,0.9-1.1,1.4
			c-0.5,0.5-0.6,0.9-1.1,1.3c-0.6,0.7-0.8,0.8-1.1,1.3c-0.6,0.6-0.9,1.1-1.2,1.2c-0.7,0.5-1,0.6-1.2,1.2c-0.2,0.3-1,1.1-1.5,1.2
			c-0.8,0.6-1.3,0.8-1.8,0.8c-0.7,0.3-1.5-0.2-2-0.4c-0.6-0.6-1.2-0.7-1-1.8c0-1.1,0.7-2.4,1.6-3c0.6-0.6,0.6-0.9,1.4-1.3
			c0.8-0.5,1.8-1.3,2.4-2.3c0.5-0.4,0.4-0.8,1.1-1.2c0.6-0.3,0.9-0.8,1.1-1.3c0.4-0.7,0.5-1,1.1-1.4c0.4-0.3,0.7-0.9,1.4-2.1
			c0.4-0.7,0.8-2.2,0.1-3.5c-0.3-1-0.9-1.1-1.1-1.8c-0.2-0.7-0.7-0.8-0.7-1.4c-0.4-0.6-0.4-0.8-0.7-1.4c-0.2-0.6-0.4-0.9-0.7-1.6
			c-0.6-0.7-1.4-1-1.9-0.7c-0.8,0.6-1.4,0.8-2,1c-0.5,0.1-1.3-0.2-2-0.5c-0.7-0.2-0.8-1-1-1.8c0.1-0.8,0.3-1.6,0.5-2
			c0.2-0.4,0.8-1.3,1.1-2.1c0.3-0.3,0.4-0.9,0.9-1.7c-0.1-0.6,0.3-0.8,0.7-1.7c0.4-0.4,0.5-1.3,0.8-1.9c0.4-0.4,0.2-1.4,0.7-2
			c0.5-0.9,0.3-1,0.6-1.8c0-0.8,0.4-1.1,0.5-1.9c0.3-0.5,0.1-1,0.5-1.9c0.2-0.4,0.3-1.1,0.4-1.8c0.3-0.5,0.4-1.8,0.6-2.4
			c-0.1-0.6,0.7-1.4,1-1.9c0.6-0.8,1.4-0.9,1.9-1c0.9-0.2,1.5,0.1,2.2,0.4c0.8,0.5,1,1,1.1,1.8c0,0.8-0.2,1.5-0.4,2.1
			c-0.1,0.5-0.3,1.3-0.6,2.6c-0.8,1.9-0.2,3,1.3,2.7c1.5-0.2,3.4-0.3,4.4-0.6c1,0.1,2.4-0.2,3.4-0.4c1.4-0.3,2.5-0.6,3.5-0.5
			c0.5,0.1,1.2,0.3,1.7,0.6c0.5,0.5,0.8,1.2,0.7,1.8c0.3,0.7-0.3,1.6-0.5,1.9c-0.5,0.7-0.8,1-1.9,1.2c-1.2,0.2-2.2,1.4-2.3,2.1
			c-0.4,1.5-0.3,2.1-0.5,3.1c-0.4,1-0.4,1.5-0.5,2.4c-0.3,0.6-0.2,1.5-0.6,2.5c-0.3,0.8-0.3,1.7-0.7,2.4c0,0.8-0.4,1.4-0.8,2.4
			c-0.5,1.1-0.5,1.3-1.2,3.1c-0.6,0.9,0.2,2.4,0.7,2.9c0.4,0.6,1,0.9,1.6,1.4c0.3,0.2,0.6,0.8,1.2,1c0.5,0.6,1.5,1,2.4,1.7
			c0.9,0.4,1.8,1,2.5,1.5c0.5,0.4,1,0.7,1.6,1.1C381.1,125.7,381.7,126.3,381.5,127.1z M368.6,99.9c-0.3-0.6-1.8-0.1-2.3,0
			c-0.3,0.2-1.3,0-2.1,0.2c-1.8,0.3-2.1,1.1-2,2c0.2,0.7,0.3,1.6,0.5,2c0.2,1.3,0.9,2.2,1.1,3.2c-0.1,0.3,0.3,1.2,0.6,1.4
			c0.1,0.4,0.3,1,0.8,1.6c0.4,1.3,1.8,0.7,1.9-0.6c0.2-1,0.2-1.6,0.5-2.1c0-0.3,0.2-0.9,0.4-1.7c0.3-0.8,0.1-1.1,0.4-1.8
			c-0.1-0.3,0.1-1.3,0.4-2.2C368.9,101.3,369.2,100.5,368.6,99.9z"/>
		<path class="st5" d="M412.1,106.7c-1.2,0.7-1.9,0.8-2.6,1.4c-0.6,0.5-0.9,1.5-0.9,2.7c0,2-0.1,3.7,0.1,4.1c-0.1,0.8-0.1,1.5,0,2.2
			c-0.2,0.7-0.1,1.3,0,2.2c-0.1,1,0.2,1.6,0,2.2c-0.2,0.8,0.1,1.2,0,2.2c-0.3,1,0,1.6-0.1,2.2c-0.2,1-0.2,1.5-1.1,1.9
			c-0.6,0.7-1.5,0.7-2.1,0.8c-0.8,0.1-1.7,0-2.1-0.3c-0.4-0.4-0.8-0.8-1-1.7c-0.1-1.5,0-2.5,0-3.9c0-1.1-0.1-2.5,0-3.8
			c0.2-0.8-0.1-1.2,0-2c-0.1-0.7,0.1-1.7,0-2.5c0.1-2.1-0.1-2.7-1.9-2c-0.7,0.4-1.6,0.7-2.4,1c-1.8,0.9-2.5,1-2.7,0.9
			c-0.8,0-1.5-0.3-2-0.8c-0.4-0.3-0.8-1.1-0.7-2c-0.1-0.8,0.1-1.5,0.6-1.9c0.3-0.3,0.7-1,1.6-1.2c1.2-0.6,2.2-1.1,3.4-1.4
			c0.6-0.1,1.4-0.4,1.7-0.7c0.7-0.5,1.2-0.3,1.6-0.7c0.6-0.5,0.7-1.6,0.7-2.4c0-0.9-0.1-1.8,0.1-2.8c0.1-1,0-1.6,0.1-3.1
			c0-0.8,0-1.3-0.7-1.7c-0.8,0-1.6,0.1-2,0.2c-0.6,0.2-0.8,0.6-1.2,1.6c-0.2,0.8-0.7,1.7-0.8,2.2c-0.3,0.4-0.4,1.1-0.7,1.3
			c-0.6,0.9-1.5,1.3-2.1,1.2c-0.4-0.1-1.3-0.2-1.8-0.5c-0.7-0.2-0.8-0.6-0.8-1.5c0.1-0.4,0.1-0.9,0.5-1.8c0.5-1,0.7-1.4,0.8-2.2
			c0-0.9,0.2-1.5,0.6-2.2c0.1-0.5,0.5-1.8,0.6-2.2c0.1-0.8,0.3-1.6,0.6-2.2c0.2-0.3,0.2-0.9,0.3-2.1c0.1-0.8,0.2-1.4,0.7-2
			c0.5-0.5,1.3-1,2.1-1.1c0.7-0.1,1.4,0,1.9,0.5c0.4,0.4,0.9,1.2,0.7,1.8c-0.1,1.1-0.5,2.1-0.6,3c-0.1,0.8,0.9,0.7,1.5,0.5
			c0.5-0.5,0.3-1,0.5-1.8c-0.1-1.2,0.1-2,0-3.1c-0.2-0.6,0.1-1.7,0-2.5c0.2-1,0.2-1.9,0-2.6c-0.1-0.6,0.3-1.5,1.1-1.9
			c0.7-0.4,1.4-0.9,2.1-0.8c0.6,0,1.2-0.1,2,0.3c0.7,0.3,0.8,0.9,1,1.6c-0.1,1.2-0.1,1.8,0,2.6c0,0.8-0.2,1.8,0,2.5
			c-0.1,0.8,0,2,0,3.1c0.2,0.9,0.3,1.4,1.5,1.5c1.3,0,2.2-0.2,3-0.2c0.9,0,1.3,0,1.7,0.7c0.3,0.5,0.5,1.3,0.5,1.8
			c-0.1,0.7-0.3,1.5-0.6,1.9c-0.3,0.5-1,1.2-1.7,1.1c-0.6,0.2-1.8,0-2.9,0.4c-0.5,0.2-1.1,0.1-1.3,0.8c-0.4,0.8-0.3,1.8-0.3,2.2
			c0.1,0.4,0,0.8,0,1.5c0,1,0,2.1,0.5,2.3c0.9,0.3,1.2-0.2,2.4-0.8c0.6-0.3,1.8,0.2,2.3,0.6c0.7,0.4,0.8,1.3,0.9,1.9
			c0.2,0.9-0.5,1.7-0.9,2C413.3,105.9,412.9,106.6,412.1,106.7z M443.7,122.1c-0.8,0.9-1.3,1.1-2.2,1.1c-1,0.2-1.3-0.2-2.2-0.4
			c-0.5-0.5-1-0.8-1.8-1.1c-0.9-0.5-1.8-0.9-2.3-1.7c-1-0.5-1.5-1.3-2.2-1.8c-0.6,0-0.8-0.6-1.1-1c-0.7-0.5-0.9-0.5-1.3-1.3
			c-0.6-1-1.5-0.8-2-0.4c-0.6,0.7-1.2,1.4-1.8,1.8c-0.6,0.5-0.9,1-1.3,1.5c-0.5,0.5-1.2,1.2-1.4,1.4c-0.5,0.4-0.9,0.9-1.5,1.4
			c-0.6,0.5-0.8,1-1.5,1.3c-0.7,0.7-1.2,1.1-1.6,1.3c-0.7,0.7-1.1,1.1-1.6,1.2c-0.4,0.3-1.2,0.8-1.6,1.1c-0.4,0.5-1.2,0.5-1.8,0.6
			c-1.1,0.3-1.6,0-2-0.6c-0.4-0.3-0.7-1-0.9-1.9c0-0.7,0.3-1,0.6-1.7c0.4-0.7,0.6-1,1.3-1.3c0.6-0.5,1.2-0.6,1.7-1.3
			c0.3-0.5,0.8-0.9,1.5-1.1c0.3-0.1,1.2-0.8,1.4-1.2c0.7-0.2,0.8-0.6,1.4-1.2c0.6-0.5,0.7-1.1,1.3-1.3c0.2-0.6,0.7-0.9,1.3-1.4
			c0.6-0.7,0.8-0.6,1.2-1.4c0.2-0.2,0.5-1,1.5-1.9c0.3-0.9,0.3-1.7-0.4-2.7c-0.6-0.5-0.6-1.2-1.1-2c-0.2-0.7-0.6-0.8-0.7-1.5
			c-0.3-0.2-0.6-0.6-0.7-1.4c0-0.7-0.6-1.1-0.7-1.7c-0.4-1-1.4-1.5-2-0.6c-1,0.7-1.3,0.9-2.1,0.9c-0.8,0-1.3-0.2-2-0.5
			c-0.3-0.3-1-0.9-0.9-1.8c0.2-0.8,0.4-1.6,0.6-1.9c0.2-0.6,0.8-1.4,1.2-2c0.6-0.7,0.7-1.3,1.1-2c0.2-0.7,0.7-1.2,1-1.9
			c0.6-0.7,0.7-1.6,1-2.1c0.3-0.9,0.4-1.3,0.9-2.2c0.4-0.7,0.2-1,0.7-2c-0.1-0.7,0.4-1.1,0.7-2.1c0.1-0.6,0.2-1.2,0.6-2.1
			c-0.1-0.5,0.5-1.5,0.6-2.4c0.1-0.5,0.3-1.2,1.2-1.8c0.4-0.3,1.1-0.7,1.9-0.8c1-0.2,1.7,0,2.2,0.5c0.8,0.7,1,1.1,1,1.9
			c-0.2,1.3-0.4,1.8-0.6,2.6c-0.2,0.8-0.4,1-0.6,1.8c-0.4,0.7-0.5,1.4-0.7,2c-0.1,0.8,0.3,1.2,2,1c1.2-0.1,2.3-0.4,3-0.3
			c0.6-0.2,1.4,0,2-0.2c1.3-0.1,2.8-0.1,3.9-0.4c1.3,0,2.7-0.4,4-0.4c0.9-0.2,1.4,0.3,1.7,0.7c0.4,0.6,0.4,1.2,0.6,1.8
			c0,0.9-0.3,1.3-0.6,1.9c-0.4,0.4-1.1,0.9-2.1,1.2c-1,0-2.3,0.7-2.7,2c-0.4,1.6-0.7,2.4-0.7,3c-0.4,0.6-0.5,1.9-0.6,2.4
			c-0.1,1-0.6,1.5-0.8,2.4c-0.1,1-0.8,1.5-0.8,2.4c-0.1,0.6-0.8,1.8-1,2.4c-0.6,0.6-0.7,1.7-1.5,3c-0.4,0.6-0.6,1.4-0.2,2.3
			c0.4,0.8,0.9,0.9,1.4,1.4c0.2,0.4,0.8,0.5,1.2,1.1c0.1,0.5,0.6,0.5,1.2,1c0.3,0.1,1,0.5,1.2,1c0.3,0.3,0.9,0.8,1.3,0.9
			c0.7,0.3,0.9,0.3,1.3,0.8c0.2,0.5,1,0.3,1.4,0.8c0.5,0.3,1.1,0.6,1.7,1.2c0.5,0.4,0.5,1,0.8,1.9
			C444.8,120.7,444.4,121.4,443.7,122.1z M431.6,91.1c-1.1,0.3-2.1,0.3-2.7,0.3c-0.8,0-1.4,0.3-2.7,0.3c-1,0.2-1.4,1.5-1,2.7
			c0.3,0.9,0.7,1.6,0.7,2.3c0,0.8,0.3,1.3,0.6,1.5c0.3,0.5,0.4,0.9,0.7,1.5c0.4,0.3,0.4,1.2,0.7,1.5c0.3,0.4,0.3,1.1,0.8,1.6
			c0.1,0.2,0.2,0.3,0.5,0.3c0.4-0.1,0.9-0.5,1.2-1.5c0.2-0.5,0.3-1.4,0.7-1.9c0.4-0.8,0.3-0.9,0.6-1.6c0.1-0.6,0.2-1.1,0.5-1.8
			c0.3-0.5,0.4-1.1,0.6-2.6C433.3,91.8,432.6,91.1,431.6,91.1z"/>
	</g>
</g>
</svg>
