<svg xmlns="http://www.w3.org/2000/svg" xmlns:xlink="http://www.w3.org/1999/xlink" preserveAspectRatio="xMidYMid meet" width="786" height="676" viewBox="0 0 786 676" style="width:100%;height:100%"><defs><animateTransform repeatCount="indefinite" dur="1.9950125s" begin="0s" xlink:href="#_R_G_L_6_G" fill="freeze" attributeName="transform" from="0" to="0" type="rotate" additive="sum" keyTimes="0;0.25;0.4999999;0.7499999;1" values="0;31;0;31;0" keySplines="0.167 0.167 0.833 0.833;0.167 0.167 0.833 0.833;0.167 0.167 0.833 0.833;0.167 0.167 0.833 0.833" calcMode="spline"/><animateTransform repeatCount="indefinite" dur="1.9950125s" begin="0s" xlink:href="#_R_G_L_6_G" fill="freeze" attributeName="transform" from="-698 -496" to="-698 -496" type="translate" additive="sum" keyTimes="0;1" values="-698 -496;-698 -496" keySplines="0 0 1 1" calcMode="spline"/><animateTransform repeatCount="indefinite" dur="1.9950125s" begin="0s" xlink:href="#_R_G_L_4_G" fill="freeze" attributeName="transform" from="0" to="0" type="rotate" additive="sum" keyTimes="0;0.25;0.4999999;0.7499999;1" values="0;70;0;70;0" keySplines="0.167 0.167 0.833 0.833;0.167 0.167 0.833 0.833;0.167 0.167 0.833 0.833;0.167 0.167 0.833 0.833" calcMode="spline"/><animateTransform repeatCount="indefinite" dur="1.9950125s" begin="0s" xlink:href="#_R_G_L_4_G" fill="freeze" attributeName="transform" from="-222 -672" to="-222 -672" type="translate" additive="sum" keyTimes="0;1" values="-222 -672;-222 -672" keySplines="0 0 1 1" calcMode="spline"/><animateTransform repeatCount="indefinite" dur="1.9950125s" begin="0s" xlink:href="#_R_G_L_4_G_N_4_T_0" fill="freeze" attributeName="transform" from="0" to="0" type="rotate" additive="sum" keyTimes="0;0.25;0.4999999;0.7499999;1" values="0;-30;0;-30;0" keySplines="0.167 0.167 0.833 0.833;0.167 0.167 0.833 0.833;0.167 0.167 0.833 0.833;0.167 0.167 0.833 0.833" calcMode="spline"/><animateTransform repeatCount="indefinite" dur="1.9950125s" begin="0s" xlink:href="#_R_G_L_4_G_N_4_T_0" fill="freeze" attributeName="transform" from="-372 -582" to="-372 -582" type="translate" additive="sum" keyTimes="0;1" values="-372 -582;-372 -582" keySplines="0 0 1 1" calcMode="spline"/><animateTransform repeatCount="indefinite" dur="1.9950125s" begin="0s" xlink:href="#_R_G_L_3_G" fill="freeze" attributeName="transform" from="0" to="0" type="rotate" additive="sum" keyTimes="0;0.25;0.4999999;0.7499999;1" values="0;-30;0;-30;0" keySplines="0.167 0.167 0.833 0.833;0.167 0.167 0.833 0.833;0.167 0.167 0.833 0.833;0.167 0.167 0.833 0.833" calcMode="spline"/><animateTransform repeatCount="indefinite" dur="1.9950125s" begin="0s" xlink:href="#_R_G_L_3_G" fill="freeze" attributeName="transform" from="-372 -582" to="-372 -582" type="translate" additive="sum" keyTimes="0;1" values="-372 -582;-372 -582" keySplines="0 0 1 1" calcMode="spline"/><animateTransform repeatCount="indefinite" dur="1.9950125s" begin="0s" xlink:href="#_R_G_L_2_G" fill="freeze" attributeName="transform" from="0" to="0" type="rotate" additive="sum" keyTimes="0;0.25;0.4999999;0.7499999;1" values="0;-18;0;-18;0" keySplines="0.167 0.167 0.833 0.833;0.167 0.167 0.833 0.833;0.167 0.167 0.833 0.833;0.167 0.167 0.833 0.833" calcMode="spline"/><animateTransform repeatCount="indefinite" dur="1.9950125s" begin="0s" xlink:href="#_R_G_L_2_G" fill="freeze" attributeName="transform" from="-350 -438" to="-350 -438" type="translate" additive="sum" keyTimes="0;1" values="-350 -438;-350 -438" keySplines="0 0 1 1" calcMode="spline"/><animateTransform repeatCount="indefinite" dur="1.9950125s" begin="0s" xlink:href="#_R_G_L_1_G" fill="freeze" attributeName="transform" from="0" to="0" type="rotate" additive="sum" keyTimes="0;0.25;0.4999999;0.7499999;1" values="0;-10;0;-10;0" keySplines="0.167 0.167 0.833 0.833;0.167 0.167 0.833 0.833;0.167 0.167 0.833 0.833;0.167 0.167 0.833 0.833" calcMode="spline"/><animateTransform repeatCount="indefinite" dur="1.9950125s" begin="0s" xlink:href="#_R_G_L_1_G" fill="freeze" attributeName="transform" from="-302 -354" to="-302 -354" type="translate" additive="sum" keyTimes="0;1" values="-302 -354;-302 -354" keySplines="0 0 1 1" calcMode="spline"/><animateTransform repeatCount="indefinite" dur="1.9950125s" begin="0s" xlink:href="#_R_G_L_1_G_N_3_T_0" fill="freeze" attributeName="transform" from="0" to="0" type="rotate" additive="sum" keyTimes="0;0.25;0.4999999;0.7499999;1" values="0;-18;0;-18;0" keySplines="0.167 0.167 0.833 0.833;0.167 0.167 0.833 0.833;0.167 0.167 0.833 0.833;0.167 0.167 0.833 0.833" calcMode="spline"/><animateTransform repeatCount="indefinite" dur="1.9950125s" begin="0s" xlink:href="#_R_G_L_1_G_N_3_T_0" fill="freeze" attributeName="transform" from="-350 -438" to="-350 -438" type="translate" additive="sum" keyTimes="0;1" values="-350 -438;-350 -438" keySplines="0 0 1 1" calcMode="spline"/><animate attributeType="XML" attributeName="opacity" dur="2s" from="0" to="1" xlink:href="#time_group"/></defs><g id="_R_G"><g id="_R_G_L_6_G" transform=" translate(579, 300)"><path id="_R_G_L_6_G_D_0_P_0" fill="#9a693f" fill-opacity="1" fill-rule="nonzero" d=" M872.88 601.65 C854.09,595.67 810.49,440.93 711.43,475.62 C689.08,483.45 685.06,498.64 687.65,499.03 C694.67,500.09 695.91,483.92 718.11,485.02 C765.65,487.37 798.19,627.26 833.3,645.81 C867.77,664.01 898.56,612.99 897.38,584.97 C897.38,584.97 890.03,607.11 872.88,601.65z "/><path id="_R_G_L_6_G_D_1_P_0" fill="#815738" fill-opacity="1" fill-rule="nonzero" d=" M722.95 481.42 C770.61,483.3 802.68,609.03 837.87,627.24 C863.31,640.41 886.86,616.42 897.08,591.71 C893.84,620.35 858.91,669 827.06,652.18 C791.95,633.63 766.55,492.29 719.01,489.94 C696.82,488.84 694.67,500.09 687.65,499.03 C687.39,498.99 687.22,498.77 687.11,498.46 C694.89,491.76 706.12,480.75 722.95,481.42z "/></g><g id="_R_G_L_5_G" transform=" translate(291, 284) translate(-410, -480)"><path id="_R_G_L_5_G_D_0_P_0" fill="#9e653e" fill-opacity="1" fill-rule="nonzero" d=" M353.46 644.39 C359.27,664.84 358.72,711.22 359.21,733.91 C359.33,739.6 364.65,743.73 370.2,742.45 C370.2,742.45 383.12,739.48 383.12,739.48 C383.12,739.48 399.63,647.31 420.31,618.75 C420.31,618.75 353.46,644.39 353.46,644.39z "/><path id="_R_G_L_5_G_D_1_P_0" fill="#9e653e" fill-opacity="1" fill-rule="nonzero" d=" M359.71 742.26 C351.77,721.51 362.89,710.1 371.35,703.74 C387.54,691.57 392.83,702.6 393.23,712.32 C393.77,725.23 370.43,770.29 359.71,742.26z "/><path id="_R_G_L_5_G_D_2_P_0" fill="#9e653e" fill-opacity="1" fill-rule="nonzero" d=" M348.05 825.92 C348.05,825.92 372.49,801.84 357.19,726.24 C357.19,726.24 386.78,730.51 386.78,730.51 C374.56,755.02 370.65,826.49 372.45,838.53 C372.45,838.53 348.05,825.92 348.05,825.92z "/><path id="_R_G_L_5_G_D_3_P_0" fill="#b3794f" fill-opacity="1" fill-rule="nonzero" d=" M338.73 859.24 C338.51,841.81 345.96,822.86 353.32,819.37 C361.68,815.4 372.89,819.51 376.94,829.68 C379.76,836.75 382.29,850.56 383.71,859.24 C383.71,859.24 338.73,859.24 338.73,859.24z "/><path id="_R_G_L_5_G_D_4_P_0" fill="#9e653e" fill-opacity="1" fill-rule="nonzero" d=" M306.68 559.07 C310.55,589.81 337.85,678.62 359.72,687.76 C381.58,696.91 439.07,664.43 471.25,637.07 C503.44,609.71 306.68,559.07 306.68,559.07z "/><path id="_R_G_L_5_G_D_5_P_0" fill="#9e653e" fill-opacity="1" fill-rule="nonzero" d=" M616.96 701.92 C579.24,680.1 517.89,611.75 545.47,546.42 C573.05,481.09 677.87,431.05 687.83,499.74 C697.78,568.42 665.1,603.61 633.43,645.95 C622.74,660.24 616.96,701.92 616.96,701.92z "/><path id="_R_G_L_5_G_D_6_P_0" fill="#9e653e" fill-opacity="1" fill-rule="nonzero" d=" M604.71 709.72 C610.73,699.33 622.89,701.7 633.7,706.57 C636.94,708.02 643.12,715.92 643,719.47 C642.36,738.46 626.16,775.89 618.38,826.86 C618.38,826.86 588.94,820.91 588.94,820.91 C617.42,766.99 611.89,721.17 604.71,709.72z "/><path id="_R_G_L_5_G_D_7_P_0" fill="#9e653e" fill-opacity="1" fill-rule="nonzero" d=" M562.07 648.9 C579.48,682.6 608.17,708.2 609.22,724.85 C609.45,728.51 623.66,733.84 632.4,729.87 C636.47,728.03 638.87,723.2 640.18,719.39 C641.18,716.5 640.49,713.3 638.43,711.04 C629.9,701.71 607.57,672.8 618.36,635.63 C623.19,619 562.07,648.9 562.07,648.9z "/><path id="_R_G_L_5_G_D_8_P_0" fill="#b3794f" fill-opacity="1" fill-rule="nonzero" d=" M569.45 856.16 C573.48,836.95 588.43,814.45 598.81,810.41 C610.13,806 621.56,811.12 622.61,822.33 C623.44,831.21 620.86,849.11 619.76,856.16 C619.76,856.16 569.45,856.16 569.45,856.16z "/><path id="_R_G_L_5_G_D_9_P_0" fill="#9e653e" fill-opacity="1" fill-rule="nonzero" d=" M618.12 736.34 C604.09,732.33 603.2,713.19 609.55,708.67 C624.34,698.13 635.5,700.17 640.92,705.14 C648.12,711.73 645.17,744.07 618.12,736.34z "/><path id="_R_G_L_5_G_D_10_P_0" fill="#d5a22f" fill-opacity="1" fill-rule="nonzero" d=" M210.07 356.85 C242.9,351.69 308.65,411.88 340.76,408.6 C393.58,403.19 461.02,342.72 492.6,355.44 C492.6,355.44 491.05,367.56 491.05,367.56 C462.08,356.33 368.03,450.18 301.02,411.06 C233.53,371.65 219.38,366.37 203.75,366.44 C203.75,366.44 210.07,356.85 210.07,356.85z "/><path id="_R_G_L_5_G_D_11_P_0" fill="#ebb174" fill-opacity="1" fill-rule="nonzero" d=" M418.1 402.92 C428.69,430.38 429.68,454.23 425.47,463.31 C421.54,471.76 371.05,492.1 341.74,493.27 C279.13,495.78 283.4,483.04 285.08,455.39 C285.88,442.28 285.87,429.27 283.46,413.95 C281.04,398.63 316.42,393.15 350.06,389.27 C412.26,382.09 418.1,402.92 418.1,402.92z "/><path id="_R_G_L_5_G_D_12_P_0" fill="#ebb174" fill-opacity="1" fill-rule="nonzero" d=" M284.22 485.05 C282.49,510.28 284.06,528.88 282.5,549.19 C276.67,625.34 387.24,701.35 517.54,649.55 C554.39,634.9 618.89,625.59 641.77,646.39 C678.55,679.83 747.03,538.14 698.27,486.9 C652.25,438.55 601.81,465.01 565.12,479.52 C493.15,507.97 431.53,453.47 416.24,414.43 C406.25,389.1 346.29,409.3 324.89,418.26 C296.27,430.25 285.89,446.8 284.22,485.05z "/><path id="_R_G_L_5_G_D_13_P_0" fill="#b3794f" fill-opacity="1" fill-rule="nonzero" d=" M545.91 578.99 C596.48,566.34 601.33,501.78 599.72,466.11 C587.34,470.19 575.66,475.35 565.12,479.52 C504.53,503.47 451.29,468.64 426.83,433.73 C429.24,545.27 466.38,598.88 545.91,578.99z "/><path id="_R_G_L_5_G_D_14_P_0" fill="#cc3c3c" fill-opacity="1" fill-rule="nonzero" d=" M590.39 466.42 C592.37,493.47 590.4,560.84 537.94,572.38 C468.06,587.76 437.07,540.17 438.13,444.48 C438.13,444.48 443.56,445.27 443.56,445.27 C443.56,445.27 446.68,454.47 446.68,454.47 C498.72,476.79 531.45,479.26 582.99,469.96 C582.99,469.96 585.85,465.77 585.85,465.77 C585.85,465.77 590.39,466.42 590.39,466.42z "/><path id="_R_G_L_5_G_D_15_P_0" fill="#ffcf56" fill-opacity="1" fill-rule="nonzero" d=" M444.55 445.08 C444.55,445.08 448.81,455.34 448.81,455.34 C448.94,455.39 449.07,455.44 449.2,455.5 C452.04,537.08 476.68,576.78 534.51,562.01 C574.31,551.84 580.79,502.9 580.55,470.4 C580.55,470.4 586.6,463.28 586.6,463.28 C586.6,463.28 590.24,463.28 590.24,463.28 C593.29,490.07 590.79,562.52 538.34,574.06 C468.45,589.44 437.07,540.17 438.13,444.48 C438.13,444.48 444.55,445.08 444.55,445.08z "/><path id="_R_G_L_5_G_D_16_P_0" fill="#cc3c3c" fill-opacity="1" fill-rule="nonzero" d=" M448.67 481.46 C448.67,483.13 447.32,484.48 445.65,484.48 C443.98,484.48 442.63,483.13 442.63,481.46 C442.63,479.79 443.98,478.44 445.65,478.44 C447.32,478.44 448.67,479.79 448.67,481.46z "/><path id="_R_G_L_5_G_D_17_P_0" fill="#cc3c3c" fill-opacity="1" fill-rule="nonzero" d=" M446.93 456.57 C446.93,458.23 445.58,459.59 443.91,459.59 C442.25,459.59 440.9,458.23 440.9,456.57 C440.9,454.9 442.25,453.55 443.91,453.55 C445.58,453.55 446.93,454.9 446.93,456.57z "/><path id="_R_G_L_5_G_D_18_P_0" fill="#cc3c3c" fill-opacity="1" fill-rule="nonzero" d=" M452.42 507.33 C452.42,508.99 451.07,510.34 449.4,510.34 C447.74,510.34 446.38,508.99 446.38,507.33 C446.38,505.66 447.74,504.31 449.4,504.31 C451.07,504.31 452.42,505.66 452.42,507.33z "/><path id="_R_G_L_5_G_D_19_P_0" fill="#cc3c3c" fill-opacity="1" fill-rule="nonzero" d=" M461.15 533.66 C461.15,535.33 459.79,536.68 458.13,536.68 C456.46,536.68 455.11,535.33 455.11,533.66 C455.11,532 456.46,530.64 458.13,530.64 C459.79,530.64 461.15,532 461.15,533.66z "/><path id="_R_G_L_5_G_D_20_P_0" fill="#cc3c3c" fill-opacity="1" fill-rule="nonzero" d=" M476.47 555.14 C476.47,556.81 475.11,558.16 473.45,558.16 C471.78,558.16 470.43,556.81 470.43,555.14 C470.43,553.47 471.78,552.12 473.45,552.12 C475.11,552.12 476.47,553.47 476.47,555.14z "/><path id="_R_G_L_5_G_D_21_P_0" fill="#cc3c3c" fill-opacity="1" fill-rule="nonzero" d=" M498.73 568.39 C498.73,570.06 497.38,571.41 495.72,571.41 C494.05,571.41 492.7,570.06 492.7,568.39 C492.7,566.73 494.05,565.37 495.72,565.37 C497.38,565.37 498.73,566.73 498.73,568.39z "/><path id="_R_G_L_5_G_D_22_P_0" fill="#cc3c3c" fill-opacity="1" fill-rule="nonzero" d=" M524.47 570.41 C524.47,572.08 523.12,573.43 521.45,573.43 C519.78,573.43 518.43,572.08 518.43,570.41 C518.43,568.74 519.78,567.39 521.45,567.39 C523.12,567.39 524.47,568.74 524.47,570.41z "/><path id="_R_G_L_5_G_D_23_P_0" fill="#cc3c3c" fill-opacity="1" fill-rule="nonzero" d=" M548.34 565.09 C548.34,566.76 546.99,568.11 545.33,568.11 C543.66,568.11 542.31,566.76 542.31,565.09 C542.31,563.42 543.66,562.07 545.33,562.07 C546.99,562.07 548.34,563.42 548.34,565.09z "/><path id="_R_G_L_5_G_D_24_P_0" fill="#cc3c3c" fill-opacity="1" fill-rule="nonzero" d=" M568.63 550.37 C568.63,552.04 567.28,553.39 565.61,553.39 C563.94,553.39 562.59,552.04 562.59,550.37 C562.59,548.7 563.94,547.35 565.61,547.35 C567.28,547.35 568.63,548.7 568.63,550.37z "/><path id="_R_G_L_5_G_D_25_P_0" fill="#cc3c3c" fill-opacity="1" fill-rule="nonzero" d=" M580.61 528.79 C580.61,530.46 579.26,531.81 577.6,531.81 C575.93,531.81 574.58,530.46 574.58,528.79 C574.58,527.12 575.93,525.77 577.6,525.77 C579.26,525.77 580.61,527.12 580.61,528.79z "/><path id="_R_G_L_5_G_D_26_P_0" fill="#cc3c3c" fill-opacity="1" fill-rule="nonzero" d=" M587.1 504.1 C587.1,505.76 585.75,507.11 584.08,507.11 C582.41,507.11 581.06,505.76 581.06,504.1 C581.06,502.43 582.41,501.08 584.08,501.08 C585.75,501.08 587.1,502.43 587.1,504.1z "/><path id="_R_G_L_5_G_D_27_P_0" fill="#cc3c3c" fill-opacity="1" fill-rule="nonzero" d=" M588.9 479.74 C588.9,481.41 587.55,482.76 585.88,482.76 C584.22,482.76 582.87,481.41 582.87,479.74 C582.87,478.08 584.22,476.72 585.88,476.72 C587.55,476.72 588.9,478.08 588.9,479.74z "/><path id="_R_G_L_5_G_D_28_P_0" fill="#b3794f" fill-opacity="1" fill-rule="nonzero" d=" M517.54 649.54 C554.39,634.89 618.89,625.59 641.77,646.39 C653.18,656.76 667.65,650.27 680.71,634.86 C674.73,636.32 671.1,607.84 665.95,603.16 C643.07,582.36 635.6,592.85 545.07,624.2 C422.77,666.56 290.92,613.85 285.7,521.68 C285.17,512.41 284.22,506.77 283.42,504.1 C283.11,520.39 283.64,534.34 282.5,549.19 C276.67,625.34 387.24,701.35 517.54,649.54z "/><path id="_R_G_L_5_G_D_29_P_0" fill="#b3794f" fill-opacity="1" fill-rule="nonzero" d=" M640.64 505.46 C561.31,511.5 571.05,604.1 576.65,635.39 C591.07,633.86 605.21,633.81 617.18,635.93 C617.18,635.93 618.36,635.63 618.36,635.63 C618.36,635.63 640.64,505.46 640.64,505.46z "/><path id="_R_G_L_5_G_D_30_P_0" fill="#ebb174" fill-opacity="1" fill-rule="nonzero" d=" M705.49 712.72 C662.06,704.12 579.04,659.25 580.16,589.16 C581.27,519.08 644.08,443.21 697.41,489.87 C735.99,523.63 713.36,605.16 699.77,654.94 C695.18,671.73 705.49,712.72 705.49,712.72z "/><path id="_R_G_L_5_G_D_31_P_0" fill="#b3794f" fill-opacity="1" fill-rule="nonzero" d=" M705.39 716.54 C710.41,709.42 719.96,711.17 728.37,714.88 C735.93,718.22 739.93,726.55 738,734.59 C732.95,755.61 717.17,790.87 706.38,834.51 C706.38,834.51 680.05,823.66 680.05,823.66 C711.38,775.23 710.83,729.05 705.39,716.54z "/><path id="_R_G_L_5_G_D_32_P_0" fill="#ebb174" fill-opacity="1" fill-rule="nonzero" d=" M640.13 684.27 C679.17,708.13 702.68,721.17 709.73,736.5 C714.44,746.76 726,737.38 733.19,730.54 C735.55,728.29 734.7,716.15 732.24,714 C722.56,705.55 700.9,682.94 696.73,646.79 C694.76,629.66 640.13,684.27 640.13,684.27z "/><path id="_R_G_L_5_G_D_33_P_0" fill="#f8bc86" fill-opacity="1" fill-rule="nonzero" d=" M660.85 864.83 C663.21,845.7 675.41,823.29 684.7,819.27 C694.84,814.88 705.75,819.97 707.51,831.14 C708.91,839.99 707.8,857.81 707.28,864.83 C707.28,864.83 660.85,864.83 660.85,864.83z "/><path id="_R_G_L_5_G_D_34_P_0" fill="#ebb174" fill-opacity="1" fill-rule="nonzero" d=" M718.82 746.47 C705.2,743.7 701.34,724.18 706.5,718.94 C718.52,706.74 729.16,707.77 734.96,712.34 C742.67,718.41 745.06,751.81 718.82,746.47z "/></g><g id="_R_G_L_4_G_N_4_N_6_T_0" transform=" translate(291, 284) translate(-410, -480)"><g id="_R_G_L_4_G_N_4_T_0" transform=" translate(372, 582)"><g id="_R_G_L_4_G" transform=" translate(222, 672)"><path id="_R_G_L_4_G_D_0_P_0" fill="#b3794f" fill-opacity="1" fill-rule="nonzero" d=" M254.36 767.24 C254.36,767.24 227.45,741.24 234.56,660.68 C234.56,660.68 205.58,664.91 205.58,664.91 C220.36,691.22 231.93,767.59 231.43,780.43 C231.43,780.43 254.36,767.24 254.36,767.24z "/><path id="_R_G_L_4_G_D_1_P_0" fill="#f8bc86" fill-opacity="1" fill-rule="nonzero" d=" M257.97 819.95 C243.03,809.46 229.63,785.08 231.16,774.62 C232.69,764.15 241.77,757.84 251.07,762.04 C260.37,766.23 278.61,780.9 278.61,780.9 C278.61,780.9 268.73,812.09 257.97,819.95z "/></g></g></g><g id="_R_G_L_3_G_N_6_T_0" transform=" translate(291, 284) translate(-410, -480)"><g id="_R_G_L_3_G" transform=" translate(372, 582)"><path id="_R_G_L_3_G_D_0_P_0" fill="#ebb174" fill-opacity="1" fill-rule="nonzero" d=" M302 516.95 C292.59,546.38 283.3,627.23 299.15,645.34 C315,663.45 403.66,655.27 437.49,640.17 C457.83,631.11 435.73,574.03 394.01,543.83 C357.62,517.47 302,516.95 302,516.95z "/><path id="_R_G_L_3_G_D_1_P_0" fill="#ebb174" fill-opacity="1" fill-rule="nonzero" d=" M324.58 610.6 C303.01,620.88 242.71,627.64 231.66,630.87 C231.66,630.87 242.95,652.35 242.95,652.35 C242.95,652.35 330.95,655.17 376.08,654.02 C376.08,654.02 324.58,610.6 324.58,610.6z "/><path id="_R_G_L_3_G_D_2_P_0" fill="#ebb174" fill-opacity="1" fill-rule="nonzero" d=" M205.53 668.09 C199.87,650.7 214.47,630.31 229.14,628.77 C248.22,626.77 249.8,644.38 244.64,651.21 C239.47,658.05 213.52,692.63 205.53,668.09z "/></g></g><g id="_R_G_L_2_G_N_6_T_0" transform=" translate(291, 284) translate(-410, -480)"><g id="_R_G_L_2_G" transform=" translate(350, 438)"><path id="_R_G_L_2_G_D_0_P_0" fill="#ebb174" fill-opacity="1" fill-rule="nonzero" d=" M285.61 428.67 C282.47,381.14 290.84,375.5 263.44,341.35 C224.06,292.27 261.21,235.34 308.32,255.08 C373.18,282.28 409.74,363.84 419.17,397.08 C431.24,439.58 281.78,461.5 285.61,428.67z "/><path id="_R_G_L_2_G_D_1_P_0" fill="#b3794f" fill-opacity="1" fill-rule="nonzero" d=" M335.88 282.57 C335.04,280.17 334.4,275.06 333.33,269.06 C325.51,263.57 317.19,258.8 308.32,255.08 C261.21,235.34 224.06,292.27 263.44,341.35 C279.18,360.97 283.11,371.19 284.2,385.35 C284.2,385.35 284.2,385.35 284.2,385.35 C312.73,362.52 341.95,299.98 335.88,282.57z "/><path id="_R_G_L_2_G_D_2_P_0" fill="#b3794f" fill-opacity="1" fill-rule="nonzero" d=" M340.9 274.72 C334.66,273.98 328.22,274.53 321.63,276.65 C327.69,286.31 329.78,296.88 333.05,309.16 C346.05,358.02 361.93,393.15 419.75,400.18 C419.64,399.16 419.47,398.13 419.17,397.08 C411.46,369.89 385.57,310.37 340.9,274.72z "/><path id="_R_G_L_2_G_D_3_P_0" fill="#9a693f" fill-opacity="1" fill-rule="nonzero" d=" M333.52 297.06 C350.36,350.5 370.61,398.56 434.77,396.47 C413.89,381.97 386.59,344.8 390.96,307.01 C394.88,273.08 362.28,259.24 344.92,256.74 C321.35,253.35 318.29,248.73 333.52,297.06z "/><path id="_R_G_L_2_G_D_4_P_0" fill="#815738" fill-opacity="1" fill-rule="nonzero" d=" M434.77 396.47 C434.45,396.3 434.14,396.1 433.82,395.92 C390.67,379.62 361.44,344.17 333.59,297.3 C350.42,350.65 370.71,398.55 434.77,396.47z "/><path id="_R_G_L_2_G_D_5_P_0" fill="#9a693f" fill-opacity="1" fill-rule="nonzero" d=" M402.24 327.74 C403.59,343.53 413.44,367.12 432.56,370.24 C432.56,370.24 410.25,378.4 392.91,364.42 C384.78,357.86 370.89,334.64 372.28,329.31 C380.3,298.7 400.55,308.07 402.24,327.74z "/></g></g><g id="_R_G_L_1_G_N_3_N_6_T_0" transform=" translate(291, 284) translate(-410, -480)"><g id="_R_G_L_1_G_N_3_T_0" transform=" translate(350, 438)"><g id="_R_G_L_1_G" transform=" translate(302, 354)"><path id="_R_G_L_1_G_D_0_P_0" fill="#9a693f" fill-opacity="1" fill-rule="nonzero" d=" M214.04 251.72 C204.1,254.85 187.43,266.07 178.17,265.15 C178.17,265.15 188.64,273.97 205.12,277.17 C212.84,278.68 220.35,269.17 221.09,265.34 C222.57,257.76 228.26,247.24 214.04,251.72z "/><path id="_R_G_L_1_G_D_1_P_0" fill="#b3794f" fill-opacity="1" fill-rule="nonzero" d=" M232.76 276.48 C223.4,251.73 230.74,221.43 241.17,199.11 C244.52,191.92 265.51,238.27 254.8,267.1 C254.8,267.1 232.76,276.48 232.76,276.48z "/><path id="_R_G_L_1_G_D_2_P_0" fill="#aa7f59" fill-opacity="1" fill-rule="nonzero" d=" M271.56 368.99 C247.75,380.59 226.45,421.21 213.93,423.56 C201.41,425.9 188.51,409.27 188.51,409.27 C188.51,409.27 252.06,354.53 252.06,354.53 C252.06,354.53 271.56,368.99 271.56,368.99z "/><path id="_R_G_L_1_G_D_3_P_0" fill="#ebb174" fill-opacity="1" fill-rule="nonzero" d=" M166.21 394.31 C167.33,381.7 180.02,375.69 183.72,370.91 C199.07,351.09 197.17,334.3 198.5,325.21 C199.8,316.34 196.68,283.15 248.39,258.42 C291.52,237.79 317.67,263.14 325.16,272.12 C326.62,273.87 327.54,276.02 327.79,278.29 C333.63,332.52 307.91,375.45 252.43,376.55 C241.33,376.77 233.73,401.07 213.25,411.45 C210.28,421 198.95,427.1 195.33,425.92 C191.71,424.73 164.75,410.66 166.21,394.31z "/><path id="_R_G_L_1_G_D_4_P_0" fill="#b3794f" fill-opacity="1" fill-rule="nonzero" d=" M325.16 272.12 C318.14,263.71 294.74,240.92 256.34,255.05 C286.66,257.86 310.42,272.29 328.53,296.82 C328.7,290.83 328.47,284.64 327.79,278.29 C327.54,276.02 326.62,273.87 325.16,272.12z "/><path id="_R_G_L_1_G_D_5_P_0" fill="#b3794f" fill-opacity="1" fill-rule="nonzero" d=" M237.29 272.84 C226.2,283.07 213.59,318.82 198.54,332.2 C193.11,298.45 209.9,276.82 248.39,258.42 C273.85,246.24 293.39,250.09 306.67,257.14 C283.34,259.17 261.48,250.55 237.29,272.84z "/><path id="_R_G_L_1_G_D_6_P_0" fill="#b3794f" fill-opacity="1" fill-rule="nonzero" d=" M213.25 411.45 C227.37,403.45 250.65,368.54 245.89,363.28 C273.01,378.58 331.02,326.66 325.3,272.29 C325.31,272.31 325.33,272.33 325.34,272.34 C326.68,273.97 327.53,275.96 327.76,278.06 C333.74,332.46 309.04,377.29 253.48,378.39 C248.32,383.66 225.82,419.4 198.02,425.85 C202.86,423.62 206.85,415.08 213.25,411.45z "/><path id="_R_G_L_1_G_D_7_P_0" fill="#ffcf56" fill-opacity="1" fill-rule="nonzero" d=" M191.23 358.64 C230.82,351.45 281.88,421.28 317.92,426.5 C376.47,434.97 461.29,342.57 492.35,355.67 C492.35,355.67 490.99,368.12 490.99,368.12 C462.48,356.67 358.55,477.93 285.47,426.34 C212.39,374.75 202.76,369.41 183.6,370.18 C183.6,370.18 191.23,358.64 191.23,358.64z "/><path id="_R_G_L_1_G_D_8_P_0" fill="#ffcf56" fill-opacity="1" fill-rule="nonzero" d=" M301.71 257.61 C301.71,257.61 307.27,263.43 307.27,263.43 C307.27,263.43 308.48,336.82 249.34,387.95 C249.34,387.95 240.78,381.63 240.78,381.63 C240.78,381.63 291.85,334.69 301.71,257.61z "/><path id="_R_G_L_1_G_D_9_P_0" fill="#ffcf56" fill-opacity="1" fill-rule="nonzero" d=" M248.96 389.65 C249.85,396.9 244.68,403.5 237.43,404.39 C230.17,405.27 223.57,400.11 222.69,392.85 C221.8,385.6 226.97,379 234.22,378.12 C241.48,377.23 248.08,382.4 248.96,389.65z "/><path id="_R_G_L_1_G_D_10_P_0" fill="#d5a22f" fill-opacity="1" fill-rule="nonzero" d=" M241.77 390.53 C242.17,393.81 239.83,396.79 236.55,397.19 C233.27,397.6 230.28,395.26 229.88,391.98 C229.48,388.7 231.82,385.71 235.1,385.31 C238.38,384.91 241.37,387.25 241.77,390.53z "/><path id="_R_G_L_1_G_D_11_P_0" fill="#9a693f" fill-opacity="1" fill-rule="nonzero" d=" M256.71 242.14 C225.37,246.2 199.62,249.57 184.34,278.19 C172.86,299.69 171.39,327.5 164,340.29 C164,340.29 197.2,332.81 206.66,310.99 C216.12,289.16 232.95,264.33 252.83,259.73 C272.71,255.12 256.71,242.14 256.71,242.14z "/><path id="_R_G_L_1_G_D_12_P_0" fill="#815738" fill-opacity="1" fill-rule="nonzero" d=" M206.66 310.99 C216.12,289.16 232.95,264.33 252.83,259.73 C272.71,255.12 256.71,242.14 256.71,242.14 C252.32,242.71 248.04,243.27 243.89,243.88 C226.17,254.59 217.31,287.24 198.49,311.44 C188.25,324.59 175.49,333.71 164.22,339.85 C164.15,339.99 164.08,340.15 164,340.29 C164,340.29 197.2,332.81 206.66,310.99z "/><path id="_R_G_L_1_G_D_13_P_0" fill="#9a693f" fill-opacity="1" fill-rule="nonzero" d=" M327.79 288.49 C312.05,268.57 282.75,252.77 261.36,251.85 C291.18,219.43 328.53,234.8 339.63,243.52 C364.22,262.83 339.75,303.62 327.79,288.49z "/><path id="_R_G_L_1_G_D_14_P_0" fill="#ebb174" fill-opacity="1" fill-rule="nonzero" d=" M248.24 268.83 C246.92,241.51 263.09,214.51 279.75,196.34 C285.12,190.48 290.89,242.83 271.98,267.25 C271.98,267.25 248.24,268.83 248.24,268.83z "/><path id="_R_G_L_1_G_D_15_P_0" fill="#77604d" fill-opacity="1" fill-rule="nonzero" d=" M252.74 263.44 C252.48,243.17 264.84,223.07 277.33,209.51 C281.35,205.14 284.18,243.96 269.91,262.17 C269.91,262.17 252.74,263.44 252.74,263.44z "/><path id="_R_G_L_1_G_D_16_P_0" fill="#77604d" fill-opacity="1" fill-rule="nonzero" d=" M173.97 401.46 C176.5,407.96 177.81,401.18 180.38,394.68 C182.3,389.83 187.02,387.13 184.55,386.01 C178.77,383.39 168.88,388.39 173.97,401.46z "/><path id="_R_G_L_1_G_D_17_P_0" fill="#484443" fill-opacity="1" fill-rule="nonzero" d=" M251.1 313.34 C251,313.8 250.78,314.19 250.44,314.52 C248.99,315.92 244.76,319.77 242.87,318.72 C240.98,317.66 242.01,312.04 242.44,310.07 C242.54,309.61 242.76,309.21 243.1,308.89 C244.55,307.48 248.78,303.64 250.67,304.69 C252.57,305.74 251.53,311.36 251.1,313.34z "/></g></g></g><g id="_R_G_L_0_G_N_6_T_0" transform=" translate(291, 284) translate(-410, -480)"><g id="_R_G_L_0_G"><path id="_R_G_L_0_G_D_0_P_0" stroke="#f5751d" stroke-linecap="round" stroke-linejoin="round" fill="none" stroke-width="5.691" stroke-opacity="1" d=" M283.42 483 C277.65,528.06 384.44,552.95 426.83,435.98 "/><path id="_R_G_L_0_G_D_1_P_0" fill="#f5751d" fill-opacity="1" fill-rule="nonzero" d=" M426.99 442.6 C426.99,442.6 432.48,472.18 432.48,472.18 C432.48,472.18 411.97,469.09 411.97,469.09 C411.97,469.09 426.99,442.6 426.99,442.6z "/><path id="_R_G_L_0_G_D_2_P_0" fill="#f5751d" fill-opacity="1" fill-rule="nonzero" d=" M411.97 472.47 C411.97,472.47 411.91,502.63 411.91,502.63 C411.91,502.63 392.37,495.21 392.37,495.21 C392.37,495.21 411.97,472.47 411.97,472.47z "/><path id="_R_G_L_0_G_D_3_P_0" fill="#f5751d" fill-opacity="1" fill-rule="nonzero" d=" M391.42 496.47 C391.42,496.47 387.46,528 387.46,528 C387.46,528 367.09,513.03 367.09,513.03 C367.09,513.03 391.42,496.47 391.42,496.47z "/><path id="_R_G_L_0_G_D_4_P_0" fill="#f5751d" fill-opacity="1" fill-rule="nonzero" d=" M365.04 513.48 C365.04,513.48 353.96,542.96 353.96,542.96 C353.96,542.96 337.67,522.99 337.67,522.99 C337.67,522.99 365.04,513.48 365.04,513.48z "/><path id="_R_G_L_0_G_D_5_P_0" fill="#f5751d" fill-opacity="1" fill-rule="nonzero" d=" M336.71 522.11 C336.71,522.11 319.8,544.69 319.8,544.69 C319.8,544.69 308.13,518.6 308.13,518.6 C308.13,518.6 336.71,522.11 336.71,522.11z "/><path id="_R_G_L_0_G_D_6_P_0" fill="#f5751d" fill-opacity="1" fill-rule="nonzero" d=" M306.62 516.88 C306.62,516.88 290.64,533.48 290.64,533.48 C290.64,533.48 286.69,502.54 286.69,502.54 C286.69,502.54 306.62,516.88 306.62,516.88z "/><path id="_R_G_L_0_G_D_7_P_0" fill="#f5751d" fill-opacity="1" fill-rule="nonzero" d=" M286.69 499.65 C286.69,499.65 279.27,521.32 279.27,521.32 C279.27,521.32 280.8,484.29 280.8,484.29 C280.8,484.29 286.69,499.65 286.69,499.65z "/></g></g></g><g id="time_group"/></svg>