<?xml version="1.0" encoding="utf-8"?>
<svg version="1.1" id="h" xmlns="http://www.w3.org/2000/svg" xmlns:xlink="http://www.w3.org/1999/xlink" x="0px"
	 y="0px" width="693.3px" height="719.7px" viewBox="0 0 693.3 719.7" style="enable-background:new 0 0 693.3 719.7;"
	 xml:space="preserve">
<style type="text/css">
	.st0{fill:#995C33;}
	.st1{fill:#AF7245;}
	.st2{fill:#D39D24;}
	.st3{fill:#EAAD6C;}
	.st4{fill:#956134;}
	.st5{fill:#7A4E2D;}
	.st6{fill:#C93131;}
	.st7{fill:#FFCC4D;}
	.st8{fill:#A57850;}
	.st9{fill:#705743;}
	.st10{fill:#3E3A39;}
	.st11{fill:#F7B87F;}
	.st12{fill:none;stroke:#F46D11;stroke-width:5.5439;stroke-linecap:round;stroke-miterlimit:10;}
	.st13{fill:#F46D11;}
	.st14{fill:#D79211;}
	.st15{fill:#DAB770;}
	.st16{fill:#E4554B;}
	.st17{fill:#BCBCBC;}
	.st18{fill:#474747;}
	.st19{fill:#5FA0D7;}
</style>
<g>
	<g>
		<g id="奥_x5F_前脚_19_">
			<path class="st0" d="M236.5,547.9c4.5,15.9,4.1,52.1,4.5,69.8c0.1,4.4,4.2,7.7,8.6,6.7l10.1-2.3c0,0,12.9-71.8,29-94.1
				L236.5,547.9z"/>
			<path class="st0" d="M241.3,624.2c-6.2-16.2,2.5-25.1,9.1-30c12.6-9.5,16.7-0.9,17.1,6.7C267.9,610.9,249.7,646,241.3,624.2z"/>
			<path class="st0" d="M232.3,689.4c0,0,19-18.8,7.1-77.7l23.1,3.3c-9.5,19.1-12.6,74.8-11.2,84.2L232.3,689.4z"/>
			<path class="st1" d="M225,715.4c-0.2-13.6,5.6-28.4,11.4-31.1c6.5-3.1,15.3,0.1,18.4,8c2.2,5.5,4.2,16.3,5.3,23H225z"/>
			<path class="st0" d="M200,481.4c3,24,24.3,93.2,41.3,100.3s61.8-18.2,86.9-39.5C353.4,520.9,200,481.4,200,481.4z"/>
		</g>
		<g id="奥_x5F_後脚_19_">
			<path class="st0" d="M441.8,592.8c-29.4-17-77.2-70.3-55.7-121.2s103.2-89.9,110.9-36.4c7.8,53.5-17.7,80.9-42.4,114
				C446.3,560.3,441.8,592.8,441.8,592.8z"/>
			<path class="st0" d="M432.3,598.8c4.7-8.1,14.2-6.3,22.6-2.5c2.5,1.1,7.3,7.3,7.2,10.1c-0.5,14.8-13.1,44-19.2,83.7l-22.9-4.6
				C442.2,643.5,437.9,607.8,432.3,598.8z"/>
			<path class="st0" d="M399.1,551.4c13.6,26.3,35.9,46.2,36.7,59.2c0.2,2.9,11.3,7,18.1,3.9c3.2-1.4,5-5.2,6.1-8.2
				c0.8-2.3,0.2-4.7-1.4-6.5c-6.6-7.3-24-29.8-15.6-58.8C446.7,528.1,399.1,551.4,399.1,551.4z"/>
			<path class="st1" d="M404.8,713c3.1-15,14.8-32.5,22.9-35.7c8.8-3.4,17.7,0.6,18.6,9.3c0.6,6.9-1.4,20.9-2.2,26.4H404.8z"/>
			<path class="st0" d="M442.7,619.6c-10.9-3.1-11.6-18-6.7-21.6c11.5-8.2,20.2-6.6,24.4-2.8C466.1,600.4,463.8,625.6,442.7,619.6z"
				/>
		</g>
		<path id="手綱裏_19_" class="st2" d="M124.7,323.8c25.6-4,76.8,42.9,101.8,40.3c41.2-4.2,93.7-51.3,118.3-41.4l-1.2,9.4
			c-22.6-8.8-95.9,64.4-148.1,33.9c-52.6-30.7-63.6-34.8-75.8-34.8L124.7,323.8z"/>
		<path id="付け根_19_" class="st3" d="M286.9,359.7c8.3,21.4,9,40,5.7,47.1c-3.1,6.6-42.4,22.4-65.3,23.4
			c-48.8,2-45.5-8-44.2-29.5c0.6-10.2,0.6-20.4-1.3-32.3c-1.9-11.9,25.7-16.2,51.9-19.2C282.3,343.5,286.9,359.7,286.9,359.7z"/>
		<g id="尻尾_19_">
			<path class="st4" d="M641.3,514.6c-14.6-4.7-48.6-125.3-125.8-98.2c-17.4,6.1-20.6,17.9-18.5,18.2c5.5,0.8,6.4-11.8,23.7-10.9
				c37,1.8,62.4,110.9,89.8,125.3c26.9,14.2,50.9-25.6,49.9-47.4C660.4,501.6,654.6,518.9,641.3,514.6z"/>
			<path class="st5" d="M524.4,420.9c37.1,1.5,62.1,99.4,89.6,113.6c19.8,10.3,38.2-8.4,46.2-27.7c-2.5,22.3-29.8,60.2-54.6,47.1
				c-27.4-14.5-47.2-124.6-84.2-126.4c-17.3-0.9-19,7.9-24.4,7.1c-0.2,0-0.3-0.2-0.4-0.4C502.6,429,511.3,420.4,524.4,420.9z"/>
		</g>
		<g id="胴体_19_">
			<path class="st3" d="M182.5,423.7c-1.3,19.7-0.1,34.2-1.3,50c-4.5,59.3,81.6,118.6,183.2,78.2c28.7-11.4,79-18.7,96.8-2.5
				c28.7,26.1,82-84.4,44-124.3c-35.9-37.7-75.2-17.1-103.8-5.8c-56.1,22.2-104.1-20.3-116-50.7c-7.8-19.7-54.5-4-71.2,3
				C191.9,381,183.8,393.9,182.5,423.7z"/>
			<path class="st1" d="M386.5,497c39.4-9.9,43.2-60.2,41.9-88c-9.7,3.2-18.8,7.2-27,10.4c-47.2,18.7-88.7-8.5-107.8-35.7
				C295.5,470.7,324.5,512.5,386.5,497z"/>
			<g>
				<g>
					<path class="st6" d="M421.1,409.2c1.5,21.1,0,73.6-40.9,82.6c-54.5,12-78.6-25.1-77.8-99.7l4.2,0.6l2.4,7.2
						c40.6,17.4,66.1,19.3,106.2,12.1l2.2-3.3L421.1,409.2z"/>
					<path class="st7" d="M307.5,392.6l3.3,8c0.1,0,0.2,0.1,0.3,0.1c2.2,63.6,21.4,94.5,66.5,83c31-7.9,36.1-46.1,35.9-71.4l4.7-5.5
						h2.8c2.4,20.9,0.4,77.3-40.5,86.3c-54.5,12-78.9-26.4-78.1-101L307.5,392.6z"/>
				</g>
				<circle class="st6" cx="308.3" cy="421" r="2.4"/>
				<circle class="st6" cx="307" cy="401.6" r="2.4"/>
				<circle class="st6" cx="311.2" cy="441.1" r="2.4"/>
				<circle class="st6" cx="318" cy="461.6" r="2.4"/>
				<circle class="st6" cx="330" cy="478.4" r="2.4"/>
				<circle class="st6" cx="347.3" cy="488.7" r="2.4"/>
				<circle class="st6" cx="367.4" cy="490.3" r="2.4"/>
				<circle class="st6" cx="386" cy="486.1" r="2.4"/>
				<circle class="st6" cx="401.8" cy="474.7" r="2.4"/>
				<circle class="st6" cx="411.2" cy="457.8" r="2.4"/>
				<circle class="st6" cx="416.2" cy="438.6" r="2.4"/>
				<circle class="st6" cx="417.6" cy="419.6" r="2.4"/>
			</g>
			<g>
				<path class="st1" d="M364.4,551.9c28.7-11.4,79-18.7,96.8-2.5c8.9,8.1,20.2,3,30.3-9c-4.7,1.1-7.5-21.1-11.5-24.7
					c-17.8-16.2-23.6-8-94.2,16.4c-95.3,33-198.1-8.1-202.1-79.9c-0.4-7.2-1.2-11.6-1.8-13.7c-0.2,12.7,0.2,23.6-0.7,35.1
					C176.6,533.1,262.8,592.3,364.4,551.9z"/>
			</g>
			<g>
				<path class="st1" d="M460.3,439.7c-61.8,4.7-54.2,76.9-49.9,101.3c11.2-1.2,22.3-1.2,31.6,0.4l0.9-0.2L460.3,439.7z"/>
			</g>
		</g>
		<g id="首_19_">
			<path class="st3" d="M183.6,379.8c-2.4-37,4.1-41.4-17.3-68.1c-30.7-38.2-1.7-82.6,35-67.2c50.6,21.2,79,84.8,86.4,110.7
				C297.1,388.3,180.6,405.4,183.6,379.8z"/>
			<path class="st1" d="M222.8,265.9c-0.7-1.9-1.2-5.9-2-10.5c-6.1-4.3-12.6-8-19.5-10.9c-36.7-15.4-65.7,29-35,67.2
				c12.3,15.3,15.3,23.3,16.2,34.3c0,0,0,0,0,0C204.7,328.3,227.5,279.5,222.8,265.9z"/>
			<path class="st1" d="M226.7,259.8c-4.9-0.6-9.9-0.2-15,1.5c4.7,7.5,6.4,15.8,8.9,25.3c10.1,38.1,22.5,65.5,67.6,70.9
				c-0.1-0.8-0.2-1.6-0.4-2.4C281.7,334,261.5,287.6,226.7,259.8z"/>
			<path class="st4" d="M220.9,277.2c13.1,41.6,28.9,79.1,78.9,77.5c-16.3-11.3-37.6-40.3-34.1-69.7c3.1-26.4-22.4-37.2-35.9-39.2
				C211.4,243.2,209.1,239.6,220.9,277.2z"/>
			<path class="st5" d="M299.8,354.7c-0.3-0.1-0.5-0.3-0.7-0.4c-33.6-12.7-56.4-40.3-78.1-76.9C234.1,319,249.9,356.3,299.8,354.7z"
				/>
			<path class="st4" d="M274.5,301.1c1.1,12.3,8.7,30.7,23.6,33.1c0,0-17.4,6.4-30.9-4.5c-6.3-5.1-17.2-23.2-16.1-27.4
				C257.4,278.5,273.2,285.8,274.5,301.1z"/>
		</g>
		<g id="頭_19_">
			<path class="st4" d="M127.8,241.9c-7.7,2.4-20.7,11.2-28,10.5c0,0,8.2,6.9,21,9.4c6,1.2,11.9-6.2,12.5-9.2
				C134.5,246.6,138.9,238.4,127.8,241.9z"/>
			<path class="st1" d="M142.4,261.2c-7.3-19.3-1.6-42.9,6.6-60.3c2.6-5.6,19,30.5,10.6,53L142.4,261.2z"/>
			<path class="st8" d="M172.6,333.3c-18.6,9-35.2,40.7-44.9,42.5c-9.8,1.8-19.8-11.1-19.8-11.1l49.5-42.7L172.6,333.3z"/>
			<path class="st3" d="M90.5,353c0.9-9.8,10.8-14.5,13.7-18.2c12-15.4,10.5-28.5,11.5-35.6c1-6.9-1.4-32.8,38.9-52.1
				c33.6-16.1,54,3.7,59.8,10.7c1.1,1.4,1.9,3,2,4.8c4.6,42.3-15.5,75.7-58.7,76.6c-8.7,0.2-14.6,19.1-30.5,27.2
				c-2.3,7.4-11.1,12.2-14,11.3C110.4,376.7,89.4,365.8,90.5,353z"/>
			<path class="st1" d="M214.4,257.8c-5.5-6.6-23.7-24.3-53.6-13.3c23.6,2.2,42.1,13.4,56.3,32.6c0.1-4.7,0-9.5-0.6-14.4
				C216.3,260.8,215.6,259.2,214.4,257.8z"/>
			<path class="st1" d="M145.9,258.4c-8.6,8-18.5,35.8-30.2,46.3c-4.2-26.3,8.9-43.2,38.9-57.5c19.8-9.5,35.1-6.5,45.4-1
				C181.8,247.7,164.8,241,145.9,258.4z"/>
			<path class="st1" d="M127.2,366.4c11-6.2,29.1-33.4,25.4-37.5c21.1,11.9,66.3-28.5,61.9-70.9c0,0,0,0,0,0c1,1.3,1.7,2.8,1.9,4.5
				c4.7,42.4-14.6,77.3-57.9,78.2c-4,4.1-21.6,32-43.2,37C119.1,375.9,122.2,369.2,127.2,366.4z"/>
			<path class="st7" d="M110,325.2c30.9-5.6,70.6,48.8,98.7,52.9c45.6,6.6,111.7-65.4,135.9-55.2l-1.1,9.7
				c-22.2-8.9-103.2,85.6-160.2,45.4c-57-40.2-64.5-44.4-79.4-43.8L110,325.2z"/>
			<path class="st7" d="M196.1,246.5l4.3,4.5c0,0,0.9,57.2-45.1,97l-6.7-4.9C148.7,343.1,188.5,306.6,196.1,246.5z"/>
			<g>
				<path class="st7" d="M155,349.4c0.7,5.7-3.3,10.8-9,11.5c-5.7,0.7-10.8-3.3-11.5-9c-0.7-5.7,3.3-10.8,9-11.5
					C149.2,339.7,154.3,343.7,155,349.4z"/>
				<path class="st2" d="M149.4,350.1c0.3,2.6-1.5,4.9-4.1,5.2c-2.6,0.3-4.9-1.5-5.2-4.1c-0.3-2.6,1.5-4.9,4.1-5.2
					C146.8,345.7,149.1,347.5,149.4,350.1z"/>
			</g>
			<path class="st4" d="M161.1,234.4c-24.4,3.2-44.5,5.8-56.4,28.1c-8.9,16.8-10.1,38.4-15.9,48.4c0,0,25.9-5.8,33.3-22.8
				c7.4-17,20.5-36.4,36-39.9C173.5,244.6,161.1,234.4,161.1,234.4z"/>
			<path class="st5" d="M122.1,288.1c7.4-17,20.5-36.4,36-39.9c15.5-3.6,3-13.7,3-13.7c-3.4,0.4-6.8,0.9-10,1.4
				c-13.8,8.3-20.7,33.8-35.4,52.6c-8,10.2-17.9,17.4-26.7,22.1c-0.1,0.1-0.1,0.2-0.2,0.3C88.8,310.9,114.7,305.1,122.1,288.1z"/>
			<path class="st4" d="M216.5,270.6c-12.3-15.5-35.1-27.8-51.8-28.6c23.2-25.3,52.4-13.3,61-6.5
				C244.9,250.6,225.8,282.4,216.5,270.6z"/>
			<path class="st3" d="M154.5,255.2c-1-21.3,11.6-42.3,24.6-56.5c4.2-4.6,8.7,36.2-6.1,55.3L154.5,255.2z"/>
			<path class="st9" d="M158,251c-0.2-15.8,9.4-31.5,19.2-42c3.1-3.4,5.3,26.9-5.8,41L158,251z"/>
			<path class="st9" d="M96.6,358.6c2,5.1,3-0.2,5-5.3c1.5-3.8,5.2-5.9,3.3-6.8C100.3,344.5,92.6,348.4,96.6,358.6z"/>
			<path class="st10" d="M156.7,289.9c-0.1,0.4-0.2,0.7-0.5,0.9c-1.1,1.1-4.4,4.1-5.9,3.3s-0.7-5.2-0.3-6.7c0.1-0.4,0.2-0.7,0.5-0.9
				c1.1-1.1,4.4-4.1,5.9-3.3S157,288.4,156.7,289.9z"/>
		</g>
		<g id="手前_x5F_前脚_19_">
			<path class="st3" d="M196.4,448.6c-7.3,22.9-14.6,85.9-2.2,100.1c12.4,14.1,81.4,7.7,107.8-4c15.8-7.1-1.4-51.5-33.9-75.1
				C239.7,449,196.4,448.6,196.4,448.6z"/>
			<path class="st3" d="M214,521.6c-16.8,8-63.8,13.3-72.4,15.8l8.8,16.7c0,0,68.6,2.2,103.8,1.3L214,521.6z"/>
			<path class="st1" d="M159.2,643.7c0,0-21-20.3-15.4-83l-22.6,3.3c11.5,20.5,20.5,80,20.2,90L159.2,643.7z"/>
			<path class="st11" d="M162.1,684.8c-11.6-8.2-22.1-27.2-20.9-35.3c1.2-8.2,8.3-13.1,15.5-9.8c7.2,3.3,21.5,14.7,21.5,14.7
				S170.4,678.6,162.1,684.8z"/>
			<path class="st3" d="M121.2,566.4c-4.4-13.6,7-29.4,18.4-30.6c14.9-1.6,16.1,12.2,12.1,17.5C147.6,558.6,127.4,585.5,121.2,566.4
				z"/>
		</g>
		<g id="首飾り_19_">
			<path class="st12" d="M181.9,422.2c-4.5,35.1,78.7,54.5,111.8-36.6"/>
			<polygon class="st13" points="293.8,390.7 298.1,413.7 282.1,411.3 			"/>
			<polygon class="st13" points="282.1,413.9 282,437.5 266.8,431.7 			"/>
			<polygon class="st13" points="266.1,432.7 263,457.2 247.1,445.6 			"/>
			<polygon class="st13" points="245.5,445.9 236.9,468.9 224.2,453.3 			"/>
			<polygon class="st13" points="223.4,452.6 210.2,470.2 201.2,449.9 			"/>
			<polygon class="st13" points="200,448.6 187.5,461.5 184.4,437.4 			"/>
			<polygon class="st13" points="184.4,435.1 178.7,452 179.8,423.2 			"/>
		</g>
		<g id="手前_x5F_後脚_19_">
			<path class="st3" d="M510.8,601.2c-33.8-6.7-98.5-41.7-97.7-96.3c0.9-54.6,49.8-113.7,91.4-77.4c30.1,26.3,12.4,89.8,1.8,128.6
				C502.8,569.2,510.8,601.2,510.8,601.2z"/>
			<path class="st1" d="M510.8,604.2c3.9-5.5,11.4-4.2,17.9-1.3c5.9,2.6,9,9.1,7.5,15.4c-3.9,16.4-16.2,43.9-24.6,77.9l-20.5-8.5
				C515.4,649.9,515,613.9,510.8,604.2z"/>
			<path class="st3" d="M459.9,579c30.4,18.6,48.8,28.8,54.2,40.7c3.7,8,12.7,0.7,18.3-4.6c1.8-1.8,1.2-11.2-0.7-12.9
				c-7.5-6.6-24.4-24.2-27.7-52.4C502.5,536.4,459.9,579,459.9,579z"/>
			<path class="st11" d="M476,719.7c1.8-14.9,11.3-32.4,18.6-35.5c7.9-3.4,16.4,0.5,17.8,9.2c1.1,6.9,0.2,20.8-0.2,26.3L476,719.7z"
				/>
			<path class="st3" d="M521.2,627.5c-10.6-2.2-13.6-17.4-9.6-21.5c9.4-9.5,17.7-8.7,22.2-5.1C539.8,605.6,541.7,631.7,521.2,627.5z
				"/>
		</g>
	</g>
	<g>
		<path class="st14" d="M331.1,407.5l-8-5.6c-2.9,6-5.5,11.8-7.6,17.5c-17.5,0.3-99.7,1.7-144.2-15.1c-1.1,2.9-1.5,6.7-1.7,9.7
			c39.5,14.9,102,15.3,133,15.3c3.9,0,7.1,0,9.8-0.1c-0.5,1.9-1,3.8-1.5,5.7c-26.2,23.1-125.1,53.2-200.1,53.2v4.9
			c65.3,0,163.9-25.3,198.8-51c-0.4,3.3-0.5,6-0.4,8.8c3.5,0.7,6.7,1.5,9.6,2.2c-0.4-3.9-0.1-8.4,1-14.1
			C321.7,429.5,325.6,418.7,331.1,407.5z"/>
		<path class="st15" d="M46.3,353.4l4.2,50.3c0.9,10.4-6.9,19.6-17.3,20.5c-10.4,0.9-19.6-6.9-20.5-17.3c-0.2-2,0-4.1,0.4-6
			L25,351.8c1.4-5.8,7.2-9.4,13.1-8C42.7,344.9,45.9,348.9,46.3,353.4L46.3,353.4z"/>
		<path class="st16" d="M2.2,501.3L0,401.4c-0.4-17.6,13.6-32.2,31.2-32.6c17.6-0.4,32.2,13.6,32.6,31.2c0,1.1,0,2.2-0.1,3.3
			l-8,99.7c-1.2,14.7-14.1,25.7-28.8,24.6C13.1,526.3,2.6,514.9,2.2,501.3L2.2,501.3z"/>
		<path class="st15" d="M50.3,391.5l23.1,53.4l-4-4.4l43.4,39.6c3.1,2.9,3.3,7.7,0.5,10.9c-2.5,2.7-6.4,3.2-9.4,1.5l-51.4-28.6
			c-0.8-0.4-1.4-1-1.9-1.7l-2.1-2.8l-35.2-46.4c-7.2-9.5-5.3-23,4.2-30.2c9.5-7.2,23-5.3,30.2,4.2C48.8,388.5,49.7,390,50.3,391.5
			L50.3,391.5z"/>
		<path class="st15" d="M111.4,497.8c-3.7-0.5-6.3-4-5.8-7.7l0.9-6.6c0.5-3.7,4-6.3,7.7-5.8l3,0.4c3.7,0.5,6.3,4,5.8,7.7l-0.9,6.6
			c-0.5,3.7-4,6.3-7.7,5.8L111.4,497.8z"/>
		<g>
			<path class="st15" d="M74.4,339.1c-2.4,16.3-17.6,27.6-33.9,25.2c-16.3-2.4-27.6-17.6-25.2-33.9c2.4-16.3,17.6-27.6,33.9-25.2
				C65.6,307.6,76.8,322.8,74.4,339.1L74.4,339.1z"/>
			<path class="st17" d="M78.5,320.7c-3.4-2.3-8.6-13.3-17.1-19.8c-7.9-6.2-18.6-8.5-29-5.4c-17,5.1-26.6,23-21.4,40
				c0.4,1.2,0.8,2.4,1.4,3.6c0.9,1.9,5.6,1.1,10.5-1c5.6-2.4,12.5-4.9,20.2-7c11.8-3.4,23-5.4,30.2-5.6c0,0,2.5-0.1,5.7-0.3
				C82.1,325,81.9,323,78.5,320.7z"/>
			<path class="st17" d="M78.5,320.7c-3.4-2.3-8.6-13.3-17.1-19.8c-7.9-6.2-18.6-8.5-29-5.4c-17,5.1-26.6,23-21.4,40
				c0.4,1.2,0.8,2.4,1.4,3.6c0.9,1.9,5.6,1.1,10.5-1c5.6-2.4,12.5-4.9,20.2-7c11.8-3.4,23-5.4,30.2-5.6c0,0,2.5-0.1,5.7-0.3
				C82.1,325,81.9,323,78.5,320.7z"/>
			<path class="st18" d="M52.3,328.7c-1,0.2-2,0.5-3.1,0.8l-9,18.8l-9-13.4c-0.8,0.3-1.5,0.6-2.3,0.9l10.4,15.5
				c0.3,1,2.7,7.6,9.3,13c1.1-0.1,2.3-0.3,3.4-0.5c-6.8-4.7-9.6-11.2-10.3-12.9L52.3,328.7z"/>
			<path class="st17" d="M43.8,352.8c0.1,0.2,0,0.4-0.2,0.5l-3.6,1.2c-0.2,0.1-0.4,0-0.5-0.2l-1.2-3.6c-0.1-0.2,0-0.4,0.2-0.5
				l3.6-1.2c0.2-0.1,0.4,0,0.5,0.2L43.8,352.8z"/>
		</g>
		<path class="st19" d="M63.6,594.3l-6.5-94.5c-0.1-1.5-0.4-3.2-0.7-4.7c0,0,0,0,0,0l1.6-20.3H1.7l0.6,26.6
			c0.1,4.3,1.4,8.3,3.3,11.9L27.4,600l6,94.9c0.3,4.6,3.8,8.4,8.5,8.9c5.3,0.6,10-3.2,10.6-8.4l11.3-97.8l0-0.1L63.6,594.3z"/>
		<path class="st18" d="M73.7,709.1L53,702.8l0.8-16.2c0-0.2,0-0.4,0-0.6c0-5.8-21.1-5.8-21.1,0.1l0.1,23.5l0,1.6
			c0,4.6,3.8,8.4,8.4,8.4l30.9,0c2.3,0,4.5-1.5,5.2-3.8C78.1,713,76.5,710,73.7,709.1z"/>
	</g>
</g>
</svg>
