<?xml version="1.0" encoding="utf-8"?>
<!-- Generator: Adobe Illustrator 25.4.1, SVG Export Plug-In . SVG Version: 6.00 Build 0)  -->
<svg version="1.1" id="レイヤー_1" xmlns="http://www.w3.org/2000/svg" xmlns:xlink="http://www.w3.org/1999/xlink" x="0px"
	 y="0px" width="188.7px" height="274.4px" viewBox="0 0 188.7 274.4" style="enable-background:new 0 0 188.7 274.4;"
	 xml:space="preserve">
<style type="text/css">
	.st0{fill:#DAB770;}
	.st1{fill:#E4554B;}
	.st2{fill:#BCBCBC;}
	.st3{fill:#474747;}
	.st4{fill:#5FA0D7;}
</style>
<g>
	<g>
		<path class="st0" d="M60.7,49.9l25.7,32.2c5.1,6.4,14.5,7.5,20.9,2.4c6.4-5.1,7.5-14.5,2.4-20.9c-1-1.2-2.1-2.3-3.3-3.1l-34.2-23
			c-3.9-2.6-9.2-1.6-11.8,2.3C58.2,43,58.5,47.1,60.7,49.9L60.7,49.9z"/>
		<path class="st1" d="M179.5,102.7l-69-52c-11.1-8.3-26.8-6.1-35.1,4.9c-8.3,11.1-6.1,26.8,4.9,35.1c0.6,0.5,1.3,0.9,1.9,1.3
			l73.6,45.4c9.9,6.1,22.9,3,29-6.9C190.5,121.2,188,109.1,179.5,102.7L179.5,102.7z"/>
		<path class="st0" d="M78.4,66.8l-8.8,39.5l7.6-7l-54.5,20.5c-3.1,1.2-4.7,4.7-3.5,7.8c1,2.8,3.9,4.3,6.7,3.8l57.4-10.2
			c2.8-0.5,5.1-2.3,6.3-4.6l1.3-2.4l19.1-35.7c4.4-8.3,1.3-18.6-7-23c-8.3-4.4-18.6-1.3-23,7C79.2,63.8,78.7,65.3,78.4,66.8
			L78.4,66.8z"/>
		<path class="st0" d="M22.8,134.7c2.9-0.5,4.9-3.3,4.3-6.2l-0.9-5.2c-0.5-2.9-3.3-4.8-6.2-4.3l-2.3,0.4c-2.9,0.5-4.9,3.3-4.3,6.2
			l0.9,5.2c0.5,2.9,3.3,4.9,6.2,4.3L22.8,134.7z"/>
		<g>
			<path class="st0" d="M38.6,40.7C43.3,52.8,56.8,58.9,69,54.3C81.1,49.7,87.2,36.1,82.5,24C77.9,11.9,64.3,5.8,52.2,10.4
				C40.1,15,34,28.6,38.6,40.7L38.6,40.7z"/>
			<path class="st2" d="M32.4,27.3c2.2-2.3,4.4-11.7,9.8-18.1c5-6.1,12.9-9.7,21.3-9c13.9,1.1,24.3,13.2,23.3,27.1
				c-0.1,1-0.2,2-0.5,3c-0.4,1.6-4.1,1.8-8.3,1c-4.7-0.9-10.5-1.6-16.7-2C51.7,28.6,42.7,29,37.1,30c0,0-2,0.3-4.4,0.7
				C30.3,31.2,30.1,29.6,32.4,27.3z"/>
			<path class="st2" d="M32.4,27.3c2.2-2.3,4.4-11.7,9.8-18.1c5-6.1,12.9-9.7,21.3-9c13.9,1.1,24.3,13.2,23.3,27.1
				c-0.1,1-0.2,2-0.5,3c-0.4,1.6-4.1,1.8-8.3,1c-4.7-0.9-10.5-1.6-16.7-2C51.7,28.6,42.7,29,37.1,30c0,0-2,0.3-4.4,0.7
				C30.3,31.2,30.1,29.6,32.4,27.3z"/>
			<path class="st3" d="M53.9,28.9c0.8,0,1.7,0.1,2.5,0.1l10.1,12.9l4.6-11.8c0.7,0.1,1.3,0.2,1.9,0.3l-5.3,13.7
				c-0.1,0.8-0.8,6.3-4.9,11.5c-0.9,0.1-1.8,0.2-2.7,0.2c4.4-4.8,5.5-10.3,5.7-11.7L53.9,28.9z"/>
			<path class="st2" d="M64.5,46c0,0.2,0.1,0.3,0.3,0.3l3,0.3c0.2,0,0.3-0.1,0.3-0.3l0.3-3c0-0.2-0.1-0.3-0.3-0.3l-3-0.3
				c-0.2,0-0.3,0.1-0.3,0.3L64.5,46z"/>
		</g>
		<path class="st4" d="M115.1,172.8l1.3-2.5l22.8-43.1l-4.2-2.6l28.7-33.9l15.8,11.9c4.9,3.7,7.7,9.3,8.2,15.2c0,0.1,0,0.1,0,0.2
			c0.1,0.8,0.1,1.7,0,2.5c0,4.6-1.4,9.1-4.5,13L145,181.6l18.1,62.7c1,3.4-0.5,7.1-3.8,8.8c-3.7,1.9-8.3,0.5-10.2-3.2l-34-66
			C113.4,180.5,113.3,176.4,115.1,172.8z"/>
	</g>
	<path class="st3" d="M135.7,266.1l14.4-12.5l-6.5-12.7c-0.1-0.1-0.2-0.3-0.2-0.4c-2.1-4.7,14.9-12.2,17-7.5l8.4,18.9l0.6,1.3
		c1.7,3.7,0,8.1-3.7,9.8L140.8,274c-1.9,0.8-4.1,0.4-5.5-1.2C133.5,270.8,133.7,267.8,135.7,266.1z"/>
</g>
</svg>
