<svg xmlns="http://www.w3.org/2000/svg" xmlns:xlink="http://www.w3.org/1999/xlink" preserveAspectRatio="xMidYMid meet" width="1920" height="2000" viewBox="0 0 1920 2000" style="width:100%;height:100%"><defs><animateTransform repeatCount="indefinite" dur="2.1688355s" begin="0s" xlink:href="#_R_G_L_14_G" fill="freeze" attributeName="transform" from="27" to="27" type="rotate" additive="sum" keyTimes="0;0.1538461;0.3076923;0.4615384;0.6153846;0.7692307;1" values="27;-1;27;-1;27;-1;27" keySplines="0.167 0.167 0.833 0.833;0.167 0.167 0.833 0.833;0.167 0.167 0.833 0.833;0.167 0.167 0.833 0.833;0.167 0.167 0.833 0.833;0.167 0.167 0.833 0.833" calcMode="spline"/><animateTransform repeatCount="indefinite" dur="2.1688355s" begin="0s" xlink:href="#_R_G_L_14_G" fill="freeze" attributeName="transform" from="-635.827 -280.589" to="-635.827 -280.589" type="translate" additive="sum" keyTimes="0;1" values="-635.827 -280.589;-635.827 -280.589" keySplines="0 0 1 1" calcMode="spline"/><animateTransform repeatCount="indefinite" dur="2.1688355s" begin="0s" xlink:href="#_R_G_L_13_G" fill="freeze" attributeName="transform" from="0" to="0" type="rotate" additive="sum" keyTimes="0;0.0769231;0.1538461;0.2307692;0.3846154;0.4615384;0.5384615;0.6153846;0.6923077;0.8461538;1" values="0;9;33;2;-22;0;9;33;2;-22;0" keySplines="0.167 0.167 0.833 0.833;0.167 0.167 0.833 0.833;0.167 0.167 0.833 0.833;0.167 0.167 0.833 0.833;0.167 0.167 0.833 0.833;0.167 0.167 0.833 0.833;0.167 0.167 0.833 0.833;0.167 0.167 0.833 0.833;0.167 0.167 0.833 0.833;0.167 0.167 0.833 0.833" calcMode="spline"/><animateTransform repeatCount="indefinite" dur="2.1688355s" begin="0s" xlink:href="#_R_G_L_13_G" fill="freeze" attributeName="transform" from="-620.472 -456.207" to="-620.472 -456.207" type="translate" additive="sum" keyTimes="0;1" values="-620.472 -456.207;-620.472 -456.207" keySplines="0 0 1 1" calcMode="spline"/><animateTransform repeatCount="indefinite" dur="2.1688355s" begin="0s" xlink:href="#_R_G_L_13_G_N_13_T_0" fill="freeze" attributeName="transform" from="-22" to="-22" type="rotate" additive="sum" keyTimes="0;0.0769231;0.1538461;0.2307692;0.3846154;0.4615384;0.5384615;0.6153846;0.6923077;0.8461538;1" values="-22;-36;-29;-8;12;0;-36;-29;-8;12;-22" keySplines="0.167 0.167 0.833 0.833;0.167 0.167 0.833 0.833;0.167 0.167 0.833 0.833;0.167 0.167 0.833 0.833;0.167 0.167 0.833 0.833;0.167 0.167 0.833 0.833;0.167 0.167 0.833 0.833;0.167 0.167 0.833 0.833;0.167 0.167 0.833 0.833;0.167 0.167 0.833 0.833" calcMode="spline"/><animateTransform repeatCount="indefinite" dur="2.1688355s" begin="0s" xlink:href="#_R_G_L_13_G_N_13_T_0" fill="freeze" attributeName="transform" from="-557.135 -313.218" to="-557.135 -313.218" type="translate" additive="sum" keyTimes="0;1" values="-557.135 -313.218;-557.135 -313.218" keySplines="0 0 1 1" calcMode="spline"/><animateTransform repeatCount="indefinite" dur="2.1688355s" begin="0s" xlink:href="#_R_G_L_12_G" fill="freeze" attributeName="transform" from="-22" to="-22" type="rotate" additive="sum" keyTimes="0;0.0769231;0.1538461;0.2307692;0.3846154;0.4615384;0.5384615;0.6153846;0.6923077;0.8461538;1" values="-22;-36;-29;-8;12;0;-36;-29;-8;12;-22" keySplines="0.167 0.167 0.833 0.833;0.167 0.167 0.833 0.833;0.167 0.167 0.833 0.833;0.167 0.167 0.833 0.833;0.167 0.167 0.833 0.833;0.167 0.167 0.833 0.833;0.167 0.167 0.833 0.833;0.167 0.167 0.833 0.833;0.167 0.167 0.833 0.833;0.167 0.167 0.833 0.833" calcMode="spline"/><animateTransform repeatCount="indefinite" dur="2.1688355s" begin="0s" xlink:href="#_R_G_L_12_G" fill="freeze" attributeName="transform" from="-557.135 -313.218" to="-557.135 -313.218" type="translate" additive="sum" keyTimes="0;1" values="-557.135 -313.218;-557.135 -313.218" keySplines="0 0 1 1" calcMode="spline"/><animateTransform repeatCount="indefinite" dur="2.1688355s" begin="0s" xlink:href="#_R_G_L_11_G_N_4_T_0" fill="freeze" attributeName="transform" from="0" to="0" type="rotate" additive="sum" keyTimes="0;0.1538461;0.3076923;0.4615384;0.6153846;0.7692307;0.9230769;1" values="0;-8;0;-9;0;-9;0;0" keySplines="0.167 0.167 0.833 0.833;0.167 0.167 0.833 0.833;0.167 0.167 0.833 0.833;0.167 0.167 0.833 0.833;0.167 0.167 0.833 0.833;0.167 0.167 0.833 0.833;0 0 0 0" calcMode="spline"/><animateTransform repeatCount="indefinite" dur="2.1688355s" begin="0s" xlink:href="#_R_G_L_11_G_N_4_T_0" fill="freeze" attributeName="transform" from="-356.566 -235.485" to="-356.566 -235.485" type="translate" additive="sum" keyTimes="0;1" values="-356.566 -235.485;-356.566 -235.485" keySplines="0 0 1 1" calcMode="spline"/><animateTransform repeatCount="indefinite" dur="2.1688355s" begin="0s" xlink:href="#_R_G_L_10_G" fill="freeze" attributeName="transform" from="0" to="-2" type="rotate" additive="sum" keyTimes="0;0.0769231;0.1538461;0.2307692;0.3846154;0.5384615;0.6153846;0.6923077;0.7692307;0.9230769;1;1" values="0;42;6;-4;-4;0;42;6;-4;-4;-2;-2" keySplines="0.167 0.167 0.833 0.833;0.167 0.167 0.833 0.833;0.167 0.167 0.833 0.833;0.167 0.167 0.833 0.833;0.167 0.167 0.833 0.833;0.167 0.167 0.833 0.833;0.167 0.167 0.833 0.833;0.167 0.167 0.833 0.833;0.167 0.167 0.833 0.833;0.167 0.167 0.833 0.833;0 0 0 0" calcMode="spline"/><animateTransform repeatCount="indefinite" dur="2.1688355s" begin="0s" xlink:href="#_R_G_L_10_G" fill="freeze" attributeName="transform" from="-339.292 -465.803" to="-339.292 -465.803" type="translate" additive="sum" keyTimes="0;1" values="-339.292 -465.803;-339.292 -465.803" keySplines="0 0 1 1" calcMode="spline"/><animateTransform repeatCount="indefinite" dur="2.1688355s" begin="0s" xlink:href="#_R_G_L_10_G_N_10_T_0" fill="freeze" attributeName="transform" from="0" to="-15" type="rotate" additive="sum" keyTimes="0;0.0769231;0.1538461;0.2307692;0.3846154;0.4615384;0.5384615;0.6153846;0.6923077;0.7692307;0.9230769;1;1" values="0;45;12;2;2;-15;0;45;12;2;2;-15;-15" keySplines="0.167 0.167 0.833 0.833;0.167 0.167 0.833 0.833;0.167 0.167 0.833 0.833;0.167 0.167 0.833 0.833;0.167 0.167 0.833 0.833;0.167 0.167 0.833 0.833;0.167 0.167 0.833 0.833;0.167 0.167 0.833 0.833;0.167 0.167 0.833 0.833;0.167 0.167 0.833 0.833;0.167 0.167 0.833 0.833;0 0 0 0" calcMode="spline"/><animateTransform repeatCount="indefinite" dur="2.1688355s" begin="0s" xlink:href="#_R_G_L_10_G_N_10_T_0" fill="freeze" attributeName="transform" from="-389.194 -347.765" to="-389.194 -347.765" type="translate" additive="sum" keyTimes="0;1" values="-389.194 -347.765;-389.194 -347.765" keySplines="0 0 1 1" calcMode="spline"/><animateTransform repeatCount="indefinite" dur="2.1688355s" begin="0s" xlink:href="#_R_G_L_9_G" fill="freeze" attributeName="transform" from="0" to="-15" type="rotate" additive="sum" keyTimes="0;0.0769231;0.1538461;0.2307692;0.3846154;0.4615384;0.5384615;0.6153846;0.6923077;0.7692307;0.9230769;1;1" values="0;45;12;2;2;-15;0;45;12;2;2;-15;-15" keySplines="0.167 0.167 0.833 0.833;0.167 0.167 0.833 0.833;0.167 0.167 0.833 0.833;0.167 0.167 0.833 0.833;0.167 0.167 0.833 0.833;0.167 0.167 0.833 0.833;0.167 0.167 0.833 0.833;0.167 0.167 0.833 0.833;0.167 0.167 0.833 0.833;0.167 0.167 0.833 0.833;0.167 0.167 0.833 0.833;0 0 0 0" calcMode="spline"/><animateTransform repeatCount="indefinite" dur="2.1688355s" begin="0s" xlink:href="#_R_G_L_9_G" fill="freeze" attributeName="transform" from="-389.194 -347.765" to="-389.194 -347.765" type="translate" additive="sum" keyTimes="0;1" values="-389.194 -347.765;-389.194 -347.765" keySplines="0 0 1 1" calcMode="spline"/><animateTransform repeatCount="indefinite" dur="2.1688355s" begin="0s" xlink:href="#_R_G_L_7_G" fill="freeze" attributeName="transform" from="0" to="0" type="rotate" additive="sum" keyTimes="0;0.0769231;0.1538461;0.2307692;0.3846154;0.4615384;0.5384615;0.6153846;0.6923077;0.8461538;1" values="0;67;89;60;-2;0;67;89;60;-2;0" keySplines="0.167 0.167 0.833 0.833;0.167 0.167 0.833 0.833;0.167 0.167 0.833 0.833;0.167 0.167 0.833 0.833;0.167 0.167 0.833 0.833;0.167 0.167 0.833 0.833;0.167 0.167 0.833 0.833;0.167 0.167 0.833 0.833;0.167 0.167 0.833 0.833;0.167 0.167 0.833 0.833" calcMode="spline"/><animateTransform repeatCount="indefinite" dur="2.1688355s" begin="0s" xlink:href="#_R_G_L_7_G" fill="freeze" attributeName="transform" from="-703.003 -430.296" to="-703.003 -430.296" type="translate" additive="sum" keyTimes="0;1" values="-703.003 -430.296;-703.003 -430.296" keySplines="0 0 1 1" calcMode="spline"/><animateTransform repeatCount="indefinite" dur="2.1688355s" begin="0s" xlink:href="#_R_G_L_7_G_N_7_T_0" fill="freeze" attributeName="transform" from="0" to="0" type="rotate" additive="sum" keyTimes="0;0.0769231;0.1538461;0.2307692;0.3846154;0.4615384;0.5384615;0.6153846;0.6923077;0.8461538;1" values="0;-31;-18;15;63;0;-31;-18;15;63;0" keySplines="0.167 0.167 0.833 0.833;0.167 0.167 0.833 0.833;0.167 0.167 0.833 0.833;0.167 0.167 0.833 0.833;0.167 0.167 0.833 0.833;0.167 0.167 0.833 0.833;0.167 0.167 0.833 0.833;0.167 0.167 0.833 0.833;0.167 0.167 0.833 0.833;0.167 0.167 0.833 0.833" calcMode="spline"/><animateTransform repeatCount="indefinite" dur="2.1688355s" begin="0s" xlink:href="#_R_G_L_7_G_N_7_T_0" fill="freeze" attributeName="transform" from="-612.795 -343.927" to="-612.795 -343.927" type="translate" additive="sum" keyTimes="0;1" values="-612.795 -343.927;-612.795 -343.927" keySplines="0 0 1 1" calcMode="spline"/><animateTransform repeatCount="indefinite" dur="2.1688355s" begin="0s" xlink:href="#_R_G_L_6_G" fill="freeze" attributeName="transform" from="0" to="0" type="rotate" additive="sum" keyTimes="0;0.0769231;0.1538461;0.2307692;0.3846154;0.4615384;0.5384615;0.6153846;0.6923077;0.8461538;1" values="0;-31;-18;15;63;0;-31;-18;15;63;0" keySplines="0.167 0.167 0.833 0.833;0.167 0.167 0.833 0.833;0.167 0.167 0.833 0.833;0.167 0.167 0.833 0.833;0.167 0.167 0.833 0.833;0.167 0.167 0.833 0.833;0.167 0.167 0.833 0.833;0.167 0.167 0.833 0.833;0.167 0.167 0.833 0.833;0.167 0.167 0.833 0.833" calcMode="spline"/><animateTransform repeatCount="indefinite" dur="2.1688355s" begin="0s" xlink:href="#_R_G_L_6_G" fill="freeze" attributeName="transform" from="-612.795 -343.927" to="-612.795 -343.927" type="translate" additive="sum" keyTimes="0;1" values="-612.795 -343.927;-612.795 -343.927" keySplines="0 0 1 1" calcMode="spline"/><animateTransform repeatCount="indefinite" dur="2.1688355s" begin="0s" xlink:href="#_R_G_L_5_G" fill="freeze" attributeName="transform" from="0" to="-36" type="rotate" additive="sum" keyTimes="0;0.0769231;0.1538461;0.2307692;0.3846154;0.4615384;0.5384615;0.6153846;0.6923077;0.7692307;0.9230769;1;1" values="0;44;-2;-2;-2;-36;0;44;-2;-2;-2;-36;-36" keySplines="0.167 0.167 0.833 0.833;0.167 0.167 0.833 0.833;0.167 0.167 0.833 0.833;0.167 0.167 0.833 0.833;0.167 0.167 0.833 0.833;0.167 0.167 0.833 0.833;0.167 0.167 0.833 0.833;0.167 0.167 0.833 0.833;0.167 0.167 0.833 0.833;0.167 0.167 0.833 0.833;0.167 0.167 0.833 0.833;0 0 0 0" calcMode="spline"/><animateTransform repeatCount="indefinite" dur="2.1688355s" begin="0s" xlink:href="#_R_G_L_5_G" fill="freeze" attributeName="transform" from="-253.882 -408.224" to="-253.882 -408.224" type="translate" additive="sum" keyTimes="0;1" values="-253.882 -408.224;-253.882 -408.224" keySplines="0 0 1 1" calcMode="spline"/><animateTransform repeatCount="indefinite" dur="2.1688355s" begin="0s" xlink:href="#_R_G_L_5_G_N_5_T_0" fill="freeze" attributeName="transform" from="0" to="-21" type="rotate" additive="sum" keyTimes="0;0.0769231;0.1538461;0.2307692;0.3846154;0.4615384;0.5384615;0.6153846;0.6923077;0.7692307;0.9230769;1;1" values="0;-38;-68;-77;-77;-21;0;-38;-68;-77;-77;-21;-21" keySplines="0.167 0.167 0.833 0.833;0.167 0.167 0.833 0.833;0.167 0.167 0.833 0.833;0.167 0.167 0.833 0.833;0.167 0.167 0.833 0.833;0.167 0.167 0.833 0.833;0.167 0.167 0.833 0.833;0.167 0.167 0.833 0.833;0.167 0.167 0.833 0.833;0.167 0.167 0.833 0.833;0.167 0.167 0.833 0.833;0 0 0 0" calcMode="spline"/><animateTransform repeatCount="indefinite" dur="2.1688355s" begin="0s" xlink:href="#_R_G_L_5_G_N_5_T_0" fill="freeze" attributeName="transform" from="-381.517 -333.37" to="-381.517 -333.37" type="translate" additive="sum" keyTimes="0;1" values="-381.517 -333.37;-381.517 -333.37" keySplines="0 0 1 1" calcMode="spline"/><animateTransform repeatCount="indefinite" dur="2.1688355s" begin="0s" xlink:href="#_R_G_L_4_G" fill="freeze" attributeName="transform" from="0" to="-21" type="rotate" additive="sum" keyTimes="0;0.0769231;0.1538461;0.2307692;0.3846154;0.4615384;0.5384615;0.6153846;0.6923077;0.7692307;0.9230769;1;1" values="0;-38;-68;-77;-77;-21;0;-38;-68;-77;-77;-21;-21" keySplines="0.167 0.167 0.833 0.833;0.167 0.167 0.833 0.833;0.167 0.167 0.833 0.833;0.167 0.167 0.833 0.833;0.167 0.167 0.833 0.833;0.167 0.167 0.833 0.833;0.167 0.167 0.833 0.833;0.167 0.167 0.833 0.833;0.167 0.167 0.833 0.833;0.167 0.167 0.833 0.833;0.167 0.167 0.833 0.833;0 0 0 0" calcMode="spline"/><animateTransform repeatCount="indefinite" dur="2.1688355s" begin="0s" xlink:href="#_R_G_L_4_G" fill="freeze" attributeName="transform" from="-381.517 -333.37" to="-381.517 -333.37" type="translate" additive="sum" keyTimes="0;1" values="-381.517 -333.37;-381.517 -333.37" keySplines="0 0 1 1" calcMode="spline"/><animateTransform repeatCount="indefinite" dur="2.1688355s" begin="0s" xlink:href="#_R_G_L_3_G" fill="freeze" attributeName="transform" from="0" to="0" type="rotate" additive="sum" keyTimes="0;0.1538461;0.3076923;0.4615384;0.6153846;0.7692307;0.9230769;1" values="0;-8;0;-9;0;-9;0;0" keySplines="0.167 0.167 0.833 0.833;0.167 0.167 0.833 0.833;0.167 0.167 0.833 0.833;0.167 0.167 0.833 0.833;0.167 0.167 0.833 0.833;0.167 0.167 0.833 0.833;0 0 0 0" calcMode="spline"/><animateTransform repeatCount="indefinite" dur="2.1688355s" begin="0s" xlink:href="#_R_G_L_3_G" fill="freeze" attributeName="transform" from="-356.566 -235.485" to="-356.566 -235.485" type="translate" additive="sum" keyTimes="0;1" values="-356.566 -235.485;-356.566 -235.485" keySplines="0 0 1 1" calcMode="spline"/><animateTransform repeatCount="indefinite" dur="2.1688355s" begin="0s" xlink:href="#_R_G_L_2_G_N_4_T_0" fill="freeze" attributeName="transform" from="0" to="0" type="rotate" additive="sum" keyTimes="0;0.1538461;0.3076923;0.4615384;0.6153846;0.7692307;0.9230769;1" values="0;-8;0;-9;0;-9;0;0" keySplines="0.167 0.167 0.833 0.833;0.167 0.167 0.833 0.833;0.167 0.167 0.833 0.833;0.167 0.167 0.833 0.833;0.167 0.167 0.833 0.833;0.167 0.167 0.833 0.833;0 0 0 0" calcMode="spline"/><animateTransform repeatCount="indefinite" dur="2.1688355s" begin="0s" xlink:href="#_R_G_L_2_G_N_4_T_0" fill="freeze" attributeName="transform" from="-356.566 -235.485" to="-356.566 -235.485" type="translate" additive="sum" keyTimes="0;1" values="-356.566 -235.485;-356.566 -235.485" keySplines="0 0 1 1" calcMode="spline"/><animateTransform repeatCount="indefinite" dur="2.1688355s" begin="0s" xlink:href="#_R_G_L_1_G" fill="freeze" attributeName="transform" from="0" to="0" type="rotate" additive="sum" keyTimes="0;0.3076923;0.6153846;0.8307692;1" values="0;-9;0;-9;0" keySplines="0.167 0.167 0.833 0.833;0.167 0.167 0.833 0.833;0.167 0.167 0.833 0.833;0.167 0.167 0.833 0.833" calcMode="spline"/><animateTransform repeatCount="indefinite" dur="2.1688355s" begin="0s" xlink:href="#_R_G_L_1_G" fill="freeze" attributeName="transform" from="-291.309 -159.672" to="-291.309 -159.672" type="translate" additive="sum" keyTimes="0;1" values="-291.309 -159.672;-291.309 -159.672" keySplines="0 0 1 1" calcMode="spline"/><animateTransform repeatCount="indefinite" dur="2.1688355s" begin="0s" xlink:href="#_R_G_L_1_G_N_4_T_0" fill="freeze" attributeName="transform" from="0" to="0" type="rotate" additive="sum" keyTimes="0;0.1538461;0.3076923;0.4615384;0.6153846;0.7692307;0.9230769;1" values="0;-8;0;-9;0;-9;0;0" keySplines="0.167 0.167 0.833 0.833;0.167 0.167 0.833 0.833;0.167 0.167 0.833 0.833;0.167 0.167 0.833 0.833;0.167 0.167 0.833 0.833;0.167 0.167 0.833 0.833;0 0 0 0" calcMode="spline"/><animateTransform repeatCount="indefinite" dur="2.1688355s" begin="0s" xlink:href="#_R_G_L_1_G_N_4_T_0" fill="freeze" attributeName="transform" from="-356.566 -235.485" to="-356.566 -235.485" type="translate" additive="sum" keyTimes="0;1" values="-356.566 -235.485;-356.566 -235.485" keySplines="0 0 1 1" calcMode="spline"/><animate attributeType="XML" attributeName="opacity" dur="2s" from="0" to="1" xlink:href="#time_group"/></defs><g id="_R_G"><g id="_R_G_L_14_G_N_9_T_0" transform=" translate(960, 1000) scale(2.08407, 2.08407) translate(-429.5, -306.5)"><g id="_R_G_L_14_G" transform=" translate(635.827, 280.589)"><path id="_R_G_L_14_G_D_0_P_0" fill="#9a693f" fill-opacity="1" fill-rule="nonzero" d=" M784.32 366.53 C768.97,361.64 733.36,235.25 652.45,263.59 C634.19,269.98 630.91,282.39 633.02,282.7 C638.75,283.57 639.77,270.37 657.9,271.26 C696.73,273.18 723.31,387.45 751.99,402.59 C780.14,417.46 805.29,375.79 804.33,352.9 C804.33,352.9 798.33,370.98 784.32,366.53z "/><path id="_R_G_L_14_G_D_1_P_0" fill="#815738" fill-opacity="1" fill-rule="nonzero" d=" M661.86 268.32 C700.79,269.86 726.98,372.55 755.72,387.43 C776.51,398.18 795.74,378.59 804.09,358.41 C801.44,381.8 772.91,421.54 746.89,407.8 C718.21,392.65 697.47,277.2 658.64,275.28 C640.51,274.38 638.75,283.57 633.02,282.7 C632.81,282.67 632.67,282.49 632.58,282.24 C638.94,276.76 648.11,267.78 661.86,268.32z "/></g></g><g id="_R_G_L_13_G_N_13_N_9_T_0" transform=" translate(960, 1000) scale(2.08407, 2.08407) translate(-429.5, -306.5)"><g id="_R_G_L_13_G_N_13_T_0" transform=" translate(557.135, 330.218)"><g id="_R_G_L_13_G" transform=" translate(620.472, 456.207)"><path id="_R_G_L_13_G_D_0_P_0" fill="#9e653e" fill-opacity="1" fill-rule="nonzero" d=" M612.17 446.75 C621.1,442.67 628.07,450.01 632.97,458.36 C634.44,460.86 634.82,469.05 633.06,471.35 C623.65,483.7 595.16,500.96 565.86,531.21 C565.86,531.21 549.07,513.33 549.07,513.33 C593.55,490.9 611.54,457.77 612.17,446.75z "/><path id="_R_G_L_13_G_D_1_P_0" fill="#b3794f" fill-opacity="1" fill-rule="nonzero" d=" M528.89 530.91 C536.95,517.04 554.32,503.44 563.4,502.97 C573.31,502.46 580.86,509.36 578.8,518.32 C577.16,525.42 570.57,538.64 567.9,543.82 C567.9,543.82 528.89,530.91 528.89,530.91z "/></g></g></g><g id="_R_G_L_12_G_N_9_T_0" transform=" translate(960, 1000) scale(2.08407, 2.08407) translate(-429.5, -306.5)"><g id="_R_G_L_12_G" transform=" translate(557.135, 330.218)"><path id="_R_G_L_12_G_D_0_P_0" fill="#9e653e" fill-opacity="1" fill-rule="nonzero" d=" M613.71 446.55 C578.79,439.65 513.31,403.03 517.36,345.26 C521.41,287.48 589.21,221.11 615.06,271.56 C640.9,322.01 624.93,357.84 611.65,398.94 C607.16,412.81 613.71,446.55 613.71,446.55z "/><path id="_R_G_L_12_G_D_1_P_0" fill="#9e653e" fill-opacity="1" fill-rule="nonzero" d=" M557.27 420.07 C579.63,441.52 608.57,453.72 613.78,466.32 C614.93,469.09 627.32,469.45 633.02,464.07 C635.68,461.57 636.27,457.21 636.28,453.92 C636.28,451.41 634.91,449.12 632.71,447.92 C623.66,442.97 598.75,426.52 597.28,394.94 C596.61,380.81 557.27,420.07 557.27,420.07z "/><path id="_R_G_L_12_G_D_2_P_0" fill="#9e653e" fill-opacity="1" fill-rule="nonzero" d=" M619.68 474.91 C607.85,473.45 604.72,458.12 609.27,453.67 C619.87,443.29 629.14,443.53 634.13,446.85 C640.78,451.26 642.49,477.73 619.68,474.91z "/></g></g><g id="_R_G_L_11_G_N_4_N_9_T_0" transform=" translate(960, 1000) scale(2.08407, 2.08407) translate(-429.5, -306.5)"><g id="_R_G_L_11_G_N_4_T_0" transform=" translate(356.566, 235.485)"><g id="_R_G_L_11_G"><path id="_R_G_L_11_G_D_0_P_0" fill="#d5a22f" fill-opacity="1" fill-rule="nonzero" d=" M196.68 159.07 C223.71,161.59 263.65,222.46 289.73,226.32 C332.64,232.67 398.19,198.36 420.63,214.78 C420.63,214.78 416.96,224.06 416.96,224.06 C396.29,209.35 302.96,264.73 257.78,220.28 C212.27,175.5 202.14,168.48 189.74,165.39 C189.74,165.39 196.68,159.07 196.68,159.07z "/></g></g></g><g id="_R_G_L_10_G_N_10_N_9_T_0" transform=" translate(960, 1000) scale(2.08407, 2.08407) translate(-429.5, -306.5)"><g id="_R_G_L_10_G_N_10_T_0" transform=" translate(389.194, 347.765)"><g id="_R_G_L_10_G" transform=" translate(339.292, 465.803)"><path id="_R_G_L_10_G_D_0_P_0" fill="#9e653e" fill-opacity="1" fill-rule="nonzero" d=" M405.9 514.86 C405.9,514.86 394.79,489.13 332.7,478.46 C332.7,478.46 344.69,457.18 344.69,457.18 C359.74,473.72 413.01,497.82 422.71,500 C422.71,500 405.9,514.86 405.9,514.86z "/><path id="_R_G_L_10_G_D_1_P_0" fill="#b3794f" fill-opacity="1" fill-rule="nonzero" d=" M431.95 526.07 C417.79,524.61 403.1,516.8 400.96,510.5 C398.52,503.35 402.9,494.63 411.53,492.3 C417.53,490.67 428.97,489.9 436.15,489.56 C436.15,489.56 431.95,526.07 431.95,526.07z "/></g></g></g><g id="_R_G_L_9_G_N_9_T_0" transform=" translate(960, 1000) scale(2.08407, 2.08407) translate(-429.5, -306.5)"><g id="_R_G_L_9_G" transform=" translate(389.194, 347.765)"><path id="_R_G_L_9_G_D_0_P_0" fill="#9e653e" fill-opacity="1" fill-rule="nonzero" d=" M359.66 384.96 C356.01,401.94 337.83,435.18 329.48,451.73 C327.38,455.88 329.64,460.89 334.13,462.1 C334.13,462.1 344.59,464.91 344.59,464.91 C344.59,464.91 391.84,404.77 417.7,392.1 C417.7,392.1 359.66,384.96 359.66,384.96z "/><path id="_R_G_L_9_G_D_1_P_0" fill="#9e653e" fill-opacity="1" fill-rule="nonzero" d=" M333.67 480.47 C320.26,468.24 324.19,455.84 328.03,448.09 C335.38,433.27 343.29,439.38 347.15,446.32 C352.28,455.55 351.78,496.99 333.67,480.47z "/><path id="_R_G_L_9_G_D_2_P_0" fill="#9e653e" fill-opacity="1" fill-rule="nonzero" d=" M320.79 319.07 C323.94,344.18 346.25,416.72 364.11,424.19 C381.97,431.66 428.92,405.12 455.21,382.78 C481.5,360.43 320.79,319.07 320.79,319.07z "/></g></g><g id="_R_G_L_8_G" transform=" translate(960, 1000) scale(2.08407, 2.08407) translate(-429.5, -306.5)"><path id="_R_G_L_8_G_D_0_P_0" fill="#ebb174" fill-opacity="1" fill-rule="nonzero" d=" M400.37 192.79 C412.21,213.71 415.85,232.87 413.53,240.7 C411.37,248 373,270.47 349.46,274.92 C299.17,284.42 301.1,273.61 299.15,251.07 C298.23,240.38 296.67,229.87 292.89,217.78 C289.11,205.69 317.04,197.04 343.76,189.88 C393.17,176.66 400.37,192.79 400.37,192.79z "/><path id="_R_G_L_8_G_D_1_P_0" fill="#ebb174" fill-opacity="1" fill-rule="nonzero" d=" M303.5 271.28 C302.09,291.89 303.36,307.09 302.09,323.68 C297.33,385.88 387.64,447.96 494.08,405.65 C524.18,393.68 576.86,386.08 595.55,403.07 C625.59,430.38 681.52,314.65 641.69,272.8 C604.11,233.3 562.91,254.91 532.94,266.76 C474.15,290.01 423.82,245.49 411.33,213.6 C403.18,192.91 354.2,209.41 336.72,216.73 C313.34,226.52 304.86,240.04 303.5,271.28z "/><path id="_R_G_L_8_G_D_2_P_0" fill="#b3794f" fill-opacity="1" fill-rule="nonzero" d=" M517.25 348.02 C558.55,337.69 562.52,284.95 561.2,255.81 C551.09,259.15 541.55,263.36 532.94,266.77 C483.45,286.33 439.96,257.88 419.99,229.37 C421.96,320.47 452.29,364.27 517.25,348.02z "/><path id="_R_G_L_8_G_D_3_P_0" fill="#cc3c3c" fill-opacity="1" fill-rule="nonzero" d=" M553.58 256.07 C555.19,278.17 553.59,333.19 510.74,342.62 C453.66,355.18 428.35,316.31 429.21,238.15 C429.21,238.15 433.65,238.79 433.65,238.79 C433.65,238.79 436.2,246.31 436.2,246.31 C478.71,264.54 505.44,266.55 547.54,258.96 C547.54,258.96 549.87,255.54 549.87,255.54 C549.87,255.54 553.58,256.07 553.58,256.07z "/><path id="_R_G_L_8_G_D_4_P_0" fill="#ffcf56" fill-opacity="1" fill-rule="nonzero" d=" M434.45 238.64 C434.45,238.64 437.94,247.01 437.94,247.01 C438.04,247.06 438.15,247.1 438.25,247.15 C440.58,313.78 460.7,346.21 507.94,334.15 C540.45,325.84 545.74,285.86 545.55,259.32 C545.55,259.32 550.48,253.51 550.48,253.51 C550.48,253.51 553.46,253.51 553.46,253.51 C555.95,275.38 553.91,334.56 511.06,343.99 C453.98,356.56 428.35,316.31 429.21,238.15 C429.21,238.15 434.45,238.64 434.45,238.64z "/><path id="_R_G_L_8_G_D_5_P_0" fill="#cc3c3c" fill-opacity="1" fill-rule="nonzero" d=" M437.82 268.36 C437.82,269.72 436.72,270.82 435.36,270.82 C433.99,270.82 432.89,269.72 432.89,268.36 C432.89,266.99 433.99,265.89 435.36,265.89 C436.72,265.89 437.82,266.99 437.82,268.36z "/><path id="_R_G_L_8_G_D_6_P_0" fill="#cc3c3c" fill-opacity="1" fill-rule="nonzero" d=" M436.4 248.02 C436.4,249.38 435.3,250.49 433.94,250.49 C432.58,250.49 431.47,249.38 431.47,248.02 C431.47,246.66 432.58,245.56 433.94,245.56 C435.3,245.56 436.4,246.66 436.4,248.02z "/><path id="_R_G_L_8_G_D_7_P_0" fill="#cc3c3c" fill-opacity="1" fill-rule="nonzero" d=" M440.89 289.48 C440.89,290.84 439.78,291.95 438.42,291.95 C437.06,291.95 435.96,290.84 435.96,289.48 C435.96,288.12 437.06,287.02 438.42,287.02 C439.78,287.02 440.89,288.12 440.89,289.48z "/><path id="_R_G_L_8_G_D_8_P_0" fill="#cc3c3c" fill-opacity="1" fill-rule="nonzero" d=" M448.01 310.99 C448.01,312.36 446.91,313.46 445.55,313.46 C444.18,313.46 443.08,312.36 443.08,310.99 C443.08,309.63 444.18,308.53 445.55,308.53 C446.91,308.53 448.01,309.63 448.01,310.99z "/><path id="_R_G_L_8_G_D_9_P_0" fill="#cc3c3c" fill-opacity="1" fill-rule="nonzero" d=" M460.53 328.53 C460.53,329.9 459.42,331 458.06,331 C456.7,331 455.6,329.9 455.6,328.53 C455.6,327.17 456.7,326.07 458.06,326.07 C459.42,326.07 460.53,327.17 460.53,328.53z "/><path id="_R_G_L_8_G_D_10_P_0" fill="#cc3c3c" fill-opacity="1" fill-rule="nonzero" d=" M478.71 339.36 C478.71,340.72 477.61,341.83 476.25,341.83 C474.89,341.83 473.78,340.72 473.78,339.36 C473.78,338 474.89,336.9 476.25,336.9 C477.61,336.9 478.71,338 478.71,339.36z "/><path id="_R_G_L_8_G_D_11_P_0" fill="#cc3c3c" fill-opacity="1" fill-rule="nonzero" d=" M499.73 341.01 C499.73,342.37 498.63,343.47 497.27,343.47 C495.91,343.47 494.8,342.37 494.8,341.01 C494.8,339.65 495.91,338.54 497.27,338.54 C498.63,338.54 499.73,339.65 499.73,341.01z "/><path id="_R_G_L_8_G_D_12_P_0" fill="#cc3c3c" fill-opacity="1" fill-rule="nonzero" d=" M519.24 336.66 C519.24,338.03 518.13,339.13 516.77,339.13 C515.41,339.13 514.31,338.03 514.31,336.66 C514.31,335.3 515.41,334.2 516.77,334.2 C518.13,334.2 519.24,335.3 519.24,336.66z "/><path id="_R_G_L_8_G_D_13_P_0" fill="#cc3c3c" fill-opacity="1" fill-rule="nonzero" d=" M535.8 324.64 C535.8,326 534.7,327.1 533.34,327.1 C531.98,327.1 530.87,326 530.87,324.64 C530.87,323.28 531.98,322.17 533.34,322.17 C534.7,322.17 535.8,323.28 535.8,324.64z "/><path id="_R_G_L_8_G_D_14_P_0" fill="#cc3c3c" fill-opacity="1" fill-rule="nonzero" d=" M545.59 307.01 C545.59,308.38 544.49,309.48 543.13,309.48 C541.77,309.48 540.66,308.38 540.66,307.01 C540.66,305.65 541.77,304.55 543.13,304.55 C544.49,304.55 545.59,305.65 545.59,307.01z "/><path id="_R_G_L_8_G_D_15_P_0" fill="#cc3c3c" fill-opacity="1" fill-rule="nonzero" d=" M550.89 286.84 C550.89,288.21 549.79,289.31 548.42,289.31 C547.06,289.31 545.96,288.21 545.96,286.84 C545.96,285.48 547.06,284.38 548.42,284.38 C549.79,284.38 550.89,285.48 550.89,286.84z "/><path id="_R_G_L_8_G_D_16_P_0" fill="#cc3c3c" fill-opacity="1" fill-rule="nonzero" d=" M552.36 266.95 C552.36,268.31 551.26,269.41 549.9,269.41 C548.54,269.41 547.43,268.31 547.43,266.95 C547.43,265.59 548.54,264.49 549.9,264.49 C551.26,264.49 552.36,265.59 552.36,266.95z "/><path id="_R_G_L_8_G_D_17_P_0" fill="#b3794f" fill-opacity="1" fill-rule="nonzero" d=" M494.07 405.65 C524.18,393.68 576.86,386.08 595.55,403.07 C604.87,411.54 616.68,406.24 627.35,393.65 C622.47,394.85 619.5,371.59 615.29,367.76 C596.61,350.77 590.51,359.34 516.56,384.95 C416.67,419.55 308.97,376.49 304.71,301.21 C304.28,293.64 303.49,289.03 302.84,286.84 C302.59,300.15 303.02,311.55 302.09,323.68 C297.33,385.88 387.64,447.96 494.07,405.65z "/><path id="_R_G_L_8_G_D_18_P_0" fill="#b3794f" fill-opacity="1" fill-rule="nonzero" d=" M594.62 287.96 C529.82,292.89 537.78,368.52 542.36,394.09 C554.14,392.83 565.69,392.79 575.47,394.53 C575.47,394.53 576.43,394.28 576.43,394.28 C576.43,394.28 594.62,287.96 594.62,287.96z "/></g><g id="_R_G_L_7_G_N_7_N_9_T_0" transform=" translate(960, 1000) scale(2.08407, 2.08407) translate(-429.5, -306.5)"><g id="_R_G_L_7_G_N_7_T_0" transform=" translate(612.795, 343.927)"><g id="_R_G_L_7_G" transform=" translate(703.003, 430.296)"><path id="_R_G_L_7_G_D_0_P_0" fill="#b3794f" fill-opacity="1" fill-rule="nonzero" d=" M698.54 438.06 C698.36,430.95 705.46,427.43 712.78,425.76 C719.36,424.26 726.05,427.77 728.71,433.98 C735.65,450.21 742.52,481 756.74,514.86 C756.74,514.86 734.2,520.59 734.2,520.59 C731.1,473.59 708.21,443.6 698.54,438.06z "/><path id="_R_G_L_7_G_D_1_P_0" fill="#f8bc86" fill-opacity="1" fill-rule="nonzero" d=" M759.64 549.7 C746.07,541.7 733.26,525.26 733.28,516.99 C733.3,507.97 740.67,501.46 749.6,503.77 C756.69,505.61 769.68,512.25 774.77,514.92 C774.77,514.92 759.64,549.7 759.64,549.7z "/></g></g></g><g id="_R_G_L_6_G_N_9_T_0" transform=" translate(960, 1000) scale(2.08407, 2.08407) translate(-429.5, -306.5)"><g id="_R_G_L_6_G" transform=" translate(612.795, 343.927)"><path id="_R_G_L_6_G_D_0_P_0" fill="#ebb174" fill-opacity="1" fill-rule="nonzero" d=" M708.67 422.12 C674.32,433.44 597.26,434.87 569.9,384.57 C542.55,334.27 556.76,255.08 613.43,266.86 C654.43,275.38 671.07,342.45 681.39,383.32 C684.88,397.11 708.67,422.12 708.67,422.12z "/><path id="_R_G_L_6_G_D_1_P_0" fill="#ebb174" fill-opacity="1" fill-rule="nonzero" d=" M642.81 421.01 C678.54,431.97 699.79,437.53 708.47,448.23 C714.28,455.39 721.52,445.63 725.82,438.76 C727.24,436.5 724.1,427.07 721.72,425.87 C712.35,421.15 690.63,407.64 680.01,379.88 C674.98,366.72 642.81,421.01 642.81,421.01z "/><path id="_R_G_L_6_G_D_2_P_0" fill="#ebb174" fill-opacity="1" fill-rule="nonzero" d=" M717.68 454.28 C706.34,454.85 699.33,440.18 702.36,434.99 C709.39,422.9 718.02,421.56 723.54,424 C730.87,427.25 739.53,453.19 717.68,454.28z "/></g></g><g id="_R_G_L_5_G_N_5_N_9_T_0" transform=" translate(960, 1000) scale(2.08407, 2.08407) translate(-429.5, -306.5)"><g id="_R_G_L_5_G_N_5_T_0" transform=" translate(381.517, 333.37)"><g id="_R_G_L_5_G" transform=" translate(253.882, 408.224)"><path id="_R_G_L_5_G_D_0_P_0" fill="#b3794f" fill-opacity="1" fill-rule="nonzero" d=" M233.46 497.14 C233.46,497.14 225.74,467.57 264.94,414.4 C264.94,414.4 242.93,405.02 242.93,405.02 C242.06,429.66 217.67,487.85 211.86,496.59 C211.86,496.59 233.46,497.14 233.46,497.14z "/><path id="_R_G_L_5_G_D_1_P_0" fill="#f8bc86" fill-opacity="1" fill-rule="nonzero" d=" M206.74 533.38 C203.17,518.9 208.01,496.7 214.58,491.08 C221.14,485.46 230.11,486.45 233.58,494.02 C237.06,501.59 240.41,520.42 240.41,520.42 C240.41,520.42 217.58,534.31 206.74,533.38z "/></g></g></g><g id="_R_G_L_4_G_N_9_T_0" transform=" translate(960, 1000) scale(2.08407, 2.08407) translate(-429.5, -306.5)"><g id="_R_G_L_4_G" transform=" translate(381.517, 333.37)"><path id="_R_G_L_4_G_D_0_P_0" fill="#ebb174" fill-opacity="1" fill-rule="nonzero" d=" M336.13 273.23 C324.33,295.53 305.23,359.21 315.37,376.05 C325.51,392.89 397.96,399.06 427.34,391.79 C445,387.43 435.44,338.36 406.24,308.07 C380.77,281.65 336.13,273.23 336.13,273.23z "/><path id="_R_G_L_4_G_D_1_P_0" fill="#ebb174" fill-opacity="1" fill-rule="nonzero" d=" M320.79 354.6 C306.33,367.7 260.74,387.15 252.86,392.27 C252.86,392.27 266.73,406.42 266.73,406.42 C266.73,406.42 336.24,387.97 371.27,376.48 C371.27,376.48 320.79,354.6 320.79,354.6z "/><path id="_R_G_L_4_G_D_2_P_0" fill="#ebb174" fill-opacity="1" fill-rule="nonzero" d=" M241.01 418.54 C237.13,404.11 249.9,388.1 261.94,387.47 C277.58,386.65 278.12,401.08 273.62,406.43 C269.12,411.79 246.48,438.89 241.01,418.54z "/></g></g><g id="_R_G_L_3_G_N_9_T_0" transform=" translate(960, 1000) scale(2.08407, 2.08407) translate(-429.5, -306.5)"><g id="_R_G_L_3_G" transform=" translate(356.566, 235.485)"><path id="_R_G_L_3_G_D_0_P_0" fill="#ebb174" fill-opacity="1" fill-rule="nonzero" d=" M300.91 243.94 C287.16,207.54 292.36,201.14 262.84,180.96 C220.41,151.96 235.92,98.64 277.43,102.88 C334.58,108.73 382.52,163.8 397.78,187.53 C417.31,217.88 305.71,270.51 300.91,243.94z "/><path id="_R_G_L_3_G_D_1_P_0" fill="#b3794f" fill-opacity="1" fill-rule="nonzero" d=" M305.5 117.82 C304.27,116.14 302.56,112.3 300.29,107.87 C292.88,105.43 285.24,103.68 277.43,102.88 C235.93,98.64 220.41,151.96 262.84,180.96 C279.8,192.56 285.3,199.61 289.52,210.41 C289.52,210.41 289.52,210.41 289.52,210.41 C306.39,185.8 314.38,129.98 305.5,117.82z "/><path id="_R_G_L_3_G_D_2_P_0" fill="#b3794f" fill-opacity="1" fill-rule="nonzero" d=" M307.56 110.49 C302.5,111.39 297.6,113.35 292.95,116.57 C299.98,122.69 304.13,130.45 309.6,139.27 C331.36,174.37 352.12,198.06 398.97,189.82 C398.65,189.04 398.27,188.28 397.79,187.53 C385.3,168.11 350.94,127.74 307.56,110.49z "/><path id="_R_G_L_3_G_D_3_P_0" fill="#9a693f" fill-opacity="1" fill-rule="nonzero" d=" M307.09 129.7 C332.94,167.47 360.18,200.21 409.83,183.35 C390.07,176.98 359.9,154.41 354.35,123.84 C349.36,96.39 320.59,93.32 306.42,95.48 C287.2,98.43 283.71,95.55 307.09,129.7z "/><path id="_R_G_L_3_G_D_4_P_0" fill="#815738" fill-opacity="1" fill-rule="nonzero" d=" M409.83 183.35 C409.54,183.29 409.25,183.21 408.96,183.15 C371.36,180.65 340.1,159.89 307.21,129.87 C333.03,167.57 360.26,200.19 409.83,183.35z "/><path id="_R_G_L_3_G_D_5_P_0" fill="#9a693f" fill-opacity="1" fill-rule="nonzero" d=" M368.09 137.36 C372.89,149.38 386.19,165.47 401.88,163.38 C401.88,163.38 386.37,175.05 369.5,168.24 C361.6,165.05 345.22,150.2 345.05,145.7 C344.04,119.87 362.1,122.39 368.09,137.36z "/></g></g><g id="_R_G_L_2_G_N_4_N_9_T_0" transform=" translate(960, 1000) scale(2.08407, 2.08407) translate(-429.5, -306.5)"><g id="_R_G_L_2_G_N_4_T_0" transform=" translate(356.566, 235.485)"><g id="_R_G_L_2_G"><path id="_R_G_L_2_G_D_0_P_0" stroke="#f5751d" stroke-linecap="round" stroke-linejoin="round" fill="none" stroke-width="4.648" stroke-opacity="1" d=" M302.84 269.61 C298.13,306.42 385.35,326.75 419.99,231.2 "/><path id="_R_G_L_2_G_D_1_P_0" fill="#f5751d" fill-opacity="1" fill-rule="nonzero" d=" M420.12 236.61 C420.12,236.61 424.6,260.77 424.6,260.77 C424.6,260.77 407.84,258.25 407.84,258.25 C407.84,258.25 420.12,236.61 420.12,236.61z "/><path id="_R_G_L_2_G_D_2_P_0" fill="#f5751d" fill-opacity="1" fill-rule="nonzero" d=" M407.84 261.01 C407.84,261.01 407.79,285.65 407.79,285.65 C407.79,285.65 391.84,279.58 391.84,279.58 C391.84,279.58 407.84,261.01 407.84,261.01z "/><path id="_R_G_L_2_G_D_3_P_0" fill="#f5751d" fill-opacity="1" fill-rule="nonzero" d=" M391.06 280.61 C391.06,280.61 387.83,306.37 387.83,306.37 C387.83,306.37 371.19,294.14 371.19,294.14 C371.19,294.14 391.06,280.61 391.06,280.61z "/><path id="_R_G_L_2_G_D_4_P_0" fill="#f5751d" fill-opacity="1" fill-rule="nonzero" d=" M369.51 294.51 C369.51,294.51 360.46,318.59 360.46,318.59 C360.46,318.59 347.15,302.28 347.15,302.28 C347.15,302.28 369.51,294.51 369.51,294.51z "/><path id="_R_G_L_2_G_D_5_P_0" fill="#f5751d" fill-opacity="1" fill-rule="nonzero" d=" M346.37 301.56 C346.37,301.56 332.56,320 332.56,320 C332.56,320 323.03,298.69 323.03,298.69 C323.03,298.69 346.37,301.56 346.37,301.56z "/><path id="_R_G_L_2_G_D_6_P_0" fill="#f5751d" fill-opacity="1" fill-rule="nonzero" d=" M321.8 297.28 C321.8,297.28 308.74,310.85 308.74,310.85 C308.74,310.85 305.52,285.57 305.52,285.57 C305.52,285.57 321.8,297.28 321.8,297.28z "/><path id="_R_G_L_2_G_D_7_P_0" fill="#f5751d" fill-opacity="1" fill-rule="nonzero" d=" M305.52 283.21 C305.52,283.21 299.45,300.91 299.45,300.91 C299.45,300.91 300.7,270.66 300.7,270.66 C300.7,270.66 305.52,283.21 305.52,283.21z "/></g></g></g><g id="_R_G_L_1_G_N_4_N_9_T_0" transform=" translate(960, 1000) scale(2.08407, 2.08407) translate(-429.5, -306.5)"><g id="_R_G_L_1_G_N_4_T_0" transform=" translate(356.566, 235.485)"><g id="_R_G_L_1_G" transform=" translate(291.309, 159.672)"><path id="_R_G_L_1_G_D_0_P_0" fill="#9a693f" fill-opacity="1" fill-rule="nonzero" d=" M224.72 71.33 C216.22,71.61 200.63,76.78 193.55,74.02 C193.55,74.02 199.85,83.25 212.11,89.39 C217.86,92.27 225.85,86.44 227.28,83.59 C230.1,77.95 236.89,70.93 224.72,71.33z "/><path id="_R_G_L_1_G_D_1_P_0" fill="#b3794f" fill-opacity="1" fill-rule="nonzero" d=" M234.01 94.91 C232.08,73.39 244.51,51.16 257.61,35.89 C261.83,30.97 268.17,72.05 253.41,92.38 C253.41,92.38 234.01,94.91 234.01,94.91z "/><path id="_R_G_L_1_G_D_2_P_0" fill="#aa7f59" fill-opacity="1" fill-rule="nonzero" d=" M244.23 176.22 C222.95,180.12 197.28,207.4 186.91,206.5 C176.55,205.59 170.05,189.68 170.05,189.68 C170.05,189.68 232.06,160.55 232.06,160.55 C232.06,160.55 244.23,176.22 244.23,176.22z "/><path id="_R_G_L_1_G_D_3_P_0" fill="#ebb174" fill-opacity="1" fill-rule="nonzero" d=" M155.78 173.01 C159.43,163.34 170.74,161.39 174.7,158.44 C191.13,146.22 193.32,132.59 196.36,125.73 C199.34,119.04 204.16,92.24 250.27,84.14 C288.74,77.37 303.74,103.06 307.66,111.77 C308.43,113.47 308.68,115.36 308.38,117.2 C301.07,161.15 271.41,189.28 227.52,177.97 C218.74,175.7 207.42,193.15 189.04,196.82 C184.6,203.68 174.35,205.99 171.76,204.27 C169.17,202.54 151.05,185.56 155.78,173.01z "/><path id="_R_G_L_1_G_D_4_P_0" fill="#b3794f" fill-opacity="1" fill-rule="nonzero" d=" M307.67 111.77 C303.99,103.61 290.58,80.54 257.27,83.23 C280.51,92.1 296.03,108.67 304.89,131.94 C306.35,127.27 307.52,122.35 308.38,117.2 C308.68,115.36 308.43,113.47 307.67,111.77z "/><path id="_R_G_L_1_G_D_5_P_0" fill="#b3794f" fill-opacity="1" fill-rule="nonzero" d=" M238.38 93.05 C227.4,98.66 209.63,124.02 194.85,131.24 C197.99,103.5 215.96,90.17 250.27,84.14 C272.98,80.14 287.51,87.47 296.41,95.92 C277.61,92.4 262.3,80.82 238.38,93.05z "/><path id="_R_G_L_1_G_D_6_P_0" fill="#b3794f" fill-opacity="1" fill-rule="nonzero" d=" M189.04 196.82 C201.9,193.63 227.88,171.28 225.29,166.09 C243.27,184.08 300.31,155.96 307.74,111.94 C307.75,111.95 307.75,111.97 307.76,111.98 C308.46,113.56 308.69,115.31 308.41,117.01 C301.17,161.13 271.9,190.98 227.95,179.65 C222.73,182.66 197.18,205.84 173.89,204.81 C178.19,204.12 183.2,198.27 189.04,196.82z "/><path id="_R_G_L_1_G_D_7_P_0" fill="#ffcf56" fill-opacity="1" fill-rule="nonzero" d=" M183.3 150.44 C216.03,153.48 240.87,219.62 268.08,231.64 C312.29,251.16 399.3,197.07 420.87,214.2 C420.87,214.2 417.06,223.7 417.06,223.7 C397.15,208.43 288.76,281.02 242.59,224.39 C196.42,167.76 190.01,161.45 174.77,157.84 C174.77,157.84 183.3,150.44 183.3,150.44z "/><path id="_R_G_L_1_G_D_8_P_0" fill="#ffcf56" fill-opacity="1" fill-rule="nonzero" d=" M292.4 95.21 C292.4,95.21 295.5,101.01 295.5,101.01 C295.5,101.01 280.34,159.01 222.59,186.25 C222.59,186.25 217.24,179.4 217.24,179.4 C217.24,179.4 267.72,153.69 292.4,95.21z "/><path id="_R_G_L_1_G_D_9_P_0" fill="#ffcf56" fill-opacity="1" fill-rule="nonzero" d=" M221.92 187.51 C221.02,193.41 215.51,197.47 209.61,196.57 C203.71,195.68 199.65,190.17 200.54,184.26 C201.44,178.36 206.95,174.3 212.85,175.2 C218.76,176.1 222.81,181.61 221.92,187.51z "/><path id="_R_G_L_1_G_D_10_P_0" fill="#d5a22f" fill-opacity="1" fill-rule="nonzero" d=" M216.06 186.62 C215.66,189.29 213.17,191.13 210.5,190.72 C207.83,190.32 205.99,187.82 206.39,185.15 C206.8,182.48 209.29,180.65 211.96,181.05 C214.63,181.46 216.47,183.95 216.06,186.62z "/><path id="_R_G_L_1_G_D_11_P_0" fill="#9a693f" fill-opacity="1" fill-rule="nonzero" d=" M260.39 73.16 C234.84,69.47 213.85,66.47 195.55,85.63 C181.79,100.03 174.53,121.59 165.91,130.02 C165.91,130.02 193.67,131.43 205.91,116.34 C218.14,101.24 236.83,85.4 253.48,86.14 C270.13,86.88 260.39,73.16 260.39,73.16z "/><path id="_R_G_L_1_G_D_12_P_0" fill="#815738" fill-opacity="1" fill-rule="nonzero" d=" M205.91 116.34 C218.14,101.24 236.83,85.4 253.48,86.14 C270.13,86.88 260.39,73.16 260.39,73.16 C256.81,72.64 253.33,72.14 249.92,71.71 C233.64,76.25 219.5,99.99 199.37,114.9 C188.44,123 176.39,127.37 166.18,129.73 C166.09,129.82 166,129.93 165.91,130.02 C165.91,130.02 193.67,131.43 205.91,116.34z "/><path id="_R_G_L_1_G_D_13_P_0" fill="#9a693f" fill-opacity="1" fill-rule="nonzero" d=" M306.14 125.22 C298.13,106.1 278.54,87.24 261.92,81.82 C292.5,62.86 318.51,83.15 325.33,92.45 C340.44,113.03 312.23,139.75 306.14,125.22z "/><path id="_R_G_L_1_G_D_14_P_0" fill="#ebb174" fill-opacity="1" fill-rule="nonzero" d=" M247.87 92.3 C252.83,70.51 271.47,52.82 288.58,42.18 C294.09,38.75 287.14,81.21 266.9,96.27 C266.9,96.27 247.87,92.3 247.87,92.3z "/><path id="_R_G_L_1_G_D_15_P_0" fill="#77604d" fill-opacity="1" fill-rule="nonzero" d=" M252.59 89.05 C256.84,73.04 270.98,59.93 283.78,52.01 C287.91,49.45 281.6,80.62 266.38,91.81 C266.38,91.81 252.59,89.05 252.59,89.05z "/><path id="_R_G_L_1_G_D_16_P_0" fill="#77604d" fill-opacity="1" fill-rule="nonzero" d=" M160.32 180.34 C160.89,186.01 163.4,180.96 166.86,176.41 C169.43,173.01 173.74,171.93 172.04,170.51 C168.07,167.18 159.19,168.94 160.32,180.34z "/><path id="_R_G_L_1_G_D_17_P_0" fill="#484443" fill-opacity="1" fill-rule="nonzero" d=" M240.35 127.94 C240.17,128.28 239.91,128.54 239.58,128.73 C238.13,129.51 233.95,131.61 232.7,130.37 C231.44,129.12 233.49,124.93 234.26,123.47 C234.44,123.13 234.7,122.87 235.04,122.68 C236.48,121.9 240.66,119.8 241.92,121.04 C243.17,122.29 241.12,126.48 240.35,127.94z "/></g></g></g><g id="_R_G_L_0_G_N_9_T_0" transform=" translate(960, 1000) scale(2.08407, 2.08407) translate(-429.5, -306.5)"><g id="_R_G_L_0_G" transform=" translate(507.712, 303.141) scale(0.34548, 0.34548) translate(-500, -500)"><path id="_R_G_L_0_G_D_0_P_0" fill="#b3794f" fill-opacity="1" fill-rule="nonzero" d=" M530.68 627.59 C651.67,597.32 663.29,442.86 659.44,357.51 C629.81,367.28 601.87,379.61 576.64,389.59 C431.69,446.9 304.3,363.57 245.8,280.05 C251.56,546.91 340.43,675.18 530.68,627.59z "/><path id="_R_G_L_0_G_D_1_P_0" fill="#cc3c3c" fill-opacity="1" fill-rule="nonzero" d=" M637.11 358.26 C641.83,422.99 637.13,584.15 511.63,611.77 C344.42,648.57 270.29,534.71 272.82,305.78 C272.82,305.78 285.82,307.65 285.82,307.65 C285.82,307.65 293.29,329.66 293.29,329.66 C417.79,383.06 496.1,388.97 619.41,366.73 C619.41,366.73 626.24,356.7 626.24,356.7 C626.24,356.7 637.11,358.26 637.11,358.26z "/><path id="_R_G_L_0_G_D_2_P_0" fill="#ffcf56" fill-opacity="1" fill-rule="nonzero" d=" M288.17 307.2 C288.17,307.2 298.38,331.74 298.38,331.74 C298.69,331.87 298.99,331.99 299.3,332.12 C306.12,527.31 365.06,622.3 503.41,586.95 C598.65,562.62 614.13,445.52 613.58,367.77 C613.58,367.77 628.04,350.75 628.04,350.75 C628.04,350.75 636.75,350.75 636.75,350.75 C644.04,414.83 638.07,588.17 512.57,615.8 C345.36,652.6 270.29,534.71 272.82,305.78 C272.82,305.78 288.17,307.2 288.17,307.2z "/><path id="_R_G_L_0_G_D_3_P_0" fill="#cc3c3c" fill-opacity="1" fill-rule="nonzero" d=" M298.04 394.25 C298.04,398.23 294.8,401.47 290.82,401.47 C286.83,401.47 283.59,398.23 283.59,394.25 C283.59,390.26 286.83,387.02 290.82,387.02 C294.8,387.02 298.04,390.26 298.04,394.25z "/><path id="_R_G_L_0_G_D_4_P_0" fill="#cc3c3c" fill-opacity="1" fill-rule="nonzero" d=" M293.88 334.69 C293.88,338.67 290.65,341.91 286.66,341.91 C282.67,341.91 279.44,338.67 279.44,334.69 C279.44,330.7 282.67,327.46 286.66,327.46 C290.65,327.46 293.88,330.7 293.88,334.69z "/><path id="_R_G_L_0_G_D_5_P_0" fill="#cc3c3c" fill-opacity="1" fill-rule="nonzero" d=" M307.01 456.13 C307.01,460.12 303.78,463.35 299.79,463.35 C295.8,463.35 292.57,460.12 292.57,456.13 C292.57,452.14 295.8,448.91 299.79,448.91 C303.78,448.91 307.01,452.14 307.01,456.13z "/><path id="_R_G_L_0_G_D_6_P_0" fill="#cc3c3c" fill-opacity="1" fill-rule="nonzero" d=" M327.89 519.14 C327.89,523.13 324.65,526.36 320.67,526.36 C316.68,526.36 313.44,523.13 313.44,519.14 C313.44,515.15 316.68,511.92 320.67,511.92 C324.65,511.92 327.89,515.15 327.89,519.14z "/><path id="_R_G_L_0_G_D_7_P_0" fill="#cc3c3c" fill-opacity="1" fill-rule="nonzero" d=" M364.54 570.52 C364.54,574.51 361.31,577.74 357.32,577.74 C353.33,577.74 350.1,574.51 350.1,570.52 C350.1,566.53 353.33,563.3 357.32,563.3 C361.31,563.3 364.54,566.53 364.54,570.52z "/><path id="_R_G_L_0_G_D_8_P_0" fill="#cc3c3c" fill-opacity="1" fill-rule="nonzero" d=" M417.82 602.23 C417.82,606.22 414.59,609.45 410.6,609.45 C406.61,609.45 403.38,606.22 403.38,602.23 C403.38,598.24 406.61,595.01 410.6,595.01 C414.59,595.01 417.82,598.24 417.82,602.23z "/><path id="_R_G_L_0_G_D_9_P_0" fill="#cc3c3c" fill-opacity="1" fill-rule="nonzero" d=" M479.38 607.06 C479.38,611.04 476.15,614.28 472.16,614.28 C468.17,614.28 464.94,611.04 464.94,607.06 C464.94,603.07 468.17,599.84 472.16,599.84 C476.15,599.84 479.38,603.07 479.38,607.06z "/><path id="_R_G_L_0_G_D_10_P_0" fill="#cc3c3c" fill-opacity="1" fill-rule="nonzero" d=" M536.51 594.33 C536.51,598.32 533.28,601.55 529.29,601.55 C525.3,601.55 522.07,598.32 522.07,594.33 C522.07,590.34 525.3,587.11 529.29,587.11 C533.28,587.11 536.51,590.34 536.51,594.33z "/><path id="_R_G_L_0_G_D_11_P_0" fill="#cc3c3c" fill-opacity="1" fill-rule="nonzero" d=" M585.04 559.1 C585.04,563.09 581.81,566.33 577.82,566.33 C573.83,566.33 570.6,563.09 570.6,559.1 C570.6,555.12 573.83,551.88 577.82,551.88 C581.81,551.88 585.04,555.12 585.04,559.1z "/><path id="_R_G_L_0_G_D_12_P_0" fill="#cc3c3c" fill-opacity="1" fill-rule="nonzero" d=" M613.72 507.48 C613.72,511.47 610.48,514.7 606.5,514.7 C602.51,514.7 599.28,511.47 599.28,507.48 C599.28,503.49 602.51,500.26 606.5,500.26 C610.48,500.26 613.72,503.49 613.72,507.48z "/><path id="_R_G_L_0_G_D_13_P_0" fill="#cc3c3c" fill-opacity="1" fill-rule="nonzero" d=" M629.23 448.4 C629.23,452.39 625.99,455.62 622.01,455.62 C618.02,455.62 614.79,452.39 614.79,448.4 C614.79,444.41 618.02,441.18 622.01,441.18 C625.99,441.18 629.23,444.41 629.23,448.4z "/><path id="_R_G_L_0_G_D_14_P_0" fill="#cc3c3c" fill-opacity="1" fill-rule="nonzero" d=" M633.54 390.13 C633.54,394.12 630.31,397.35 626.32,397.35 C622.33,397.35 619.1,394.12 619.1,390.13 C619.1,386.14 622.33,382.91 626.32,382.91 C630.31,382.91 633.54,386.14 633.54,390.13z "/></g></g></g><g id="time_group"/></svg>