<svg xmlns="http://www.w3.org/2000/svg" viewBox="0 0 139.76 22.23"><defs><style>.cls-1{fill:none;stroke:#fff;stroke-linecap:round;stroke-linejoin:round;stroke-width:3px;}.cls-2{fill:#fff;}</style></defs><g id="レイヤー_2" data-name="レイヤー 2"><g id="レイアウト"><line class="cls-1" x1="118.26" y1="11.12" x2="138.26" y2="11.12"/><polyline class="cls-1" points="127.55 20.73 138.25 11.12 127.55 1.5"/><path class="cls-2" d="M9.34,3.47a.49.49,0,0,1,.16.32.4.4,0,0,1-.28.38,3.79,3.79,0,0,0-1,.7c-1.72,1.54-3.92,3.6-5.46,5.2-.18.22-.26.34-.26.44s.08.22.26.36a55.49,55.49,0,0,1,7.44,6.3.48.48,0,0,1,.14.26c0,.08,0,.14-.14.24-.46.5-1,1.08-1.38,1.38-.12.1-.2.16-.28.16s-.14-.06-.24-.18a50.48,50.48,0,0,0-7.28-6.76C.3,11.69,0,11.25,0,10.59s.36-1.1,1-1.76C2.68,7,4.34,5.33,6.06,3.45A5.77,5.77,0,0,0,7.14,2,15.92,15.92,0,0,1,9.34,3.47Z"/><path class="cls-2" d="M21,9.19a8.9,8.9,0,0,1,5.74-2.34,4.75,4.75,0,0,1,5,5.08c0,3.08-1.88,5.2-5.32,6.44a.76.76,0,0,1-.34.08.66.66,0,0,1-.52-.28A5.89,5.89,0,0,0,24,16.85a9.21,9.21,0,0,0,4-2,3.86,3.86,0,0,0,1.36-3,2.8,2.8,0,0,0-3-3.1c-1.84,0-3.4.88-5.36,2.56,0,2.56.08,5,.12,7.68,0,.16-.1.24-.26.24s-1.12.08-1.78.08c-.18,0-.24-.08-.22-.28,0-2,.06-4.14.1-6.18-1,1.44-2,2.9-2.7,4-.1.12-.18.2-.28.2a.35.35,0,0,1-.22-.12,13.88,13.88,0,0,1-1.22-1.2.28.28,0,0,1-.12-.22.35.35,0,0,1,.12-.24c1.76-2.14,2.9-3.56,4.4-5.62,0-.5,0-1,0-1.42-.58.18-1.52.46-2.28.74-.34.14-.54.34-.66.34s-.28-.12-.4-.36a17,17,0,0,1-.8-1.76A9.73,9.73,0,0,0,16.22,7c.52-.12,1.3-.3,2.84-.72,0-.86,0-1.74,0-2.6a7.25,7.25,0,0,0-.2-1.74,15.21,15.21,0,0,1,2.32.34c.42.12.5.34.36.7a3.4,3.4,0,0,0-.2.86c0,.48-.06.94-.1,1.8l.16-.06a.37.37,0,0,1,.14,0c.14,0,.36.2.54.46s.32.48.32.62,0,.22-.34.56-.58.74-1.06,1.44Z"/><path class="cls-2" d="M39.74,2.77c.34.08.48.18.48.38a1.94,1.94,0,0,1-.2.66,12,12,0,0,0-.28,2.44c-.2,3.08-.3,5.12-.3,7.74,0,2,.24,2.48,1.84,2.48,1.78,0,4.56-1.08,7-3.68a7,7,0,0,0,.46,1.9,1.31,1.31,0,0,1,.16.48c0,.18-.08.34-.4.62a11.43,11.43,0,0,1-7.58,3c-2.56,0-3.76-1-3.76-4.08,0-3.36.18-6.24.28-8.64a13.3,13.3,0,0,0-.2-3.66A20.69,20.69,0,0,1,39.74,2.77Z"/><path class="cls-2" d="M62.2,3.47a.49.49,0,0,1,.16.32.4.4,0,0,1-.28.38,3.79,3.79,0,0,0-1,.7c-1.72,1.54-3.92,3.6-5.46,5.2-.18.22-.26.34-.26.44s.08.22.26.36a55.49,55.49,0,0,1,7.44,6.3.48.48,0,0,1,.14.26c0,.08,0,.14-.14.24-.46.5-1,1.08-1.38,1.38-.12.1-.2.16-.28.16s-.14-.06-.24-.18a50.48,50.48,0,0,0-7.28-6.76c-.76-.58-1.06-1-1.06-1.68s.36-1.1,1-1.76c1.7-1.84,3.36-3.5,5.08-5.38A5.77,5.77,0,0,0,60,2,15.92,15.92,0,0,1,62.2,3.47Z"/><path class="cls-2" d="M80.18,8.15a6.26,6.26,0,0,0,0-1.36,8.62,8.62,0,0,1,2.32.86.38.38,0,0,1,.14.54A3.36,3.36,0,0,0,82.3,9c-.16.84-.36,1.72-.56,2.58a23.14,23.14,0,0,1,3.12,1.92c.2.12.18.22.12.42a17.23,17.23,0,0,1-.86,1.72c-.06.1-.12.14-.18.14a.38.38,0,0,1-.24-.14,16.25,16.25,0,0,0-2.62-1.88A12.28,12.28,0,0,1,77,19c-.18.14-.28.22-.4.22a.55.55,0,0,1-.3-.14,4.12,4.12,0,0,0-1.74-.82,11,11,0,0,0,4.48-5.42,13.52,13.52,0,0,0-4-1.22,13.88,13.88,0,0,1-2.44,4,3.28,3.28,0,0,1-2.56,1.1A2.42,2.42,0,0,1,67.74,14c0-2.48,2.56-4.42,5.9-4.42.66-1.66,1.16-3.06,1.66-4.74l-2.76.32a4.2,4.2,0,0,0-.9.22,1.05,1.05,0,0,1-.36.08A.32.32,0,0,1,71,5.21,12.12,12.12,0,0,1,70.38,3a7.45,7.45,0,0,0,1.76.12,22.32,22.32,0,0,0,3.1-.26,2.31,2.31,0,0,0,1-.34.44.44,0,0,1,.26-.08.46.46,0,0,1,.28.08,6.68,6.68,0,0,1,1.36,1.1A.48.48,0,0,1,78.3,4a.51.51,0,0,1-.2.34,2.72,2.72,0,0,0-.54,1C77,6.73,76.48,8.29,75.88,9.73a16.58,16.58,0,0,1,3.88,1A19.79,19.79,0,0,0,80.18,8.15ZM69.62,13.73c0,.64.22.92.7.92a1.62,1.62,0,0,0,1.16-.76,13.67,13.67,0,0,0,1.46-2.44C70.9,11.53,69.62,12.59,69.62,13.73Z"/><path class="cls-2" d="M94.26,9.81a6,6,0,0,1,3.18-.9,4.64,4.64,0,0,1,5,4.8c0,3.34-2.7,5.48-7,5.48-2.52,0-4-1.08-4-2.94a2.65,2.65,0,0,1,2.82-2.44A3.64,3.64,0,0,1,98,16.73a3,3,0,0,0,2-3,2.92,2.92,0,0,0-3.14-3,8.14,8.14,0,0,0-5.12,2.12c-.58.52-1.14,1.1-1.74,1.7-.14.14-.24.22-.34.22a.49.49,0,0,1-.3-.18,9,9,0,0,1-1.18-1.3c-.12-.16-.06-.3.1-.46A48.14,48.14,0,0,0,93,8.35c1.24-1.28,2.18-2.28,3.1-3.42-1.2.22-2.62.5-3.86.76a6.16,6.16,0,0,0-.84.24A1.47,1.47,0,0,1,91,6a.45.45,0,0,1-.44-.34,9.58,9.58,0,0,1-.7-2.16,9.64,9.64,0,0,0,1.86,0c1.22-.12,3-.38,4.54-.68a5.31,5.31,0,0,0,1.1-.3,1,1,0,0,1,.38-.16.71.71,0,0,1,.46.16,7.57,7.57,0,0,1,1.34,1.28.69.69,0,0,1,.22.48.53.53,0,0,1-.34.48,3.23,3.23,0,0,0-.88.64c-1.46,1.42-2.8,2.82-4.32,4.28Zm0,5.7c-.58,0-1,.34-1,.76,0,.62.54,1,1.74,1a4.38,4.38,0,0,0,.92-.08C95.72,16.13,95.12,15.51,94.28,15.51Z"/></g></g></svg>