<svg xmlns="http://www.w3.org/2000/svg" xmlns:xlink="http://www.w3.org/1999/xlink" viewBox="0 0 546.1 244.05"><defs><style>.cls-1,.cls-19{fill:none;}.cls-1{clip-rule:evenodd;}.cls-2{fill:#fff;}.cls-3{fill:#da2034;}.cls-10,.cls-11,.cls-12,.cls-14,.cls-3,.cls-5,.cls-6,.cls-8{fill-rule:evenodd;}.cls-4{clip-path:url(#clip-path);}.cls-5{fill:#c83228;}.cls-6{fill:#ae1828;}.cls-7{clip-path:url(#clip-path-2);}.cls-8{fill:#f3bd0c;}.cls-9{clip-path:url(#clip-path-3);}.cls-10{fill:#ca900d;}.cls-11{fill:#e0a80e;}.cls-12{fill:#f3c10c;}.cls-13{clip-path:url(#clip-path-4);}.cls-14{fill:#d19b11;}.cls-15{clip-path:url(#clip-path-5);}.cls-16{clip-path:url(#clip-path-6);}.cls-17{clip-path:url(#clip-path-7);}.cls-18{clip-path:url(#clip-path-8);}.cls-19{stroke:#fff;stroke-width:0.31px;}</style><clipPath id="clip-path"><path class="cls-1" d="M20.27,111.15a1.34,1.34,0,0,1,.36-.91,1.32,1.32,0,0,1,.9-.38c14.66-.07,150.47-.76,150.46,0-.35,18.5-2.57,117.61-2.82,131a1.26,1.26,0,0,1-1.26,1.24H24.22A1.27,1.27,0,0,1,23,240.92c-.24-13.64-2.43-115.93-2.68-129.77Z"/></clipPath><clipPath id="clip-path-2"><path class="cls-1" d="M14.63,111.15a1.28,1.28,0,0,1,1.27-1.28H176.36a1.3,1.3,0,0,1,.91.38,1.32,1.32,0,0,1,.36.91c-.13,6.89-.74,39.37-.87,46.14a1.26,1.26,0,0,1-1.26,1.24H16.58a1.27,1.27,0,0,1-1.27-1.24c-.1-6.79-.58-39.27-.68-46.15Z"/></clipPath><clipPath id="clip-path-3"><polygon class="cls-1" points="116.52 108.37 75.74 108.37 78.15 242.16 114.07 242.16 116.52 108.37 116.52 108.37"/></clipPath><clipPath id="clip-path-4"><path class="cls-1" d="M93,104.24c2.8-4.78,5-5.73-1.16-6.21-9-.7-31.94,1.28-46.37,6.08-17.48,5.8-28.59,9.34-28.59,9.34l18.8,9-9.22,20s17.25-6.64,32.09-13.8c8.3-4,31-18.57,34.45-24.42Z"/></clipPath><clipPath id="clip-path-5"><path class="cls-1" d="M99.28,104.24c-2.8-4.78-5-5.73,1.16-6.21,9-.7,31.94,1.28,46.37,6.08,17.48,5.8,28.59,9.35,28.59,9.35l-18.8,9,9.22,20s-17.25-6.64-32.09-13.8c-8.3-4-31-18.57-34.45-24.42Z"/></clipPath><clipPath id="clip-path-6"><path class="cls-1" d="M65.49,104.68c-4.87-.81-12.61-1.78-21.36-4.82-5.64-2-13.31-5.81-13.17-6.49C32.35,86.54,46.89,62,52.28,56.93c1.26-1.17,7,3.13,11.92,6.63,7.69,5.52,11.38,10.7,14.62,14.35,5.61,6.29,8.58,15.75,8.58,15.75l1.24,11.17s-15.12,1.2-23.15-.15Z"/></clipPath><clipPath id="clip-path-7"><path class="cls-1" d="M126.77,104.68c4.87-.81,12.61-1.78,21.36-4.82,5.64-2,13.31-5.81,13.17-6.49C159.91,86.54,145.37,62,140,56.93c-1.26-1.17-7,3.13-11.92,6.63-7.69,5.52-11.38,10.7-14.63,14.35-5.6,6.29-8.57,15.75-8.57,15.75l-1.24,11.17s15.12,1.2,23.15-.15Z"/></clipPath><clipPath id="clip-path-8"><path class="cls-1" d="M105.8,91.66c0-2.19-6.45,1.7-9.67,1.7s-9.67-3.77-9.67-1.7v17c0,1.54,6.45,0,9.67,0s9.67,1.46,9.67,0v-17Z"/></clipPath></defs><title>アセット 81</title><g id="レイヤー_2" data-name="レイヤー 2"><g id="レイアウト"><path class="cls-2" d="M301.31,124.39a2.19,2.19,0,0,1-1.26,2.24c-1.05.35-1.68,1.05-2.59.77a5.17,5.17,0,0,1-2.66-.7c-1-.35-1.12-1-1.26-2.31a5.56,5.56,0,0,0-.07-2.38c.21-1.54-.56-1.75-2.17-2a15.22,15.22,0,0,1-5,0,29.41,29.41,0,0,1-5,0,13.1,13.1,0,0,1-5,0c-1.82,0-3.43.07-5.11,0a19.66,19.66,0,0,0-5,0,15.22,15.22,0,0,1-5,0c-1.82.07-3.15-.28-5,0a23.55,23.55,0,0,1-5,0c-1.82.35-2.24.7-2.17,2a7.69,7.69,0,0,0-.07,3.36,3.88,3.88,0,0,1-1.27,2.24c-.62.7-1.68.49-2.59.77a5.47,5.47,0,0,1-2.66-.7c-.7-.56-1.54-1.19-1.33-2.31-.28-1.19.14-2.52,0-3.78.21-.91.21-1.82.35-2.87A4.21,4.21,0,0,1,243,116.2a4.91,4.91,0,0,1,3.36-1.54,13.3,13.3,0,0,1,3.57-.28c1.27-.21,3.16-.07,4.35-.14,1.26-.35.07-.77-.35-1.82s-1.33-2-1.33-2.45c.14-1.19.56-1.33,1.19-2.17a4.52,4.52,0,0,1,2.45-.84c1-.14,1.47.21,2.52.91a28.46,28.46,0,0,1,2.52,2.52c.7,1.26,1.61,2.73,1.33,3.43.7.63,1.26.35,2.66.49.35.14,1.26.07,1.54-1.19a15.21,15.21,0,0,0,.35-3.43c.14-1.89.28-2.38,1.33-2.87a5.65,5.65,0,0,1,2.59-.77,21.46,21.46,0,0,1,2.52.77c.91.84,1.47,1.26,1.26,2.87a16,16,0,0,0,.49,3.78c.28,1.26,1.4,1,2.24.91,1.75.35,2.17-.49,2.17-1.54.42-.56.42-1.47,1.47-2.17a9.35,9.35,0,0,0,1.89-1.82c1-1,2-2,3.15-2a6.21,6.21,0,0,1,2.45.91A3,3,0,0,1,289.9,110a11.91,11.91,0,0,1-1,2.73,1.83,1.83,0,0,0-.35,1c.07.42.7.56,1.47.56a14.63,14.63,0,0,1,1.75.07,30.46,30.46,0,0,0,4.76.35,4.68,4.68,0,0,1,3.43,1.82,3.4,3.4,0,0,1,1.19,2.38c0,1,.35,2.1.28,2.66C301.52,122.43,301.1,123.55,301.31,124.39Zm-.77,45.16c-.28.84-.49,1.33-.77,2.17a2.74,2.74,0,0,1-1.89,1.05,8.33,8.33,0,0,1-3.78-.35,8.8,8.8,0,0,0-2.45-.49c-.84-.42-2.1-.28-2.73-.63s-2.17-.21-2.73-.7c-1.19-.28-1.89-.14-2.52-.7a12.32,12.32,0,0,1-3.71-1.12,3.26,3.26,0,0,1-2.45-1.12,2.3,2.3,0,0,1-1.19-2.45c.35-1.05.14-2-1.47-2.31-1.26.28-2.73-.07-3.92,0-1,.28-2.8-.21-3.92,0-1.47-.21-2-.07-1.68,1,.7,1.47.21,3.22-.42,3.36a13.13,13.13,0,0,1-1.68,1.26c-1.12,1-3,1-3.92,1.26a4,4,0,0,0-2.31.63c-1,.56-1.47.14-2.24.63a17.16,17.16,0,0,1-2.24.56c-1.12.21-2.17.63-3,.7a23.73,23.73,0,0,0-3,.56c-.77-.07-1.82.35-2.31.07-1.12,0-1.19-.7-2-1.12-.21-.7-.63-1.47-.77-2.17a7,7,0,0,1,.84-2.1,4.86,4.86,0,0,1,2.1-1,5.55,5.55,0,0,1,2.1-.35,16.75,16.75,0,0,0,3.58-.63,19.41,19.41,0,0,1,3.57-.84,3.21,3.21,0,0,0,2.1-.56c1.12-.49,2.87-.7,4.2-1.12a14.26,14.26,0,0,0-3.71-.14c-.63-.35-1.68,0-2.1-.28-1.33-.49-2.66-.42-3.15-1.75a10.18,10.18,0,0,1-1.27-4,9.7,9.7,0,0,0,0-3.57c-.27-.85.08-2.6,0-3.51a15,15,0,0,1,0-3.5,10.28,10.28,0,0,1,0-3.5c-.34-.77.29-1.4.29-2.38.35-.42.56-1.54,1.26-2,.91-.91,1.89-1,3.08-1.4,1.26.14,2-.28,3.29-.28a9.36,9.36,0,0,1,3.43,0,7.07,7.07,0,0,0,3.43,0,28,28,0,0,1,3.43,0c1.47-.28,2.31.21,3.43,0s2.24.21,3.43,0c.91.14,2.31-.07,3.43,0,1.4,0,2.24.07,3.43,0a14.06,14.06,0,0,1,3.43,0c1.26-.07,2.31.35,3.57.35a7.48,7.48,0,0,1,3.15,1.61,5.77,5.77,0,0,1,1.26,4.06c-.28,1.26.07,2.1,0,3.5a9.79,9.79,0,0,0,0,3.5,19.53,19.53,0,0,1,0,3.51c-.14,1.19.14,2.66,0,3.57a4.37,4.37,0,0,1-.77,3.15c-.84,1.19-1.26,1.89-2.45,2.17-.91.35-2,.28-2.66.63a13.74,13.74,0,0,0-4.41.35,12.91,12.91,0,0,1,2.94.7c.91.35,1.05.7,1.75.42a7.15,7.15,0,0,0,3.29.77,19.12,19.12,0,0,0,3.22.56,12.47,12.47,0,0,1,4.2.84A3.19,3.19,0,0,1,300.54,169.55ZM254.2,129.92c-.28-.91.28-2.1,0-2.94a3.76,3.76,0,0,1,.7-2.66,5.12,5.12,0,0,1,1.89-1.4c.56-.42,1.68-.14,2.52-.56.56-.42,2,.14,2.66-.14a20.27,20.27,0,0,0,4.62,0c1.26-.07,3.08.07,4.62,0a34.8,34.8,0,0,0,4.69,0c1.47-.14,3.15,0,4.62,0,.7.21,2.59.07,3.57.21a26.42,26.42,0,0,1,3.15,1.54c.91,1,.77,2.17,1,3a20.58,20.58,0,0,1,0,2.94c.28.84-.49,2.31-.7,2.66-.77.42-1.12,1.33-1.82,1.4a3.14,3.14,0,0,1-2.52.63,4.31,4.31,0,0,1-2.66.07,33.92,33.92,0,0,1-4.62,0,14.94,14.94,0,0,1-4.69,0,12.75,12.75,0,0,1-4.62,0c-1.89.07-3.29-.21-4.62,0a10.12,10.12,0,0,1-3.64-.21,4.44,4.44,0,0,1-3.15-1.47A2.68,2.68,0,0,1,254.2,129.92Zm5.53,21c1.68-.21,3.08.36,4.41,0a16.86,16.86,0,0,1,3.64,0c1.47-.28,2.24.28,3.57,0,1.33-.13,2.24.15,3.64,0,1.05-.21,2.45.21,3.57,0s3.71-.07,5.53-.28c.84.21,1.61-.14,1.68-1.39-.84-.57-1.4-.36-2.8-.57-2.17-.21-3.08.15-4.41,0a8.76,8.76,0,0,1-3.57,0,8,8,0,0,0-3.64,0,7.67,7.67,0,0,1-3.57,0,12.68,12.68,0,0,0-3.64,0,24.21,24.21,0,0,1-5.18.15c-.84-.15-1.26.69-1.4,1.67C258.4,151.91,258.89,150.71,259.73,150.92Zm24.57,7c.7-.35.91-1.89.14-2.31-2.45-.07-4.55.42-5.53.14a10.13,10.13,0,0,0-3.92.14,15.86,15.86,0,0,1-3.64-.14,12.58,12.58,0,0,0-3.57-.14c-.91-.14-2.17.35-3.64,0a43.26,43.26,0,0,0-5.95.07c-1.05.21-.49,1.54.28,2.24a11.24,11.24,0,0,1,3.78,0,4.89,4.89,0,0,0,3,0c1-.14,1.68.35,3,0,1.33-.14,1.89.28,3.08,0a10.68,10.68,0,0,1,3,0,22.45,22.45,0,0,1,3.08,0,21.57,21.57,0,0,1,3,0A11.67,11.67,0,0,0,284.3,157.93Zm-26.53-15.27c-.07.63.35,1.33.84,1.19a36.41,36.41,0,0,1,5.39.35c1.19,0,2.31-.77,3.78-.49a9.62,9.62,0,0,0,3.57.21c1.26-.14,2.17.21,3.64.07.84.28,2.59-.07,3.57.07,1.12.35,4.13-.07,6-.14.56.14.7-.21.63-.77a1.84,1.84,0,0,0-1-1.4,10.24,10.24,0,0,1-3.71-.07c-1.26-.14-2.24.28-3,0-1-.14-2,.28-3.08,0a14.38,14.38,0,0,0-3,0c-1.33-.14-1.82.07-3.08,0-.7-.14-2.17.07-3,0a21.59,21.59,0,0,0-3,0,8.91,8.91,0,0,0-3.85.07A1,1,0,0,0,257.77,142.66Zm3.78-14.84c.14,2.17,1,2.1,1.61,2.17a19,19,0,0,1,4,0,39,39,0,0,1,4.06,0c1.54-.28,2.66.35,4.06,0,1.12.28,2.31-.07,4,0,1-.14,1.47-.21,1.54-1.05.07-2.17-.84-2.31-1.61-2.1a10.53,10.53,0,0,1-3.92,0,9.81,9.81,0,0,0-4.06,0c-1.54.35-2.45,0-4.06,0a9.58,9.58,0,0,1-4,0C262,127.12,261.55,127,261.55,127.82Z"/><path class="cls-2" d="M347.86,154.91c-.28,1.41.07,2,0,3.37a12.73,12.73,0,0,0,0,3.29,14,14,0,0,0-.42,3.15,4.11,4.11,0,0,1-1.68,2.73,4.77,4.77,0,0,1-3.15,1.61,5,5,0,0,1-3.57.35c-1.33-.14-2.66,0-4.34,0a29,29,0,0,1-4.28,0,7.09,7.09,0,0,1-3.78-.42c-1.61-.21-2.17-1.05-3.36-1.89-.7-1-1.4-1.33-1.33-2.59s-.35-1.68-.35-2.87a9,9,0,0,1,0-3.36c.14-.84-.07-2.31,0-3.37.21-.83-.35-2.45,0-3.36.28-1.39-.21-1.89,0-3.36-.35-1,.35-2,.42-3.15.42-.77.77-2.1,1.68-2.73,1-1,2-1.12,3.22-1.61,1.26.07,2.1-.35,3.5-.35a28.85,28.85,0,0,0,4.28,0c1.12,0,2.87-.14,4.34,0,1.4-.07,2.52.42,3.85.42a7.8,7.8,0,0,1,3.29,2,4.06,4.06,0,0,1,1.33,2.59c-.07,1.12.42,2,.35,2.87-.14,1.12.14,2.52,0,3.36A9,9,0,0,1,347.86,154.91ZM340,149.25c0-1.69-.56-1.9-2.17-2.18-.84-.14-2.17.21-3.08,0a11.29,11.29,0,0,1-3.08,0c-1.9.35-2.1.7-2.25,2.18-.14.62.15,1.82,0,2.79a6.31,6.31,0,0,1,0,2.87c.08.71-.27,2,0,2.88s-.35,2.17,0,2.8c.08,1.89.64,1.89,2.25,2.1a9.1,9.1,0,0,0,3.08,0,5.74,5.74,0,0,0,3.08,0c1.75.35,2.17-.49,2.17-2.1a5.4,5.4,0,0,1,0-2.8,9.8,9.8,0,0,1,0-2.88,5.59,5.59,0,0,1,0-2.87C339.81,151.41,340.3,150.16,340,149.25Zm11.76-15.06c-1.82-.28-2.8.28-4.41,0a22.47,22.47,0,0,1-4.34,0,25.24,25.24,0,0,1-4.2-.35c-.84.14-1.19-.21-2-.77-.84-.21-1.05-1-1.68-1.26-.91-.63-.77-1.61-1.26-2.38a10.35,10.35,0,0,0-.35-2.73,41.48,41.48,0,0,1,0-5.11,24.26,24.26,0,0,1,0-5c.14-1.12-.07-2,.42-2.94.49-.77.77-2,1.61-2.59a8.48,8.48,0,0,1,3.57-1.68c1.47-.14,2.87-.14,3.92-.35s2.87.28,4.34,0a11.67,11.67,0,0,0,4.41,0,12.9,12.9,0,0,0,4.34,0c1.4.35,2.66,0,4.34,0s2.66.28,4.2.42c1.12.42,2.87.91,3.71,2a19.55,19.55,0,0,1,1.26,2.38,5,5,0,0,1,.35,2.73c0,1.47-.07,3.43,0,5a24.92,24.92,0,0,0,0,5.11,21.25,21.25,0,0,1-.91,4,9.82,9.82,0,0,1-1.19,1.54,5.58,5.58,0,0,0-1.82,1.12,13.41,13.41,0,0,1-2.8.7c-.63.49-1.89.14-2.8.14-1.4,0-3.08.14-4.34,0C354.51,134.05,353.25,134.54,351.78,134.19Zm3.71-6.72a20.91,20.91,0,0,0,3.64,0c2-.14,3.08-.49,2.87-2.1a22.61,22.61,0,0,0,0-3.78c0-1.47-.07-2.52,0-3.71-.21-1.61-1.12-2.31-2.87-2.17a8,8,0,0,1-3.64,0,16.44,16.44,0,0,0-3.71,0,32.38,32.38,0,0,0-3.71,0c-1.05-.28-2.45.35-3.64,0-2.17.07-3,.91-2.94,2.17a16.44,16.44,0,0,0,0,3.71,17,17,0,0,1,0,3.78c0,2,1.05,2.38,2.87,2.1,1.05.28,2.1-.07,3.71,0a13.08,13.08,0,0,0,3.71,0C352.69,127.4,354.23,127.54,355.49,127.47Zm26.39,27.44a6.78,6.78,0,0,0,0,3.37,8.5,8.5,0,0,0,0,3.29c-.28,1.26,0,2.38-.42,3.15a4.6,4.6,0,0,1-1.68,2.73c-.7,1-2,1.05-3.15,1.61a23.55,23.55,0,0,1-3.57.35,10.59,10.59,0,0,1-4.69,0c-1.47-.28-3.15.28-4.76,0-1.19-.28-2.87-.07-3.78-.42s-2.8-.7-3.36-1.89a4.58,4.58,0,0,1-1.33-2.59c-.14-.63-.14-2-.35-2.87a6.81,6.81,0,0,1,0-3.36c-.28-1.05.07-2.45,0-3.37a9,9,0,0,1,0-3.36c-.07-1.39.28-2.3,0-3.36a5.58,5.58,0,0,1,.42-3.15,5.2,5.2,0,0,1,1.68-2.73,4.37,4.37,0,0,1,3.22-1.61,6.48,6.48,0,0,1,3.5-.35c1.33.35,3.15-.28,4.76,0a34.91,34.91,0,0,1,4.69,0,22.36,22.36,0,0,0,3.85.42c1.26.7,2.24.91,3.29,2a8.25,8.25,0,0,1,1.33,2.59,5.34,5.34,0,0,1,.35,2.87c-.07,1,.07,2.24,0,3.36S382.09,153.94,381.88,154.91ZM374,157.79c.07-1.13-.07-1.75,0-2.88a9.85,9.85,0,0,1,0-2.87,18.56,18.56,0,0,0,0-2.79c.07-1.76-.84-2.32-2.17-2.18a11.61,11.61,0,0,0-3.5,0c-1.33.14-2.17-.07-3.5,0-1.75-.14-2.24.63-2.24,2.18-.35,1.12.14,1.95,0,2.79a9.75,9.75,0,0,1,0,2.87,6.55,6.55,0,0,0,0,2.88c.14.91-.07,1.75,0,2.8-.21,1.82.77,2.17,2.24,2.1a28.87,28.87,0,0,0,3.5,0,29.09,29.09,0,0,1,3.5,0c1.75-.14,1.82-.63,2.17-2.1A9.38,9.38,0,0,0,374,157.79Z"/><path class="cls-2" d="M428.78,140.56a6.49,6.49,0,0,1,.56,2.38c-.35,1-.28,1.89-1.12,2.24-.63.77-1.61.7-2.45.84a2.87,2.87,0,0,1-2.17-.77,11.33,11.33,0,0,1-2.59-2.59c-.91.07-1.19.56-2,.91-.35.42-.77.56-.7,2.17a12.61,12.61,0,0,0,0,4.06,12.93,12.93,0,0,0,0,3.29c-.35,1.33.21,2.11,0,3.36-.14,1.48.07,2.25,0,3.3a17.75,17.75,0,0,0,0,3.36,7.45,7.45,0,0,0,0,3.29,18.32,18.32,0,0,1-.07,3.43,2.28,2.28,0,0,1-1.19,2.1c-.63.84-2,.7-2.52.7s-1.82.07-2.46-.7a2.34,2.34,0,0,1-1.25-2.1c0-.77-.08-2.31-.08-3.36,0-.84.08-2.38,0-3.22-.21-1.33.21-2.24,0-3.22a7.77,7.77,0,0,0,0-3.22c-.06-1.33.08-1.82,0-3.23-.27-1.4.21-2.24,0-3.21a19,19,0,0,1,0-3.93c-.34-2.31-2.17-1.75-3.15-2a21.89,21.89,0,0,1-2.73.14,2.45,2.45,0,0,1-2.1,0c-.84-.21-1.61-.07-2.24-1.05-.91-.35-.77-1.33-.84-2.38a2.68,2.68,0,0,1,.56-2.1c.14-.49,1.05-1.4,1.68-1.26a21.6,21.6,0,0,0,3.15-.21c1.4-.42,1.26-.49,1.61-.84.77-.56,1-1.54,2.31-3.36.5-.63.92-2.52.07-3.43a34.85,34.85,0,0,1-2.45-2.66,3.3,3.3,0,0,1-1.82-2,4,4,0,0,1-2.1-2,11.67,11.67,0,0,1-1.47-2.73c-.28-.84.56-1.75,1.05-2.38a4,4,0,0,1,2.38-1,2.88,2.88,0,0,0,3.08-.28,18.87,18.87,0,0,0,1.2-2.38,5.24,5.24,0,0,1,.9-2c.29-.77.7-1.33.91-2a7.4,7.4,0,0,1,1.76-2.59,8.76,8.76,0,0,1,2-.7,21.64,21.64,0,0,1,2.59.84,4.91,4.91,0,0,1,1.26,2.38,15.45,15.45,0,0,0-.77,2.66,7.14,7.14,0,0,1-1.82,3.43c-.49.91-.91,2.24-1.47,2.66a7.62,7.62,0,0,0-1.75,2.73c-.63,1.54.56,2.31,1.26,3,.77,0,1.12-.56,1.26-1.47a8.73,8.73,0,0,0,1.4-2.59c.77-.49.84-1.75,1.4-2.52a3.19,3.19,0,0,1,2.87-1.61,14.11,14.11,0,0,1,2.52.91c.42.77,1.54,1.26,1.26,2.38-.07.49-.63,1-.63,2.17a4.26,4.26,0,0,1-1.12,1.89,13.4,13.4,0,0,0-2,3.43,23.23,23.23,0,0,1-2.17,3.43,4.76,4.76,0,0,1-1.12,1.61,3.48,3.48,0,0,0-1.26,1.89,3.24,3.24,0,0,0-.7,2.1c.07.35.28.42.63.35,2-.28,2.94-.63,2.31-2.94-.21-1,.35-1.47,1.12-2.1a3.5,3.5,0,0,1,2-1,3.55,3.55,0,0,1,2.87,1.47,23.23,23.23,0,0,1,1.4,2.24c.28,1.19,1.33,1.89,1.54,2.8C428.08,138.74,428.15,139.79,428.78,140.56ZM409,148.33c.71.77.63,1.75.92,2.38-.36,1.33-.15,2.24-.42,3.23-.08,1.12-.78,2.45-.71,3.36a14.49,14.49,0,0,0-1,3.36c-.42,1.05-.77,2.17-1.12,3a4.91,4.91,0,0,1-3.22,2.17c-.63.28-2-.56-2.24-.84-.35-.77-1.26-.91-1.05-2.1.63-1,.49-2.17,1.12-3.36a8.28,8.28,0,0,1,.84-2.88,3.86,3.86,0,0,0,.63-2.66c.14-.76.49-2,.56-2.59a9.8,9.8,0,0,1,1.33-3.08,3.63,3.63,0,0,1,2-.84C407.21,147.28,408.34,148.05,409,148.33Zm19,11.14c.21.7-.28,1.26-1.12,2a2.86,2.86,0,0,1-2.17.77c-1.4-.14-3-1-3-2.38-.49-1.12-.21-1.4-.49-2.52-.42-.56-.21-1.54-.56-2.39a10.87,10.87,0,0,1-.63-2.3,11.6,11.6,0,0,1-.7-2.45,4.94,4.94,0,0,1,1-2.74c.56-.35,1.61-.42,2.1-.77,1.19-.14,1.61.56,2.17.91.56.77.7,1.48,1.19,2.24a4,4,0,0,1,.56,1.82,18.51,18.51,0,0,0,1.12,3.86A19.29,19.29,0,0,1,427.94,159.47Zm34.86-38.09a17.32,17.32,0,0,1-.35,4.2c-.14,1.26-.49,3-.7,4.13-.56,1.47-.63,2.52-1.05,3.78-.42.7-.77,1.61-1.26,2.45-.56,1.05-.91,1.68-2,1.89a10.23,10.23,0,0,0-2.38.84c-1,.56-1.68,0-2.45.28-1.26-.21-3.22.07-5-.56-.7-.35-1.4-.91-2-1.19-.84-.28-1-1-.84-2.31a2.87,2.87,0,0,1,.91-2.52,7.22,7.22,0,0,1,2.45-1.19,9.14,9.14,0,0,0,3.64.42c1.33.35,1.82-.84,2.1-1.75a11.26,11.26,0,0,1,.63-2.73,9.07,9.07,0,0,0,.42-2.8c-.07-.91.35-2.17.28-2.87-.28-.77.21-1.75.07-2.8.14-1.26-1-1.47-1.68-1.33-1.4-.28-2.45.35-4.34,0-1.26.14-2.87,1.4-2.73,2.24-.07,1.75-.91,3.22-.84,4a12.14,12.14,0,0,0-1,3.15c-.49,1.26-1.05,2.31-1.33,3a10.33,10.33,0,0,1-1.61,2.8c-.7.63-1.12,1.89-2,2.8-.49,1-1.4,1.54-2.31,2.59-.7.56-2,1.61-2.52,2s-1.47,1-2.38.7a4.18,4.18,0,0,1-2.59-1,18,18,0,0,1-1.12-2.59,2.63,2.63,0,0,1,.91-2.45c.63-.49,1.19-1.54,1.82-1.82.91-.63,1.05-1.12,1.61-1.61.28-.7,1.19-1.05,1.47-1.75.7-.7.63-1.12,1.19-1.82a17,17,0,0,0,1-2,15.94,15.94,0,0,0,.84-2c.07-.84.56-1.19.91-2.94s-.49-3.5-1.75-3.29c-1.75.28-3.15-.14-4.27-.07a2.59,2.59,0,0,1-2.17-1,2.75,2.75,0,0,1-.84-2.38,13.51,13.51,0,0,1,.77-2.38,2.49,2.49,0,0,1,2.24-1,6.28,6.28,0,0,0,2.8-.07,9.27,9.27,0,0,1,2.8,0,17.82,17.82,0,0,0,5.46,0,29.17,29.17,0,0,1,5.53,0c1.54.35,3.43,0,5.46,0a10.72,10.72,0,0,1,3.71.42,4.75,4.75,0,0,1,3.15,1.89c.77.42,1.05,1.75,1.19,2.31a6.43,6.43,0,0,0,.28,2.59A36.56,36.56,0,0,1,462.8,121.38Zm-.63,38.51a23.64,23.64,0,0,0,0,3.15,6.22,6.22,0,0,1-.63,3.43c-.63,1.33-1.05,2.45-2.24,2.8a4.4,4.4,0,0,1-3,1c-1.33,0-2.1.49-3.08.21a20.58,20.58,0,0,0-2.94,0,7.26,7.26,0,0,1-3,0,8.48,8.48,0,0,1-3,0,6.83,6.83,0,0,0-2.94,0,5.16,5.16,0,0,1-3.85-.42,4.48,4.48,0,0,1-3.43-2c-.42-.77-1.47-1.4-1.33-2.52-.56-.7-.07-1.75-.35-2.8,0-1.19-.35-1.68,0-3.08.28-1.19-.14-1.82,0-3.15a6.52,6.52,0,0,1,0-3.08,9.5,9.5,0,0,1,0-3.15,27.47,27.47,0,0,0,.42-3c.35-1.26.49-1.89,1.61-2.59a5.64,5.64,0,0,1,3.29-1.61,21.81,21.81,0,0,0,3.64-.28c.84-.21,2,.21,2.94,0s2.17.21,3,0a7.25,7.25,0,0,1,3,0,4.67,4.67,0,0,0,2.94,0,8.65,8.65,0,0,1,3.92.35c1.26.63,2.24.77,3.43,2a25.66,25.66,0,0,0,1.26,2.45,9.14,9.14,0,0,1,.35,2.67,7.1,7.1,0,0,0,0,3.21,6.86,6.86,0,0,0,0,3.16C462.45,157.51,462,159.12,462.17,159.89Zm-7.7-3.15a22.57,22.57,0,0,0,0-5.33c.28-1.33-.42-1.82-2-1.75-2,.21-3.57-.14-5.18,0a27,27,0,0,0-5.32,0c-1.12-.28-1.61.42-1.89,1.75a17,17,0,0,0,0,5.33c-.28,1.82.07,3.29,0,5.32-.28,1.33.84,1.68,1.89,1.75,1.47.28,3.57-.28,5.32,0a18.81,18.81,0,0,0,5.25,0c1.19.28,2.1-.28,2-1.82S454.61,158.77,454.47,156.74Z"/><path class="cls-2" d="M546.1,135c-.28,1.47-.35,2.24-1.19,2.87s-1.68,1.54-2.8,1.26a12,12,0,0,1-3.85-1.33c-1.19-.28-2.45-1.68-3.15-1.89-1.12-.91-2.24-1.26-3.15-2a36.89,36.89,0,0,1-3.08-2.17,16.83,16.83,0,0,1-3-2.24,12.37,12.37,0,0,1-2.87-2.38,24.08,24.08,0,0,0-2.87-2.45,31.59,31.59,0,0,1-2.66-2.59,4.36,4.36,0,0,1-1.4-1.4c-.35-.84-1.12-.77-1.82-1.89-1-.56-2.17-2-2.73-1a13.32,13.32,0,0,1-1.61,1.82c-.77.56-1.12.77-1.33,1.47a5.57,5.57,0,0,0-1.4,1.47c-.77.7-1.12.84-1.4,1.4-.56.21-.7.91-1.47,1.47-.84.35-1.12,1.26-1.47,1.33a4.4,4.4,0,0,1-1.47,1.33c-.7.49-.91,1.19-1.54,1.33-.21.42-.91.56-1.54,1.33a1.82,1.82,0,0,0-1.54,1.26,6,6,0,0,1-1.61,1.19c-.84.7-1.05.49-1.61,1.19a5.78,5.78,0,0,1-1.68,1.19,3.38,3.38,0,0,1-1.68,1.12c-.35.35-1.33.42-1.69,1a8.71,8.71,0,0,0-2.45,1.61,17.69,17.69,0,0,1-2.8.84,4.92,4.92,0,0,1-2.66-1.19c-.91-.42-1-1.61-1.12-2.73a3.06,3.06,0,0,1,.63-2c.28-.56,1.19-1,1.61-1.54.7-.14,1.26-1,2-1.26.56-.56.91-.42,1.89-1.12.7-.28,1.82-1.47,2.8-1.89a15.28,15.28,0,0,1,2.87-2,6,6,0,0,0,2.81-2.24c1.12-1.12,2-1.33,2.8-2.45a20.19,20.19,0,0,1,2.73-2.52,12.48,12.48,0,0,1,2.52-2.59,23,23,0,0,0,2.31-2.59,9.31,9.31,0,0,0,2.17-2.59c.56-.28.63-1.19,1.4-1.82.07-.49,1.12-1,1.33-1.75,1.05-1.26,2.31-2,3.57-1.75.7.07,2.24.28,2.73.91a1.92,1.92,0,0,1,1.26,2.38,2.52,2.52,0,0,0,1.19,1.75,6.89,6.89,0,0,1,1.19,1.61,7,7,0,0,0,2.38,2.8,22.54,22.54,0,0,0,2.59,2.59c1,.56,1.89,1.89,2.66,2.31,1.12.49,1.82,1.61,3.08,2.38s1.82,1.75,3.22,2.31c.84,1,2.45,1.54,3.36,2.1a6.6,6.6,0,0,0,3.36,2,8.2,8.2,0,0,0,3.64,1.89c.91.77,1.4.91,1.89,1.61A8.21,8.21,0,0,1,546.1,135Zm-40.25,7.7a17.56,17.56,0,0,1-.07,2.73,22.55,22.55,0,0,0-.28,2.73c-.14,1,0,2-.42,2.66-.14,1.12-.07,2.1-.56,2.67a15.07,15.07,0,0,0-.77,2.59,5.77,5.77,0,0,1-1,2.52,6.07,6.07,0,0,1-1.19,2.45,4.73,4.73,0,0,0-1.47,2.38c-.56,1-1.33,1.4-1.75,2.38-.63.84-1.47,1.61-2.24,2.59a9.29,9.29,0,0,1-2.45,2.31,4.55,4.55,0,0,1-2.59,1.68,16.29,16.29,0,0,1-2,.42c-.7.35-2-.42-2.66-1.05a2.23,2.23,0,0,1-1.12-2.59c-.28-.84.21-1.4.63-2.1a3.87,3.87,0,0,1,1.47-1.68,8.31,8.31,0,0,0,2-1.75c.63-.28.92-1,1.83-1.89a10.52,10.52,0,0,1,1.68-2.1,10.15,10.15,0,0,1,1.4-2.24c.35-1,1.26-2.11,1.54-3.57a17.68,17.68,0,0,0,1-3.71c-.07-1.41.42-2.25.56-3.86a19.14,19.14,0,0,0,.14-3.92c-.35-.84.07-2,0-3.15.14-1.19-.07-2,.07-3.29-.35-.91.84-2,1.33-2.38a4.54,4.54,0,0,1,2.73-.84c1.26-.14,2,.56,2.73.77a7.54,7.54,0,0,1,1.33,2.45c.28,1.19-.07,2.38.07,3.43S505.78,141.82,505.85,142.73ZM528,152.54a20.26,20.26,0,0,0,0,4.12c.14,1.62-.28,3.09,0,4.14a40.4,40.4,0,0,1,0,4.13,28.61,28.61,0,0,0-.07,4.2,2.27,2.27,0,0,1-1.33,2.38,4.48,4.48,0,0,1-2.73.84,3.48,3.48,0,0,1-2.73-.84,3.88,3.88,0,0,1-1.33-2.38,28.49,28.49,0,0,1-.07-4.27c-.14-1.47.07-2.38,0-4.06-.35-1.68.14-2.45,0-4.14-.21-1.18.14-2.66,0-4.12a11.71,11.71,0,0,0,0-4.14c-.14-1.26.21-2.8,0-4.13a13.16,13.16,0,0,1,0-4.06c.07-1.61-.28-2.87.07-4.27a2.85,2.85,0,0,1,1.33-2.45c1-.28,1.68-.84,2.73-.77.63.21,1.82.42,2.73.77a2.64,2.64,0,0,1,1.33,2.45,16.75,16.75,0,0,0,.07,4.2c.14,1.68-.07,2.66,0,4.13.21,1.68-.35,2.52,0,4.13C528.32,149.52,527.83,151.49,528,152.54Z"/><path class="cls-3" d="M20.27,111.15a1.34,1.34,0,0,1,.36-.91,1.32,1.32,0,0,1,.9-.38c14.66-.07,150.47-.76,150.46,0-.35,18.5-2.57,117.61-2.82,131a1.26,1.26,0,0,1-1.26,1.24H24.22A1.27,1.27,0,0,1,23,240.92c-.24-13.64-2.43-115.93-2.68-129.77Z"/><g class="cls-4"><path class="cls-5" d="M21.87,111.15a1.28,1.28,0,0,1,.35-.91,1.27,1.27,0,0,1,.88-.38c14.35-.07,147.31-.76,147.29,0-.34,18.5-2.51,117.61-2.75,131a1.26,1.26,0,0,1-1.24,1.24H25.73a1.25,1.25,0,0,1-1.24-1.24c-.24-13.64-2.38-115.93-2.62-129.77Z"/><polygon class="cls-6" points="16.67 241.07 177.99 241.07 177.99 244.05 16.67 244.05 16.67 241.07 16.67 241.07"/><polygon class="cls-6" points="74.56 166.22 15.47 166.22 15.47 113.38 176.79 113.38 176.79 166.22 117.7 166.22 112.03 242.16 80.23 242.16 74.56 166.22 74.56 166.22"/></g><path class="cls-3" d="M14.63,111.15a1.28,1.28,0,0,1,1.27-1.28H176.36a1.3,1.3,0,0,1,.91.38,1.32,1.32,0,0,1,.36.91c-.13,6.89-.74,39.37-.87,46.14a1.26,1.26,0,0,1-1.26,1.24H16.58a1.27,1.27,0,0,1-1.27-1.24c-.1-6.79-.58-39.27-.68-46.15Z"/><g class="cls-7"><path class="cls-5" d="M16.63,112.43a1.21,1.21,0,0,1,.35-.88,1.25,1.25,0,0,1,.88-.36H174.91a1.21,1.21,0,0,1,1.23,1.25c-.12,6.7-.72,38.31-.84,44.9a1.25,1.25,0,0,1-1.24,1.2H18.53a1.23,1.23,0,0,1-1.24-1.21c-.1-6.6-.57-38.21-.66-44.9Z"/></g><polygon class="cls-8" points="116.52 108.37 75.74 108.37 78.15 242.16 114.07 242.16 116.52 108.37 116.52 108.37"/><g class="cls-9"><path class="cls-10" d="M121.51,96.28v24.18s-11.15-7.93-25.38-7.93-25.39,7.93-25.39,7.93V96.28Z"/><polygon class="cls-11" points="74.82 241.07 119.84 241.07 119.84 244.05 74.82 244.05 74.82 241.07 74.82 241.07"/></g><path class="cls-12" d="M93,104.24c2.8-4.78,5-5.73-1.16-6.21-9-.7-31.94,1.28-46.37,6.08-17.48,5.8-28.59,9.34-28.59,9.34l18.8,9-9.22,20s17.25-6.64,32.09-13.8c8.3-4,31-18.57,34.45-24.42Z"/><g class="cls-13"><path class="cls-14" d="M100.91,102,77.18,71,60.91,87.32C67.25,104.38,78.49,109,89,111.48L100.91,102Z"/></g><path class="cls-12" d="M99.28,104.24c-2.8-4.78-5-5.73,1.16-6.21,9-.7,31.94,1.28,46.37,6.08,17.48,5.8,28.59,9.35,28.59,9.35l-18.8,9,9.22,20s-17.25-6.64-32.09-13.8c-8.3-4-31-18.57-34.45-24.42Z"/><g class="cls-15"><path class="cls-14" d="M91.35,102l23.73-31,16.27,16.31C125,104.38,113.77,109,103.27,111.48L91.35,102Z"/></g><path class="cls-11" d="M65.49,104.68c-4.87-.81-12.61-1.78-21.36-4.82-5.64-2-13.31-5.81-13.17-6.49C32.35,86.54,46.89,62,52.28,56.93c1.26-1.17,7,3.13,11.92,6.63,7.69,5.52,11.38,10.7,14.62,14.35,5.61,6.29,8.58,15.75,8.58,15.75l1.24,11.17s-15.12,1.2-23.15-.15Z"/><g class="cls-16"><path class="cls-12" d="M84.93,95.65c1.08.32,1,2.6-1,2.81-8.71.94-11.6,1.18-17.37,1-4.57-.15-30-3.71-30-10.44,0-4.2,5.1-5.33,10.51-17.3C51,63,50.2,58.21,53.18,55c.43-.46,8.22,4.18,12.74,7.3C73,67.2,76.59,72.72,79.69,75.93,85,81.38,86.48,88,88.42,91.06c.29.44-.69,2.86-1.13,2.56-2.07-1.42-5.6-6.81-9.25-8.13s-6.31-1.48-7.1,0c-.7,1.29.85,3.59,4.26,5.5,3.56,2,6.57,3.74,9.73,4.66Z"/></g><path class="cls-11" d="M126.77,104.68c4.87-.81,12.61-1.78,21.36-4.82,5.64-2,13.31-5.81,13.17-6.49C159.91,86.54,145.37,62,140,56.93c-1.26-1.17-7,3.13-11.92,6.63-7.69,5.52-11.38,10.7-14.63,14.35-5.6,6.29-8.57,15.75-8.57,15.75l-1.24,11.17s15.12,1.2,23.15-.15Z"/><g class="cls-17"><path class="cls-12" d="M107.33,95.65c-1.08.32-1,2.6,1,2.81,8.71.94,11.6,1.18,17.37,1,4.57-.15,30-3.71,30-10.44,0-4.2-5.1-5.33-10.51-17.3-4-8.75-3.12-13.51-6.1-16.69-.43-.46-8.22,4.18-12.75,7.3-7,4.87-10.66,10.39-13.76,13.6-5.28,5.45-6.79,12.08-8.73,15.13-.29.44.69,2.86,1.13,2.56,2.07-1.42,5.6-6.81,9.25-8.13s6.31-1.48,7.1,0c.69,1.29-.85,3.59-4.26,5.5-3.56,2-6.57,3.74-9.73,4.66Z"/></g><path class="cls-11" d="M105.8,91.66c0-2.19-6.45,1.7-9.67,1.7s-9.67-3.77-9.67-1.7v17c0,1.54,6.45,0,9.67,0s9.67,1.46,9.67,0v-17Z"/><g class="cls-18"><path class="cls-12" d="M105.8,90.4c-3.22-1.83-16.12-1.83-19.34,0s-3.15,11.76,0,13.55,16.12,1.83,19.34,0,3.14-11.76,0-13.55Z"/></g><path class="cls-2" d="M.45,47.8c-.27-.39-.43-1-.13-1.29a2.75,2.75,0,0,0,.75-.77A2.33,2.33,0,0,0,1.79,45c.15-.21.51-.39.73-.76s.57-.46.73-.76A5.33,5.33,0,0,1,4,42.69c.14-.22.55-.54.73-.76s.47-.46.89-.93a1,1,0,0,0,.11-1,.68.68,0,0,1-.32-.82,1.16,1.16,0,0,1,.43-.79,1,1,0,0,1,.77-.47.79.79,0,0,1,.83.28,1.06,1.06,0,0,0,1-.17,10.57,10.57,0,0,1,.89-.93,2.53,2.53,0,0,1,.74-.78c.14-.25.54-.49.73-.76a2.35,2.35,0,0,0,.74-.77,2.06,2.06,0,0,1,.75-.78,2,2,0,0,0,.72-.76,3.63,3.63,0,0,1,.76-.8.93.93,0,0,1,1.33,0,1.23,1.23,0,0,1,.31.66.74.74,0,0,1-.22.66,12.07,12.07,0,0,0-.84.91,2.94,2.94,0,0,1-.84.88,5.26,5.26,0,0,0-.82.87c-.3.17-.57.65-.84.87s-.45.64-.84.88a11.49,11.49,0,0,0-.85.88c-.29.37-.6.5-.84.88a6.26,6.26,0,0,1-.84.88,10,10,0,0,0-.82.86,2.87,2.87,0,0,0-.84.88,10.35,10.35,0,0,0-.84.88,5.16,5.16,0,0,1-.85.88,2.1,2.1,0,0,1-.84.88,3.31,3.31,0,0,1-.82.86,3.52,3.52,0,0,0-.84.88c-.34.29-.58.71-.88.88C1.37,48.36.86,48.12.45,47.8ZM14.27,37.58c.26.18.45.52.71.68.24.33.36.37.37.64a1.1,1.1,0,0,1-.06.66,2.85,2.85,0,0,1-.83,1.24,2.53,2.53,0,0,0-.71.75,3.11,3.11,0,0,1-.73.76,3.22,3.22,0,0,0-.73.76c-.21.15-.33.52-.72.76-.23.27-.52.41-.72.75a2,2,0,0,1-.72.76,4.11,4.11,0,0,1-.73.76,1.69,1.69,0,0,1-.71.74,2.17,2.17,0,0,1-1.21.89,1,1,0,0,1-1.33-.27c-.12-.21-.49-.44-.69-.66a1.39,1.39,0,0,1-.33-1.32A11.56,11.56,0,0,1,6,44.25a1.65,1.65,0,0,0,.71-.74c.21-.29.49-.34.73-.76s.52-.41.73-.76a4,4,0,0,1,.71-.75,9.74,9.74,0,0,1,.73-.76,8.91,8.91,0,0,1,.73-.76A2.57,2.57,0,0,0,11,39a3,3,0,0,0,.72-.74c.27-.22.79-.83,1.18-.91.19-.05.47,0,.66-.08C13.82,37.38,14.07,37.29,14.27,37.58ZM8.14,54.42c-.31,0-.66.08-.85-.2-.4-.32-.66-.73-1-1-.19-.21-.44-.32-.53-.67a1,1,0,0,1-.22-.79,2.11,2.11,0,0,1,.42-1.18,4.65,4.65,0,0,1,.83-1c.29-.27.35-.51.64-.68s.46-.41.65-.68.46-.3.65-.67c.23-.14.42-.54.65-.68a4.06,4.06,0,0,1,.64-.67,2.62,2.62,0,0,1,.65-.68,2.73,2.73,0,0,0,.66-.69,7.21,7.21,0,0,0,.65-.68,2.21,2.21,0,0,0,.65-.68,1.81,1.81,0,0,0,.66-.69,1.78,1.78,0,0,0,.65-.68c.11-.18.53-.42.64-.67a1.78,1.78,0,0,0,.65-.68c.18-.32.55-.47.65-.67s.42-.51.64-.68a2.65,2.65,0,0,1,.65-.68,4.65,4.65,0,0,1,.79-.76,4.77,4.77,0,0,1,1-.52c.29,0,.66.09,1,.06.22.21.54.32.84.58a3.43,3.43,0,0,0,.83.83c.23.31.4.6.24.84a1,1,0,0,1-.43.82c-.4.14-.49.34-.8.46a1.29,1.29,0,0,1-.85-.2c-.25-.11-.41-.42-.64-.58-.34-.52-.57-.28-1,.16a7.1,7.1,0,0,0-1.2,1.25A4.83,4.83,0,0,1,15.68,43c-.47.39-.7.91-1.19,1.25a9.11,9.11,0,0,0-1.22,1.27,10.16,10.16,0,0,0-1.21,1.27A7.2,7.2,0,0,1,10.86,48c-.43.39-.84.94-1.19,1.25-.44.55-.78.74-1.2,1.25s-.48.61-.14,1c.35.2.54.61.79.79s.38.55.24.84a.89.89,0,0,1-.42.8C8.8,54.17,8.37,54.28,8.14,54.42Zm4.13-14.64c-.44.39-.64.87-1,1.06s-.32.61-.59.73a2.66,2.66,0,0,0-.68.64c-.52.48-.85.88-1.27,1.29-.17.25-.37.32-.63.66s-.53.46-.58.77c0,.1,0,.18.12.25a.47.47,0,0,0,.57-.08c.47-.39.64-.81.88-1s.46-.47.7-.66.4-.52.67-.66a13.8,13.8,0,0,0,1.27-1.27c.25-.22.41-.52.62-.67.14-.32.34-.32.56-.76C13,39.85,12.63,39.6,12.27,39.78Zm16.14,5.4a1.05,1.05,0,0,1-.31.83,1.32,1.32,0,0,1-1,.57c-.26.17-.73.12-1.07.24a3.82,3.82,0,0,1-.71.13,3.54,3.54,0,0,0-.71.07c-.2.14-.37,0-.71.06s-.52-.07-.71,0-.42,0-.71,0a1.36,1.36,0,0,0-.77,0,.63.63,0,0,1-.63-.06,3.71,3.71,0,0,0-.73-.08l-1-.19a6.88,6.88,0,0,1-1-.23,2.17,2.17,0,0,1-1.3-.4,1.11,1.11,0,0,0-.63-.08c-.26,0-.75.58-.79.76-.12.6.24.46.44.49.48.13.78,0,.93,0,.39,0,.58.17.84.1a2.35,2.35,0,0,1,.87.14,2.14,2.14,0,0,0,.75.24c.24,0,.63.28.81.32a1.46,1.46,0,0,0,.73.44,1.25,1.25,0,0,1,.67.54,3.71,3.71,0,0,1,1,1.24c.17.36.19.41.35.72a5.36,5.36,0,0,0,.11.79c.08.46-.18.77-.29,1.12s-.41.8-.67.9A4.28,4.28,0,0,1,20.85,55a6.26,6.26,0,0,1-.77.26c-.4,0-.6,0-.74-.28a1.24,1.24,0,0,1-.35-.78c.05-.22.08-.52.27-.62a4.13,4.13,0,0,0,1.16-1,.83.83,0,0,0,.19-1,1.29,1.29,0,0,0-.81-.77c-.32-.14-.39.27-.42.6a1.62,1.62,0,0,1-.23.75c-.14.29-.26.47-.19.64-.17.41-.26.85-.38,1.18a3.68,3.68,0,0,1-.47,1.17,3.69,3.69,0,0,1-.48,1.13,8.11,8.11,0,0,1-.34.74c-.21.32-.19.63-.37.75a1.58,1.58,0,0,1-.38.77,1,1,0,0,0-.38.67c-.2.49-.36.79-.71.94a1,1,0,0,1-1.27,0,1.94,1.94,0,0,1-.31-.65c-.09-.31.12-.47.19-.72a11,11,0,0,0,.61-1.07,11.75,11.75,0,0,1,.59-1.06,11.93,11.93,0,0,0,.54-1.07,6.27,6.27,0,0,0,.47-1.1c.2-.48.33-.88.49-1.19s.31-.86.42-1.21a3.65,3.65,0,0,0,.24-.84c0-.14.33-.68.38-1.06,0-.19-.54-.32-.62-.07a3.88,3.88,0,0,1-.19.81,6,6,0,0,0-.29.77c-.3.36-.21.7-.45,1a5.51,5.51,0,0,1-.44,1,2.16,2.16,0,0,1-.45,1,6,6,0,0,1-.58,1.25,9.81,9.81,0,0,1-.65,1.19c-.31.35-.37.72-.66.82a.74.74,0,0,1-1.24,0,.58.58,0,0,1-.28-.65c0-.4,0-.57.2-.69a2.54,2.54,0,0,0,.47-.83,6,6,0,0,0,.43-.76,7.84,7.84,0,0,0,.43-.79,6.08,6.08,0,0,0,.37-.78c0-.3.28-.57.36-.79s.19-.63.31-.8a6.13,6.13,0,0,1,.32-.83c.16-.11.08-.19.18-.54s.31-.55.3-.85-.5-.08-.58.13a7.48,7.48,0,0,0-.29.79c-.11.31-.18.31-.18.51-.24.29-.2.59-.38.77a1.28,1.28,0,0,1-.38.77c-.21.19-.15.57-.34.74a4.92,4.92,0,0,1-.48.94c-.06.33-.46.65-.53.88s-.31.64-.51.64a.83.83,0,0,1-1.29,0,1.2,1.2,0,0,1-.13-1.29c.34-.52.51-1,.78-1.29s.44-.94.7-1.28a4.12,4.12,0,0,0,.69-1.25c.09-.37.39-.69.29-.79s-.26,0-.62.41-.79,1-1.26,1.36a.85.85,0,0,1-1.22,0c-.34-.19-.37-.87-.11-1.24a7.41,7.41,0,0,0,1.08-1.13c.21-.32.75-.62,1-1.09A8.41,8.41,0,0,1,12.68,47c.32-.47.7-.59,1-1.08s.7-.66,1.06-1.1.77-.71,1.05-1.1.76-.76,1.05-1.1A6.85,6.85,0,0,1,18,41.5a.86.86,0,0,1,1.22,0,1,1,0,0,1,.1,1.23c-.14.31-.49.47-.81.88s-.13.81.65.81c.36,0,.69,0,.81-.1s.34-.19.4-.49.13-.58.06-.78c.12-.15-.06-.41,0-.61a1,1,0,0,1,.38-.94,4,4,0,0,1,.78-.38,1.07,1.07,0,0,1,.82.26,4.74,4.74,0,0,1,.28.69,5.6,5.6,0,0,1,0,1,5,5,0,0,1-.18,1.18c-.16.3.37.52.57.48a1.79,1.79,0,0,0,1.14-.1,3.21,3.21,0,0,0,.95-.19c.27,0,.59-.21.94-.24s1-.28,1.21-.21.55.24.71.3S28.32,44.93,28.41,45.18Z"/><path class="cls-2" d="M21.27,28a1.36,1.36,0,0,1-.2-.74.61.61,0,0,1,.39-.64,3.37,3.37,0,0,0,1.08-.74,3,3,0,0,0,1.06-.69,7,7,0,0,0,1.32-.85c.79-.46.58-.77.33-1.17s-.29-.62-.1-.91a2.53,2.53,0,0,1,.59-.64c.29-.07.54-.21.81-.27s.61.05.8.46.46.62,1.08.24.81-.38,1.08-.7.65-.32,1.09-.72a.71.71,0,0,0,.2-1.1.74.74,0,0,1-.08-.9,1.28,1.28,0,0,1,.59-.64,1,1,0,0,1,.82-.28c.24,0,.47,0,.79.44s.8.4,1.25.16c.62-.46,1-.55,1.32-.86a5.49,5.49,0,0,0,1.09-.71,6.23,6.23,0,0,0,1.13-.71c.14-.17.54-.16.75-.1s.56.26.61.47a.89.89,0,0,1,.18.75.7.7,0,0,1-.39.65,11.74,11.74,0,0,1-1.1.74,12.66,12.66,0,0,1-1.1.72c-.36.18-.8.52-1.31.85-.31.18-.53.4-.44.71a.92.92,0,0,1-.16.94.89.89,0,0,1-.6.59c-.22.05-.41.32-.78.25s-.49-.44-.87-.47c-.21,0-.58.27-.66.35-.64.36-.84.52-1.22.71a3.45,3.45,0,0,0-1,.67,7.84,7.84,0,0,1-.48.67,1.15,1.15,0,0,1,.06.74c0,.3-.37.67-.57.74a1,1,0,0,1-.81.27c-.29,0-.33-.42-.7-.48a3.79,3.79,0,0,0-1,.42,10.93,10.93,0,0,0-1.32.84c-.45.17-.65.5-1.1.63s-.65.54-1.11.69c-.28.27-.42.13-.75.1C21.69,28.54,21.4,28.36,21.27,28Zm22.29-5.61c.15.18.11.51.17.78s-.31.51-.41.66a5,5,0,0,1-.86.56,6.13,6.13,0,0,0-.82.54,8.87,8.87,0,0,0-1,.66c-.27.06-.5.21-.5.52a1.93,1.93,0,0,0,.64,1c.1.16.45-.07.82-.2a5.59,5.59,0,0,1,1.23-.77c.22,0,.56-.2.75-.13a1.25,1.25,0,0,1,.63.46.67.67,0,0,1,.16.76c.06.21-.14.42-.42.63s-.45.43-.77.54a4.06,4.06,0,0,0-.77.49c-.52.23-1,.73-1.53,1-.36.18-.43.31-.8.52s-.67.47-1.06.69c-.13.23-.6.45-.83.74s.28.82.34.95.06.13.22.08a2,2,0,0,0,.5-.27,5.24,5.24,0,0,0,1-.67c.38-.24.56-.48.87-.56s.51-.45.84-.55a2.1,2.1,0,0,0,.84-.55c.17-.22.6-.25.87-.56.36-.13.53-.38.84-.55s.45-.38.89-.56a1.09,1.09,0,0,1,.76-.13c.2.15.56.17.64.48a.67.67,0,0,1,.18.78,1,1,0,0,1-.43.64,3.91,3.91,0,0,1-.87.59,2,2,0,0,1-.84.55,1.94,1.94,0,0,1-.86.56,6.12,6.12,0,0,0-.84.55,7.42,7.42,0,0,0-.85.55c-.33.3-.63.36-.86.56a3.49,3.49,0,0,0-.94.61c-.5.22-.3.92-.16,1.26A10.1,10.1,0,0,0,41.21,37c.11.35.22.55.08.84s-.35.59-.59.69a3.06,3.06,0,0,1-.87.26.88.88,0,0,1-.74-.41c-.2-.31-.5-.65-.91-1.36A.87.87,0,0,0,37,36.64a8.23,8.23,0,0,0-.92.6c-.27.06-.49.46-.83.54a4.51,4.51,0,0,1-.82.53,2.7,2.7,0,0,1-.82.54c-.37.21-.54.38-.83.54a4.25,4.25,0,0,1-.82.53c-.34.17-.57.37-.88.54a.55.55,0,0,1-.76.11.71.71,0,0,1-.61-.46,2.74,2.74,0,0,1-.18-.75c.16-.22.15-.49.4-.66s.51-.25.85-.58c.17-.14.58-.24.83-.54a2,2,0,0,0,.82-.53,1.75,1.75,0,0,1,.82-.54c.28,0,.63-.41.83-.54a1.8,1.8,0,0,0,.82-.53c.34-.22.51-.3,1-.67.68-.5.33-.82-.06-1.33-.28-.26-.83.18-1.22.52a3.17,3.17,0,0,1-1.06.69c-.4.2-.56.47-.8.52a14.61,14.61,0,0,0-1.51,1,4.65,4.65,0,0,1-1.53,1,.6.6,0,0,1-.75.1c-.33,0-.43-.31-.63-.46a.68.68,0,0,1-.16-.76c.09-.33.22-.39.4-.62a7.54,7.54,0,0,0,1.22-.83c.2,0,.48-.55.5-.77a1.83,1.83,0,0,0-.52-.8c-.13-.2-.49-.07-.74.15a9,9,0,0,0-1,.66,2.76,2.76,0,0,0-.84.55c-.29.33-.64.3-.88.54s-.4.2-.77.11a1,1,0,0,1-.61-.47,1.18,1.18,0,0,1-.18-.75c.13-.19.1-.45.41-.65a2.21,2.21,0,0,0,.85-.59c.22-.17.56-.3.84-.54a5.35,5.35,0,0,0,1-.67c.17-.17.38-.41.34-.61a2.24,2.24,0,0,0-.44-.83c-.19-.13-.4.07-1.07.36a2.4,2.4,0,0,1-1,.65,1.1,1.1,0,0,1-.74.11,7.46,7.46,0,0,1-.63-.45c-.19-.33-.33-.54-.16-.76a2.27,2.27,0,0,1,.4-.63,2.07,2.07,0,0,0,.91-.62c.26-.16.58-.35.88-.57a2.8,2.8,0,0,1,.88-.58,2,2,0,0,0,.89-.57c.25-.13.57-.49.88-.58a3.13,3.13,0,0,0,.88-.57,2.84,2.84,0,0,1,.9-.59,2.05,2.05,0,0,0,.89-.57,7.84,7.84,0,0,1,.88-.58c.32-.32.64-.33.9-.59s.61-.31.88-.57c.24-.1.58-.4.89-.57s.58-.36.88-.58a3.9,3.9,0,0,1,.88-.57c.39-.23.58-.49.88-.58.28-.26.56-.3.94-.58a5.15,5.15,0,0,1,.75-.13,7.46,7.46,0,0,0,.63.46c.14.21.27.58.16.76.07.32-.18.48-.42.64a3.67,3.67,0,0,1-1.2.81c-.45.34-.43.5-.41.66a1.27,1.27,0,0,0,.42.86c.15.19.43,0,.73-.16a7.14,7.14,0,0,0,1-.67,6.2,6.2,0,0,1,.83-.53c.3-.14.43-.4.87-.55s.48-.25.76-.13S43.47,22.2,43.56,22.42ZM30.7,27.67a3.27,3.27,0,0,0-.7.82,4,4,0,0,0,.44.88c.21.15.49-.06,1.34-.56.18-.23.47-.48.48-.71s-.11-.48-.43-.83C31.56,27.19,31.19,27.4,30.7,27.67Zm3.15,2.69c-.1-.1-.56.17-1.13.41-.19.18-.64.52-.65.81a1,1,0,0,0,.41.93c.28.21.56-.14,1.35-.54.13-.11.6-.34.63-.63A3.43,3.43,0,0,0,33.85,30.36Zm1.61-3.95a4.24,4.24,0,0,1,.49-.32c.11-.13.56-.22.59-.64.07-.24-.22-.64-.49-.93-.09-.14-.48,0-.76.21a1.82,1.82,0,0,0-.67.38c-.16.19-.58.49-.53.74s.11.51.45.85C34.79,26.79,35.16,26.55,35.46,26.41Zm1.67,1.48c-.1.15-.24.1-.49.32s-.57.54-.54.77c0,.47.28.52.42.76s.38.2.83,0c.06,0,.28-.18.66-.45s.59-.3.67-.64a1.32,1.32,0,0,0-.52-1.06A1.53,1.53,0,0,0,37.13,27.89Z"/><path class="cls-2" d="M68.21,11.79c0,.36.12.6,0,.77,0,.31-.31.51-.51.51a3.57,3.57,0,0,1-1.18.45c-.41.1-.84.35-1.17.42-.48.25-.72.21-1.16.42a3.73,3.73,0,0,1-1.17.42,3.18,3.18,0,0,1-1.17.42,11.51,11.51,0,0,1-1.16.42,11.22,11.22,0,0,1-1.17.42,7.24,7.24,0,0,0-1.19.43c-.48.12-.68.27-1.15.41s-.8.32-1.16.42a11.61,11.61,0,0,0-1.17.42,3.43,3.43,0,0,0-1.17.42c-.48.1-.73.32-1.16.42a3.09,3.09,0,0,1-1.17.42,2.74,2.74,0,0,0-1.15.42,2.68,2.68,0,0,1-1.21.41c-.36.2-.56.12-.72-.06a1.76,1.76,0,0,1-.49-.6c0-.21-.16-.57,0-.75s.21-.45.52-.51a8.61,8.61,0,0,0,1-.4,2.26,2.26,0,0,0,1-.36,2,2,0,0,0,1-.36,7.28,7.28,0,0,1,1-.36,6.66,6.66,0,0,1,1-.36c.29,0,.62-.28,1-.37a4.79,4.79,0,0,1,1.24-.44c.7-.26.74-.49.54-.92-.18-.16-.66.11-1.59.35-.52.24-1.16.32-1.52.55a1.88,1.88,0,0,1-.91.25,1.76,1.76,0,0,1-.91,0,1.08,1.08,0,0,1-.84-.47c-.27-.25-.31-.56-.51-.84a4.92,4.92,0,0,0-.45-1.26c-.18-.5-.32-.82-.46-1.27,0-.19-.19-.53-.17-.81A1.09,1.09,0,0,1,49,10a2.13,2.13,0,0,1,.77-.78,3.75,3.75,0,0,1,1-.45,4.78,4.78,0,0,1,1.08-.39A8.81,8.81,0,0,1,52.88,8c.38-.24.74-.14,1.08-.38A7.35,7.35,0,0,0,55,7.26a4.13,4.13,0,0,0,1.08-.39c.28-.13.74-.24,1.08-.39a6.89,6.89,0,0,0,1.08-.39,11.93,11.93,0,0,1,2.22-.68,7.52,7.52,0,0,1,1.14.19,1.38,1.38,0,0,1,.88,1.13A4.72,4.72,0,0,0,63,8a6.73,6.73,0,0,1,.47,1.27,2.08,2.08,0,0,1,.15.79,3.31,3.31,0,0,1-.18.79c-.08.4-.54.59-.75.77a2.71,2.71,0,0,1-1,.46,3.73,3.73,0,0,0-.84.3c-.4.07-.73.31-1.12.4-.19.17-.71.24-1,.43s0,.42,0,.61c.37.27.49,0,.89,0a4.75,4.75,0,0,0,1.15-.46,4.63,4.63,0,0,1,1-.38c.27,0,.67-.34,1-.37a2.4,2.4,0,0,0,1-.37c.23-.18.7-.12,1-.37a5.44,5.44,0,0,0,1-.36c.45-.07.6-.29,1.09-.37.28,0,.58-.13.72.06A.64.64,0,0,1,68.21,11.79ZM52.09,11a4.81,4.81,0,0,0,1.54-.5,6.36,6.36,0,0,0,1.06-.44,7.22,7.22,0,0,1,1.12-.35A12.2,12.2,0,0,0,57,9.27a6.57,6.57,0,0,1,1.11-.37,7.21,7.21,0,0,0,1.7-.59c.77-.35.24-.93-.25-.9a4,4,0,0,1-1.06.35,2.73,2.73,0,0,0-1,.44,2.73,2.73,0,0,1-1,.34,2.94,2.94,0,0,0-1,.35c-.23,0-.51.3-.95.34a4.6,4.6,0,0,0-.94.34,1.86,1.86,0,0,1-.95.34c-.28.12-.89.15-1.16.44C51.46,10.79,51.81,11.21,52.09,11ZM57.3,25.82c-.13.2-.44.66-.63,1s-.3.56-.44.64-.3.55-.51.67a1.39,1.39,0,0,1-.51.64,1.12,1.12,0,0,1-.49.57c-.32.29-.71.68-.95.69a.72.72,0,0,1-.89-.05.69.69,0,0,1-.6-.63c-.17-.19-.15-.34,0-.72.19-.17.21-.37.37-.63a9.1,9.1,0,0,0,.82-.91c.23-.26.57-.48.67-.82a1.38,1.38,0,0,0,.56-.8c.13-.27.33-.47.51-.8s.46-.24.69-.43a.83.83,0,0,1,.88,0c.26,0,.47.13.65.49S57.52,25.54,57.3,25.82Zm.42-14.08a3.22,3.22,0,0,0,1-.34,2.31,2.31,0,0,1,.92-.34,2.52,2.52,0,0,0,1.2-.46c.34-.31,0-.76-.39-.75a11.72,11.72,0,0,0-1.71.64c-.33,0-.69.37-1.08.39s-.75.32-1.14.36a10.37,10.37,0,0,0-1.11.43,4.66,4.66,0,0,1-1.11.37,6.33,6.33,0,0,0-1.35.49c-.65.26-.53.86-.12,1a2.09,2.09,0,0,0,1.15-.39c.29-.1.63-.2,1-.34a2.42,2.42,0,0,1,.95-.34,1.85,1.85,0,0,0,.92-.33A4.17,4.17,0,0,1,57.72,11.74Zm5.12,9.52c-.34.15-.51.51-.71.73a3.88,3.88,0,0,0-.08,1,5.56,5.56,0,0,0,.42,1.16,1.22,1.22,0,0,0,.31.86c.17.27.1.76.2.95,0,.44.06.65-.2,1-.1.41-.4.57-.78.8s-.76.38-1,.47a3.09,3.09,0,0,1-1.56.41,1.07,1.07,0,0,1-.75-.13,3.4,3.4,0,0,1-.51-.61.83.83,0,0,1,0-.85.81.81,0,0,1,.6-.61c.75-.13.89-.15,1.13-.34.39,0,.36-.23.25-.53a2.54,2.54,0,0,1-.28-.78,4.31,4.31,0,0,0-.37-1,1.94,1.94,0,0,0-.49-.74,2,2,0,0,0-.93,0,14.45,14.45,0,0,1-1.74.63,3.46,3.46,0,0,1-1.14.31c-.4,0-.81.09-1.15-.18a2,2,0,0,1-.85-1.09,3.49,3.49,0,0,0-.45-1.26c-.17-.13-.11-.45-.14-.74a2.26,2.26,0,0,1,.15-.75,4.82,4.82,0,0,1,.8-.76c.37-.28.78-.26,1-.47a5.2,5.2,0,0,1,1-.36,10.29,10.29,0,0,1,1-.36c.42-.2.6-.12,1-.37a4.34,4.34,0,0,0,1-.37,2.29,2.29,0,0,0,1-.36,2,2,0,0,1,1-.37,3.3,3.3,0,0,0,1-.36,2,2,0,0,0,1-.36,3.33,3.33,0,0,0,1.16-.32,4.91,4.91,0,0,1,1.16.18,5.18,5.18,0,0,1,.83,1.07c.07.47.39.8.45,1.25a6,6,0,0,0,.14,1c-.07.43-.2.47-.34.77s-.46.39-.72.56a1.14,1.14,0,0,1-.9.4C64,20.75,63.53,21.11,62.84,21.26Zm.48-2.11c.36-.18.52-.31.43-.63,0-.15-.18-.43-.23-.61-.12-.41-.43-.39-.72-.22a4.06,4.06,0,0,1-.88.32c-.33,0-.49.23-.88.32a2.58,2.58,0,0,0-.88.31,2.38,2.38,0,0,1-.88.32c-.44.09-.6.34-.9.33a3,3,0,0,0-.89.32,3.11,3.11,0,0,1-.88.31,1.92,1.92,0,0,0-.88.32c-.38.24-.56.3-.42.62s.09.47.22.62c.16.37.48.28.73.21s.47-.19.88-.31.54-.22.88-.32.58-.11.88-.32.56-.15.86-.31.66-.16.92-.33.66-.17.88-.32a2.06,2.06,0,0,1,.88-.32A1.41,1.41,0,0,0,63.32,19.15Zm7,2.77a2.85,2.85,0,0,1,.49.59c0,.31.11.73,0,.94a1.35,1.35,0,0,1-.66.63c-.2.2-.59,0-.84.08s-.48-.08-.77-.12a1.23,1.23,0,0,0-.77-.14c-.28,0-.44-.17-.76-.18a1.71,1.71,0,0,1-.74-.18,3,3,0,0,1-1.19-.34,1.19,1.19,0,0,1-1-.78c0-.28-.09-.74.09-.9A1.93,1.93,0,0,1,65,21a1.18,1.18,0,0,1,1-.09,2,2,0,0,0,.88.23,5.35,5.35,0,0,0,.92.19,4,4,0,0,0,.89.15c.18,0,.69.17.93.16A2.62,2.62,0,0,1,70.34,21.92Z"/><path class="cls-2" d="M84,16.27a6,6,0,0,0,.13,1.12,4.33,4.33,0,0,0,.12,1.09,5.5,5.5,0,0,0,0,1.06,1.37,1.37,0,0,1-.45,1,1.59,1.59,0,0,1-1,.65,1.64,1.64,0,0,1-1.17.25c-.44,0-.88.1-1.44.17a9.15,9.15,0,0,1-1.42.16,2.36,2.36,0,0,1-1.27,0,2.23,2.23,0,0,1-1.19-.5c-.27-.3-.51-.39-.54-.81s-.18-.54-.22-.94a3,3,0,0,1-.13-1.11c0-.29-.11-.77-.13-1.12s-.21-.8-.13-1.12S75,15.53,75,15c-.16-.32,0-.67,0-1.07a2.37,2.37,0,0,1,.45-1,2.62,2.62,0,0,1,1-.65c.42,0,.69-.2,1.15-.25A11.17,11.17,0,0,0,79,11.94a13,13,0,0,1,1.44-.17c.46-.07.85.05,1.3,0a2.69,2.69,0,0,1,1.16.53,1.33,1.33,0,0,1,.54.81c0,.38.22.66.23.94s.14.83.13,1.12A3,3,0,0,1,84,16.27Zm-2.82-1.58c-.06-.56-.25-.61-.8-.64-.28,0-.71.15-1,.12a3.55,3.55,0,0,1-1,.11c-.61.19-.67.31-.66.81,0,.21.12.6.11.93a2.22,2.22,0,0,1,.11.95,4.16,4.16,0,0,0,.11,1c.12.24,0,.73.1.93.1.62.28.6.83.61a2.89,2.89,0,0,0,1-.12,1.89,1.89,0,0,0,1-.12c.6.05.7-.24.64-.78a1.82,1.82,0,0,1-.1-.93,2.85,2.85,0,0,1-.11-.95,1.9,1.9,0,0,1-.11-1C81.16,15.42,81.27,15,81.14,14.69Zm3.34-5.45c-.62,0-.92.2-1.47.17a7.14,7.14,0,0,1-1.44.16,8.48,8.48,0,0,1-1.41,0c-.27.08-.4,0-.7-.18s-.39-.29-.61-.36-.31-.5-.5-.74a3.86,3.86,0,0,0-.22-.89,15.49,15.49,0,0,1-.2-1.7,8.39,8.39,0,0,1-.19-1.68,2.53,2.53,0,0,1,0-1c.13-.27.18-.68.44-.92a2.73,2.73,0,0,1,1.12-.69c.48-.1,1-.16,1.29-.27s1,0,1.44-.16A3.9,3.9,0,0,0,83.52.87,4.28,4.28,0,0,0,85,.71,6.47,6.47,0,0,0,86.41.54c.53,0,.89,0,1.41,0a2.72,2.72,0,0,1,1.31.53,8.29,8.29,0,0,1,.51.75,1.73,1.73,0,0,1,.22.89c0,.49.1,1.14.19,1.68a7.75,7.75,0,0,0,.19,1.69,6.85,6.85,0,0,1-.15,1.36,3.18,3.18,0,0,1-.34.56,1.91,1.91,0,0,0-.56.44,4,4,0,0,1-.9.34c-.19.19-.62.12-.93.15a12.77,12.77,0,0,1-1.44.17A10.75,10.75,0,0,1,84.48,9.24Zm1-2.37a6.7,6.7,0,0,0,1.21-.14c.67-.12,1-.28.87-.81a8.34,8.34,0,0,0-.14-1.25c-.06-.49-.12-.84-.14-1.23a.77.77,0,0,0-1-.62A2.62,2.62,0,0,1,85,3a5.45,5.45,0,0,0-1.23.14,11.86,11.86,0,0,0-1.23.14c-.36-.05-.8.21-1.21.14-.72.11-1,.42-.9.83a5.75,5.75,0,0,0,.14,1.24,5.3,5.3,0,0,1,.15,1.25c.07.68.44.75,1,.59A7.31,7.31,0,0,0,83,7.15,4.34,4.34,0,0,0,84.22,7C84.52,7,85,6.94,85.46,6.87ZM95.26,15a2.23,2.23,0,0,0,.13,1.12,2.71,2.71,0,0,0,.13,1.09c0,.43.09.79,0,1.06a1.56,1.56,0,0,1-.46,1c-.19.35-.61.42-1,.65a6.77,6.77,0,0,1-1.18.25,3.39,3.39,0,0,1-1.55.18c-.5,0-1,.21-1.59.18-.4,0-.95.09-1.27,0s-1-.12-1.18-.5a1.48,1.48,0,0,1-.54-.81c-.08-.2-.13-.64-.23-.94a2.31,2.31,0,0,1-.13-1.11A5.63,5.63,0,0,1,86.27,16a3,3,0,0,1-.13-1.12A6.52,6.52,0,0,0,86,13.78a1.92,1.92,0,0,1,0-1.06,1.79,1.79,0,0,1,.45-1,1.48,1.48,0,0,1,1-.66,2.1,2.1,0,0,1,1.15-.25c.46.07,1-.21,1.58-.18a12,12,0,0,1,1.56-.18,7.08,7.08,0,0,0,1.3,0,4.07,4.07,0,0,1,1.16.53,2.61,2.61,0,0,1,.54.81,1.7,1.7,0,0,1,.23.94c0,.33.11.74.13,1.12S95.3,14.65,95.26,15Zm-2.49,1.25c0-.37-.09-.57-.11-1a3.69,3.69,0,0,1-.11-.95,5.76,5.76,0,0,0-.11-.93c0-.59-.36-.74-.8-.64a4,4,0,0,0-1.16.13c-.44.1-.72.06-1.16.13s-.72.3-.67.81.13.65.11.93a3.13,3.13,0,0,1,.11,1,2.22,2.22,0,0,0,.11,1c.08.29,0,.58.1.93,0,.61.34.69.83.61a8.69,8.69,0,0,0,1.16-.13,11.19,11.19,0,0,1,1.16-.14c.58-.11.58-.27.65-.78A3.59,3.59,0,0,0,92.77,16.23Z"/><path class="cls-2" d="M116.83,14.82c-.06.37.12.72,0,1.1s-.14.72-.21,1.23-.33.72-.44,1.13a9.14,9.14,0,0,1-.64,1,3.05,3.05,0,0,1-.93.85,8,8,0,0,1-1.15.64,2.75,2.75,0,0,1-1.28.35,2.59,2.59,0,0,1-1.31.15,6.42,6.42,0,0,0-1.31-.06,9.33,9.33,0,0,1-1.22-.21,2.69,2.69,0,0,1-1.19-.38,2,2,0,0,1-1.06-.64,2.21,2.21,0,0,1-.88-.89,2.79,2.79,0,0,1-.56-1,3.4,3.4,0,0,1-.31-1.12,2.4,2.4,0,0,1-.1-1.14c0-.32,0-.84,0-1.12s0-.72.17-1.3a1.07,1.07,0,0,0-.75-1.18,5.74,5.74,0,0,0-.9-.25,1.94,1.94,0,0,1-.68-.21,1.07,1.07,0,0,1-.84-.55,1.22,1.22,0,0,1-.26-.94,1.34,1.34,0,0,1,.44-.9,1.14,1.14,0,0,1,.93-.33,1.28,1.28,0,0,1,.75.19,8.51,8.51,0,0,0,1.42.42.83.83,0,0,0,.78-.51c.13-.58.23-.9.34-1.35a1,1,0,0,0-.08-.81A1.47,1.47,0,0,0,105,6.6c-.34-.12-.67-.16-1-.26s-.4-.25-.66-.27a.76.76,0,0,1-.54-.5,1.11,1.11,0,0,1-.16-.72,1.54,1.54,0,0,1,.44-.88,1.28,1.28,0,0,1,.9-.33c.28,0,.63.27.92.23s.63.25.94.26a.72.72,0,0,0,.93-.4c.14-.46.19-.76.29-1a2.94,2.94,0,0,0,.22-.83,3.67,3.67,0,0,0,.25-.84,1,1,0,0,1,.56-.7A1.83,1.83,0,0,1,109,.16a1.87,1.87,0,0,1,1,.47.94.94,0,0,1,.23,1,3,3,0,0,0-.23.82c0,.3-.21.69-.29,1a.92.92,0,0,0,.07,1c.13.16.28.24.75.29.76.1,1,0,1.41,0a1.29,1.29,0,0,1,.87.44,1.3,1.3,0,0,1,.26,1,1.11,1.11,0,0,1-.36.79,1,1,0,0,1-.79.34,7.36,7.36,0,0,1-1.34,0,6.32,6.32,0,0,1-1-.1c-.39-.06-.75.3-.91.48a1.09,1.09,0,0,0-.23.61,9.14,9.14,0,0,0-.35,1.21c-.12.48.41.79.93.8l1.48.05c.72,0,1.07-.2,1.69,0a1.62,1.62,0,0,1,.78.5c.27.28.19.63.21.89a2.5,2.5,0,0,1-.25.68.89.89,0,0,1-.56.44,3.12,3.12,0,0,1-1,.13c-.49,0-.84,0-1.25.05a10.23,10.23,0,0,0-1.26-.06,1.57,1.57,0,0,0-1.17.1,1.17,1.17,0,0,0-.54.74c-.07.49-.09.68-.14,1a4,4,0,0,0,0,1.48c.1.22,0,.54.19.7,0,.26.31.43.39.6a2,2,0,0,0,1,.61,2.32,2.32,0,0,0,1.15.23c.31,0,.47.05.87,0s.56.06.87,0a1.16,1.16,0,0,0,.82-.23l.71-.45c.31-.13.5-.63.65-.94a5.52,5.52,0,0,0,.25-1.13c.06-.32,0-.64,0-.87s-.17-.67-.12-.9a1.49,1.49,0,0,1,.53-1.13,1.24,1.24,0,0,1,1-.25,1.29,1.29,0,0,1,.85.36c.26.26.48.45.47.8A3.51,3.51,0,0,1,116.83,14.82Z"/><path class="cls-2" d="M138.32,20.7a4.06,4.06,0,0,1-.61,1.35,5.06,5.06,0,0,1-.9,1.13c-.22.3-.32.46-.57.48s-.4.37-.61.41a3.13,3.13,0,0,0-.66.33,2.28,2.28,0,0,0-.71.25c-.28,0-.57.18-.74.19a1.41,1.41,0,0,1-.79.16c-.18,0-.47.1-.8.07a1.55,1.55,0,0,0-.79,0c-.38.11-.49-.07-.79,0a3.7,3.7,0,0,0-.78-.07,9.83,9.83,0,0,1-1.59-.25,1.58,1.58,0,0,1-.93-.63,2.41,2.41,0,0,1-.16-1.1,1.24,1.24,0,0,1,.59-.75,1.11,1.11,0,0,1,1-.15,15.33,15.33,0,0,0,1.55.2,4,4,0,0,1,.83.08,3.92,3.92,0,0,0,.84,0c.21-.05.48-.05.84-.11a6.71,6.71,0,0,1,.8-.22,2,2,0,0,0,.74-.34c.22-.08.38-.3.66-.48s.4-.27.5-.61a1.58,1.58,0,0,0,.35-.75c0-.35,0-.57.07-.88a1.88,1.88,0,0,0-.29-.83c-.15-.31-.63-.6-.94-.86a5.81,5.81,0,0,0-1.18-.53c-.41-.2-.71-.1-1-.23a2.49,2.49,0,0,1-1-.12,2.47,2.47,0,0,1-1,0c-.4.12-.75.05-1,.13l-1,.23c-.36,0-.67.34-1,.33s-.62.38-.95.42c-.38.21-.53.36-.89.52a1.21,1.21,0,0,1-1.33.18,1.13,1.13,0,0,1-.8-.58,2,2,0,0,1-.22-1c.11-.21.2-.75.41-1.13a3.46,3.46,0,0,1,.56-1c.15-.17.19-.62.45-.89,0-.33.35-.53.47-.93s.26-.61.48-.93.3-.57.51-1a9.92,9.92,0,0,0,.56-1.13c.33-.44.53-.86.69-1.06a1.3,1.3,0,0,1,1.35-.27,1.5,1.5,0,0,1,.9.51,1.18,1.18,0,0,1,.13,1c-.12.31-.23.44-.39.79a5.38,5.38,0,0,0-.46.81,5.62,5.62,0,0,0-.48.83c-.26.32-.29.65-.48.86-.31.54-.46.81-.25,1.07s.59.08,1,0a8.46,8.46,0,0,0,.93-.16,5.39,5.39,0,0,1,.91-.1c.28,0,.55-.15.93,0a8.18,8.18,0,0,1,.93.07,6.13,6.13,0,0,1,.92.12c.35.14.64.05.91.23a3.85,3.85,0,0,1,1.07.4,7.28,7.28,0,0,0,1,.56c.35.32.7.45.92.69a3.83,3.83,0,0,1,.84.86c.15.39.25.54.39.88a2.5,2.5,0,0,1,.26.93,8.91,8.91,0,0,1,.05,1C138.41,20.14,138.4,20.33,138.32,20.7ZM131.61,7.62a2.92,2.92,0,0,1-.82-.84,1,1,0,0,1-.08-.8,2.21,2.21,0,0,1,.74-.9,1.36,1.36,0,0,1,.85-.16,2.18,2.18,0,0,1,1,.54c.25.13.48.34.7.43s.35.31.63.44a3.06,3.06,0,0,1,.73.56c.18.15.48.44.68.57s.35.48.52.58a1.33,1.33,0,0,1,.23,1.31,1.29,1.29,0,0,1-.63.79,1.69,1.69,0,0,1-1,.12,1,1,0,0,1-.64-.37c-.19-.2-.54-.41-.72-.61a2.21,2.21,0,0,0-.71-.56,3.61,3.61,0,0,1-.72-.55C132.09,7.91,131.78,7.79,131.61,7.62Z"/><path class="cls-2" d="M158.65,35.57a1.34,1.34,0,0,1-1.19.71,7,7,0,0,0-1-.23,7.13,7.13,0,0,0-1.24-.46A9.74,9.74,0,0,1,154,35a7.66,7.66,0,0,0-.93-.48c-.33-.23-.56-.2-.75-.43a2.9,2.9,0,0,0-.67-.55,1.12,1.12,0,0,1-.54-.67.87.87,0,0,1-.34-.79c-.18-.26-.1-.46-.12-.81a2.44,2.44,0,0,1,.1-.83,4.42,4.42,0,0,1,.57-1.53,2.66,2.66,0,0,0,.43-1.23c.09-.11-.07-.52-.34-.66A2.6,2.6,0,0,0,150,26.7a1.13,1.13,0,0,0-.68,0,1.64,1.64,0,0,1-.71.09,2,2,0,0,1-.76.17,1.8,1.8,0,0,0-.72.2,1.3,1.3,0,0,0-.71.22,2.58,2.58,0,0,1-.64.19c-.26.1-.49,0-.67.22s-.53.14-.66.23a1.8,1.8,0,0,0-.66.23c-.21.15-.41.07-.69.24a1.11,1.11,0,0,1-1.22-.11.92.92,0,0,1-.64-.77c-.24-.35,0-.69.06-1a2.23,2.23,0,0,1,.9-.71,2.81,2.81,0,0,1,.78-.27c.28-.16.6-.12.77-.24s.52-.07.78-.25a7.44,7.44,0,0,0,.77-.24,4,4,0,0,1,.78-.27,3.48,3.48,0,0,0,.78-.25c.21-.2.42-.09.77-.24s.51-.21.77-.25.45-.29.79-.27.4-.1.77-.24c.17-.17.43-.06.74-.24a3.63,3.63,0,0,0,.8-.25,1.57,1.57,0,0,0,.76-.26c.19,0,.45-.21.78-.27a1.28,1.28,0,0,0,.57-.22c.07,0,.11-.15.1-.27s-.15-.27-.45-.35a2.06,2.06,0,0,1-.85-.3c-.38-.13-.55-.27-.77-.26a12.5,12.5,0,0,1-1.48-.51c-.46-.22-1-.32-1.48-.51s-.88-.58-.83-1a1.66,1.66,0,0,1,.17-1c.23-.36.33-.46.61-.57a1.12,1.12,0,0,1,.93,0,6.22,6.22,0,0,0,1,.35,6.72,6.72,0,0,0,1,.35c.32.1.72.29,1,.35s.58.26,1,.37a3.63,3.63,0,0,0,1,.35c.42.09.71.3,1,.34a2.64,2.64,0,0,1,1,.37c.22.2.72.15,1,.36.21.06.38.28.58.34.37.2.48.64.65,1a2.2,2.2,0,0,1-.14,1.15c-.35.44-.56.73-1,.8-.24,0-.48.25-.68.22s-.45.23-.67.2a5,5,0,0,1-.67.21,3.34,3.34,0,0,1-.7.21,2.89,2.89,0,0,1-.67.2,2.72,2.72,0,0,0-.66.23A2.19,2.19,0,0,0,153,25c-.16.1-.2.42.23.55a2.87,2.87,0,0,1,.84.56,2.63,2.63,0,0,1,.48.9c0,.41,0,.84,0,1.22a2.72,2.72,0,0,1-.43,1.18c-.14.51-.48.89-.54,1.2a1,1,0,0,0,0,.86c.11.33.47.49.76.7a1.63,1.63,0,0,0,.86.42A2,2,0,0,0,156,33a3.67,3.67,0,0,1,.88.3,6.45,6.45,0,0,0,.94.32,2.18,2.18,0,0,1,.92.95A1,1,0,0,1,158.65,35.57Zm-4.11-21.73a.91.91,0,0,1,.94,0c.3,0,.51.39.85.49a4.18,4.18,0,0,0,1,.79,9.72,9.72,0,0,0,1,.84c.34.31.46.49.68.66a3.33,3.33,0,0,1,.92,1.06c.13.44.36.86.07,1.29s-.36.57-.77.64a1.2,1.2,0,0,1-1-.05,7.59,7.59,0,0,1-1-1,2.17,2.17,0,0,1-.87-.79,4.74,4.74,0,0,1-.81-.73,4.27,4.27,0,0,1-.81-.66,4.13,4.13,0,0,1-.88-1c-.18-.21-.08-.68.05-.93A.89.89,0,0,1,154.54,13.84Z"/><path class="cls-2" d="M177.57,44.39a6.57,6.57,0,0,1-.57.77c-.34.23-.64.72-.92.91a4,4,0,0,1-1.05.74,4,4,0,0,1-1.17.51,4.83,4.83,0,0,1-1.27.27c-.15,0-.62.12-.81,0-.35,0-.59-.13-.76-.09a1.06,1.06,0,0,1-.79-.18,7.19,7.19,0,0,0-.74-.25,2.8,2.8,0,0,1-.71-.33,7,7,0,0,0-.66-.37,3.48,3.48,0,0,1-1.29-.94c-.37-.22-.52-.54-.76-.73s-.41-.6-.68-.83a4.27,4.27,0,0,1-.51-.92,1.67,1.67,0,0,1-.33-1,1.93,1.93,0,0,1-.07-.76c0-.24-.06-.54.07-.74a5.36,5.36,0,0,1,.67-1.33,3.46,3.46,0,0,1,.92-.76,1.84,1.84,0,0,1,1.11-.38,5.5,5.5,0,0,1,1.33.24,10.22,10.22,0,0,1,1.16.7,4,4,0,0,1,.67.69,2.16,2.16,0,0,1,.48.81,5.09,5.09,0,0,1,.31.9,3.76,3.76,0,0,1,.1.94,1.41,1.41,0,0,0-.06.72,8.33,8.33,0,0,0-.18.86c-.14.43,0,1,.31,1a1.75,1.75,0,0,0,1.18-.1c.45-.17.87-.37,1.22-.53a10.55,10.55,0,0,0,1-.92,1.35,1.35,0,0,0,.52-.94,4.94,4.94,0,0,0,.14-1,6,6,0,0,0-.16-.72c0-.24-.23-.41-.32-.67a2.6,2.6,0,0,0-1-1.11,3.84,3.84,0,0,0-.84-.63c-.19-.18-.65-.33-.88-.52a5.58,5.58,0,0,1-.93-.42,3.49,3.49,0,0,1-1-.34,1.68,1.68,0,0,1-1-.23,5.55,5.55,0,0,0-1-.18,3,3,0,0,1-1-.13,6.37,6.37,0,0,1-1.06-.08,2.63,2.63,0,0,1-1-.38,1.22,1.22,0,0,1-.46-.9c-.12-.41.14-.68.28-1a1.49,1.49,0,0,1,1.22-.5,6.7,6.7,0,0,0,1.27,0c.15.07.42,0,.73,0s.38,0,.68,0,.42.08.73,0,.42.08.71,0a3.6,3.6,0,0,0,.69-.05,3.39,3.39,0,0,0,.64,0c.18,0,.55,0,.74-.08a2.27,2.27,0,0,1,.71-.08,3.88,3.88,0,0,0,1.07-.14c.21-.06.68,0,1-.15.62-.12,1-.2,1.09-.46s-.13-.53-.78-.93a9.59,9.59,0,0,1-1.09-.74,2.72,2.72,0,0,1-1.11-.78.89.89,0,0,1-.47-.89,1.6,1.6,0,0,1,.33-1c.28-.19.43-.4.81-.45a1.3,1.3,0,0,1,.9.24c.15.25.47.24.62.43a2.89,2.89,0,0,0,.76.55,1.55,1.55,0,0,0,.79.55A6.32,6.32,0,0,0,178,30a2.61,2.61,0,0,0,.77.5,4.66,4.66,0,0,0,.77.5,4.7,4.7,0,0,1,.79.48c.19.25.35.24.62.46a1.52,1.52,0,0,1,.55,1,2,2,0,0,1-.33,1.13,1.47,1.47,0,0,1-1,.58,3.63,3.63,0,0,1-1.11.22c-.29,0-.45.18-.72.13s-.65.09-.78.13c-.38,0-.59.12-.74.12a1,1,0,0,0-.74.11,2.34,2.34,0,0,0-.75.09,4,4,0,0,0-.76.1.8.8,0,0,0-.46.07c-.17.1-.21.4.2.6a6.74,6.74,0,0,1,1.44.87,7.42,7.42,0,0,0,.94.92c.25.46.62.75.8,1.08a4.75,4.75,0,0,1,.55,1.2,9.22,9.22,0,0,1,.23,1.33,2.33,2.33,0,0,1-.07,1,5.86,5.86,0,0,1-.24.9A3.49,3.49,0,0,0,177.57,44.39Zm-9.69-1.33a.47.47,0,0,0,.65-.13,3.3,3.3,0,0,0,.27-.9c.13-.32,0-.43-.06-.76a2,2,0,0,0-.47-.67.76.76,0,0,0-1.12.13.63.63,0,0,0-.25.73c-.11.28.2.45.29.77A4.09,4.09,0,0,0,167.88,43.06Z"/><path class="cls-2" d="M180.29,57.37a1.68,1.68,0,0,1-1.25-.66,1.56,1.56,0,0,1-.46-1.33,2.16,2.16,0,0,1,.62-1.25,2.39,2.39,0,0,1,1.33-.43,1.93,1.93,0,0,1,1.26.64,1.91,1.91,0,0,1,.45,1.35,1.54,1.54,0,0,1-.63,1.25A1.94,1.94,0,0,1,180.29,57.37Zm10.42-13c.17-.08.43-.39.71-.42s.48,0,.69-.1a2.35,2.35,0,0,1,1.19.67,2.88,2.88,0,0,1,.41,1.16,1.66,1.66,0,0,1-.55,1.15c-.39.19-.49.51-.85.7a2,2,0,0,1-.79.56c-.29.34-.52.36-.75.55a4.44,4.44,0,0,0-.74.55c-.51.41-.86.61-1.3,1a6.86,6.86,0,0,0-1.31,1,8.76,8.76,0,0,1-1.3,1,6,6,0,0,0-1.31,1,1.53,1.53,0,0,1-1.23.62,1.12,1.12,0,0,1-.76-.48c-.31-.44-.55-.86-.17-1.21a2,2,0,0,1,.63-.7c.44-.35.7-.81,1.13-1,.28-.24.76-.72,1.09-1a3.48,3.48,0,0,1,.73-.69c.27-.29.58-.44.75-.71a6.45,6.45,0,0,1,1-.9c.35-.31.66-.7.93-.93a5.6,5.6,0,0,0,.9-.93C189.93,45,190.38,44.74,190.71,44.39Z"/><path class="cls-19" d="M.45,47.8c-.27-.39-.43-1-.13-1.29a2.75,2.75,0,0,0,.75-.77A2.33,2.33,0,0,0,1.79,45c.15-.21.51-.39.73-.76s.57-.46.73-.76A5.33,5.33,0,0,1,4,42.69c.14-.22.55-.54.73-.76s.47-.46.89-.93a1,1,0,0,0,.11-1,.68.68,0,0,1-.32-.82,1.16,1.16,0,0,1,.43-.79,1,1,0,0,1,.77-.47.79.79,0,0,1,.83.28,1.06,1.06,0,0,0,1-.17,10.57,10.57,0,0,1,.89-.93,2.53,2.53,0,0,1,.74-.78c.14-.25.54-.49.73-.76a2.35,2.35,0,0,0,.74-.77,2.06,2.06,0,0,1,.75-.78,2,2,0,0,0,.72-.76,3.63,3.63,0,0,1,.76-.8.93.93,0,0,1,1.33,0,1.23,1.23,0,0,1,.31.66.74.74,0,0,1-.22.66,12.07,12.07,0,0,0-.84.91,2.94,2.94,0,0,1-.84.88,5.26,5.26,0,0,0-.82.87c-.3.17-.57.65-.84.87s-.45.64-.84.88a11.49,11.49,0,0,0-.85.88c-.29.37-.6.5-.84.88a6.26,6.26,0,0,1-.84.88,10,10,0,0,0-.82.86,2.87,2.87,0,0,0-.84.88,10.35,10.35,0,0,0-.84.88,5.16,5.16,0,0,1-.85.88,2.1,2.1,0,0,1-.84.88,3.31,3.31,0,0,1-.82.86,3.52,3.52,0,0,0-.84.88c-.34.29-.58.71-.88.88C1.37,48.36.86,48.12.45,47.8ZM14.27,37.58c.26.18.45.52.71.68.24.33.36.37.37.64a1.1,1.1,0,0,1-.06.66,2.85,2.85,0,0,1-.83,1.24,2.53,2.53,0,0,0-.71.75,3.11,3.11,0,0,1-.73.76,3.22,3.22,0,0,0-.73.76c-.21.15-.33.52-.72.76-.23.27-.52.41-.72.75a2,2,0,0,1-.72.76,4.11,4.11,0,0,1-.73.76,1.69,1.69,0,0,1-.71.74,2.17,2.17,0,0,1-1.21.89,1,1,0,0,1-1.33-.27c-.12-.21-.49-.44-.69-.66a1.39,1.39,0,0,1-.33-1.32A11.56,11.56,0,0,1,6,44.25a1.65,1.65,0,0,0,.71-.74c.21-.29.49-.34.73-.76s.52-.41.73-.76a4,4,0,0,1,.71-.75,9.74,9.74,0,0,1,.73-.76,8.91,8.91,0,0,1,.73-.76A2.57,2.57,0,0,0,11,39a3,3,0,0,0,.72-.74c.27-.22.79-.83,1.18-.91.19-.05.47,0,.66-.08C13.82,37.38,14.07,37.29,14.27,37.58ZM8.14,54.42c-.31,0-.66.08-.85-.2-.4-.32-.66-.73-1-1-.19-.21-.44-.32-.53-.67a1,1,0,0,1-.22-.79,2.11,2.11,0,0,1,.42-1.18,4.65,4.65,0,0,1,.83-1c.29-.27.35-.51.64-.68s.46-.41.65-.68.46-.3.65-.67c.23-.14.42-.54.65-.68a4.06,4.06,0,0,1,.64-.67,2.62,2.62,0,0,1,.65-.68,2.73,2.73,0,0,0,.66-.69,7.21,7.21,0,0,0,.65-.68,2.21,2.21,0,0,0,.65-.68,1.81,1.81,0,0,0,.66-.69,1.78,1.78,0,0,0,.65-.68c.11-.18.53-.42.64-.67a1.78,1.78,0,0,0,.65-.68c.18-.32.55-.47.65-.67s.42-.51.64-.68a2.65,2.65,0,0,1,.65-.68,4.65,4.65,0,0,1,.79-.76,4.77,4.77,0,0,1,1-.52c.29,0,.66.09,1,.06.22.21.54.32.84.58a3.43,3.43,0,0,0,.83.83c.23.31.4.6.24.84a1,1,0,0,1-.43.82c-.4.14-.49.34-.8.46a1.29,1.29,0,0,1-.85-.2c-.25-.11-.41-.42-.64-.58-.34-.52-.57-.28-1,.16a7.1,7.1,0,0,0-1.2,1.25A4.83,4.83,0,0,1,15.68,43c-.47.39-.7.91-1.19,1.25a9.11,9.11,0,0,0-1.22,1.27,10.16,10.16,0,0,0-1.21,1.27A7.2,7.2,0,0,1,10.86,48c-.43.39-.84.94-1.19,1.25-.44.55-.78.74-1.2,1.25s-.48.61-.14,1c.35.2.54.61.79.79s.38.55.24.84a.89.89,0,0,1-.42.8C8.8,54.17,8.37,54.28,8.14,54.42Zm4.13-14.64c-.44.39-.64.87-1,1.06s-.32.61-.59.73a2.66,2.66,0,0,0-.68.64c-.52.48-.85.88-1.27,1.29-.17.25-.37.32-.63.66s-.53.46-.58.77c0,.1,0,.18.12.25a.47.47,0,0,0,.57-.08c.47-.39.64-.81.88-1s.46-.47.7-.66.4-.52.67-.66a13.8,13.8,0,0,0,1.27-1.27c.25-.22.41-.52.62-.67.14-.32.34-.32.56-.76C13,39.85,12.63,39.6,12.27,39.78Zm16.14,5.4a1.05,1.05,0,0,1-.31.83,1.32,1.32,0,0,1-1,.57c-.26.17-.73.12-1.07.24a3.82,3.82,0,0,1-.71.13,3.54,3.54,0,0,0-.71.07c-.2.14-.37,0-.71.06s-.52-.07-.71,0-.42,0-.71,0a1.36,1.36,0,0,0-.77,0,.63.63,0,0,1-.63-.06,3.71,3.71,0,0,0-.73-.08l-1-.19a6.88,6.88,0,0,1-1-.23,2.17,2.17,0,0,1-1.3-.4,1.11,1.11,0,0,0-.63-.08c-.26,0-.75.58-.79.76-.12.6.24.46.44.49.48.13.78,0,.93,0,.39,0,.58.17.84.1a2.35,2.35,0,0,1,.87.14,2.14,2.14,0,0,0,.75.24c.24,0,.63.28.81.32a1.46,1.46,0,0,0,.73.44,1.25,1.25,0,0,1,.67.54,3.71,3.71,0,0,1,1,1.24c.17.36.19.41.35.72a5.36,5.36,0,0,0,.11.79c.08.46-.18.77-.29,1.12s-.41.8-.67.9A4.28,4.28,0,0,1,20.85,55a6.26,6.26,0,0,1-.77.26c-.4,0-.6,0-.74-.28a1.24,1.24,0,0,1-.35-.78c.05-.22.08-.52.27-.62a4.13,4.13,0,0,0,1.16-1,.83.83,0,0,0,.19-1,1.29,1.29,0,0,0-.81-.77c-.32-.14-.39.27-.42.6a1.62,1.62,0,0,1-.23.75c-.14.29-.26.47-.19.64-.17.41-.26.85-.38,1.18a3.68,3.68,0,0,1-.47,1.17,3.69,3.69,0,0,1-.48,1.13,8.11,8.11,0,0,1-.34.74c-.21.32-.19.63-.37.75a1.58,1.58,0,0,1-.38.77,1,1,0,0,0-.38.67c-.2.49-.36.79-.71.94a1,1,0,0,1-1.27,0,1.94,1.94,0,0,1-.31-.65c-.09-.31.12-.47.19-.72a11,11,0,0,0,.61-1.07,11.75,11.75,0,0,1,.59-1.06,11.93,11.93,0,0,0,.54-1.07,6.27,6.27,0,0,0,.47-1.1c.2-.48.33-.88.49-1.19s.31-.86.42-1.21a3.65,3.65,0,0,0,.24-.84c0-.14.33-.68.38-1.06,0-.19-.54-.32-.62-.07a3.88,3.88,0,0,1-.19.81,6,6,0,0,0-.29.77c-.3.36-.21.7-.45,1a5.51,5.51,0,0,1-.44,1,2.16,2.16,0,0,1-.45,1,6,6,0,0,1-.58,1.25,9.81,9.81,0,0,1-.65,1.19c-.31.35-.37.72-.66.82a.74.74,0,0,1-1.24,0,.58.58,0,0,1-.28-.65c0-.4,0-.57.2-.69a2.54,2.54,0,0,0,.47-.83,6,6,0,0,0,.43-.76,7.84,7.84,0,0,0,.43-.79,6.08,6.08,0,0,0,.37-.78c0-.3.28-.57.36-.79s.19-.63.31-.8a6.13,6.13,0,0,1,.32-.83c.16-.11.08-.19.18-.54s.31-.55.3-.85-.5-.08-.58.13a7.48,7.48,0,0,0-.29.79c-.11.31-.18.31-.18.51-.24.29-.2.59-.38.77a1.28,1.28,0,0,1-.38.77c-.21.19-.15.57-.34.74a4.92,4.92,0,0,1-.48.94c-.06.33-.46.65-.53.88s-.31.64-.51.64a.83.83,0,0,1-1.29,0,1.2,1.2,0,0,1-.13-1.29c.34-.52.51-1,.78-1.29s.44-.94.7-1.28a4.12,4.12,0,0,0,.69-1.25c.09-.37.39-.69.29-.79s-.26,0-.62.41-.79,1-1.26,1.36a.85.85,0,0,1-1.22,0c-.34-.19-.37-.87-.11-1.24a7.41,7.41,0,0,0,1.08-1.13c.21-.32.75-.62,1-1.09A8.41,8.41,0,0,1,12.68,47c.32-.47.7-.59,1-1.08s.7-.66,1.06-1.1.77-.71,1.05-1.1.76-.76,1.05-1.1A6.85,6.85,0,0,1,18,41.5a.86.86,0,0,1,1.22,0,1,1,0,0,1,.1,1.23c-.14.31-.49.47-.81.88s-.13.81.65.81c.36,0,.69,0,.81-.1s.34-.19.4-.49.13-.58.06-.78c.12-.15-.06-.41,0-.61a1,1,0,0,1,.38-.94,4,4,0,0,1,.78-.38,1.07,1.07,0,0,1,.82.26,4.74,4.74,0,0,1,.28.69,5.6,5.6,0,0,1,0,1,5,5,0,0,1-.18,1.18c-.16.3.37.52.57.48a1.79,1.79,0,0,0,1.14-.1,3.21,3.21,0,0,0,.95-.19c.27,0,.59-.21.94-.24s1-.28,1.21-.21.55.24.71.3S28.32,44.93,28.41,45.18Z"/><path class="cls-19" d="M21.27,28a1.36,1.36,0,0,1-.2-.74.61.61,0,0,1,.39-.64,3.37,3.37,0,0,0,1.08-.74,3,3,0,0,0,1.06-.69,7,7,0,0,0,1.32-.85c.79-.46.58-.77.33-1.17s-.29-.62-.1-.91a2.53,2.53,0,0,1,.59-.64c.29-.07.54-.21.81-.27s.61.05.8.46.46.62,1.08.24.81-.38,1.08-.7.65-.32,1.09-.72a.71.71,0,0,0,.2-1.1.74.74,0,0,1-.08-.9,1.28,1.28,0,0,1,.59-.64,1,1,0,0,1,.82-.28c.24,0,.47,0,.79.44s.8.4,1.25.16c.62-.46,1-.55,1.32-.86a5.49,5.49,0,0,0,1.09-.71,6.23,6.23,0,0,0,1.13-.71c.14-.17.54-.16.75-.1s.56.26.61.47a.89.89,0,0,1,.18.75.7.7,0,0,1-.39.65,11.74,11.74,0,0,1-1.1.74,12.66,12.66,0,0,1-1.1.72c-.36.18-.8.52-1.31.85-.31.18-.53.4-.44.71a.92.92,0,0,1-.16.94.89.89,0,0,1-.6.59c-.22.05-.41.32-.78.25s-.49-.44-.87-.47c-.21,0-.58.27-.66.35-.64.36-.84.52-1.22.71a3.45,3.45,0,0,0-1,.67,7.84,7.84,0,0,1-.48.67,1.15,1.15,0,0,1,.06.74c0,.3-.37.67-.57.74a1,1,0,0,1-.81.27c-.29,0-.33-.42-.7-.48a3.79,3.79,0,0,0-1,.42,10.93,10.93,0,0,0-1.32.84c-.45.17-.65.5-1.1.63s-.65.54-1.11.69c-.28.27-.42.13-.75.1C21.69,28.54,21.4,28.36,21.27,28Zm22.29-5.61c.15.18.11.51.17.78s-.31.51-.41.66a5,5,0,0,1-.86.56,6.13,6.13,0,0,0-.82.54,8.87,8.87,0,0,0-1,.66c-.27.06-.5.21-.5.52a1.93,1.93,0,0,0,.64,1c.1.16.45-.07.82-.2a5.59,5.59,0,0,1,1.23-.77c.22,0,.56-.2.75-.13a1.25,1.25,0,0,1,.63.46.67.67,0,0,1,.16.76c.06.21-.14.42-.42.63s-.45.43-.77.54a4.06,4.06,0,0,0-.77.49c-.52.23-1,.73-1.53,1-.36.18-.43.31-.8.52s-.67.47-1.06.69c-.13.23-.6.45-.83.74s.28.82.34.95.06.13.22.08a2,2,0,0,0,.5-.27,5.24,5.24,0,0,0,1-.67c.38-.24.56-.48.87-.56s.51-.45.84-.55a2.1,2.1,0,0,0,.84-.55c.17-.22.6-.25.87-.56.36-.13.53-.38.84-.55s.45-.38.89-.56a1.09,1.09,0,0,1,.76-.13c.2.15.56.17.64.48a.67.67,0,0,1,.18.78,1,1,0,0,1-.43.64,3.91,3.91,0,0,1-.87.59,2,2,0,0,1-.84.55,1.94,1.94,0,0,1-.86.56,6.12,6.12,0,0,0-.84.55,7.42,7.42,0,0,0-.85.55c-.33.3-.63.36-.86.56a3.49,3.49,0,0,0-.94.61c-.5.22-.3.92-.16,1.26A10.1,10.1,0,0,0,41.21,37c.11.35.22.55.08.84s-.35.59-.59.69a3.06,3.06,0,0,1-.87.26.88.88,0,0,1-.74-.41c-.2-.31-.5-.65-.91-1.36A.87.87,0,0,0,37,36.64a8.23,8.23,0,0,0-.92.6c-.27.06-.49.46-.83.54a4.51,4.51,0,0,1-.82.53,2.7,2.7,0,0,1-.82.54c-.37.21-.54.38-.83.54a4.25,4.25,0,0,1-.82.53c-.34.17-.57.37-.88.54a.55.55,0,0,1-.76.11.71.71,0,0,1-.61-.46,2.74,2.74,0,0,1-.18-.75c.16-.22.15-.49.4-.66s.51-.25.85-.58c.17-.14.58-.24.83-.54a2,2,0,0,0,.82-.53,1.75,1.75,0,0,1,.82-.54c.28,0,.63-.41.83-.54a1.8,1.8,0,0,0,.82-.53c.34-.22.51-.3,1-.67.68-.5.33-.82-.06-1.33-.28-.26-.83.18-1.22.52a3.17,3.17,0,0,1-1.06.69c-.4.2-.56.47-.8.52a14.61,14.61,0,0,0-1.51,1,4.65,4.65,0,0,1-1.53,1,.6.6,0,0,1-.75.1c-.33,0-.43-.31-.63-.46a.68.68,0,0,1-.16-.76c.09-.33.22-.39.4-.62a7.54,7.54,0,0,0,1.22-.83c.2,0,.48-.55.5-.77a1.83,1.83,0,0,0-.52-.8c-.13-.2-.49-.07-.74.15a9,9,0,0,0-1,.66,2.76,2.76,0,0,0-.84.55c-.29.33-.64.3-.88.54s-.4.2-.77.11a1,1,0,0,1-.61-.47,1.18,1.18,0,0,1-.18-.75c.13-.19.1-.45.41-.65a2.21,2.21,0,0,0,.85-.59c.22-.17.56-.3.84-.54a5.35,5.35,0,0,0,1-.67c.17-.17.38-.41.34-.61a2.24,2.24,0,0,0-.44-.83c-.19-.13-.4.07-1.07.36a2.4,2.4,0,0,1-1,.65,1.1,1.1,0,0,1-.74.11,7.46,7.46,0,0,1-.63-.45c-.19-.33-.33-.54-.16-.76a2.27,2.27,0,0,1,.4-.63,2.07,2.07,0,0,0,.91-.62c.26-.16.58-.35.88-.57a2.8,2.8,0,0,1,.88-.58,2,2,0,0,0,.89-.57c.25-.13.57-.49.88-.58a3.13,3.13,0,0,0,.88-.57,2.84,2.84,0,0,1,.9-.59,2.05,2.05,0,0,0,.89-.57,7.84,7.84,0,0,1,.88-.58c.32-.32.64-.33.9-.59s.61-.31.88-.57c.24-.1.58-.4.89-.57s.58-.36.88-.58a3.9,3.9,0,0,1,.88-.57c.39-.23.58-.49.88-.58.28-.26.56-.3.94-.58a5.15,5.15,0,0,1,.75-.13,7.46,7.46,0,0,0,.63.46c.14.21.27.58.16.76.07.32-.18.48-.42.64a3.67,3.67,0,0,1-1.2.81c-.45.34-.43.5-.41.66a1.27,1.27,0,0,0,.42.86c.15.19.43,0,.73-.16a7.14,7.14,0,0,0,1-.67,6.2,6.2,0,0,1,.83-.53c.3-.14.43-.4.87-.55s.48-.25.76-.13S43.47,22.2,43.56,22.42ZM30.7,27.67a3.27,3.27,0,0,0-.7.82,4,4,0,0,0,.44.88c.21.15.49-.06,1.34-.56.18-.23.47-.48.48-.71s-.11-.48-.43-.83C31.56,27.19,31.19,27.4,30.7,27.67Zm3.15,2.69c-.1-.1-.56.17-1.13.41-.19.18-.64.52-.65.81a1,1,0,0,0,.41.93c.28.21.56-.14,1.35-.54.13-.11.6-.34.63-.63A3.43,3.43,0,0,0,33.85,30.36Zm1.61-3.95a4.24,4.24,0,0,1,.49-.32c.11-.13.56-.22.59-.64.07-.24-.22-.64-.49-.93-.09-.14-.48,0-.76.21a1.82,1.82,0,0,0-.67.38c-.16.19-.58.49-.53.74s.11.51.45.85C34.79,26.79,35.16,26.55,35.46,26.41Zm1.67,1.48c-.1.15-.24.1-.49.32s-.57.54-.54.77c0,.47.28.52.42.76s.38.2.83,0c.06,0,.28-.18.66-.45s.59-.3.67-.64a1.32,1.32,0,0,0-.52-1.06A1.53,1.53,0,0,0,37.13,27.89Z"/><path class="cls-19" d="M68.21,11.79c0,.36.12.6,0,.77,0,.31-.31.51-.51.51a3.57,3.57,0,0,1-1.18.45c-.41.1-.84.35-1.17.42-.48.25-.72.21-1.16.42a3.73,3.73,0,0,1-1.17.42,3.18,3.18,0,0,1-1.17.42,11.51,11.51,0,0,1-1.16.42,11.22,11.22,0,0,1-1.17.42,7.24,7.24,0,0,0-1.19.43c-.48.12-.68.27-1.15.41s-.8.32-1.16.42a11.61,11.61,0,0,0-1.17.42,3.43,3.43,0,0,0-1.17.42c-.48.1-.73.32-1.16.42a3.09,3.09,0,0,1-1.17.42,2.74,2.74,0,0,0-1.15.42,2.68,2.68,0,0,1-1.21.41c-.36.2-.56.12-.72-.06a1.76,1.76,0,0,1-.49-.6c0-.21-.16-.57,0-.75s.21-.45.52-.51a8.61,8.61,0,0,0,1-.4,2.26,2.26,0,0,0,1-.36,2,2,0,0,0,1-.36,7.28,7.28,0,0,1,1-.36,6.66,6.66,0,0,1,1-.36c.29,0,.62-.28,1-.37a4.79,4.79,0,0,1,1.24-.44c.7-.26.74-.49.54-.92-.18-.16-.66.11-1.59.35-.52.24-1.16.32-1.52.55a1.88,1.88,0,0,1-.91.25,1.76,1.76,0,0,1-.91,0,1.08,1.08,0,0,1-.84-.47c-.27-.25-.31-.56-.51-.84a4.92,4.92,0,0,0-.45-1.26c-.18-.5-.32-.82-.46-1.27,0-.19-.19-.53-.17-.81A1.09,1.09,0,0,1,49,10a2.13,2.13,0,0,1,.77-.78,3.75,3.75,0,0,1,1-.45,4.78,4.78,0,0,1,1.08-.39A8.81,8.81,0,0,1,52.88,8c.38-.24.74-.14,1.08-.38A7.35,7.35,0,0,0,55,7.26a4.13,4.13,0,0,0,1.08-.39c.28-.13.74-.24,1.08-.39a6.89,6.89,0,0,0,1.08-.39,11.93,11.93,0,0,1,2.22-.68,7.52,7.52,0,0,1,1.14.19,1.38,1.38,0,0,1,.88,1.13A4.72,4.72,0,0,0,63,8a6.73,6.73,0,0,1,.47,1.27,2.08,2.08,0,0,1,.15.79,3.31,3.31,0,0,1-.18.79c-.08.4-.54.59-.75.77a2.71,2.71,0,0,1-1,.46,3.73,3.73,0,0,0-.84.3c-.4.07-.73.31-1.12.4-.19.17-.71.24-1,.43s0,.42,0,.61c.37.27.49,0,.89,0a4.75,4.75,0,0,0,1.15-.46,4.63,4.63,0,0,1,1-.38c.27,0,.67-.34,1-.37a2.4,2.4,0,0,0,1-.37c.23-.18.7-.12,1-.37a5.44,5.44,0,0,0,1-.36c.45-.07.6-.29,1.09-.37.28,0,.58-.13.72.06A.64.64,0,0,1,68.21,11.79ZM52.09,11a4.81,4.81,0,0,0,1.54-.5,6.36,6.36,0,0,0,1.06-.44,7.22,7.22,0,0,1,1.12-.35A12.2,12.2,0,0,0,57,9.27a6.57,6.57,0,0,1,1.11-.37,7.21,7.21,0,0,0,1.7-.59c.77-.35.24-.93-.25-.9a4,4,0,0,1-1.06.35,2.73,2.73,0,0,0-1,.44,2.73,2.73,0,0,1-1,.34,2.94,2.94,0,0,0-1,.35c-.23,0-.51.3-.95.34a4.6,4.6,0,0,0-.94.34,1.86,1.86,0,0,1-.95.34c-.28.12-.89.15-1.16.44C51.46,10.79,51.81,11.21,52.09,11ZM57.3,25.82c-.13.2-.44.66-.63,1s-.3.56-.44.64-.3.55-.51.67a1.39,1.39,0,0,1-.51.64,1.12,1.12,0,0,1-.49.57c-.32.29-.71.68-.95.69a.72.72,0,0,1-.89-.05.69.69,0,0,1-.6-.63c-.17-.19-.15-.34,0-.72.19-.17.21-.37.37-.63a9.1,9.1,0,0,0,.82-.91c.23-.26.57-.48.67-.82a1.38,1.38,0,0,0,.56-.8c.13-.27.33-.47.51-.8s.46-.24.69-.43a.83.83,0,0,1,.88,0c.26,0,.47.13.65.49S57.52,25.54,57.3,25.82Zm.42-14.08a3.22,3.22,0,0,0,1-.34,2.31,2.31,0,0,1,.92-.34,2.52,2.52,0,0,0,1.2-.46c.34-.31,0-.76-.39-.75a11.72,11.72,0,0,0-1.71.64c-.33,0-.69.37-1.08.39s-.75.32-1.14.36a10.37,10.37,0,0,0-1.11.43,4.66,4.66,0,0,1-1.11.37,6.33,6.33,0,0,0-1.35.49c-.65.26-.53.86-.12,1a2.09,2.09,0,0,0,1.15-.39c.29-.1.63-.2,1-.34a2.42,2.42,0,0,1,.95-.34,1.85,1.85,0,0,0,.92-.33A4.17,4.17,0,0,1,57.72,11.74Zm5.12,9.52c-.34.15-.51.51-.71.73a3.88,3.88,0,0,0-.08,1,5.56,5.56,0,0,0,.42,1.16,1.22,1.22,0,0,0,.31.86c.17.27.1.76.2.95,0,.44.06.65-.2,1-.1.41-.4.57-.78.8s-.76.38-1,.47a3.09,3.09,0,0,1-1.56.41,1.07,1.07,0,0,1-.75-.13,3.4,3.4,0,0,1-.51-.61.83.83,0,0,1,0-.85.81.81,0,0,1,.6-.61c.75-.13.89-.15,1.13-.34.39,0,.36-.23.25-.53a2.54,2.54,0,0,1-.28-.78,4.31,4.31,0,0,0-.37-1,1.94,1.94,0,0,0-.49-.74,2,2,0,0,0-.93,0,14.45,14.45,0,0,1-1.74.63,3.46,3.46,0,0,1-1.14.31c-.4,0-.81.09-1.15-.18a2,2,0,0,1-.85-1.09,3.49,3.49,0,0,0-.45-1.26c-.17-.13-.11-.45-.14-.74a2.26,2.26,0,0,1,.15-.75,4.82,4.82,0,0,1,.8-.76c.37-.28.78-.26,1-.47a5.2,5.2,0,0,1,1-.36,10.29,10.29,0,0,1,1-.36c.42-.2.6-.12,1-.37a4.34,4.34,0,0,0,1-.37,2.29,2.29,0,0,0,1-.36,2,2,0,0,1,1-.37,3.3,3.3,0,0,0,1-.36,2,2,0,0,0,1-.36,3.33,3.33,0,0,0,1.16-.32,4.91,4.91,0,0,1,1.16.18,5.18,5.18,0,0,1,.83,1.07c.07.47.39.8.45,1.25a6,6,0,0,0,.14,1c-.07.43-.2.47-.34.77s-.46.39-.72.56a1.14,1.14,0,0,1-.9.4C64,20.75,63.53,21.11,62.84,21.26Zm.48-2.11c.36-.18.52-.31.43-.63,0-.15-.18-.43-.23-.61-.12-.41-.43-.39-.72-.22a4.06,4.06,0,0,1-.88.32c-.33,0-.49.23-.88.32a2.58,2.58,0,0,0-.88.31,2.38,2.38,0,0,1-.88.32c-.44.09-.6.34-.9.33a3,3,0,0,0-.89.32,3.11,3.11,0,0,1-.88.31,1.92,1.92,0,0,0-.88.32c-.38.24-.56.3-.42.62s.09.47.22.62c.16.37.48.28.73.21s.47-.19.88-.31.54-.22.88-.32.58-.11.88-.32.56-.15.86-.31.66-.16.92-.33.66-.17.88-.32a2.06,2.06,0,0,1,.88-.32A1.41,1.41,0,0,0,63.32,19.15Zm7,2.77a2.85,2.85,0,0,1,.49.59c0,.31.11.73,0,.94a1.35,1.35,0,0,1-.66.63c-.2.2-.59,0-.84.08s-.48-.08-.77-.12a1.23,1.23,0,0,0-.77-.14c-.28,0-.44-.17-.76-.18a1.71,1.71,0,0,1-.74-.18,3,3,0,0,1-1.19-.34,1.19,1.19,0,0,1-1-.78c0-.28-.09-.74.09-.9A1.93,1.93,0,0,1,65,21a1.18,1.18,0,0,1,1-.09,2,2,0,0,0,.88.23,5.35,5.35,0,0,0,.92.19,4,4,0,0,0,.89.15c.18,0,.69.17.93.16A2.62,2.62,0,0,1,70.34,21.92Z"/><path class="cls-19" d="M84,16.27a6,6,0,0,0,.13,1.12,4.33,4.33,0,0,0,.12,1.09,5.5,5.5,0,0,0,0,1.06,1.37,1.37,0,0,1-.45,1,1.59,1.59,0,0,1-1,.65,1.64,1.64,0,0,1-1.17.25c-.44,0-.88.1-1.44.17a9.15,9.15,0,0,1-1.42.16,2.36,2.36,0,0,1-1.27,0,2.23,2.23,0,0,1-1.19-.5c-.27-.3-.51-.39-.54-.81s-.18-.54-.22-.94a3,3,0,0,1-.13-1.11c0-.29-.11-.77-.13-1.12s-.21-.8-.13-1.12S75,15.53,75,15c-.16-.32,0-.67,0-1.07a2.37,2.37,0,0,1,.45-1,2.62,2.62,0,0,1,1-.65c.42,0,.69-.2,1.15-.25A11.17,11.17,0,0,0,79,11.94a13,13,0,0,1,1.44-.17c.46-.07.85.05,1.3,0a2.69,2.69,0,0,1,1.16.53,1.33,1.33,0,0,1,.54.81c0,.38.22.66.23.94s.14.83.13,1.12A3,3,0,0,1,84,16.27Zm-2.82-1.58c-.06-.56-.25-.61-.8-.64-.28,0-.71.15-1,.12a3.55,3.55,0,0,1-1,.11c-.61.19-.67.31-.66.81,0,.21.12.6.11.93a2.22,2.22,0,0,1,.11.95,4.16,4.16,0,0,0,.11,1c.12.24,0,.73.1.93.1.62.28.6.83.61a2.89,2.89,0,0,0,1-.12,1.89,1.89,0,0,0,1-.12c.6.05.7-.24.64-.78a1.82,1.82,0,0,1-.1-.93,2.85,2.85,0,0,1-.11-.95,1.9,1.9,0,0,1-.11-1C81.16,15.42,81.27,15,81.14,14.69Zm3.34-5.45c-.62,0-.92.2-1.47.17a7.14,7.14,0,0,1-1.44.16,8.48,8.48,0,0,1-1.41,0c-.27.08-.4,0-.7-.18s-.39-.29-.61-.36-.31-.5-.5-.74a3.86,3.86,0,0,0-.22-.89,15.49,15.49,0,0,1-.2-1.7,8.39,8.39,0,0,1-.19-1.68,2.53,2.53,0,0,1,0-1c.13-.27.18-.68.44-.92a2.73,2.73,0,0,1,1.12-.69c.48-.1,1-.16,1.29-.27s1,0,1.44-.16A3.9,3.9,0,0,0,83.52.87,4.28,4.28,0,0,0,85,.71,6.47,6.47,0,0,0,86.41.54c.53,0,.89,0,1.41,0a2.72,2.72,0,0,1,1.31.53,8.29,8.29,0,0,1,.51.75,1.73,1.73,0,0,1,.22.89c0,.49.1,1.14.19,1.68a7.75,7.75,0,0,0,.19,1.69,6.85,6.85,0,0,1-.15,1.36,3.18,3.18,0,0,1-.34.56,1.91,1.91,0,0,0-.56.44,4,4,0,0,1-.9.34c-.19.19-.62.12-.93.15a12.77,12.77,0,0,1-1.44.17A10.75,10.75,0,0,1,84.48,9.24Zm1-2.37a6.7,6.7,0,0,0,1.21-.14c.67-.12,1-.28.87-.81a8.34,8.34,0,0,0-.14-1.25c-.06-.49-.12-.84-.14-1.23a.77.77,0,0,0-1-.62A2.62,2.62,0,0,1,85,3a5.45,5.45,0,0,0-1.23.14,11.86,11.86,0,0,0-1.23.14c-.36-.05-.8.21-1.21.14-.72.11-1,.42-.9.83a5.75,5.75,0,0,0,.14,1.24,5.3,5.3,0,0,1,.15,1.25c.07.68.44.75,1,.59A7.31,7.31,0,0,0,83,7.15,4.34,4.34,0,0,0,84.22,7C84.52,7,85,6.94,85.46,6.87ZM95.26,15a2.23,2.23,0,0,0,.13,1.12,2.71,2.71,0,0,0,.13,1.09c0,.43.09.79,0,1.06a1.56,1.56,0,0,1-.46,1c-.19.35-.61.42-1,.65a6.77,6.77,0,0,1-1.18.25,3.39,3.39,0,0,1-1.55.18c-.5,0-1,.21-1.59.18-.4,0-.95.09-1.27,0s-1-.12-1.18-.5a1.48,1.48,0,0,1-.54-.81c-.08-.2-.13-.64-.23-.94a2.31,2.31,0,0,1-.13-1.11A5.63,5.63,0,0,1,86.27,16a3,3,0,0,1-.13-1.12A6.52,6.52,0,0,0,86,13.78a1.92,1.92,0,0,1,0-1.06,1.79,1.79,0,0,1,.45-1,1.48,1.48,0,0,1,1-.66,2.1,2.1,0,0,1,1.15-.25c.46.07,1-.21,1.58-.18a12,12,0,0,1,1.56-.18,7.08,7.08,0,0,0,1.3,0,4.07,4.07,0,0,1,1.16.53,2.61,2.61,0,0,1,.54.81,1.7,1.7,0,0,1,.23.94c0,.33.11.74.13,1.12S95.3,14.65,95.26,15Zm-2.49,1.25c0-.37-.09-.57-.11-1a3.69,3.69,0,0,1-.11-.95,5.76,5.76,0,0,0-.11-.93c0-.59-.36-.74-.8-.64a4,4,0,0,0-1.16.13c-.44.1-.72.06-1.16.13s-.72.3-.67.81.13.65.11.93a3.13,3.13,0,0,1,.11,1,2.22,2.22,0,0,0,.11,1c.08.29,0,.58.1.93,0,.61.34.69.83.61a8.69,8.69,0,0,0,1.16-.13,11.19,11.19,0,0,1,1.16-.14c.58-.11.58-.27.65-.78A3.59,3.59,0,0,0,92.77,16.23Z"/><path class="cls-19" d="M116.83,14.82c-.06.37.12.72,0,1.1s-.14.72-.21,1.23-.33.72-.44,1.13a9.14,9.14,0,0,1-.64,1,3.05,3.05,0,0,1-.93.85,8,8,0,0,1-1.15.64,2.75,2.75,0,0,1-1.28.35,2.59,2.59,0,0,1-1.31.15,6.42,6.42,0,0,0-1.31-.06,9.33,9.33,0,0,1-1.22-.21,2.69,2.69,0,0,1-1.19-.38,2,2,0,0,1-1.06-.64,2.21,2.21,0,0,1-.88-.89,2.79,2.79,0,0,1-.56-1,3.4,3.4,0,0,1-.31-1.12,2.4,2.4,0,0,1-.1-1.14c0-.32,0-.84,0-1.12s0-.72.17-1.3a1.07,1.07,0,0,0-.75-1.18,5.74,5.74,0,0,0-.9-.25,1.94,1.94,0,0,1-.68-.21,1.07,1.07,0,0,1-.84-.55,1.22,1.22,0,0,1-.26-.94,1.34,1.34,0,0,1,.44-.9,1.14,1.14,0,0,1,.93-.33,1.28,1.28,0,0,1,.75.19,8.51,8.51,0,0,0,1.42.42.83.83,0,0,0,.78-.51c.13-.58.23-.9.34-1.35a1,1,0,0,0-.08-.81A1.47,1.47,0,0,0,105,6.6c-.34-.12-.67-.16-1-.26s-.4-.25-.66-.27a.76.76,0,0,1-.54-.5,1.11,1.11,0,0,1-.16-.72,1.54,1.54,0,0,1,.44-.88,1.28,1.28,0,0,1,.9-.33c.28,0,.63.27.92.23s.63.25.94.26a.72.72,0,0,0,.93-.4c.14-.46.19-.76.29-1a2.94,2.94,0,0,0,.22-.83,3.67,3.67,0,0,0,.25-.84,1,1,0,0,1,.56-.7A1.83,1.83,0,0,1,109,.16a1.87,1.87,0,0,1,1,.47.94.94,0,0,1,.23,1,3,3,0,0,0-.23.82c0,.3-.21.69-.29,1a.92.92,0,0,0,.07,1c.13.16.28.24.75.29.76.1,1,0,1.41,0a1.29,1.29,0,0,1,.87.44,1.3,1.3,0,0,1,.26,1,1.11,1.11,0,0,1-.36.79,1,1,0,0,1-.79.34,7.36,7.36,0,0,1-1.34,0,6.32,6.32,0,0,1-1-.1c-.39-.06-.75.3-.91.48a1.09,1.09,0,0,0-.23.61,9.14,9.14,0,0,0-.35,1.21c-.12.48.41.79.93.8l1.48.05c.72,0,1.07-.2,1.69,0a1.62,1.62,0,0,1,.78.5c.27.28.19.63.21.89a2.5,2.5,0,0,1-.25.68.89.89,0,0,1-.56.44,3.12,3.12,0,0,1-1,.13c-.49,0-.84,0-1.25.05a10.23,10.23,0,0,0-1.26-.06,1.57,1.57,0,0,0-1.17.1,1.17,1.17,0,0,0-.54.74c-.07.49-.09.68-.14,1a4,4,0,0,0,0,1.48c.1.22,0,.54.19.7,0,.26.31.43.39.6a2,2,0,0,0,1,.61,2.32,2.32,0,0,0,1.15.23c.31,0,.47.05.87,0s.56.06.87,0a1.16,1.16,0,0,0,.82-.23l.71-.45c.31-.13.5-.63.65-.94a5.52,5.52,0,0,0,.25-1.13c.06-.32,0-.64,0-.87s-.17-.67-.12-.9a1.49,1.49,0,0,1,.53-1.13,1.24,1.24,0,0,1,1-.25,1.29,1.29,0,0,1,.85.36c.26.26.48.45.47.8A3.51,3.51,0,0,1,116.83,14.82Z"/><path class="cls-19" d="M138.32,20.7a4.06,4.06,0,0,1-.61,1.35,5.06,5.06,0,0,1-.9,1.13c-.22.3-.32.46-.57.48s-.4.37-.61.41a3.13,3.13,0,0,0-.66.33,2.28,2.28,0,0,0-.71.25c-.28,0-.57.18-.74.19a1.41,1.41,0,0,1-.79.16c-.18,0-.47.1-.8.07a1.55,1.55,0,0,0-.79,0c-.38.11-.49-.07-.79,0a3.7,3.7,0,0,0-.78-.07,9.83,9.83,0,0,1-1.59-.25,1.58,1.58,0,0,1-.93-.63,2.41,2.41,0,0,1-.16-1.1,1.24,1.24,0,0,1,.59-.75,1.11,1.11,0,0,1,1-.15,15.33,15.33,0,0,0,1.55.2,4,4,0,0,1,.83.08,3.92,3.92,0,0,0,.84,0c.21-.05.48-.05.84-.11a6.71,6.71,0,0,1,.8-.22,2,2,0,0,0,.74-.34c.22-.08.38-.3.66-.48s.4-.27.5-.61a1.58,1.58,0,0,0,.35-.75c0-.35,0-.57.07-.88a1.88,1.88,0,0,0-.29-.83c-.15-.31-.63-.6-.94-.86a5.81,5.81,0,0,0-1.18-.53c-.41-.2-.71-.1-1-.23a2.49,2.49,0,0,1-1-.12,2.47,2.47,0,0,1-1,0c-.4.12-.75.05-1,.13l-1,.23c-.36,0-.67.34-1,.33s-.62.38-.95.42c-.38.21-.53.36-.89.52a1.21,1.21,0,0,1-1.33.18,1.13,1.13,0,0,1-.8-.58,2,2,0,0,1-.22-1c.11-.21.2-.75.41-1.13a3.46,3.46,0,0,1,.56-1c.15-.17.19-.62.45-.89,0-.33.35-.53.47-.93s.26-.61.48-.93.3-.57.51-1a9.92,9.92,0,0,0,.56-1.13c.33-.44.53-.86.69-1.06a1.3,1.3,0,0,1,1.35-.27,1.5,1.5,0,0,1,.9.51,1.18,1.18,0,0,1,.13,1c-.12.31-.23.44-.39.79a5.38,5.38,0,0,0-.46.81,5.62,5.62,0,0,0-.48.83c-.26.32-.29.65-.48.86-.31.54-.46.81-.25,1.07s.59.08,1,0a8.46,8.46,0,0,0,.93-.16,5.39,5.39,0,0,1,.91-.1c.28,0,.55-.15.93,0a8.18,8.18,0,0,1,.93.07,6.13,6.13,0,0,1,.92.12c.35.14.64.05.91.23a3.85,3.85,0,0,1,1.07.4,7.28,7.28,0,0,0,1,.56c.35.32.7.45.92.69a3.83,3.83,0,0,1,.84.86c.15.39.25.54.39.88a2.5,2.5,0,0,1,.26.93,8.91,8.91,0,0,1,.05,1C138.41,20.14,138.4,20.33,138.32,20.7ZM131.61,7.62a2.92,2.92,0,0,1-.82-.84,1,1,0,0,1-.08-.8,2.21,2.21,0,0,1,.74-.9,1.36,1.36,0,0,1,.85-.16,2.18,2.18,0,0,1,1,.54c.25.13.48.34.7.43s.35.31.63.44a3.06,3.06,0,0,1,.73.56c.18.15.48.44.68.57s.35.48.52.58a1.33,1.33,0,0,1,.23,1.31,1.29,1.29,0,0,1-.63.79,1.69,1.69,0,0,1-1,.12,1,1,0,0,1-.64-.37c-.19-.2-.54-.41-.72-.61a2.21,2.21,0,0,0-.71-.56,3.61,3.61,0,0,1-.72-.55C132.09,7.91,131.78,7.79,131.61,7.62Z"/><path class="cls-19" d="M158.65,35.57a1.34,1.34,0,0,1-1.19.71,7,7,0,0,0-1-.23,7.13,7.13,0,0,0-1.24-.46A9.74,9.74,0,0,1,154,35a7.66,7.66,0,0,0-.93-.48c-.33-.23-.56-.2-.75-.43a2.9,2.9,0,0,0-.67-.55,1.12,1.12,0,0,1-.54-.67.87.87,0,0,1-.34-.79c-.18-.26-.1-.46-.12-.81a2.44,2.44,0,0,1,.1-.83,4.42,4.42,0,0,1,.57-1.53,2.66,2.66,0,0,0,.43-1.23c.09-.11-.07-.52-.34-.66A2.6,2.6,0,0,0,150,26.7a1.13,1.13,0,0,0-.68,0,1.64,1.64,0,0,1-.71.09,2,2,0,0,1-.76.17,1.8,1.8,0,0,0-.72.2,1.3,1.3,0,0,0-.71.22,2.58,2.58,0,0,1-.64.19c-.26.1-.49,0-.67.22s-.53.14-.66.23a1.8,1.8,0,0,0-.66.23c-.21.15-.41.07-.69.24a1.11,1.11,0,0,1-1.22-.11.92.92,0,0,1-.64-.77c-.24-.35,0-.69.06-1a2.23,2.23,0,0,1,.9-.71,2.81,2.81,0,0,1,.78-.27c.28-.16.6-.12.77-.24s.52-.07.78-.25a7.44,7.44,0,0,0,.77-.24,4,4,0,0,1,.78-.27,3.48,3.48,0,0,0,.78-.25c.21-.2.42-.09.77-.24s.51-.21.77-.25.45-.29.79-.27.4-.1.77-.24c.17-.17.43-.06.74-.24a3.63,3.63,0,0,0,.8-.25,1.57,1.57,0,0,0,.76-.26c.19,0,.45-.21.78-.27a1.28,1.28,0,0,0,.57-.22c.07,0,.11-.15.1-.27s-.15-.27-.45-.35a2.06,2.06,0,0,1-.85-.3c-.38-.13-.55-.27-.77-.26a12.5,12.5,0,0,1-1.48-.51c-.46-.22-1-.32-1.48-.51s-.88-.58-.83-1a1.66,1.66,0,0,1,.17-1c.23-.36.33-.46.61-.57a1.12,1.12,0,0,1,.93,0,6.22,6.22,0,0,0,1,.35,6.72,6.72,0,0,0,1,.35c.32.1.72.29,1,.35s.58.26,1,.37a3.63,3.63,0,0,0,1,.35c.42.09.71.3,1,.34a2.64,2.64,0,0,1,1,.37c.22.2.72.15,1,.36.21.06.38.28.58.34.37.2.48.64.65,1a2.2,2.2,0,0,1-.14,1.15c-.35.44-.56.73-1,.8-.24,0-.48.25-.68.22s-.45.23-.67.2a5,5,0,0,1-.67.21,3.34,3.34,0,0,1-.7.21,2.89,2.89,0,0,1-.67.2,2.72,2.72,0,0,0-.66.23A2.19,2.19,0,0,0,153,25c-.16.1-.2.42.23.55a2.87,2.87,0,0,1,.84.56,2.63,2.63,0,0,1,.48.9c0,.41,0,.84,0,1.22a2.72,2.72,0,0,1-.43,1.18c-.14.51-.48.89-.54,1.2a1,1,0,0,0,0,.86c.11.33.47.49.76.7a1.63,1.63,0,0,0,.86.42A2,2,0,0,0,156,33a3.67,3.67,0,0,1,.88.3,6.45,6.45,0,0,0,.94.32,2.18,2.18,0,0,1,.92.95A1,1,0,0,1,158.65,35.57Zm-4.11-21.73a.91.91,0,0,1,.94,0c.3,0,.51.39.85.49a4.18,4.18,0,0,0,1,.79,9.72,9.72,0,0,0,1,.84c.34.31.46.49.68.66a3.33,3.33,0,0,1,.92,1.06c.13.44.36.86.07,1.29s-.36.57-.77.64a1.2,1.2,0,0,1-1-.05,7.59,7.59,0,0,1-1-1,2.17,2.17,0,0,1-.87-.79,4.74,4.74,0,0,1-.81-.73,4.27,4.27,0,0,1-.81-.66,4.13,4.13,0,0,1-.88-1c-.18-.21-.08-.68.05-.93A.89.89,0,0,1,154.54,13.84Z"/><path class="cls-19" d="M177.57,44.39a6.57,6.57,0,0,1-.57.77c-.34.23-.64.72-.92.91a4,4,0,0,1-1.05.74,4,4,0,0,1-1.17.51,4.83,4.83,0,0,1-1.27.27c-.15,0-.62.12-.81,0-.35,0-.59-.13-.76-.09a1.06,1.06,0,0,1-.79-.18,7.19,7.19,0,0,0-.74-.25,2.8,2.8,0,0,1-.71-.33,7,7,0,0,0-.66-.37,3.48,3.48,0,0,1-1.29-.94c-.37-.22-.52-.54-.76-.73s-.41-.6-.68-.83a4.27,4.27,0,0,1-.51-.92,1.67,1.67,0,0,1-.33-1,1.93,1.93,0,0,1-.07-.76c0-.24-.06-.54.07-.74a5.36,5.36,0,0,1,.67-1.33,3.46,3.46,0,0,1,.92-.76,1.84,1.84,0,0,1,1.11-.38,5.5,5.5,0,0,1,1.33.24,10.22,10.22,0,0,1,1.16.7,4,4,0,0,1,.67.69,2.16,2.16,0,0,1,.48.81,5.09,5.09,0,0,1,.31.9,3.76,3.76,0,0,1,.1.94,1.41,1.41,0,0,0-.06.72,8.33,8.33,0,0,0-.18.86c-.14.43,0,1,.31,1a1.75,1.75,0,0,0,1.18-.1c.45-.17.87-.37,1.22-.53a10.55,10.55,0,0,0,1-.92,1.35,1.35,0,0,0,.52-.94,4.94,4.94,0,0,0,.14-1,6,6,0,0,0-.16-.72c0-.24-.23-.41-.32-.67a2.6,2.6,0,0,0-1-1.11,3.84,3.84,0,0,0-.84-.63c-.19-.18-.65-.33-.88-.52a5.58,5.58,0,0,1-.93-.42,3.49,3.49,0,0,1-1-.34,1.68,1.68,0,0,1-1-.23,5.55,5.55,0,0,0-1-.18,3,3,0,0,1-1-.13,6.37,6.37,0,0,1-1.06-.08,2.63,2.63,0,0,1-1-.38,1.22,1.22,0,0,1-.46-.9c-.12-.41.14-.68.28-1a1.49,1.49,0,0,1,1.22-.5,6.7,6.7,0,0,0,1.27,0c.15.07.42,0,.73,0s.38,0,.68,0,.42.08.73,0,.42.08.71,0a3.6,3.6,0,0,0,.69-.05,3.39,3.39,0,0,0,.64,0c.18,0,.55,0,.74-.08a2.27,2.27,0,0,1,.71-.08,3.88,3.88,0,0,0,1.07-.14c.21-.06.68,0,1-.15.62-.12,1-.2,1.09-.46s-.13-.53-.78-.93a9.59,9.59,0,0,1-1.09-.74,2.72,2.72,0,0,1-1.11-.78.89.89,0,0,1-.47-.89,1.6,1.6,0,0,1,.33-1c.28-.19.43-.4.81-.45a1.3,1.3,0,0,1,.9.24c.15.25.47.24.62.43a2.89,2.89,0,0,0,.76.55,1.55,1.55,0,0,0,.79.55A6.32,6.32,0,0,0,178,30a2.61,2.61,0,0,0,.77.5,4.66,4.66,0,0,0,.77.5,4.7,4.7,0,0,1,.79.48c.19.25.35.24.62.46a1.52,1.52,0,0,1,.55,1,2,2,0,0,1-.33,1.13,1.47,1.47,0,0,1-1,.58,3.63,3.63,0,0,1-1.11.22c-.29,0-.45.18-.72.13s-.65.09-.78.13c-.38,0-.59.12-.74.12a1,1,0,0,0-.74.11,2.34,2.34,0,0,0-.75.09,4,4,0,0,0-.76.1.8.8,0,0,0-.46.07c-.17.1-.21.4.2.6a6.74,6.74,0,0,1,1.44.87,7.42,7.42,0,0,0,.94.92c.25.46.62.75.8,1.08a4.75,4.75,0,0,1,.55,1.2,9.22,9.22,0,0,1,.23,1.33,2.33,2.33,0,0,1-.07,1,5.86,5.86,0,0,1-.24.9A3.49,3.49,0,0,0,177.57,44.39Zm-9.69-1.33a.47.47,0,0,0,.65-.13,3.3,3.3,0,0,0,.27-.9c.13-.32,0-.43-.06-.76a2,2,0,0,0-.47-.67.76.76,0,0,0-1.12.13.63.63,0,0,0-.25.73c-.11.28.2.45.29.77A4.09,4.09,0,0,0,167.88,43.06Z"/><path class="cls-19" d="M180.29,57.37a1.68,1.68,0,0,1-1.25-.66,1.56,1.56,0,0,1-.46-1.33,2.16,2.16,0,0,1,.62-1.25,2.39,2.39,0,0,1,1.33-.43,1.93,1.93,0,0,1,1.26.64,1.91,1.91,0,0,1,.45,1.35,1.54,1.54,0,0,1-.63,1.25A1.94,1.94,0,0,1,180.29,57.37Zm10.42-13c.17-.08.43-.39.71-.42s.48,0,.69-.1a2.35,2.35,0,0,1,1.19.67,2.88,2.88,0,0,1,.41,1.16,1.66,1.66,0,0,1-.55,1.15c-.39.19-.49.51-.85.7a2,2,0,0,1-.79.56c-.29.34-.52.36-.75.55a4.44,4.44,0,0,0-.74.55c-.51.41-.86.61-1.3,1a6.86,6.86,0,0,0-1.31,1,8.76,8.76,0,0,1-1.3,1,6,6,0,0,0-1.31,1,1.53,1.53,0,0,1-1.23.62,1.12,1.12,0,0,1-.76-.48c-.31-.44-.55-.86-.17-1.21a2,2,0,0,1,.63-.7c.44-.35.7-.81,1.13-1,.28-.24.76-.72,1.09-1a3.48,3.48,0,0,1,.73-.69c.27-.29.58-.44.75-.71a6.45,6.45,0,0,1,1-.9c.35-.31.66-.7.93-.93a5.6,5.6,0,0,0,.9-.93C189.93,45,190.38,44.74,190.71,44.39Z"/></g></g></svg>