<svg xmlns="http://www.w3.org/2000/svg" viewBox="0 0 219.78 47.62"><defs><style>.cls-1{fill:#fff;}</style></defs><title>アセット 83</title><g id="レイヤー_2" data-name="レイヤー 2"><g id="レイアウト"><path class="cls-1" d="M10.32,25.9a4.26,4.26,0,0,0-.2,2.05c-.25.95,0,1.4-.3,2.1,0,.9-.4,1.55-.35,2.05,0,.7-.45,1.15-.45,2a4.19,4.19,0,0,0-.55,2.05,5.45,5.45,0,0,1-.55,1.85,4.5,4.5,0,0,0-.8,2.3c-.45,1-.65,1.35-1,2.2-.45.55-.8,1.15-1.15,1.6a2.17,2.17,0,0,1-2,.7,2.68,2.68,0,0,1-2-.75,1.73,1.73,0,0,1-.9-2,3.78,3.78,0,0,1,.35-1.5,7,7,0,0,1,.9-2.05A5.74,5.74,0,0,0,2,36.8a3.43,3.43,0,0,0,.6-1.8,5.71,5.71,0,0,1,.5-1.85,4.05,4.05,0,0,0,.4-1.85,13.35,13.35,0,0,1,.55-2.9,25.57,25.57,0,0,1,.35-2.9,19.5,19.5,0,0,0,.2-2.95c0-.85,0-2,.1-3a19.14,19.14,0,0,0,0-3.41,25.72,25.72,0,0,0,0-3.4A15.61,15.61,0,0,1,5,10.29,8.48,8.48,0,0,1,6.37,8.14a6.8,6.8,0,0,1,2.7-1.25A13.81,13.81,0,0,1,12,6.64c1.05-.25,1.75.2,2.61,0a14.69,14.69,0,0,0,2.59,0,13.32,13.32,0,0,0,3.16,0A2.69,2.69,0,0,0,22.23,5a11.14,11.14,0,0,0,0-2.9c-.1-.5.5-1.2.95-1.6a2.22,2.22,0,0,1,1.9-.5,2.29,2.29,0,0,1,1.85.5c.75.4,1.1.85.95,1.6A16.94,16.94,0,0,1,27.93,5c0,.6.85,1.7,1.4,1.55,1.3-.2,1.8.15,2.45,0s1.3.15,2,0c.45.1,1.35,0,2.05,0s1.3,0,2,0a7,7,0,0,1,2,0,9.29,9.29,0,0,1,2,0c.75-.1,1.2.15,2.1,0,.8.2,1.15.3,1.5.85.15.5.75,1,.55,1.7a1.74,1.74,0,0,1-.55,1.75,1.83,1.83,0,0,1-1.5.8c-1.4,0-2.7.1-3.9,0a16.5,16.5,0,0,0-3.85,0,12.11,12.11,0,0,1-3.8,0,33,33,0,0,0-3.85,0,19.78,19.78,0,0,1-3.85,0,16.5,16.5,0,0,0-3.85,0,12.13,12.13,0,0,1-3.81,0c-1.2,0-2.59-.1-3.79,0a2.48,2.48,0,0,0-2.41.7,2.33,2.33,0,0,0-.34,1.56,6.22,6.22,0,0,0,0,2.75,8.43,8.43,0,0,0,0,2.79c.19.61-.31,1.61-.06,2.11a5.09,5.09,0,0,0-.1,2.1A19.45,19.45,0,0,0,10.32,25.9Zm5.81-.5c.79,0,1.09.4,1.84.65.36.55,1.11,1.05,1,1.7-.14.3-.14,1.5-.25,2.15a18.15,18.15,0,0,1-.75,2.8c-.2,1.1-1,1.7-1,2.7-.14.6-.5,1-.84,2a2.6,2.6,0,0,1-1.2,1.7,4.38,4.38,0,0,1-1.86.7,4.4,4.4,0,0,1-1.95-.7,1.89,1.89,0,0,1-.9-1.85,4.14,4.14,0,0,1,.35-1.35c.2-.6.7-1,.86-1.8a6.93,6.93,0,0,0,.75-1.8,12.47,12.47,0,0,1,.59-1.85c.16-.45.25-1.15.55-1.95a6.08,6.08,0,0,1,1.15-2.4A2.18,2.18,0,0,1,16.13,25.4Zm23.4,10.85a2.75,2.75,0,0,1,.8,2,16.29,16.29,0,0,1-.5,3.4,3.09,3.09,0,0,1-.75,1.55,4.58,4.58,0,0,1-1.15,1.25,5.49,5.49,0,0,1-1.85,1.1c-.75.15-1.35.7-2.1.6-1-.1-1.4.4-2.2.2a6,6,0,0,1-2.1,0c-.75-.15-1.2.25-1.95,0a3.47,3.47,0,0,1-2.25-.15,3.49,3.49,0,0,1-2.2-.5,2.26,2.26,0,0,1-1.7-1,4.07,4.07,0,0,1-.91-1.9c0-.85,0-1.2-.14-2.15a4.12,4.12,0,0,1,0-2.1c.14-.55-.2-1.3,0-2.1a7.33,7.33,0,0,1,0-2.1,3.92,3.92,0,0,0,0-2.15c-.05-.65,0-1.6,0-2.1-.2-.45,0-1.25,0-2.15a7.33,7.33,0,0,1,0-2.1,3.67,3.67,0,0,1,0-2.2,2.59,2.59,0,0,1,.9-1.65c.75-.16,1.19-.61,1.95-.61a17.68,17.68,0,0,1,1.9.56c.3.5,1.15.85,1,1.7a5.55,5.55,0,0,0,0,2.1c0,.6-.25,1.6,0,2.05s-.1,1.5,0,2a3.85,3.85,0,0,0,0,2,5.64,5.64,0,0,0,0,2.05,13.33,13.33,0,0,1,0,2,8.76,8.76,0,0,1,0,2,3,3,0,0,0,0,2c.45.5.85,1.3,1.7,1.2.75.1,1.1.35,1.55.15a5.35,5.35,0,0,0,2,0c.8.15,1.35-.3,2-.5s1-1.1,1.05-1.9a4.64,4.64,0,0,1,1-2.55c.6-.25,1-.75,1.85-.75A3.82,3.82,0,0,1,39.53,36.25ZM33.88,18.14c.25.81.8,1.31.7,1.91.1.84-.35,1.25-.9,2a3.42,3.42,0,0,1-2,.85c-.7.25-1.45-.45-2-.81s-.9-.84-1.2-1.09a1.94,1.94,0,0,0-1.05-.86,13.3,13.3,0,0,1-2-1.5c-.65-.59-1.15-1.09-1.4-1.3a1.66,1.66,0,0,1-.4-1.29c-.15-.66.35-1.21.85-2a6,6,0,0,1,1.95-.85c.5-.1,1.5.5,2.15.7a5.82,5.82,0,0,1,1.9,1.3,7,7,0,0,0,1.75,1.35A11,11,0,0,0,33.88,18.14ZM47.43,32.25c.2.8.7,1.55.5,2a3.08,3.08,0,0,1-.9,2A4.39,4.39,0,0,1,45,37a3.3,3.3,0,0,1-1.5-.45c-.25-.5-.9-.5-1-1.2a4,4,0,0,1-1.1-2.15,3.14,3.14,0,0,1-.95-1.75,3.79,3.79,0,0,1-1-1.55c-.55-.45-.6-1.15-1-1.5-.2-.55-.75-1.1-.5-1.55a2.08,2.08,0,0,1,.9-1.9,2.73,2.73,0,0,1,1.95-.8c.65-.1.9.3,1.5.44.3.11.85.81,1.1,1.06a15.35,15.35,0,0,0,1.25,1.75,9.79,9.79,0,0,0,1.55,2.4A14.33,14.33,0,0,1,47.43,32.25Z"/><path class="cls-1" d="M104.18,37.5a2.31,2.31,0,0,1-1.75.8c-.85.1-1-.3-1.75-.4A6.31,6.31,0,0,0,99,37.15c-.5-.35-1.25-.35-1.6-.7s-1.15-.45-1.55-.85c-.6-.55-.9-.5-1.5-.9-.45-.35-1.15-.4-1.45-1a12,12,0,0,0-1.4-1c-.65-.1-.75-.75-1.4-1.15a3.21,3.21,0,0,1-1.3-1.2c-.15-.3-.9-.75-1.15-1a7.56,7.56,0,0,0-3-.15,11.63,11.63,0,0,0-3,0h-3a13.36,13.36,0,0,0-3,.2,4.39,4.39,0,0,1-1.36,1c-.34.45-1,.8-1.45,1.3a10.6,10.6,0,0,1-1.55,1.3,17.76,17.76,0,0,1-1.55,1.15c-.7.45-1,.7-1.6,1.1a9.06,9.06,0,0,1-1.65,1c-.65.15-1,.65-1.65,1-.35.35-1.1.4-1.75.85a4.45,4.45,0,0,1-3,1.05c-.45-.15-1.25-.1-1.7-.7a2.44,2.44,0,0,1-.7-1.7,3,3,0,0,1,1.7-2.3,2.26,2.26,0,0,1,1.25-.6c.75-.45,1.4-.6,2.15-1s1.2-1,2.1-1.2a6.26,6.26,0,0,0,1-.7c1.35-.65,1.85-.9,2.15-1.35.11-.2-.3-.35-.9-.45a6.08,6.08,0,0,0-1.35,0,31.88,31.88,0,0,0-3.2.05c-.9.05-1.4-.15-2.2-.05a1.51,1.51,0,0,1-1.4-.7c-.4-.35-.75-1.1-.5-1.5a1.74,1.74,0,0,1,.5-1.5c.2-.3.9-.85,1.4-.7a24.12,24.12,0,0,0,3.3,0c1-.1,2.2,0,3.2,0a24.4,24.4,0,0,0,3.2,0c.9.2,3.1.15,3.45-.3.51-.75.2-1.2-.75-1.2a10.76,10.76,0,0,1-2.8-.15c-.75-.25-1.65-.06-2-.65A2,2,0,0,1,67,21.05c-.45-.5-.15-1.05-.3-1.85a21.76,21.76,0,0,1,0-2.56c0-.75-.1-1.55,0-2.59.2-.75,0-1,.2-1.61-.1-.55.5-.7.85-1.35a6.42,6.42,0,0,1,2.15-.95A21.73,21.73,0,0,1,72.38,10c1-.25,0-.8-.11-1.55.06-.3-.5-.4-1.8-.4A24.83,24.83,0,0,1,67,8a14.75,14.75,0,0,1-2.6,0,8.2,8.2,0,0,1-2.7-.05c-.6.15-1-.5-1.4-.7a3.51,3.51,0,0,1-.5-1.5,3.44,3.44,0,0,1,.5-1.5c.4-.15.85-.7,1.4-.7.8.1,2-.05,2.7,0a22.38,22.38,0,0,0,2.6,0c1-.1,1.55,0,3.25,0,.75,0,1.86-.3,1.9-1.2A2.2,2.2,0,0,1,73.08.64,4.68,4.68,0,0,1,74.83.19a4.5,4.5,0,0,1,1.75.45,2.37,2.37,0,0,1,.84,1.65,1.19,1.19,0,0,0,1.46,1.2,10.73,10.73,0,0,0,2.55,0,20,20,0,0,0,3,0c.85-.1,1-.6,1-1.2a2.61,2.61,0,0,1,.9-1.65A3.38,3.38,0,0,1,88.08.19a4.54,4.54,0,0,1,1.75.45c.25.5.8.9.85,1.65s.2,1.2,1.95,1.2c1.55,0,2.25.1,3.3,0,.8-.1,1.95,0,2.7,0a16.67,16.67,0,0,1,2.7,0,2.07,2.07,0,0,1,1.45.65c.55.3.5.85.55,1.5a1.93,1.93,0,0,1-.55,1.5,1.4,1.4,0,0,1-1.5.9,11.3,11.3,0,0,1-2.65-.15,7,7,0,0,1-2.7,0,12,12,0,0,1-3,0c-1.05,0-2.15-.1-2.45.45-.45,1.1-.75.7-.75,1.15s.4.4,2.1.45c.8,0,1.1-.05,1.55.2a5,5,0,0,1,2.25,1.1,2.72,2.72,0,0,1,.85,2.76,9,9,0,0,0,0,2.59,14.54,14.54,0,0,1,0,2.56,4,4,0,0,1-1,2.94,4.32,4.32,0,0,1-2.2.95c-.85.06-1.45.16-2.35.21a13.91,13.91,0,0,1-2.5,0c-.7.2-1.95-.15-2.55,0-.65-.21-1.85.25-2.55,0a4.63,4.63,0,0,0-2.65.2c-.71.95-.15,1.34,1.05,1.25a12.39,12.39,0,0,0,3.6-.05c.85.05,1.8.1,2.8.1a9.36,9.36,0,0,1,2.85.1,6.64,6.64,0,0,0,2.8-.15,13.64,13.64,0,0,1,2.85.05,10.47,10.47,0,0,0,2.8,0,19.29,19.29,0,0,1,3,0,3.6,3.6,0,0,1,1.4.7,1.83,1.83,0,0,1,.55,1.5,3.77,3.77,0,0,1-.4,1.6,1.2,1.2,0,0,1-1.55.6,6,6,0,0,1-2.1.05c-.8-.05-2-.05-2.5-.05-2,.05-2.75-.2-2.9.2s.4.45,1.35,1c.45.35,1.45.95,1.7.85a7.76,7.76,0,0,0,2,.9c.5.45,1.2.45,2,.8a4.25,4.25,0,0,1,1.25.45,2.4,2.4,0,0,1,1.3.85,8.11,8.11,0,0,1,.55,1.5C105.13,36.65,104.58,37.05,104.18,37.5Zm-9.8.3c.05.75-.45,1.75-.35,2.35-.35,1-.1,1.65-.55,2.4a2.52,2.52,0,0,1-.9,1.8L91.13,45.8a13.66,13.66,0,0,1-2.15.8,3.91,3.91,0,0,1-2.25.2,10.16,10.16,0,0,1-3.45-.25,9.14,9.14,0,0,1-1.4-.7,3.23,3.23,0,0,1-.6-1.55,1.89,1.89,0,0,1,.55-1.6,1.34,1.34,0,0,1,1.45-.8c1-.15,2.1.4,3,.2,1,.25,1.65-.4,2.15-1.7.8-1.6.4-2.5-.55-2.4a33.11,33.11,0,0,0-3.35-.2c-1.5,0-3,0-3.55.35s-.85,1.2-1.6,1.65c-.46.45-1.15,1.55-1.8,1.9-.8.6-1.55,1.3-2,1.7a16.85,16.85,0,0,0-2.2,1.4c-.66.2-.8.55-1.61.8a6,6,0,0,0-2.14.95c-.91.55-1.5.35-2.26.75-.85.1-1.45.3-2,.3-.8.1-1-.15-1.6-.7a2.12,2.12,0,0,1-.65-1.65,2.07,2.07,0,0,1,.55-1.5c.2-.45.55-.6,1.35-.85a15,15,0,0,0,1.6-.5,3.61,3.61,0,0,0,2.25-.8c.65-.35,1.35-.55,2.16-1.05a6,6,0,0,0,2.19-1.5c.4-.35.5-.75.2-1a5.83,5.83,0,0,0-1.89-.2,1.92,1.92,0,0,1-1.86-2c.1-1.15.45-2.05,1.61-2.15.34-.15,1.14.15,1.69-.05a6.05,6.05,0,0,0,2.31,0,4.28,4.28,0,0,0,1.75-.1c.65-.25.65-.85.9-1.4a2.13,2.13,0,0,1,1.3-1.8,2.39,2.39,0,0,1,1.4-.5,2.57,2.57,0,0,1,1.8.5c.65.05,1,1.3.65,2.15-.4,1.25.35.9,2.15,1.1,1,.1,2.55-.2,3.75,0,.8.15,1.5,0,2.5.2A5.56,5.56,0,0,1,93.73,35C94.68,35.75,94.48,36.8,94.38,37.8ZM72.27,14.14c0,.75.7.85,1.86.75.29,0,1.34,0,2.65,0a21.31,21.31,0,0,1,2.5.05,24.53,24.53,0,0,0,2.75-.1c.75-.05,1.4,0,2.25-.05.5.05,1.2.05,2.2.05.55-.09,2.3-.05,3.55-.09a.66.66,0,1,0,0-1.31,17.27,17.27,0,0,0-2.3,0c-.4-.1-1.3.15-2,0s-1.5.1-2,0c-.8-.15-1.35.15-2.1,0s-1.25.15-2,0a10.8,10.8,0,0,0-2,0,11.3,11.3,0,0,0-2.26-.1C73.08,13.34,72.33,13.34,72.27,14.14Zm9.31,5.61a5.11,5.11,0,0,0,2.1,0,5.68,5.68,0,0,0,2,0,30.17,30.17,0,0,1,3,.05c1.25,0,2.2-.05,2.2-.71-.05-.84-.8-.75-2.35-.75-.65-.09-1.55.16-2,0a8.81,8.81,0,0,0-2.6.09,20.58,20.58,0,0,1-2.4-.09,9.71,9.71,0,0,0-2.41-.05,5.89,5.89,0,0,1-2.45-.06c-.75.06-1.84,0-3,0-.89,0-1.3.36-1.39.7a.65.65,0,0,0,.5.81,8,8,0,0,0,2.59.05,6,6,0,0,1,2,0,13.41,13.41,0,0,1,2.11,0A12.72,12.72,0,0,1,81.58,19.75ZM78.48,10c.85-.1,2,0,3.2,0a9.62,9.62,0,0,1,2.7,0,5.14,5.14,0,0,0,1.5-.2c.25-.15.3-.25.15-.45-.5-.55-.3-1.25-1.3-1.35a15.54,15.54,0,0,0-2.6,0c-.5.1-2,0-3.25,0-1.1,0-1,.5-1.55,1.1S77.33,10.14,78.48,10Z"/><path class="cls-1" d="M161.43,11.64a6.36,6.36,0,0,1-.6,1.8,4.14,4.14,0,0,1-1.65.86,6.35,6.35,0,0,1-2.5,0c-1-.21-1.7.25-2.35,0a14.79,14.79,0,0,1-2.4,0c-.7.19-1.9-.16-2.45,0-.6-.21-1.75.25-2.4,0-1-.16-1.6.19-2.4,0a7.42,7.42,0,0,1-3,0,1.33,1.33,0,0,0-1.25.64,2.79,2.79,0,0,0-.65,2,5.46,5.46,0,0,0-.05,2,1.12,1.12,0,0,0,1.3.66,24.24,24.24,0,0,0,2.7,0,11.78,11.78,0,0,1,2.3,0,5.87,5.87,0,0,0,2.25,0c.9.25,2.25.09,3.2.29.65.11,1,.55,1.55.61a6.1,6.1,0,0,1,1.25,1,2.2,2.2,0,0,1,.95,2.05,3.33,3.33,0,0,1,.2,2.2c-.25,1.1,0,2.25-.2,3.45a5.46,5.46,0,0,0-.2,2,17.67,17.67,0,0,1-.3,2.1,9.7,9.7,0,0,0-.35,2.1c-.35.8-.15,1.5-.4,2-.1.75-.4,1.4-.45,1.75-.4.45-.3,1.3-.5,1.5a6.21,6.21,0,0,1-1.25,2.5,6.8,6.8,0,0,1-2.05,1.9,4,4,0,0,1-2.45.9,15,15,0,0,1-2.55.2,21.4,21.4,0,0,1-3.05-.1,4.44,4.44,0,0,1-2.95-.75,4.08,4.08,0,0,1-1.55-2.45,3.74,3.74,0,0,1,.75-2,4.13,4.13,0,0,1,1.9-.85,7.93,7.93,0,0,0,2.65.4,6.39,6.39,0,0,0,2,.15,3.32,3.32,0,0,0,2.15-.65c.75-.15.9-1.05,1.25-1.85.2-.5.3-1.45.7-2.65a11.61,11.61,0,0,1,.55-3.2,16.51,16.51,0,0,0,.35-3.2,8.78,8.78,0,0,0,.15-2.75c0-1.15-.5-1.2-1.45-1.4-.8-.15-1.9.15-2.5,0a7,7,0,0,0-2.55,0c-.85-.05-1.75-.05-3.15,0s-1.9.4-2.11,1.1a9.63,9.63,0,0,0-.75,2.15c-.19.7-.44,1-.64,1.6a5.6,5.6,0,0,1-.7,1.65,3.17,3.17,0,0,1-.8,1.55c-.25.4-.61,1.1-.86,1.55-.34.6-.79.8-.95,1.5-.3.5-.89,1.05-1.05,1.45a9.79,9.79,0,0,0-1,1.3A3.64,3.64,0,0,1,130,40a6.39,6.39,0,0,1-1.2,1.2,2.57,2.57,0,0,0-1.25,1.15c-.55.65-.85.55-1.3,1.1a4.67,4.67,0,0,0-1.35,1.05c-.5.55-.75.85-1.4.95-.4.1-1,.8-1.5.85a1.89,1.89,0,0,1-1.75.5,2,2,0,0,1-2-.85c-.75-.4-.65-1.35-.85-2a1.47,1.47,0,0,1,.45-1.5c.5-.55.7-.6,1.2-1.1a5.36,5.36,0,0,0,2.15-1.4,10,10,0,0,1,2-1.5c.8-.6,1-.95,1.9-1.7a8.4,8.4,0,0,0,1.7-1.8,17.28,17.28,0,0,0,1.75-2.25,24.45,24.45,0,0,1,1.4-2.4c.5-.9.66-1.65,1.21-2.5a17.21,17.21,0,0,0,1-2.6c.3-.75.39-1.75.75-2.7a11.83,11.83,0,0,0,.55-2.7,11.11,11.11,0,0,0,.5-3.41,3.21,3.21,0,0,0-.55-1.45,2.36,2.36,0,0,0-2.11-.59c-.89-.21-1.89.25-2.64,0a10.53,10.53,0,0,1-2.06,0,22.47,22.47,0,0,0-3.85,0,15,15,0,0,1-3.9,0c-1,0-1.1-.21-1.6-.86a2.7,2.7,0,0,1-.6-1.8,2.85,2.85,0,0,1,.6-1.75c.45-.25.7-.85,1.6-.85A15.85,15.85,0,0,1,121,9a15.41,15.41,0,0,1,2.15,0c.5.15,1.3-.1,2.15,0a6.2,6.2,0,0,1,2.15,0,7.39,7.39,0,0,0,2.1,0,7.62,7.62,0,0,1,2.15,0c.5.2,1.5-.2,2.61,0,.89-.15,1.39-1.2,1.5-2.4a6.18,6.18,0,0,1,0-2.35c-.05-.75.05-1.2.05-1.75a2.86,2.86,0,0,1,.9-1.75c.65-.2,1.1-.4,2-.6.5.25,1.5.3,1.95.6a2.11,2.11,0,0,1,.9,1.75,3,3,0,0,1,.05,1.75,9.18,9.18,0,0,0,0,2.35c-.05,1.5.3,2.5,1.55,2.4a6.85,6.85,0,0,0,2.7,0A6.47,6.47,0,0,0,148,9a16.15,16.15,0,0,0,2.2,0c.65-.1,1.55.25,2.25,0,.45-.2,1.55.2,2.2,0a8.1,8.1,0,0,0,2.2,0,7,7,0,0,1,2.3,0c.8-.1,1,.25,1.65.85A2.58,2.58,0,0,1,161.43,11.64Z"/><path class="cls-1" d="M174.67,18.55c-1-1-1.45-1.36-1.5-2.41,0-.65.15-1.59.9-1.84a3.14,3.14,0,0,1,2-.75,4.83,4.83,0,0,1,2.15.69,12.64,12.64,0,0,1,1.75,1.4c.45.3.5.61,1.05.86s.55.8,1.1,1.05a3.16,3.16,0,0,1,1.3,2.59,4.85,4.85,0,0,1-.9,2,5.82,5.82,0,0,1-2.05.86c-.95.25-1.35-.25-1.95-.91a9.6,9.6,0,0,0-1.1-1.09c-.15-.36-.75-.66-.95-.91A11.86,11.86,0,0,1,174.67,18.55Zm11.6,13.3a13.74,13.74,0,0,1-.85,2.4c-.5.8-.65,1.65-1,2.3a4.49,4.49,0,0,0-.7,1.65c-.25.4-.3,1.25-.75,1.65s-.45,1.15-1,2-.9,1.2-1.1,1.95c-.35.8-.65,1.25-1.1,1.45a4,4,0,0,1-2.25.85,5,5,0,0,1-2-.7,1.78,1.78,0,0,1-.95-1.85,2,2,0,0,1,.55-1.75,2.64,2.64,0,0,1,.8-1.3c.2-.65.7-1,.75-1.35.5-1,.85-1.55,1.35-2.65a9.66,9.66,0,0,1,1.2-2.8,13.55,13.55,0,0,0,1-2.8,3.57,3.57,0,0,1,.6-1.6c.3-.35.7-1.05,1-1.35.55-.5.85-.45,1.65-.45a2.8,2.8,0,0,1,2.11.7,3.63,3.63,0,0,1,1,1.95C186.42,30.75,186.52,31.4,186.27,31.85ZM177,4.14c-.15-.65.45-1.1.95-1.85a7.76,7.76,0,0,1,1.95-.7c.5-.1,1.45.5,2.1.75a4.64,4.64,0,0,1,1.7,1.35,20.07,20.07,0,0,0,2.11,1.9A6.14,6.14,0,0,1,187,8.14c.11.85-.35,1.25-.85,1.95a3.67,3.67,0,0,1-2,.85c-.7.25-1.45-.45-2-1-.4-.3-.75-.95-1.3-1.3-.25-.55-.9-.45-.95-1a4.57,4.57,0,0,0-1.4-1.2C177.57,5.84,176.87,5.14,177,4.14Zm42.76,20.51a6.34,6.34,0,0,1-.6,1.75,1.33,1.33,0,0,1-1.6.75,18.3,18.3,0,0,0-3.75.05,22.24,22.24,0,0,0-3.65,0c-.55.15-1.25-.1-2,0s-2.35-.15-3.55.05c-1.15,0-1.8.4-2.05.95-.2,1.05-.7,1.5-.75,1.95s-.65,1.2-.6,1.55a4.71,4.71,0,0,1-.6,1.5,9.72,9.72,0,0,0-.65,1.5,11.14,11.14,0,0,1-.65,1.5,4,4,0,0,0-.75,1.3c-.1.3-.3.6,0,1,.35.55.9.45,2.45,0,.5-.15,1.35,0,1.8-.25.65,0,1.35-.3,1.8-.25a9.67,9.67,0,0,0,2.05-.3,1,1,0,0,0,.3-1.4c-.4-.7-1.15-1.15-1.4-1.8-.5-.4-.4-1-.5-1.45a2,2,0,0,1,.85-1.8,2.59,2.59,0,0,1,1.9-.7,4.63,4.63,0,0,1,2.45,1.1,7.53,7.53,0,0,0,1.75,2c.25.3.65.75,1,1.25a3.85,3.85,0,0,0,1,1.15A2.94,2.94,0,0,0,215,37.2a10,10,0,0,0,1.15,1.5,13,13,0,0,0,1.1,1.45,15,15,0,0,1,.85,1.4,1.14,1.14,0,0,1,.3,1.3c-.25.85-.2,1.35-1,2a3,3,0,0,1-2.1.8c-.65-.15-1.05-.3-1.4-.4-.55-.2-.65-.75-1.25-1.15-.45-.55-1.1-.7-1.45-1.25a2.32,2.32,0,0,0-1.7-.5c-1.4.2-2.25.45-2.9.55-1,.25-1.55.2-2.4.45a18.48,18.48,0,0,0-2.4.4c-.95.4-2.25.15-3.05.5a9.41,9.41,0,0,1-3,.45c-.9.2-1.85.15-3.1.35-.91,0-2.16.3-3.16.3-.65-.1-1.65-.05-2.2-.7a1.81,1.81,0,0,1-.95-2.1,3,3,0,0,1,.7-1.85c.41-.6.8-.55,1.75-.85a7.93,7.93,0,0,0,2.16-.3c.59-.25.75-.6,1-.75.25-.45.36-.75.66-1.3a8,8,0,0,1,.7-1.5,4.35,4.35,0,0,0,.7-1.45,3.5,3.5,0,0,1,.65-1.5,2.69,2.69,0,0,1,.65-1.5,4.11,4.11,0,0,1,.6-1.5,13.73,13.73,0,0,1,.65-1.75c.15-.55-.4-1.05-1.15-1.1-1-.1-2,.25-2.5,0a7.69,7.69,0,0,1-2.16,0,6.49,6.49,0,0,1-2.2-.05,1.39,1.39,0,0,1-1.6-.8c-.65-.4-.45-.9-.59-1.7.14-.6.09-1.25.59-1.75s.85-.6,1.6-.81a16.25,16.25,0,0,0,2.9,0,6.49,6.49,0,0,0,2.81,0c.8.21,1.7-.2,3.45,0a1.48,1.48,0,0,0,1.75-.75,3.7,3.7,0,0,0,.3-1.89V17.8a2.5,2.5,0,0,0-.3-1.8c-.25-.51-.6-.91-1.15-.81-1.05,0-1.65.05-2.55,0a4.37,4.37,0,0,0-2.1,0c-1,.11-1.25-.14-2.16,0s-1.19-.2-1.59-.8a2.44,2.44,0,0,1-.6-1.7c.19-.55.1-1.2.6-1.75a2,2,0,0,1,1.59-.75c.66-.1,1.26,0,2.16-.05.7-.05,1.54,0,2.1,0a14,14,0,0,1,2.55,0c.45.15,1.3-.5,1.4-1.5,0-1.55-.05-2.7,0-3.6a4.28,4.28,0,0,1,0-1.95,2.57,2.57,0,0,1,.9-1.8,2.87,2.87,0,0,1,2-.65,2.35,2.35,0,0,1,1.95.65c.45.4,1.05,1.1.85,1.8a5.15,5.15,0,0,0,.05,2,13.89,13.89,0,0,0,0,2.5,2.57,2.57,0,0,0,.5,1.7c.45.6.7.4,1.1.9,1.4.1,1.8-.05,2.75,0a8.33,8.33,0,0,0,2.25,0,8.89,8.89,0,0,0,2.35.05c.9,0,1.4.25,1.6.75s.7,1.15.6,1.75,0,1.2-.6,1.7a1.87,1.87,0,0,1-1.6.8c-.75,0-1.6,0-2.35,0-1,.15-1.55-.1-2.25,0s-1.6.05-2.75,0c-.45.2-.9,0-1.3.65a2.44,2.44,0,0,0-.3,2,8.4,8.4,0,0,1,0,1.65c0,.64-.1,1.55.45,1.89.55.66,1.3.55,1.75.75a10.18,10.18,0,0,0,3.75,0,25.86,25.86,0,0,0,3.05,0c1.2.11,1.9,0,3.15,0,.8,0,1.1.41,1.6.81A2.35,2.35,0,0,1,219.78,24.65Z"/></g></g></svg>